G04 MADE WITH FRITZING*
G04 WWW.FRITZING.ORG*
G04 SINGLE SIDED*
G04 HOLES NOT PLATED*
G04 CONTOUR ON CENTER OF CONTOUR VECTOR*
%ASAXBY*%
%FSLAX23Y23*%
%MOIN*%
%OFA0B0*%
%SFA1.0B1.0*%
%ADD10C,0.069444*%
%ADD11C,0.075000*%
%ADD12C,0.080000*%
%ADD13C,0.078000*%
%ADD14R,0.080000X0.080000*%
%ADD15C,0.024000*%
%LNCOPPER0*%
G90*
G70*
G54D10*
X599Y403D03*
X599Y503D03*
X599Y603D03*
X799Y403D03*
X799Y503D03*
X799Y603D03*
X1599Y403D03*
X1599Y503D03*
X1599Y603D03*
X1399Y403D03*
X1399Y503D03*
X1399Y603D03*
X1199Y403D03*
X1199Y503D03*
X1199Y603D03*
X999Y403D03*
X999Y503D03*
X999Y603D03*
G54D11*
X399Y503D03*
X399Y103D03*
G54D12*
X199Y603D03*
X199Y503D03*
X199Y403D03*
G54D13*
X1799Y503D03*
X1799Y403D03*
X1799Y303D03*
G54D14*
X199Y603D03*
G54D15*
X1583Y503D02*
X1414Y503D01*
D02*
X1183Y503D02*
X1014Y503D01*
D02*
X614Y503D02*
X783Y503D01*
D02*
X1383Y503D02*
X1214Y503D01*
D02*
X219Y503D02*
X381Y503D01*
D02*
X416Y503D02*
X583Y503D01*
D02*
X219Y603D02*
X583Y603D01*
D02*
X1383Y603D02*
X1214Y603D01*
D02*
X210Y386D02*
X389Y118D01*
D02*
X814Y503D02*
X983Y503D01*
D02*
X814Y603D02*
X983Y603D01*
D02*
X614Y603D02*
X783Y603D01*
D02*
X1183Y603D02*
X1014Y603D01*
D02*
X1583Y603D02*
X1414Y603D01*
D02*
X1214Y403D02*
X1383Y403D01*
D02*
X814Y403D02*
X983Y403D01*
D02*
X1014Y403D02*
X1183Y403D01*
D02*
X1780Y303D02*
X599Y303D01*
D02*
X599Y303D02*
X411Y115D01*
D02*
X1799Y522D02*
X1799Y603D01*
D02*
X1799Y603D02*
X1614Y603D01*
D02*
X799Y403D02*
X799Y388D01*
D02*
X614Y403D02*
X799Y403D01*
D02*
X1599Y403D02*
X1414Y403D01*
D02*
X1599Y388D02*
X1599Y403D01*
D02*
X1799Y403D02*
X1614Y403D01*
G04 End of Copper0*
M02*