G04 MADE WITH FRITZING*
G04 WWW.FRITZING.ORG*
G04 SINGLE SIDED*
G04 HOLES NOT PLATED*
G04 CONTOUR ON CENTER OF CONTOUR VECTOR*
%ASAXBY*%
%FSLAX23Y23*%
%MOIN*%
%OFA0B0*%
%SFA1.0B1.0*%
%ADD10C,0.069444*%
%ADD11C,0.075000*%
%ADD12C,0.080000*%
%ADD13C,0.078000*%
%ADD14R,0.080000X0.080000*%
%ADD15C,0.024000*%
%LNCOPPER0*%
G90*
G70*
G54D10*
X587Y476D03*
X588Y576D03*
X587Y676D03*
X787Y476D03*
X788Y576D03*
X787Y676D03*
X1587Y476D03*
X1588Y576D03*
X1587Y676D03*
X1387Y476D03*
X1388Y576D03*
X1387Y676D03*
X1187Y476D03*
X1188Y576D03*
X1187Y676D03*
X987Y476D03*
X988Y576D03*
X987Y676D03*
G54D11*
X387Y576D03*
X387Y176D03*
G54D12*
X187Y676D03*
X187Y576D03*
X187Y476D03*
G54D13*
X1787Y576D03*
X1787Y476D03*
X1787Y376D03*
G54D14*
X187Y676D03*
G54D15*
X1572Y576D02*
X1403Y576D01*
D02*
X1172Y576D02*
X1003Y576D01*
D02*
X603Y576D02*
X772Y576D01*
D02*
X1372Y576D02*
X1203Y576D01*
D02*
X207Y576D02*
X370Y576D01*
D02*
X405Y576D02*
X572Y576D01*
D02*
X207Y676D02*
X572Y676D01*
D02*
X1372Y676D02*
X1203Y676D01*
D02*
X199Y460D02*
X378Y191D01*
D02*
X803Y576D02*
X972Y576D01*
D02*
X803Y676D02*
X972Y676D01*
D02*
X603Y676D02*
X772Y676D01*
D02*
X1172Y676D02*
X1003Y676D01*
D02*
X1572Y676D02*
X1403Y676D01*
D02*
X1203Y476D02*
X1372Y476D01*
D02*
X803Y476D02*
X972Y476D01*
D02*
X1003Y476D02*
X1172Y476D01*
D02*
X1769Y374D02*
X405Y179D01*
D02*
X1770Y585D02*
X1601Y669D01*
D02*
X787Y476D02*
X787Y461D01*
D02*
X603Y476D02*
X787Y476D01*
D02*
X1587Y476D02*
X1403Y476D01*
D02*
X1587Y461D02*
X1587Y476D01*
D02*
X1787Y476D02*
X1603Y476D01*
G04 End of Copper0*
M02*