G04 MADE WITH FRITZING*
G04 WWW.FRITZING.ORG*
G04 SINGLE SIDED*
G04 HOLES NOT PLATED*
G04 CONTOUR ON CENTER OF CONTOUR VECTOR*
%ASAXBY*%
%FSLAX23Y23*%
%MOIN*%
%OFA0B0*%
%SFA1.0B1.0*%
%ADD10R,1.967470X0.984252X1.951470X0.968252*%
%ADD11C,0.008000*%
%ADD12C,0.010000*%
%ADD13C,0.005000*%
%ADD14R,0.001000X0.001000*%
%LNSILK1*%
G90*
G70*
G54D11*
X4Y980D02*
X1963Y980D01*
X1963Y4D01*
X4Y4D01*
X4Y980D01*
D02*
G54D12*
X387Y539D02*
X387Y467D01*
D02*
X387Y267D02*
X387Y214D01*
D02*
X420Y467D02*
X420Y267D01*
D02*
X420Y267D02*
X354Y267D01*
D02*
X354Y267D02*
X354Y467D01*
D02*
X354Y467D02*
X420Y467D01*
D02*
X1737Y626D02*
X1737Y326D01*
D02*
X1737Y326D02*
X1837Y326D01*
D02*
X1837Y326D02*
X1837Y626D01*
D02*
X1837Y626D02*
X1737Y626D01*
G54D13*
D02*
X1737Y591D02*
X1772Y626D01*
G54D12*
D02*
X99Y731D02*
X99Y421D01*
D02*
X99Y421D02*
X315Y421D01*
D02*
X315Y421D02*
X315Y731D01*
D02*
X315Y731D02*
X99Y731D01*
G54D13*
D02*
X275Y421D02*
X275Y731D01*
G54D14*
X187Y820D02*
X189Y820D01*
X213Y820D02*
X231Y820D01*
X186Y819D02*
X190Y819D01*
X212Y819D02*
X231Y819D01*
X185Y818D02*
X191Y818D01*
X211Y818D02*
X231Y818D01*
X185Y817D02*
X191Y817D01*
X211Y817D02*
X231Y817D01*
X185Y816D02*
X191Y816D01*
X211Y816D02*
X231Y816D01*
X185Y815D02*
X191Y815D01*
X212Y815D02*
X231Y815D01*
X185Y814D02*
X191Y814D01*
X213Y814D02*
X231Y814D01*
X185Y813D02*
X191Y813D01*
X225Y813D02*
X231Y813D01*
X185Y812D02*
X191Y812D01*
X225Y812D02*
X231Y812D01*
X185Y811D02*
X191Y811D01*
X225Y811D02*
X231Y811D01*
X185Y810D02*
X191Y810D01*
X225Y810D02*
X231Y810D01*
X185Y809D02*
X191Y809D01*
X225Y809D02*
X231Y809D01*
X185Y808D02*
X191Y808D01*
X225Y808D02*
X231Y808D01*
X185Y807D02*
X191Y807D01*
X225Y807D02*
X231Y807D01*
X185Y806D02*
X191Y806D01*
X225Y806D02*
X231Y806D01*
X185Y805D02*
X191Y805D01*
X225Y805D02*
X231Y805D01*
X185Y804D02*
X191Y804D01*
X225Y804D02*
X231Y804D01*
X185Y803D02*
X191Y803D01*
X225Y803D02*
X231Y803D01*
X185Y802D02*
X191Y802D01*
X225Y802D02*
X231Y802D01*
X185Y801D02*
X191Y801D01*
X225Y801D02*
X231Y801D01*
X185Y800D02*
X191Y800D01*
X225Y800D02*
X231Y800D01*
X185Y799D02*
X191Y799D01*
X225Y799D02*
X231Y799D01*
X185Y798D02*
X191Y798D01*
X225Y798D02*
X231Y798D01*
X185Y797D02*
X191Y797D01*
X225Y797D02*
X231Y797D01*
X185Y796D02*
X191Y796D01*
X225Y796D02*
X231Y796D01*
X185Y795D02*
X191Y795D01*
X225Y795D02*
X231Y795D01*
X185Y794D02*
X191Y794D01*
X225Y794D02*
X231Y794D01*
X185Y793D02*
X191Y793D01*
X225Y793D02*
X231Y793D01*
X918Y793D02*
X936Y793D01*
X972Y793D02*
X995Y793D01*
X1019Y793D02*
X1047Y793D01*
X185Y792D02*
X191Y792D01*
X225Y792D02*
X231Y792D01*
X525Y792D02*
X543Y792D01*
X578Y792D02*
X602Y792D01*
X626Y792D02*
X644Y792D01*
X734Y792D02*
X752Y792D01*
X787Y792D02*
X811Y792D01*
X834Y792D02*
X863Y792D01*
X918Y792D02*
X938Y792D01*
X970Y792D02*
X997Y792D01*
X1018Y792D02*
X1048Y792D01*
X185Y791D02*
X191Y791D01*
X225Y791D02*
X231Y791D01*
X524Y791D02*
X545Y791D01*
X577Y791D02*
X604Y791D01*
X625Y791D02*
X644Y791D01*
X733Y791D02*
X754Y791D01*
X786Y791D02*
X813Y791D01*
X834Y791D02*
X864Y791D01*
X917Y791D02*
X939Y791D01*
X969Y791D02*
X998Y791D01*
X1017Y791D02*
X1049Y791D01*
X1321Y791D02*
X1336Y791D01*
X1375Y791D02*
X1395Y791D01*
X1426Y791D02*
X1450Y791D01*
X1522Y791D02*
X1537Y791D01*
X1576Y791D02*
X1596Y791D01*
X1622Y791D02*
X1627Y791D01*
X166Y790D02*
X169Y790D01*
X185Y790D02*
X191Y790D01*
X225Y790D02*
X231Y790D01*
X240Y790D02*
X243Y790D01*
X524Y790D02*
X547Y790D01*
X576Y790D02*
X605Y790D01*
X625Y790D02*
X644Y790D01*
X733Y790D02*
X755Y790D01*
X785Y790D02*
X814Y790D01*
X833Y790D02*
X865Y790D01*
X917Y790D02*
X940Y790D01*
X968Y790D02*
X999Y790D01*
X1017Y790D02*
X1050Y790D01*
X1126Y790D02*
X1142Y790D01*
X1180Y790D02*
X1201Y790D01*
X1229Y790D02*
X1230Y790D01*
X1320Y790D02*
X1339Y790D01*
X1373Y790D02*
X1398Y790D01*
X1426Y790D02*
X1452Y790D01*
X1520Y790D02*
X1540Y790D01*
X1573Y790D02*
X1598Y790D01*
X1621Y790D02*
X1628Y790D01*
X165Y789D02*
X170Y789D01*
X185Y789D02*
X191Y789D01*
X225Y789D02*
X231Y789D01*
X239Y789D02*
X244Y789D01*
X524Y789D02*
X548Y789D01*
X575Y789D02*
X606Y789D01*
X625Y789D02*
X644Y789D01*
X733Y789D02*
X756Y789D01*
X784Y789D02*
X815Y789D01*
X833Y789D02*
X866Y789D01*
X917Y789D02*
X941Y789D01*
X968Y789D02*
X999Y789D01*
X1018Y789D02*
X1051Y789D01*
X1125Y789D02*
X1144Y789D01*
X1178Y789D02*
X1203Y789D01*
X1227Y789D02*
X1231Y789D01*
X1319Y789D02*
X1340Y789D01*
X1371Y789D02*
X1399Y789D01*
X1426Y789D02*
X1452Y789D01*
X1520Y789D02*
X1541Y789D01*
X1572Y789D02*
X1600Y789D01*
X1620Y789D02*
X1629Y789D01*
X164Y788D02*
X170Y788D01*
X185Y788D02*
X191Y788D01*
X225Y788D02*
X231Y788D01*
X239Y788D02*
X245Y788D01*
X524Y788D02*
X548Y788D01*
X575Y788D02*
X607Y788D01*
X625Y788D02*
X644Y788D01*
X733Y788D02*
X757Y788D01*
X784Y788D02*
X815Y788D01*
X833Y788D02*
X866Y788D01*
X918Y788D02*
X942Y788D01*
X967Y788D02*
X1000Y788D01*
X1018Y788D02*
X1051Y788D01*
X1125Y788D02*
X1146Y788D01*
X1177Y788D02*
X1205Y788D01*
X1227Y788D02*
X1232Y788D01*
X1319Y788D02*
X1341Y788D01*
X1370Y788D02*
X1400Y788D01*
X1426Y788D02*
X1453Y788D01*
X1520Y788D02*
X1542Y788D01*
X1571Y788D02*
X1601Y788D01*
X1620Y788D02*
X1629Y788D01*
X164Y787D02*
X170Y787D01*
X185Y787D02*
X191Y787D01*
X225Y787D02*
X231Y787D01*
X239Y787D02*
X245Y787D01*
X525Y787D02*
X549Y787D01*
X574Y787D02*
X607Y787D01*
X625Y787D02*
X644Y787D01*
X734Y787D02*
X757Y787D01*
X783Y787D02*
X816Y787D01*
X834Y787D02*
X867Y787D01*
X919Y787D02*
X942Y787D01*
X967Y787D02*
X1000Y787D01*
X1020Y787D02*
X1051Y787D01*
X1124Y787D02*
X1147Y787D01*
X1176Y787D02*
X1206Y787D01*
X1226Y787D02*
X1232Y787D01*
X1319Y787D02*
X1342Y787D01*
X1370Y787D02*
X1401Y787D01*
X1426Y787D02*
X1452Y787D01*
X1520Y787D02*
X1543Y787D01*
X1571Y787D02*
X1602Y787D01*
X1620Y787D02*
X1629Y787D01*
X164Y786D02*
X170Y786D01*
X185Y786D02*
X191Y786D01*
X225Y786D02*
X231Y786D01*
X239Y786D02*
X245Y786D01*
X527Y786D02*
X549Y786D01*
X574Y786D02*
X607Y786D01*
X627Y786D02*
X644Y786D01*
X735Y786D02*
X758Y786D01*
X783Y786D02*
X816Y786D01*
X836Y786D02*
X867Y786D01*
X924Y786D02*
X930Y786D01*
X935Y786D02*
X943Y786D01*
X967Y786D02*
X973Y786D01*
X994Y786D02*
X1001Y786D01*
X1045Y786D02*
X1051Y786D01*
X1124Y786D02*
X1148Y786D01*
X1175Y786D02*
X1206Y786D01*
X1226Y786D02*
X1232Y786D01*
X1319Y786D02*
X1343Y786D01*
X1369Y786D02*
X1401Y786D01*
X1426Y786D02*
X1452Y786D01*
X1520Y786D02*
X1544Y786D01*
X1570Y786D02*
X1602Y786D01*
X1620Y786D02*
X1629Y786D01*
X164Y785D02*
X170Y785D01*
X185Y785D02*
X191Y785D01*
X225Y785D02*
X231Y785D01*
X239Y785D02*
X245Y785D01*
X531Y785D02*
X537Y785D01*
X543Y785D02*
X550Y785D01*
X574Y785D02*
X580Y785D01*
X601Y785D02*
X608Y785D01*
X638Y785D02*
X644Y785D01*
X740Y785D02*
X746Y785D01*
X751Y785D02*
X758Y785D01*
X783Y785D02*
X789Y785D01*
X810Y785D02*
X816Y785D01*
X861Y785D02*
X867Y785D01*
X924Y785D02*
X930Y785D01*
X936Y785D02*
X943Y785D01*
X967Y785D02*
X974Y785D01*
X995Y785D02*
X1001Y785D01*
X1045Y785D02*
X1051Y785D01*
X1125Y785D02*
X1149Y785D01*
X1175Y785D02*
X1207Y785D01*
X1226Y785D02*
X1232Y785D01*
X1320Y785D02*
X1344Y785D01*
X1369Y785D02*
X1402Y785D01*
X1426Y785D02*
X1451Y785D01*
X1521Y785D02*
X1545Y785D01*
X1570Y785D02*
X1603Y785D01*
X1620Y785D02*
X1628Y785D01*
X164Y784D02*
X170Y784D01*
X185Y784D02*
X191Y784D01*
X225Y784D02*
X231Y784D01*
X239Y784D02*
X245Y784D01*
X531Y784D02*
X537Y784D01*
X543Y784D02*
X550Y784D01*
X574Y784D02*
X581Y784D01*
X602Y784D02*
X608Y784D01*
X638Y784D02*
X644Y784D01*
X740Y784D02*
X746Y784D01*
X752Y784D02*
X759Y784D01*
X783Y784D02*
X789Y784D01*
X810Y784D02*
X816Y784D01*
X861Y784D02*
X867Y784D01*
X924Y784D02*
X930Y784D01*
X937Y784D02*
X944Y784D01*
X967Y784D02*
X974Y784D01*
X995Y784D02*
X1001Y784D01*
X1045Y784D02*
X1051Y784D01*
X1126Y784D02*
X1149Y784D01*
X1175Y784D02*
X1207Y784D01*
X1226Y784D02*
X1232Y784D01*
X1249Y784D02*
X1251Y784D01*
X1325Y784D02*
X1332Y784D01*
X1336Y784D02*
X1344Y784D01*
X1369Y784D02*
X1375Y784D01*
X1395Y784D02*
X1402Y784D01*
X1426Y784D02*
X1432Y784D01*
X1526Y784D02*
X1533Y784D01*
X1537Y784D02*
X1545Y784D01*
X1570Y784D02*
X1576Y784D01*
X1596Y784D02*
X1603Y784D01*
X1620Y784D02*
X1626Y784D01*
X164Y783D02*
X170Y783D01*
X185Y783D02*
X191Y783D01*
X225Y783D02*
X231Y783D01*
X239Y783D02*
X245Y783D01*
X531Y783D02*
X537Y783D01*
X544Y783D02*
X551Y783D01*
X575Y783D02*
X582Y783D01*
X602Y783D02*
X608Y783D01*
X638Y783D02*
X644Y783D01*
X740Y783D02*
X746Y783D01*
X753Y783D02*
X759Y783D01*
X783Y783D02*
X790Y783D01*
X811Y783D02*
X816Y783D01*
X861Y783D02*
X867Y783D01*
X924Y783D02*
X930Y783D01*
X937Y783D02*
X944Y783D01*
X968Y783D02*
X975Y783D01*
X995Y783D02*
X1000Y783D01*
X1045Y783D02*
X1051Y783D01*
X1131Y783D02*
X1137Y783D01*
X1142Y783D02*
X1150Y783D01*
X1175Y783D02*
X1181Y783D01*
X1201Y783D02*
X1208Y783D01*
X1226Y783D02*
X1232Y783D01*
X1248Y783D02*
X1252Y783D01*
X1326Y783D02*
X1332Y783D01*
X1338Y783D02*
X1345Y783D01*
X1369Y783D02*
X1375Y783D01*
X1396Y783D02*
X1402Y783D01*
X1426Y783D02*
X1432Y783D01*
X1526Y783D02*
X1532Y783D01*
X1538Y783D02*
X1546Y783D01*
X1570Y783D02*
X1576Y783D01*
X1597Y783D02*
X1603Y783D01*
X1620Y783D02*
X1626Y783D01*
X164Y782D02*
X170Y782D01*
X185Y782D02*
X191Y782D01*
X225Y782D02*
X231Y782D01*
X239Y782D02*
X245Y782D01*
X531Y782D02*
X537Y782D01*
X544Y782D02*
X551Y782D01*
X575Y782D02*
X582Y782D01*
X602Y782D02*
X607Y782D01*
X638Y782D02*
X644Y782D01*
X740Y782D02*
X746Y782D01*
X753Y782D02*
X760Y782D01*
X784Y782D02*
X791Y782D01*
X811Y782D02*
X816Y782D01*
X861Y782D02*
X867Y782D01*
X924Y782D02*
X930Y782D01*
X938Y782D02*
X945Y782D01*
X968Y782D02*
X976Y782D01*
X996Y782D02*
X1000Y782D01*
X1045Y782D02*
X1051Y782D01*
X1131Y782D02*
X1137Y782D01*
X1143Y782D02*
X1150Y782D01*
X1175Y782D02*
X1181Y782D01*
X1202Y782D02*
X1208Y782D01*
X1226Y782D02*
X1232Y782D01*
X1247Y782D02*
X1253Y782D01*
X1326Y782D02*
X1332Y782D01*
X1338Y782D02*
X1345Y782D01*
X1369Y782D02*
X1376Y782D01*
X1396Y782D02*
X1402Y782D01*
X1426Y782D02*
X1432Y782D01*
X1526Y782D02*
X1532Y782D01*
X1539Y782D02*
X1546Y782D01*
X1570Y782D02*
X1577Y782D01*
X1597Y782D02*
X1603Y782D01*
X1620Y782D02*
X1626Y782D01*
X164Y781D02*
X170Y781D01*
X185Y781D02*
X191Y781D01*
X225Y781D02*
X231Y781D01*
X239Y781D02*
X245Y781D01*
X531Y781D02*
X537Y781D01*
X545Y781D02*
X552Y781D01*
X575Y781D02*
X583Y781D01*
X603Y781D02*
X607Y781D01*
X638Y781D02*
X644Y781D01*
X740Y781D02*
X746Y781D01*
X754Y781D02*
X760Y781D01*
X784Y781D02*
X792Y781D01*
X812Y781D02*
X815Y781D01*
X861Y781D02*
X867Y781D01*
X924Y781D02*
X930Y781D01*
X938Y781D02*
X945Y781D01*
X969Y781D02*
X977Y781D01*
X997Y781D02*
X998Y781D01*
X1045Y781D02*
X1051Y781D01*
X1131Y781D02*
X1137Y781D01*
X1144Y781D02*
X1151Y781D01*
X1175Y781D02*
X1181Y781D01*
X1202Y781D02*
X1208Y781D01*
X1226Y781D02*
X1232Y781D01*
X1247Y781D02*
X1253Y781D01*
X1326Y781D02*
X1332Y781D01*
X1339Y781D02*
X1346Y781D01*
X1369Y781D02*
X1376Y781D01*
X1397Y781D02*
X1402Y781D01*
X1426Y781D02*
X1432Y781D01*
X1526Y781D02*
X1532Y781D01*
X1540Y781D02*
X1547Y781D01*
X1570Y781D02*
X1577Y781D01*
X1597Y781D02*
X1603Y781D01*
X1620Y781D02*
X1626Y781D01*
X164Y780D02*
X170Y780D01*
X185Y780D02*
X191Y780D01*
X225Y780D02*
X231Y780D01*
X239Y780D02*
X245Y780D01*
X531Y780D02*
X537Y780D01*
X545Y780D02*
X552Y780D01*
X576Y780D02*
X584Y780D01*
X638Y780D02*
X644Y780D01*
X740Y780D02*
X746Y780D01*
X754Y780D02*
X761Y780D01*
X785Y780D02*
X793Y780D01*
X813Y780D02*
X814Y780D01*
X861Y780D02*
X867Y780D01*
X924Y780D02*
X930Y780D01*
X939Y780D02*
X946Y780D01*
X969Y780D02*
X977Y780D01*
X1045Y780D02*
X1051Y780D01*
X1131Y780D02*
X1137Y780D01*
X1144Y780D02*
X1151Y780D01*
X1175Y780D02*
X1182Y780D01*
X1202Y780D02*
X1208Y780D01*
X1226Y780D02*
X1232Y780D01*
X1247Y780D02*
X1253Y780D01*
X1326Y780D02*
X1332Y780D01*
X1339Y780D02*
X1346Y780D01*
X1370Y780D02*
X1377Y780D01*
X1397Y780D02*
X1402Y780D01*
X1426Y780D02*
X1432Y780D01*
X1526Y780D02*
X1532Y780D01*
X1540Y780D02*
X1547Y780D01*
X1571Y780D02*
X1578Y780D01*
X1598Y780D02*
X1603Y780D01*
X1620Y780D02*
X1626Y780D01*
X164Y779D02*
X170Y779D01*
X185Y779D02*
X191Y779D01*
X225Y779D02*
X231Y779D01*
X239Y779D02*
X245Y779D01*
X531Y779D02*
X537Y779D01*
X546Y779D02*
X553Y779D01*
X577Y779D02*
X585Y779D01*
X638Y779D02*
X644Y779D01*
X740Y779D02*
X746Y779D01*
X755Y779D02*
X761Y779D01*
X785Y779D02*
X793Y779D01*
X861Y779D02*
X867Y779D01*
X924Y779D02*
X930Y779D01*
X939Y779D02*
X946Y779D01*
X970Y779D02*
X978Y779D01*
X1045Y779D02*
X1051Y779D01*
X1131Y779D02*
X1137Y779D01*
X1145Y779D02*
X1152Y779D01*
X1175Y779D02*
X1183Y779D01*
X1203Y779D02*
X1207Y779D01*
X1226Y779D02*
X1232Y779D01*
X1247Y779D02*
X1253Y779D01*
X1326Y779D02*
X1332Y779D01*
X1340Y779D02*
X1347Y779D01*
X1370Y779D02*
X1378Y779D01*
X1398Y779D02*
X1401Y779D01*
X1426Y779D02*
X1432Y779D01*
X1526Y779D02*
X1532Y779D01*
X1541Y779D02*
X1548Y779D01*
X1571Y779D02*
X1579Y779D01*
X1599Y779D02*
X1602Y779D01*
X1620Y779D02*
X1626Y779D01*
X164Y778D02*
X170Y778D01*
X185Y778D02*
X191Y778D01*
X225Y778D02*
X231Y778D01*
X239Y778D02*
X245Y778D01*
X531Y778D02*
X537Y778D01*
X547Y778D02*
X553Y778D01*
X578Y778D02*
X585Y778D01*
X638Y778D02*
X644Y778D01*
X740Y778D02*
X746Y778D01*
X755Y778D02*
X762Y778D01*
X786Y778D02*
X794Y778D01*
X861Y778D02*
X867Y778D01*
X924Y778D02*
X930Y778D01*
X940Y778D02*
X947Y778D01*
X971Y778D02*
X979Y778D01*
X1045Y778D02*
X1051Y778D01*
X1131Y778D02*
X1137Y778D01*
X1145Y778D02*
X1152Y778D01*
X1176Y778D02*
X1184Y778D01*
X1204Y778D02*
X1206Y778D01*
X1226Y778D02*
X1232Y778D01*
X1247Y778D02*
X1253Y778D01*
X1326Y778D02*
X1332Y778D01*
X1340Y778D02*
X1347Y778D01*
X1371Y778D02*
X1379Y778D01*
X1426Y778D02*
X1432Y778D01*
X1526Y778D02*
X1532Y778D01*
X1541Y778D02*
X1548Y778D01*
X1572Y778D02*
X1580Y778D01*
X1620Y778D02*
X1626Y778D01*
X164Y777D02*
X170Y777D01*
X185Y777D02*
X191Y777D01*
X225Y777D02*
X231Y777D01*
X239Y777D02*
X245Y777D01*
X531Y777D02*
X537Y777D01*
X547Y777D02*
X554Y777D01*
X578Y777D02*
X586Y777D01*
X638Y777D02*
X644Y777D01*
X740Y777D02*
X746Y777D01*
X756Y777D02*
X763Y777D01*
X787Y777D02*
X795Y777D01*
X861Y777D02*
X867Y777D01*
X924Y777D02*
X930Y777D01*
X940Y777D02*
X947Y777D01*
X972Y777D02*
X980Y777D01*
X1045Y777D02*
X1051Y777D01*
X1131Y777D02*
X1137Y777D01*
X1146Y777D02*
X1153Y777D01*
X1176Y777D02*
X1184Y777D01*
X1226Y777D02*
X1232Y777D01*
X1247Y777D02*
X1253Y777D01*
X1326Y777D02*
X1332Y777D01*
X1341Y777D02*
X1348Y777D01*
X1372Y777D02*
X1380Y777D01*
X1426Y777D02*
X1432Y777D01*
X1526Y777D02*
X1532Y777D01*
X1542Y777D02*
X1549Y777D01*
X1572Y777D02*
X1580Y777D01*
X1620Y777D02*
X1626Y777D01*
X164Y776D02*
X170Y776D01*
X185Y776D02*
X191Y776D01*
X225Y776D02*
X231Y776D01*
X239Y776D02*
X245Y776D01*
X531Y776D02*
X537Y776D01*
X548Y776D02*
X554Y776D01*
X579Y776D02*
X587Y776D01*
X638Y776D02*
X644Y776D01*
X740Y776D02*
X746Y776D01*
X756Y776D02*
X763Y776D01*
X788Y776D02*
X796Y776D01*
X861Y776D02*
X867Y776D01*
X924Y776D02*
X930Y776D01*
X941Y776D02*
X948Y776D01*
X973Y776D02*
X981Y776D01*
X1045Y776D02*
X1051Y776D01*
X1131Y776D02*
X1137Y776D01*
X1146Y776D02*
X1153Y776D01*
X1177Y776D02*
X1185Y776D01*
X1226Y776D02*
X1232Y776D01*
X1247Y776D02*
X1253Y776D01*
X1326Y776D02*
X1332Y776D01*
X1341Y776D02*
X1348Y776D01*
X1372Y776D02*
X1380Y776D01*
X1426Y776D02*
X1432Y776D01*
X1526Y776D02*
X1532Y776D01*
X1542Y776D02*
X1549Y776D01*
X1573Y776D02*
X1581Y776D01*
X1620Y776D02*
X1626Y776D01*
X164Y775D02*
X171Y775D01*
X185Y775D02*
X191Y775D01*
X225Y775D02*
X231Y775D01*
X239Y775D02*
X245Y775D01*
X531Y775D02*
X537Y775D01*
X548Y775D02*
X555Y775D01*
X580Y775D02*
X588Y775D01*
X638Y775D02*
X644Y775D01*
X740Y775D02*
X746Y775D01*
X757Y775D02*
X764Y775D01*
X788Y775D02*
X796Y775D01*
X861Y775D02*
X867Y775D01*
X924Y775D02*
X930Y775D01*
X941Y775D02*
X948Y775D01*
X973Y775D02*
X981Y775D01*
X1045Y775D02*
X1051Y775D01*
X1131Y775D02*
X1137Y775D01*
X1147Y775D02*
X1154Y775D01*
X1178Y775D02*
X1186Y775D01*
X1226Y775D02*
X1232Y775D01*
X1247Y775D02*
X1253Y775D01*
X1326Y775D02*
X1332Y775D01*
X1342Y775D02*
X1349Y775D01*
X1373Y775D02*
X1381Y775D01*
X1426Y775D02*
X1432Y775D01*
X1526Y775D02*
X1532Y775D01*
X1543Y775D02*
X1550Y775D01*
X1574Y775D02*
X1582Y775D01*
X1620Y775D02*
X1626Y775D01*
X165Y774D02*
X172Y774D01*
X184Y774D02*
X191Y774D01*
X225Y774D02*
X231Y774D01*
X239Y774D02*
X245Y774D01*
X531Y774D02*
X537Y774D01*
X549Y774D02*
X555Y774D01*
X581Y774D02*
X589Y774D01*
X638Y774D02*
X644Y774D01*
X740Y774D02*
X746Y774D01*
X757Y774D02*
X764Y774D01*
X789Y774D02*
X797Y774D01*
X861Y774D02*
X867Y774D01*
X924Y774D02*
X930Y774D01*
X942Y774D02*
X949Y774D01*
X974Y774D02*
X982Y774D01*
X1045Y774D02*
X1051Y774D01*
X1131Y774D02*
X1137Y774D01*
X1147Y774D02*
X1154Y774D01*
X1179Y774D02*
X1187Y774D01*
X1226Y774D02*
X1232Y774D01*
X1247Y774D02*
X1253Y774D01*
X1326Y774D02*
X1332Y774D01*
X1342Y774D02*
X1349Y774D01*
X1374Y774D02*
X1382Y774D01*
X1426Y774D02*
X1432Y774D01*
X1526Y774D02*
X1532Y774D01*
X1543Y774D02*
X1550Y774D01*
X1575Y774D02*
X1583Y774D01*
X1620Y774D02*
X1626Y774D01*
X165Y773D02*
X190Y773D01*
X214Y773D02*
X245Y773D01*
X531Y773D02*
X537Y773D01*
X549Y773D02*
X556Y773D01*
X581Y773D02*
X589Y773D01*
X638Y773D02*
X644Y773D01*
X740Y773D02*
X746Y773D01*
X758Y773D02*
X765Y773D01*
X790Y773D02*
X798Y773D01*
X861Y773D02*
X867Y773D01*
X924Y773D02*
X930Y773D01*
X942Y773D02*
X949Y773D01*
X975Y773D02*
X983Y773D01*
X1045Y773D02*
X1051Y773D01*
X1131Y773D02*
X1137Y773D01*
X1148Y773D02*
X1155Y773D01*
X1180Y773D02*
X1188Y773D01*
X1226Y773D02*
X1232Y773D01*
X1247Y773D02*
X1253Y773D01*
X1326Y773D02*
X1332Y773D01*
X1343Y773D02*
X1350Y773D01*
X1375Y773D02*
X1383Y773D01*
X1426Y773D02*
X1432Y773D01*
X1526Y773D02*
X1532Y773D01*
X1544Y773D02*
X1551Y773D01*
X1576Y773D02*
X1584Y773D01*
X1620Y773D02*
X1626Y773D01*
X165Y772D02*
X190Y772D01*
X212Y772D02*
X245Y772D01*
X531Y772D02*
X537Y772D01*
X550Y772D02*
X556Y772D01*
X582Y772D02*
X590Y772D01*
X638Y772D02*
X644Y772D01*
X740Y772D02*
X746Y772D01*
X758Y772D02*
X765Y772D01*
X791Y772D02*
X799Y772D01*
X861Y772D02*
X867Y772D01*
X924Y772D02*
X930Y772D01*
X943Y772D02*
X949Y772D01*
X976Y772D02*
X984Y772D01*
X1044Y772D02*
X1051Y772D01*
X1131Y772D02*
X1137Y772D01*
X1148Y772D02*
X1155Y772D01*
X1180Y772D02*
X1188Y772D01*
X1226Y772D02*
X1232Y772D01*
X1247Y772D02*
X1253Y772D01*
X1326Y772D02*
X1332Y772D01*
X1343Y772D02*
X1350Y772D01*
X1375Y772D02*
X1383Y772D01*
X1426Y772D02*
X1432Y772D01*
X1526Y772D02*
X1532Y772D01*
X1544Y772D02*
X1551Y772D01*
X1576Y772D02*
X1584Y772D01*
X1620Y772D02*
X1626Y772D01*
X166Y771D02*
X189Y771D01*
X211Y771D02*
X245Y771D01*
X531Y771D02*
X537Y771D01*
X550Y771D02*
X557Y771D01*
X583Y771D02*
X591Y771D01*
X638Y771D02*
X644Y771D01*
X740Y771D02*
X746Y771D01*
X759Y771D02*
X765Y771D01*
X792Y771D02*
X800Y771D01*
X861Y771D02*
X867Y771D01*
X924Y771D02*
X930Y771D01*
X943Y771D02*
X950Y771D01*
X976Y771D02*
X984Y771D01*
X1043Y771D02*
X1051Y771D01*
X1131Y771D02*
X1137Y771D01*
X1149Y771D02*
X1156Y771D01*
X1181Y771D02*
X1189Y771D01*
X1226Y771D02*
X1232Y771D01*
X1247Y771D02*
X1253Y771D01*
X1326Y771D02*
X1332Y771D01*
X1344Y771D02*
X1351Y771D01*
X1376Y771D02*
X1384Y771D01*
X1426Y771D02*
X1432Y771D01*
X1526Y771D02*
X1532Y771D01*
X1545Y771D02*
X1551Y771D01*
X1577Y771D02*
X1585Y771D01*
X1620Y771D02*
X1626Y771D01*
X167Y770D02*
X189Y770D01*
X211Y770D02*
X245Y770D01*
X531Y770D02*
X537Y770D01*
X551Y770D02*
X557Y770D01*
X584Y770D02*
X592Y770D01*
X638Y770D02*
X644Y770D01*
X740Y770D02*
X746Y770D01*
X759Y770D02*
X766Y770D01*
X792Y770D02*
X800Y770D01*
X861Y770D02*
X867Y770D01*
X924Y770D02*
X930Y770D01*
X944Y770D02*
X950Y770D01*
X977Y770D02*
X985Y770D01*
X1027Y770D02*
X1050Y770D01*
X1131Y770D02*
X1137Y770D01*
X1149Y770D02*
X1156Y770D01*
X1182Y770D02*
X1190Y770D01*
X1226Y770D02*
X1232Y770D01*
X1247Y770D02*
X1253Y770D01*
X1326Y770D02*
X1332Y770D01*
X1344Y770D02*
X1351Y770D01*
X1377Y770D02*
X1385Y770D01*
X1426Y770D02*
X1432Y770D01*
X1526Y770D02*
X1532Y770D01*
X1545Y770D02*
X1552Y770D01*
X1578Y770D02*
X1586Y770D01*
X1620Y770D02*
X1626Y770D01*
X168Y769D02*
X188Y769D01*
X211Y769D02*
X245Y769D01*
X531Y769D02*
X537Y769D01*
X551Y769D02*
X557Y769D01*
X584Y769D02*
X592Y769D01*
X638Y769D02*
X644Y769D01*
X740Y769D02*
X746Y769D01*
X760Y769D02*
X766Y769D01*
X793Y769D02*
X801Y769D01*
X839Y769D02*
X867Y769D01*
X924Y769D02*
X930Y769D01*
X944Y769D02*
X950Y769D01*
X978Y769D02*
X986Y769D01*
X1025Y769D02*
X1050Y769D01*
X1131Y769D02*
X1137Y769D01*
X1150Y769D02*
X1157Y769D01*
X1183Y769D02*
X1191Y769D01*
X1226Y769D02*
X1232Y769D01*
X1247Y769D02*
X1253Y769D01*
X1326Y769D02*
X1332Y769D01*
X1345Y769D02*
X1351Y769D01*
X1378Y769D02*
X1386Y769D01*
X1426Y769D02*
X1432Y769D01*
X1526Y769D02*
X1532Y769D01*
X1546Y769D02*
X1552Y769D01*
X1579Y769D02*
X1587Y769D01*
X1620Y769D02*
X1626Y769D01*
X169Y768D02*
X186Y768D01*
X212Y768D02*
X244Y768D01*
X531Y768D02*
X537Y768D01*
X551Y768D02*
X557Y768D01*
X585Y768D02*
X593Y768D01*
X638Y768D02*
X644Y768D01*
X740Y768D02*
X746Y768D01*
X760Y768D02*
X766Y768D01*
X794Y768D02*
X802Y768D01*
X836Y768D02*
X867Y768D01*
X924Y768D02*
X930Y768D01*
X944Y768D02*
X950Y768D01*
X979Y768D02*
X987Y768D01*
X1025Y768D02*
X1049Y768D01*
X1131Y768D02*
X1137Y768D01*
X1150Y768D02*
X1157Y768D01*
X1183Y768D02*
X1191Y768D01*
X1226Y768D02*
X1232Y768D01*
X1247Y768D02*
X1253Y768D01*
X1326Y768D02*
X1332Y768D01*
X1345Y768D02*
X1352Y768D01*
X1379Y768D02*
X1387Y768D01*
X1426Y768D02*
X1432Y768D01*
X1526Y768D02*
X1532Y768D01*
X1546Y768D02*
X1553Y768D01*
X1579Y768D02*
X1587Y768D01*
X1620Y768D02*
X1626Y768D01*
X171Y767D02*
X185Y767D01*
X212Y767D02*
X243Y767D01*
X531Y767D02*
X537Y767D01*
X551Y767D02*
X558Y767D01*
X586Y767D02*
X594Y767D01*
X638Y767D02*
X644Y767D01*
X740Y767D02*
X746Y767D01*
X760Y767D02*
X766Y767D01*
X795Y767D02*
X803Y767D01*
X835Y767D02*
X866Y767D01*
X924Y767D02*
X930Y767D01*
X944Y767D02*
X951Y767D01*
X980Y767D02*
X988Y767D01*
X1024Y767D02*
X1048Y767D01*
X1131Y767D02*
X1137Y767D01*
X1151Y767D02*
X1157Y767D01*
X1184Y767D02*
X1192Y767D01*
X1226Y767D02*
X1232Y767D01*
X1247Y767D02*
X1253Y767D01*
X1326Y767D02*
X1332Y767D01*
X1346Y767D02*
X1352Y767D01*
X1379Y767D02*
X1387Y767D01*
X1426Y767D02*
X1448Y767D01*
X1526Y767D02*
X1532Y767D01*
X1547Y767D02*
X1553Y767D01*
X1580Y767D02*
X1588Y767D01*
X1620Y767D02*
X1626Y767D01*
X531Y766D02*
X537Y766D01*
X552Y766D02*
X558Y766D01*
X587Y766D02*
X595Y766D01*
X638Y766D02*
X644Y766D01*
X740Y766D02*
X746Y766D01*
X760Y766D02*
X766Y766D01*
X795Y766D02*
X803Y766D01*
X834Y766D02*
X866Y766D01*
X924Y766D02*
X930Y766D01*
X944Y766D02*
X950Y766D01*
X980Y766D02*
X988Y766D01*
X1024Y766D02*
X1049Y766D01*
X1131Y766D02*
X1137Y766D01*
X1151Y766D02*
X1158Y766D01*
X1185Y766D02*
X1193Y766D01*
X1226Y766D02*
X1232Y766D01*
X1247Y766D02*
X1253Y766D01*
X1326Y766D02*
X1332Y766D01*
X1346Y766D02*
X1352Y766D01*
X1380Y766D02*
X1388Y766D01*
X1426Y766D02*
X1450Y766D01*
X1526Y766D02*
X1532Y766D01*
X1547Y766D02*
X1553Y766D01*
X1581Y766D02*
X1589Y766D01*
X1620Y766D02*
X1626Y766D01*
X531Y765D02*
X537Y765D01*
X551Y765D02*
X558Y765D01*
X588Y765D02*
X596Y765D01*
X638Y765D02*
X644Y765D01*
X740Y765D02*
X746Y765D01*
X760Y765D02*
X766Y765D01*
X796Y765D02*
X804Y765D01*
X834Y765D02*
X865Y765D01*
X924Y765D02*
X930Y765D01*
X944Y765D02*
X950Y765D01*
X981Y765D02*
X989Y765D01*
X1025Y765D02*
X1049Y765D01*
X1131Y765D02*
X1137Y765D01*
X1152Y765D02*
X1158Y765D01*
X1186Y765D02*
X1194Y765D01*
X1226Y765D02*
X1232Y765D01*
X1247Y765D02*
X1253Y765D01*
X1326Y765D02*
X1332Y765D01*
X1346Y765D02*
X1352Y765D01*
X1381Y765D02*
X1389Y765D01*
X1426Y765D02*
X1451Y765D01*
X1526Y765D02*
X1532Y765D01*
X1547Y765D02*
X1553Y765D01*
X1582Y765D02*
X1590Y765D01*
X1620Y765D02*
X1626Y765D01*
X531Y764D02*
X537Y764D01*
X551Y764D02*
X557Y764D01*
X588Y764D02*
X596Y764D01*
X638Y764D02*
X644Y764D01*
X740Y764D02*
X746Y764D01*
X760Y764D02*
X766Y764D01*
X797Y764D02*
X805Y764D01*
X833Y764D02*
X864Y764D01*
X924Y764D02*
X930Y764D01*
X944Y764D02*
X950Y764D01*
X982Y764D02*
X990Y764D01*
X1026Y764D02*
X1050Y764D01*
X1131Y764D02*
X1137Y764D01*
X1152Y764D02*
X1158Y764D01*
X1187Y764D02*
X1195Y764D01*
X1226Y764D02*
X1232Y764D01*
X1247Y764D02*
X1253Y764D01*
X1326Y764D02*
X1332Y764D01*
X1346Y764D02*
X1352Y764D01*
X1382Y764D02*
X1390Y764D01*
X1426Y764D02*
X1452Y764D01*
X1526Y764D02*
X1532Y764D01*
X1547Y764D02*
X1553Y764D01*
X1583Y764D02*
X1591Y764D01*
X1620Y764D02*
X1626Y764D01*
X531Y763D02*
X537Y763D01*
X551Y763D02*
X557Y763D01*
X589Y763D02*
X597Y763D01*
X638Y763D02*
X644Y763D01*
X654Y763D02*
X656Y763D01*
X740Y763D02*
X746Y763D01*
X760Y763D02*
X766Y763D01*
X798Y763D02*
X806Y763D01*
X833Y763D02*
X863Y763D01*
X924Y763D02*
X930Y763D01*
X944Y763D02*
X950Y763D01*
X983Y763D02*
X991Y763D01*
X1042Y763D02*
X1050Y763D01*
X1131Y763D02*
X1137Y763D01*
X1152Y763D02*
X1158Y763D01*
X1187Y763D02*
X1195Y763D01*
X1226Y763D02*
X1232Y763D01*
X1247Y763D02*
X1253Y763D01*
X1326Y763D02*
X1332Y763D01*
X1346Y763D02*
X1352Y763D01*
X1382Y763D02*
X1390Y763D01*
X1426Y763D02*
X1452Y763D01*
X1526Y763D02*
X1532Y763D01*
X1547Y763D02*
X1553Y763D01*
X1583Y763D02*
X1591Y763D01*
X1620Y763D02*
X1626Y763D01*
X531Y762D02*
X537Y762D01*
X551Y762D02*
X557Y762D01*
X590Y762D02*
X598Y762D01*
X638Y762D02*
X644Y762D01*
X653Y762D02*
X657Y762D01*
X740Y762D02*
X746Y762D01*
X759Y762D02*
X766Y762D01*
X799Y762D02*
X807Y762D01*
X833Y762D02*
X839Y762D01*
X924Y762D02*
X930Y762D01*
X943Y762D02*
X950Y762D01*
X983Y762D02*
X991Y762D01*
X1044Y762D02*
X1051Y762D01*
X1131Y762D02*
X1137Y762D01*
X1152Y762D02*
X1158Y762D01*
X1188Y762D02*
X1196Y762D01*
X1226Y762D02*
X1232Y762D01*
X1247Y762D02*
X1253Y762D01*
X1326Y762D02*
X1332Y762D01*
X1346Y762D02*
X1352Y762D01*
X1383Y762D02*
X1391Y762D01*
X1426Y762D02*
X1452Y762D01*
X1526Y762D02*
X1532Y762D01*
X1547Y762D02*
X1553Y762D01*
X1584Y762D02*
X1592Y762D01*
X1620Y762D02*
X1626Y762D01*
X531Y761D02*
X537Y761D01*
X550Y761D02*
X557Y761D01*
X591Y761D02*
X599Y761D01*
X638Y761D02*
X644Y761D01*
X652Y761D02*
X658Y761D01*
X740Y761D02*
X746Y761D01*
X759Y761D02*
X765Y761D01*
X799Y761D02*
X807Y761D01*
X833Y761D02*
X839Y761D01*
X924Y761D02*
X930Y761D01*
X943Y761D02*
X949Y761D01*
X984Y761D02*
X992Y761D01*
X1045Y761D02*
X1051Y761D01*
X1131Y761D02*
X1137Y761D01*
X1151Y761D02*
X1158Y761D01*
X1189Y761D02*
X1197Y761D01*
X1226Y761D02*
X1233Y761D01*
X1247Y761D02*
X1253Y761D01*
X1326Y761D02*
X1332Y761D01*
X1346Y761D02*
X1352Y761D01*
X1384Y761D02*
X1392Y761D01*
X1426Y761D02*
X1453Y761D01*
X1526Y761D02*
X1532Y761D01*
X1546Y761D02*
X1553Y761D01*
X1585Y761D02*
X1593Y761D01*
X1620Y761D02*
X1652Y761D01*
X531Y760D02*
X537Y760D01*
X550Y760D02*
X556Y760D01*
X591Y760D02*
X600Y760D01*
X638Y760D02*
X644Y760D01*
X652Y760D02*
X658Y760D01*
X740Y760D02*
X746Y760D01*
X758Y760D02*
X765Y760D01*
X800Y760D02*
X808Y760D01*
X833Y760D02*
X839Y760D01*
X924Y760D02*
X930Y760D01*
X942Y760D02*
X949Y760D01*
X985Y760D02*
X993Y760D01*
X1045Y760D02*
X1051Y760D01*
X1131Y760D02*
X1137Y760D01*
X1151Y760D02*
X1157Y760D01*
X1190Y760D02*
X1198Y760D01*
X1226Y760D02*
X1255Y760D01*
X1326Y760D02*
X1332Y760D01*
X1345Y760D02*
X1352Y760D01*
X1385Y760D02*
X1393Y760D01*
X1447Y760D02*
X1453Y760D01*
X1526Y760D02*
X1532Y760D01*
X1546Y760D02*
X1552Y760D01*
X1586Y760D02*
X1594Y760D01*
X1620Y760D02*
X1653Y760D01*
X531Y759D02*
X537Y759D01*
X549Y759D02*
X556Y759D01*
X592Y759D02*
X600Y759D01*
X638Y759D02*
X644Y759D01*
X652Y759D02*
X658Y759D01*
X740Y759D02*
X746Y759D01*
X758Y759D02*
X765Y759D01*
X801Y759D02*
X809Y759D01*
X833Y759D02*
X839Y759D01*
X924Y759D02*
X930Y759D01*
X942Y759D02*
X949Y759D01*
X986Y759D02*
X994Y759D01*
X1045Y759D02*
X1051Y759D01*
X1131Y759D02*
X1137Y759D01*
X1151Y759D02*
X1157Y759D01*
X1190Y759D02*
X1198Y759D01*
X1226Y759D02*
X1256Y759D01*
X1326Y759D02*
X1332Y759D01*
X1345Y759D02*
X1351Y759D01*
X1386Y759D02*
X1394Y759D01*
X1447Y759D02*
X1453Y759D01*
X1526Y759D02*
X1532Y759D01*
X1546Y759D02*
X1552Y759D01*
X1586Y759D02*
X1594Y759D01*
X1620Y759D02*
X1653Y759D01*
X531Y758D02*
X537Y758D01*
X549Y758D02*
X556Y758D01*
X593Y758D02*
X601Y758D01*
X638Y758D02*
X644Y758D01*
X652Y758D02*
X658Y758D01*
X740Y758D02*
X746Y758D01*
X757Y758D02*
X764Y758D01*
X802Y758D02*
X810Y758D01*
X833Y758D02*
X839Y758D01*
X924Y758D02*
X930Y758D01*
X941Y758D02*
X948Y758D01*
X987Y758D02*
X995Y758D01*
X1045Y758D02*
X1051Y758D01*
X1131Y758D02*
X1137Y758D01*
X1150Y758D02*
X1157Y758D01*
X1191Y758D02*
X1199Y758D01*
X1226Y758D02*
X1256Y758D01*
X1326Y758D02*
X1332Y758D01*
X1344Y758D02*
X1351Y758D01*
X1386Y758D02*
X1394Y758D01*
X1447Y758D02*
X1453Y758D01*
X1526Y758D02*
X1532Y758D01*
X1545Y758D02*
X1552Y758D01*
X1587Y758D02*
X1595Y758D01*
X1620Y758D02*
X1654Y758D01*
X531Y757D02*
X537Y757D01*
X548Y757D02*
X555Y757D01*
X594Y757D02*
X602Y757D01*
X638Y757D02*
X644Y757D01*
X652Y757D02*
X658Y757D01*
X740Y757D02*
X746Y757D01*
X757Y757D02*
X764Y757D01*
X802Y757D02*
X810Y757D01*
X833Y757D02*
X839Y757D01*
X924Y757D02*
X930Y757D01*
X941Y757D02*
X948Y757D01*
X987Y757D02*
X995Y757D01*
X1045Y757D02*
X1051Y757D01*
X1131Y757D02*
X1137Y757D01*
X1150Y757D02*
X1156Y757D01*
X1192Y757D02*
X1200Y757D01*
X1226Y757D02*
X1256Y757D01*
X1326Y757D02*
X1332Y757D01*
X1344Y757D02*
X1350Y757D01*
X1387Y757D02*
X1395Y757D01*
X1447Y757D02*
X1453Y757D01*
X1526Y757D02*
X1532Y757D01*
X1545Y757D02*
X1551Y757D01*
X1588Y757D02*
X1596Y757D01*
X1620Y757D02*
X1654Y757D01*
X531Y756D02*
X537Y756D01*
X548Y756D02*
X555Y756D01*
X595Y756D02*
X603Y756D01*
X638Y756D02*
X644Y756D01*
X652Y756D02*
X658Y756D01*
X740Y756D02*
X746Y756D01*
X756Y756D02*
X763Y756D01*
X803Y756D02*
X811Y756D01*
X833Y756D02*
X839Y756D01*
X924Y756D02*
X930Y756D01*
X940Y756D02*
X947Y756D01*
X988Y756D02*
X996Y756D01*
X1045Y756D02*
X1051Y756D01*
X1131Y756D02*
X1137Y756D01*
X1149Y756D02*
X1156Y756D01*
X1193Y756D02*
X1201Y756D01*
X1226Y756D02*
X1256Y756D01*
X1326Y756D02*
X1332Y756D01*
X1343Y756D02*
X1350Y756D01*
X1388Y756D02*
X1396Y756D01*
X1447Y756D02*
X1453Y756D01*
X1526Y756D02*
X1532Y756D01*
X1544Y756D02*
X1551Y756D01*
X1589Y756D02*
X1597Y756D01*
X1620Y756D02*
X1654Y756D01*
X531Y755D02*
X537Y755D01*
X547Y755D02*
X554Y755D01*
X595Y755D02*
X603Y755D01*
X638Y755D02*
X644Y755D01*
X652Y755D02*
X658Y755D01*
X740Y755D02*
X746Y755D01*
X756Y755D02*
X763Y755D01*
X804Y755D02*
X812Y755D01*
X833Y755D02*
X839Y755D01*
X924Y755D02*
X930Y755D01*
X940Y755D02*
X947Y755D01*
X989Y755D02*
X997Y755D01*
X1045Y755D02*
X1051Y755D01*
X1131Y755D02*
X1137Y755D01*
X1149Y755D02*
X1156Y755D01*
X1194Y755D02*
X1202Y755D01*
X1226Y755D02*
X1256Y755D01*
X1326Y755D02*
X1332Y755D01*
X1343Y755D02*
X1350Y755D01*
X1389Y755D02*
X1397Y755D01*
X1447Y755D02*
X1453Y755D01*
X1526Y755D02*
X1532Y755D01*
X1544Y755D02*
X1550Y755D01*
X1590Y755D02*
X1598Y755D01*
X1620Y755D02*
X1654Y755D01*
X531Y754D02*
X537Y754D01*
X547Y754D02*
X554Y754D01*
X596Y754D02*
X604Y754D01*
X638Y754D02*
X644Y754D01*
X652Y754D02*
X658Y754D01*
X740Y754D02*
X746Y754D01*
X755Y754D02*
X762Y754D01*
X805Y754D02*
X813Y754D01*
X833Y754D02*
X839Y754D01*
X924Y754D02*
X930Y754D01*
X939Y754D02*
X946Y754D01*
X990Y754D02*
X998Y754D01*
X1045Y754D02*
X1051Y754D01*
X1131Y754D02*
X1137Y754D01*
X1148Y754D02*
X1155Y754D01*
X1194Y754D02*
X1202Y754D01*
X1227Y754D02*
X1254Y754D01*
X1326Y754D02*
X1332Y754D01*
X1342Y754D02*
X1349Y754D01*
X1389Y754D02*
X1397Y754D01*
X1447Y754D02*
X1453Y754D01*
X1526Y754D02*
X1532Y754D01*
X1543Y754D02*
X1550Y754D01*
X1590Y754D02*
X1598Y754D01*
X1620Y754D02*
X1626Y754D01*
X1647Y754D02*
X1654Y754D01*
X531Y753D02*
X537Y753D01*
X546Y753D02*
X553Y753D01*
X597Y753D02*
X605Y753D01*
X638Y753D02*
X644Y753D01*
X652Y753D02*
X658Y753D01*
X740Y753D02*
X746Y753D01*
X755Y753D02*
X762Y753D01*
X805Y753D02*
X814Y753D01*
X833Y753D02*
X839Y753D01*
X924Y753D02*
X930Y753D01*
X939Y753D02*
X946Y753D01*
X990Y753D02*
X999Y753D01*
X1045Y753D02*
X1051Y753D01*
X1131Y753D02*
X1137Y753D01*
X1148Y753D02*
X1155Y753D01*
X1195Y753D02*
X1203Y753D01*
X1247Y753D02*
X1253Y753D01*
X1326Y753D02*
X1332Y753D01*
X1342Y753D02*
X1349Y753D01*
X1390Y753D02*
X1398Y753D01*
X1447Y753D02*
X1453Y753D01*
X1526Y753D02*
X1532Y753D01*
X1543Y753D02*
X1549Y753D01*
X1591Y753D02*
X1599Y753D01*
X1620Y753D02*
X1626Y753D01*
X1647Y753D02*
X1654Y753D01*
X531Y752D02*
X537Y752D01*
X546Y752D02*
X553Y752D01*
X598Y752D02*
X606Y752D01*
X638Y752D02*
X644Y752D01*
X652Y752D02*
X658Y752D01*
X740Y752D02*
X746Y752D01*
X754Y752D02*
X761Y752D01*
X806Y752D02*
X814Y752D01*
X833Y752D02*
X839Y752D01*
X924Y752D02*
X930Y752D01*
X938Y752D02*
X945Y752D01*
X969Y752D02*
X971Y752D01*
X991Y752D02*
X999Y752D01*
X1045Y752D02*
X1051Y752D01*
X1131Y752D02*
X1137Y752D01*
X1147Y752D02*
X1154Y752D01*
X1196Y752D02*
X1204Y752D01*
X1247Y752D02*
X1253Y752D01*
X1326Y752D02*
X1332Y752D01*
X1341Y752D02*
X1348Y752D01*
X1391Y752D02*
X1399Y752D01*
X1447Y752D02*
X1453Y752D01*
X1526Y752D02*
X1532Y752D01*
X1542Y752D02*
X1549Y752D01*
X1592Y752D02*
X1600Y752D01*
X1620Y752D02*
X1626Y752D01*
X1647Y752D02*
X1654Y752D01*
X531Y751D02*
X537Y751D01*
X545Y751D02*
X552Y751D01*
X576Y751D02*
X579Y751D01*
X598Y751D02*
X606Y751D01*
X638Y751D02*
X644Y751D01*
X652Y751D02*
X658Y751D01*
X740Y751D02*
X746Y751D01*
X754Y751D02*
X761Y751D01*
X785Y751D02*
X787Y751D01*
X807Y751D02*
X815Y751D01*
X833Y751D02*
X839Y751D01*
X924Y751D02*
X930Y751D01*
X938Y751D02*
X945Y751D01*
X968Y751D02*
X972Y751D01*
X992Y751D02*
X1000Y751D01*
X1045Y751D02*
X1051Y751D01*
X1131Y751D02*
X1137Y751D01*
X1147Y751D02*
X1154Y751D01*
X1197Y751D02*
X1205Y751D01*
X1247Y751D02*
X1253Y751D01*
X1326Y751D02*
X1332Y751D01*
X1341Y751D02*
X1348Y751D01*
X1392Y751D02*
X1400Y751D01*
X1447Y751D02*
X1453Y751D01*
X1526Y751D02*
X1532Y751D01*
X1542Y751D02*
X1548Y751D01*
X1593Y751D02*
X1601Y751D01*
X1620Y751D02*
X1626Y751D01*
X1647Y751D02*
X1654Y751D01*
X531Y750D02*
X537Y750D01*
X545Y750D02*
X552Y750D01*
X575Y750D02*
X580Y750D01*
X599Y750D02*
X607Y750D01*
X638Y750D02*
X644Y750D01*
X652Y750D02*
X658Y750D01*
X740Y750D02*
X746Y750D01*
X753Y750D02*
X760Y750D01*
X784Y750D02*
X788Y750D01*
X808Y750D02*
X816Y750D01*
X833Y750D02*
X839Y750D01*
X924Y750D02*
X930Y750D01*
X937Y750D02*
X944Y750D01*
X967Y750D02*
X973Y750D01*
X993Y750D02*
X1000Y750D01*
X1045Y750D02*
X1051Y750D01*
X1131Y750D02*
X1137Y750D01*
X1146Y750D02*
X1153Y750D01*
X1197Y750D02*
X1205Y750D01*
X1247Y750D02*
X1253Y750D01*
X1326Y750D02*
X1332Y750D01*
X1340Y750D02*
X1347Y750D01*
X1393Y750D02*
X1401Y750D01*
X1447Y750D02*
X1453Y750D01*
X1526Y750D02*
X1532Y750D01*
X1541Y750D02*
X1548Y750D01*
X1593Y750D02*
X1601Y750D01*
X1620Y750D02*
X1626Y750D01*
X1647Y750D02*
X1654Y750D01*
X531Y749D02*
X537Y749D01*
X544Y749D02*
X551Y749D01*
X574Y749D02*
X580Y749D01*
X600Y749D02*
X607Y749D01*
X638Y749D02*
X644Y749D01*
X652Y749D02*
X658Y749D01*
X740Y749D02*
X746Y749D01*
X753Y749D02*
X760Y749D01*
X783Y749D02*
X789Y749D01*
X809Y749D02*
X816Y749D01*
X833Y749D02*
X839Y749D01*
X924Y749D02*
X930Y749D01*
X937Y749D02*
X944Y749D01*
X967Y749D02*
X973Y749D01*
X994Y749D02*
X1001Y749D01*
X1045Y749D02*
X1051Y749D01*
X1131Y749D02*
X1137Y749D01*
X1146Y749D02*
X1153Y749D01*
X1198Y749D02*
X1206Y749D01*
X1247Y749D02*
X1253Y749D01*
X1326Y749D02*
X1332Y749D01*
X1340Y749D02*
X1347Y749D01*
X1370Y749D02*
X1374Y749D01*
X1393Y749D02*
X1401Y749D01*
X1447Y749D02*
X1453Y749D01*
X1526Y749D02*
X1532Y749D01*
X1541Y749D02*
X1547Y749D01*
X1571Y749D02*
X1575Y749D01*
X1594Y749D02*
X1602Y749D01*
X1620Y749D02*
X1626Y749D01*
X1647Y749D02*
X1654Y749D01*
X531Y748D02*
X537Y748D01*
X544Y748D02*
X551Y748D01*
X574Y748D02*
X580Y748D01*
X601Y748D02*
X608Y748D01*
X638Y748D02*
X644Y748D01*
X652Y748D02*
X658Y748D01*
X740Y748D02*
X746Y748D01*
X752Y748D02*
X759Y748D01*
X783Y748D02*
X789Y748D01*
X809Y748D02*
X816Y748D01*
X833Y748D02*
X839Y748D01*
X924Y748D02*
X930Y748D01*
X936Y748D02*
X943Y748D01*
X967Y748D02*
X973Y748D01*
X994Y748D02*
X1001Y748D01*
X1045Y748D02*
X1051Y748D01*
X1131Y748D02*
X1137Y748D01*
X1145Y748D02*
X1152Y748D01*
X1176Y748D02*
X1179Y748D01*
X1199Y748D02*
X1207Y748D01*
X1247Y748D02*
X1253Y748D01*
X1326Y748D02*
X1332Y748D01*
X1339Y748D02*
X1346Y748D01*
X1369Y748D02*
X1374Y748D01*
X1394Y748D02*
X1402Y748D01*
X1447Y748D02*
X1453Y748D01*
X1526Y748D02*
X1532Y748D01*
X1540Y748D02*
X1547Y748D01*
X1570Y748D02*
X1575Y748D01*
X1595Y748D02*
X1603Y748D01*
X1620Y748D02*
X1626Y748D01*
X1647Y748D02*
X1654Y748D01*
X531Y747D02*
X537Y747D01*
X543Y747D02*
X550Y747D01*
X574Y747D02*
X581Y747D01*
X602Y747D02*
X608Y747D01*
X638Y747D02*
X644Y747D01*
X652Y747D02*
X658Y747D01*
X740Y747D02*
X746Y747D01*
X752Y747D02*
X759Y747D01*
X783Y747D02*
X789Y747D01*
X810Y747D02*
X816Y747D01*
X833Y747D02*
X839Y747D01*
X924Y747D02*
X930Y747D01*
X935Y747D02*
X943Y747D01*
X967Y747D02*
X974Y747D01*
X994Y747D02*
X1001Y747D01*
X1045Y747D02*
X1051Y747D01*
X1131Y747D02*
X1137Y747D01*
X1145Y747D02*
X1152Y747D01*
X1175Y747D02*
X1180Y747D01*
X1200Y747D02*
X1207Y747D01*
X1247Y747D02*
X1253Y747D01*
X1326Y747D02*
X1332Y747D01*
X1339Y747D02*
X1346Y747D01*
X1369Y747D02*
X1375Y747D01*
X1395Y747D02*
X1402Y747D01*
X1447Y747D02*
X1453Y747D01*
X1526Y747D02*
X1532Y747D01*
X1539Y747D02*
X1546Y747D01*
X1570Y747D02*
X1576Y747D01*
X1596Y747D02*
X1603Y747D01*
X1620Y747D02*
X1626Y747D01*
X1647Y747D02*
X1654Y747D01*
X531Y746D02*
X537Y746D01*
X542Y746D02*
X550Y746D01*
X575Y746D02*
X582Y746D01*
X601Y746D02*
X608Y746D01*
X638Y746D02*
X644Y746D01*
X652Y746D02*
X658Y746D01*
X740Y746D02*
X746Y746D01*
X751Y746D02*
X758Y746D01*
X783Y746D02*
X790Y746D01*
X810Y746D02*
X816Y746D01*
X833Y746D02*
X839Y746D01*
X919Y746D02*
X942Y746D01*
X968Y746D02*
X1001Y746D01*
X1019Y746D02*
X1051Y746D01*
X1131Y746D02*
X1137Y746D01*
X1144Y746D02*
X1151Y746D01*
X1175Y746D02*
X1180Y746D01*
X1200Y746D02*
X1208Y746D01*
X1247Y746D02*
X1253Y746D01*
X1326Y746D02*
X1332Y746D01*
X1338Y746D02*
X1345Y746D01*
X1369Y746D02*
X1375Y746D01*
X1396Y746D02*
X1402Y746D01*
X1420Y746D02*
X1425Y746D01*
X1447Y746D02*
X1453Y746D01*
X1526Y746D02*
X1532Y746D01*
X1539Y746D02*
X1546Y746D01*
X1570Y746D02*
X1576Y746D01*
X1597Y746D02*
X1603Y746D01*
X1620Y746D02*
X1626Y746D01*
X1647Y746D02*
X1654Y746D01*
X525Y745D02*
X549Y745D01*
X575Y745D02*
X608Y745D01*
X626Y745D02*
X658Y745D01*
X734Y745D02*
X758Y745D01*
X783Y745D02*
X816Y745D01*
X833Y745D02*
X865Y745D01*
X918Y745D02*
X942Y745D01*
X968Y745D02*
X1000Y745D01*
X1018Y745D02*
X1051Y745D01*
X1131Y745D02*
X1137Y745D01*
X1144Y745D02*
X1151Y745D01*
X1175Y745D02*
X1181Y745D01*
X1201Y745D02*
X1208Y745D01*
X1247Y745D02*
X1253Y745D01*
X1326Y745D02*
X1332Y745D01*
X1337Y745D02*
X1345Y745D01*
X1369Y745D02*
X1375Y745D01*
X1396Y745D02*
X1402Y745D01*
X1419Y745D02*
X1427Y745D01*
X1447Y745D02*
X1453Y745D01*
X1526Y745D02*
X1532Y745D01*
X1538Y745D02*
X1545Y745D01*
X1570Y745D02*
X1576Y745D01*
X1597Y745D02*
X1603Y745D01*
X1620Y745D02*
X1626Y745D01*
X1647Y745D02*
X1654Y745D01*
X525Y744D02*
X549Y744D01*
X575Y744D02*
X607Y744D01*
X625Y744D02*
X658Y744D01*
X733Y744D02*
X757Y744D01*
X784Y744D02*
X816Y744D01*
X833Y744D02*
X866Y744D01*
X917Y744D02*
X941Y744D01*
X969Y744D02*
X1000Y744D01*
X1018Y744D02*
X1050Y744D01*
X1131Y744D02*
X1137Y744D01*
X1143Y744D02*
X1150Y744D01*
X1175Y744D02*
X1181Y744D01*
X1202Y744D02*
X1208Y744D01*
X1247Y744D02*
X1253Y744D01*
X1322Y744D02*
X1344Y744D01*
X1369Y744D02*
X1402Y744D01*
X1419Y744D02*
X1453Y744D01*
X1523Y744D02*
X1545Y744D01*
X1570Y744D02*
X1603Y744D01*
X1620Y744D02*
X1654Y744D01*
X524Y743D02*
X548Y743D01*
X576Y743D02*
X607Y743D01*
X625Y743D02*
X658Y743D01*
X733Y743D02*
X757Y743D01*
X784Y743D02*
X816Y743D01*
X833Y743D02*
X867Y743D01*
X917Y743D02*
X940Y743D01*
X969Y743D02*
X999Y743D01*
X1017Y743D02*
X1050Y743D01*
X1127Y743D02*
X1150Y743D01*
X1175Y743D02*
X1208Y743D01*
X1247Y743D02*
X1253Y743D01*
X1320Y743D02*
X1344Y743D01*
X1370Y743D02*
X1402Y743D01*
X1419Y743D02*
X1453Y743D01*
X1521Y743D02*
X1544Y743D01*
X1570Y743D02*
X1603Y743D01*
X1620Y743D02*
X1654Y743D01*
X524Y742D02*
X547Y742D01*
X577Y742D02*
X606Y742D01*
X624Y742D02*
X658Y742D01*
X733Y742D02*
X756Y742D01*
X785Y742D02*
X815Y742D01*
X833Y742D02*
X867Y742D01*
X917Y742D02*
X939Y742D01*
X970Y742D02*
X998Y742D01*
X1018Y742D02*
X1049Y742D01*
X1125Y742D02*
X1149Y742D01*
X1175Y742D02*
X1208Y742D01*
X1247Y742D02*
X1253Y742D01*
X1319Y742D02*
X1343Y742D01*
X1370Y742D02*
X1402Y742D01*
X1419Y742D02*
X1452Y742D01*
X1520Y742D02*
X1544Y742D01*
X1571Y742D02*
X1603Y742D01*
X1620Y742D02*
X1654Y742D01*
X524Y741D02*
X546Y741D01*
X578Y741D02*
X605Y741D01*
X625Y741D02*
X658Y741D01*
X733Y741D02*
X755Y741D01*
X786Y741D02*
X814Y741D01*
X833Y741D02*
X866Y741D01*
X918Y741D02*
X938Y741D01*
X972Y741D02*
X997Y741D01*
X1018Y741D02*
X1048Y741D01*
X1125Y741D02*
X1149Y741D01*
X1176Y741D02*
X1207Y741D01*
X1247Y741D02*
X1253Y741D01*
X1319Y741D02*
X1342Y741D01*
X1371Y741D02*
X1401Y741D01*
X1420Y741D02*
X1452Y741D01*
X1520Y741D02*
X1543Y741D01*
X1572Y741D02*
X1602Y741D01*
X1620Y741D02*
X1654Y741D01*
X525Y740D02*
X544Y740D01*
X579Y740D02*
X604Y740D01*
X625Y740D02*
X657Y740D01*
X734Y740D02*
X753Y740D01*
X788Y740D02*
X813Y740D01*
X833Y740D02*
X866Y740D01*
X919Y740D02*
X935Y740D01*
X974Y740D02*
X995Y740D01*
X1019Y740D02*
X1046Y740D01*
X1124Y740D02*
X1148Y740D01*
X1176Y740D02*
X1207Y740D01*
X1247Y740D02*
X1253Y740D01*
X1319Y740D02*
X1341Y740D01*
X1372Y740D02*
X1401Y740D01*
X1422Y740D02*
X1451Y740D01*
X1520Y740D02*
X1542Y740D01*
X1572Y740D02*
X1601Y740D01*
X1620Y740D02*
X1653Y740D01*
X526Y739D02*
X541Y739D01*
X582Y739D02*
X602Y739D01*
X627Y739D02*
X656Y739D01*
X735Y739D02*
X751Y739D01*
X790Y739D02*
X811Y739D01*
X833Y739D02*
X865Y739D01*
X1124Y739D02*
X1147Y739D01*
X1177Y739D02*
X1206Y739D01*
X1247Y739D02*
X1253Y739D01*
X1319Y739D02*
X1340Y739D01*
X1373Y739D02*
X1400Y739D01*
X1424Y739D02*
X1450Y739D01*
X1520Y739D02*
X1541Y739D01*
X1574Y739D02*
X1600Y739D01*
X1620Y739D02*
X1653Y739D01*
X1125Y738D02*
X1146Y738D01*
X1178Y738D02*
X1205Y738D01*
X1247Y738D02*
X1253Y738D01*
X1320Y738D02*
X1338Y738D01*
X1374Y738D02*
X1398Y738D01*
X1426Y738D02*
X1449Y738D01*
X1521Y738D02*
X1539Y738D01*
X1575Y738D02*
X1599Y738D01*
X1621Y738D02*
X1652Y738D01*
X1126Y737D02*
X1144Y737D01*
X1180Y737D02*
X1204Y737D01*
X1248Y737D02*
X1252Y737D01*
X1775Y720D02*
X1778Y720D01*
X1801Y720D02*
X1829Y720D01*
X1774Y719D02*
X1779Y719D01*
X1800Y719D02*
X1831Y719D01*
X1773Y718D02*
X1779Y718D01*
X1800Y718D02*
X1832Y718D01*
X1773Y717D02*
X1779Y717D01*
X1799Y717D02*
X1832Y717D01*
X1773Y716D02*
X1779Y716D01*
X1800Y716D02*
X1833Y716D01*
X1773Y715D02*
X1779Y715D01*
X1800Y715D02*
X1833Y715D01*
X1773Y714D02*
X1779Y714D01*
X1802Y714D02*
X1833Y714D01*
X1773Y713D02*
X1779Y713D01*
X1827Y713D02*
X1833Y713D01*
X1773Y712D02*
X1779Y712D01*
X1827Y712D02*
X1833Y712D01*
X1773Y711D02*
X1779Y711D01*
X1827Y711D02*
X1833Y711D01*
X1773Y710D02*
X1779Y710D01*
X1827Y710D02*
X1833Y710D01*
X1773Y709D02*
X1779Y709D01*
X1827Y709D02*
X1833Y709D01*
X1773Y708D02*
X1779Y708D01*
X1827Y708D02*
X1833Y708D01*
X1773Y707D02*
X1779Y707D01*
X1827Y707D02*
X1833Y707D01*
X1773Y706D02*
X1779Y706D01*
X1827Y706D02*
X1833Y706D01*
X1773Y705D02*
X1779Y705D01*
X1827Y705D02*
X1833Y705D01*
X1773Y704D02*
X1779Y704D01*
X1827Y704D02*
X1833Y704D01*
X1773Y703D02*
X1779Y703D01*
X1827Y703D02*
X1833Y703D01*
X1773Y702D02*
X1779Y702D01*
X1827Y702D02*
X1833Y702D01*
X1773Y701D02*
X1779Y701D01*
X1827Y701D02*
X1833Y701D01*
X1773Y700D02*
X1779Y700D01*
X1827Y700D02*
X1833Y700D01*
X1773Y699D02*
X1779Y699D01*
X1827Y699D02*
X1833Y699D01*
X1773Y698D02*
X1779Y698D01*
X1827Y698D02*
X1833Y698D01*
X1773Y697D02*
X1779Y697D01*
X1805Y697D02*
X1833Y697D01*
X1773Y696D02*
X1779Y696D01*
X1802Y696D02*
X1833Y696D01*
X1773Y695D02*
X1779Y695D01*
X1801Y695D02*
X1833Y695D01*
X1773Y694D02*
X1779Y694D01*
X1801Y694D02*
X1832Y694D01*
X1773Y693D02*
X1779Y693D01*
X1800Y693D02*
X1831Y693D01*
X1773Y692D02*
X1779Y692D01*
X1800Y692D02*
X1830Y692D01*
X1755Y691D02*
X1757Y691D01*
X1773Y691D02*
X1779Y691D01*
X1799Y691D02*
X1829Y691D01*
X1753Y690D02*
X1758Y690D01*
X1773Y690D02*
X1779Y690D01*
X1799Y690D02*
X1806Y690D01*
X1753Y689D02*
X1758Y689D01*
X1773Y689D02*
X1779Y689D01*
X1799Y689D02*
X1805Y689D01*
X1753Y688D02*
X1759Y688D01*
X1773Y688D02*
X1779Y688D01*
X1799Y688D02*
X1805Y688D01*
X1753Y687D02*
X1759Y687D01*
X1773Y687D02*
X1779Y687D01*
X1799Y687D02*
X1805Y687D01*
X1753Y686D02*
X1759Y686D01*
X1773Y686D02*
X1779Y686D01*
X1799Y686D02*
X1805Y686D01*
X1753Y685D02*
X1759Y685D01*
X1773Y685D02*
X1779Y685D01*
X1799Y685D02*
X1805Y685D01*
X1753Y684D02*
X1759Y684D01*
X1773Y684D02*
X1779Y684D01*
X1799Y684D02*
X1805Y684D01*
X1753Y683D02*
X1759Y683D01*
X1773Y683D02*
X1779Y683D01*
X1799Y683D02*
X1805Y683D01*
X1753Y682D02*
X1759Y682D01*
X1773Y682D02*
X1779Y682D01*
X1799Y682D02*
X1805Y682D01*
X1753Y681D02*
X1759Y681D01*
X1773Y681D02*
X1779Y681D01*
X1799Y681D02*
X1805Y681D01*
X1753Y680D02*
X1759Y680D01*
X1773Y680D02*
X1779Y680D01*
X1799Y680D02*
X1805Y680D01*
X1753Y679D02*
X1759Y679D01*
X1773Y679D02*
X1779Y679D01*
X1799Y679D02*
X1805Y679D01*
X1753Y678D02*
X1759Y678D01*
X1773Y678D02*
X1779Y678D01*
X1799Y678D02*
X1805Y678D01*
X1753Y677D02*
X1759Y677D01*
X1773Y677D02*
X1779Y677D01*
X1799Y677D02*
X1805Y677D01*
X1753Y676D02*
X1759Y676D01*
X1773Y676D02*
X1779Y676D01*
X1799Y676D02*
X1805Y676D01*
X1753Y675D02*
X1760Y675D01*
X1772Y675D02*
X1779Y675D01*
X1799Y675D02*
X1805Y675D01*
X1753Y674D02*
X1761Y674D01*
X1771Y674D02*
X1779Y674D01*
X1799Y674D02*
X1806Y674D01*
X1754Y673D02*
X1778Y673D01*
X1799Y673D02*
X1831Y673D01*
X1754Y672D02*
X1778Y672D01*
X1799Y672D02*
X1832Y672D01*
X1755Y671D02*
X1777Y671D01*
X1799Y671D02*
X1833Y671D01*
X1756Y670D02*
X1776Y670D01*
X1799Y670D02*
X1833Y670D01*
X1757Y669D02*
X1775Y669D01*
X1799Y669D02*
X1833Y669D01*
X1758Y668D02*
X1774Y668D01*
X1799Y668D02*
X1832Y668D01*
X1761Y667D02*
X1771Y667D01*
X1800Y667D02*
X1831Y667D01*
X504Y662D02*
X518Y662D01*
X704Y662D02*
X718Y662D01*
X904Y662D02*
X918Y662D01*
X1104Y662D02*
X1118Y662D01*
X1304Y662D02*
X1318Y662D01*
X1504Y662D02*
X1518Y662D01*
X501Y661D02*
X522Y661D01*
X701Y661D02*
X722Y661D01*
X901Y661D02*
X921Y661D01*
X1101Y661D02*
X1121Y661D01*
X1301Y661D02*
X1321Y661D01*
X1501Y661D02*
X1521Y661D01*
X499Y660D02*
X524Y660D01*
X699Y660D02*
X724Y660D01*
X899Y660D02*
X923Y660D01*
X1099Y660D02*
X1123Y660D01*
X1299Y660D02*
X1323Y660D01*
X1499Y660D02*
X1523Y660D01*
X498Y659D02*
X525Y659D01*
X698Y659D02*
X725Y659D01*
X898Y659D02*
X925Y659D01*
X1098Y659D02*
X1125Y659D01*
X1297Y659D02*
X1325Y659D01*
X1497Y659D02*
X1525Y659D01*
X497Y658D02*
X506Y658D01*
X516Y658D02*
X526Y658D01*
X697Y658D02*
X706Y658D01*
X716Y658D02*
X726Y658D01*
X897Y658D02*
X906Y658D01*
X916Y658D02*
X926Y658D01*
X1097Y658D02*
X1106Y658D01*
X1116Y658D02*
X1126Y658D01*
X1297Y658D02*
X1306Y658D01*
X1316Y658D02*
X1326Y658D01*
X1497Y658D02*
X1506Y658D01*
X1516Y658D02*
X1525Y658D01*
X496Y657D02*
X501Y657D01*
X522Y657D02*
X526Y657D01*
X696Y657D02*
X701Y657D01*
X722Y657D02*
X726Y657D01*
X896Y657D02*
X901Y657D01*
X922Y657D02*
X926Y657D01*
X1096Y657D02*
X1101Y657D01*
X1121Y657D02*
X1126Y657D01*
X1296Y657D02*
X1301Y657D01*
X1321Y657D02*
X1326Y657D01*
X1496Y657D02*
X1501Y657D01*
X1521Y657D02*
X1526Y657D01*
X496Y656D02*
X499Y656D01*
X523Y656D02*
X527Y656D01*
X696Y656D02*
X699Y656D01*
X723Y656D02*
X727Y656D01*
X896Y656D02*
X899Y656D01*
X923Y656D02*
X927Y656D01*
X1095Y656D02*
X1099Y656D01*
X1123Y656D02*
X1127Y656D01*
X1295Y656D02*
X1299Y656D01*
X1323Y656D02*
X1327Y656D01*
X1495Y656D02*
X1499Y656D01*
X1523Y656D02*
X1527Y656D01*
X495Y655D02*
X498Y655D01*
X524Y655D02*
X527Y655D01*
X695Y655D02*
X698Y655D01*
X724Y655D02*
X727Y655D01*
X895Y655D02*
X898Y655D01*
X924Y655D02*
X927Y655D01*
X1095Y655D02*
X1098Y655D01*
X1124Y655D02*
X1127Y655D01*
X1295Y655D02*
X1298Y655D01*
X1324Y655D02*
X1327Y655D01*
X1495Y655D02*
X1498Y655D01*
X1524Y655D02*
X1527Y655D01*
X495Y654D02*
X498Y654D01*
X525Y654D02*
X527Y654D01*
X579Y654D02*
X596Y654D01*
X695Y654D02*
X698Y654D01*
X725Y654D02*
X727Y654D01*
X779Y654D02*
X796Y654D01*
X895Y654D02*
X898Y654D01*
X925Y654D02*
X927Y654D01*
X979Y654D02*
X996Y654D01*
X1095Y654D02*
X1098Y654D01*
X1125Y654D02*
X1127Y654D01*
X1179Y654D02*
X1196Y654D01*
X1295Y654D02*
X1298Y654D01*
X1325Y654D02*
X1327Y654D01*
X1379Y654D02*
X1396Y654D01*
X1495Y654D02*
X1498Y654D01*
X1524Y654D02*
X1527Y654D01*
X1579Y654D02*
X1596Y654D01*
X495Y653D02*
X498Y653D01*
X525Y653D02*
X527Y653D01*
X573Y653D02*
X602Y653D01*
X695Y653D02*
X698Y653D01*
X725Y653D02*
X727Y653D01*
X773Y653D02*
X802Y653D01*
X895Y653D02*
X898Y653D01*
X925Y653D02*
X927Y653D01*
X973Y653D02*
X1002Y653D01*
X1095Y653D02*
X1097Y653D01*
X1125Y653D02*
X1127Y653D01*
X1173Y653D02*
X1202Y653D01*
X1295Y653D02*
X1297Y653D01*
X1325Y653D02*
X1327Y653D01*
X1373Y653D02*
X1402Y653D01*
X1495Y653D02*
X1497Y653D01*
X1525Y653D02*
X1527Y653D01*
X1573Y653D02*
X1602Y653D01*
X495Y652D02*
X498Y652D01*
X525Y652D02*
X528Y652D01*
X568Y652D02*
X607Y652D01*
X695Y652D02*
X697Y652D01*
X725Y652D02*
X727Y652D01*
X768Y652D02*
X807Y652D01*
X895Y652D02*
X897Y652D01*
X925Y652D02*
X927Y652D01*
X968Y652D02*
X1007Y652D01*
X1095Y652D02*
X1097Y652D01*
X1125Y652D02*
X1127Y652D01*
X1168Y652D02*
X1207Y652D01*
X1295Y652D02*
X1297Y652D01*
X1325Y652D02*
X1327Y652D01*
X1368Y652D02*
X1407Y652D01*
X1495Y652D02*
X1497Y652D01*
X1525Y652D02*
X1527Y652D01*
X1568Y652D02*
X1607Y652D01*
X495Y651D02*
X498Y651D01*
X525Y651D02*
X527Y651D01*
X565Y651D02*
X610Y651D01*
X695Y651D02*
X698Y651D01*
X725Y651D02*
X727Y651D01*
X765Y651D02*
X810Y651D01*
X895Y651D02*
X898Y651D01*
X925Y651D02*
X927Y651D01*
X965Y651D02*
X1010Y651D01*
X1095Y651D02*
X1098Y651D01*
X1125Y651D02*
X1127Y651D01*
X1165Y651D02*
X1210Y651D01*
X1295Y651D02*
X1297Y651D01*
X1325Y651D02*
X1327Y651D01*
X1365Y651D02*
X1410Y651D01*
X1495Y651D02*
X1497Y651D01*
X1525Y651D02*
X1527Y651D01*
X1565Y651D02*
X1610Y651D01*
X495Y650D02*
X498Y650D01*
X524Y650D02*
X527Y650D01*
X562Y650D02*
X614Y650D01*
X695Y650D02*
X698Y650D01*
X724Y650D02*
X727Y650D01*
X762Y650D02*
X814Y650D01*
X895Y650D02*
X898Y650D01*
X924Y650D02*
X927Y650D01*
X962Y650D02*
X1014Y650D01*
X1095Y650D02*
X1098Y650D01*
X1124Y650D02*
X1127Y650D01*
X1162Y650D02*
X1214Y650D01*
X1295Y650D02*
X1298Y650D01*
X1324Y650D02*
X1327Y650D01*
X1362Y650D02*
X1414Y650D01*
X1495Y650D02*
X1498Y650D01*
X1524Y650D02*
X1527Y650D01*
X1562Y650D02*
X1614Y650D01*
X495Y649D02*
X499Y649D01*
X524Y649D02*
X527Y649D01*
X559Y649D02*
X616Y649D01*
X695Y649D02*
X699Y649D01*
X724Y649D02*
X727Y649D01*
X759Y649D02*
X816Y649D01*
X895Y649D02*
X899Y649D01*
X924Y649D02*
X927Y649D01*
X959Y649D02*
X1016Y649D01*
X1095Y649D02*
X1099Y649D01*
X1124Y649D02*
X1127Y649D01*
X1159Y649D02*
X1216Y649D01*
X1295Y649D02*
X1299Y649D01*
X1324Y649D02*
X1327Y649D01*
X1359Y649D02*
X1416Y649D01*
X1495Y649D02*
X1498Y649D01*
X1524Y649D02*
X1527Y649D01*
X1559Y649D02*
X1616Y649D01*
X496Y648D02*
X500Y648D01*
X523Y648D02*
X527Y648D01*
X557Y648D02*
X577Y648D01*
X599Y648D02*
X619Y648D01*
X696Y648D02*
X700Y648D01*
X723Y648D02*
X727Y648D01*
X757Y648D02*
X777Y648D01*
X798Y648D02*
X819Y648D01*
X896Y648D02*
X900Y648D01*
X922Y648D02*
X927Y648D01*
X957Y648D02*
X977Y648D01*
X998Y648D02*
X1019Y648D01*
X1096Y648D02*
X1100Y648D01*
X1122Y648D02*
X1127Y648D01*
X1157Y648D02*
X1177Y648D01*
X1198Y648D02*
X1219Y648D01*
X1296Y648D02*
X1300Y648D01*
X1322Y648D02*
X1326Y648D01*
X1357Y648D02*
X1377Y648D01*
X1398Y648D02*
X1418Y648D01*
X1496Y648D02*
X1500Y648D01*
X1522Y648D02*
X1526Y648D01*
X1557Y648D02*
X1577Y648D01*
X1598Y648D02*
X1618Y648D01*
X496Y647D02*
X503Y647D01*
X520Y647D02*
X526Y647D01*
X555Y647D02*
X572Y647D01*
X604Y647D02*
X621Y647D01*
X696Y647D02*
X703Y647D01*
X720Y647D02*
X726Y647D01*
X755Y647D02*
X772Y647D01*
X804Y647D02*
X821Y647D01*
X896Y647D02*
X903Y647D01*
X920Y647D02*
X926Y647D01*
X954Y647D02*
X972Y647D01*
X1004Y647D02*
X1021Y647D01*
X1096Y647D02*
X1102Y647D01*
X1120Y647D02*
X1126Y647D01*
X1154Y647D02*
X1172Y647D01*
X1204Y647D02*
X1221Y647D01*
X1296Y647D02*
X1302Y647D01*
X1320Y647D02*
X1326Y647D01*
X1354Y647D02*
X1372Y647D01*
X1404Y647D02*
X1421Y647D01*
X1496Y647D02*
X1502Y647D01*
X1520Y647D02*
X1526Y647D01*
X1554Y647D02*
X1572Y647D01*
X1603Y647D02*
X1621Y647D01*
X497Y646D02*
X525Y646D01*
X553Y646D02*
X568Y646D01*
X608Y646D02*
X623Y646D01*
X697Y646D02*
X725Y646D01*
X753Y646D02*
X768Y646D01*
X808Y646D02*
X823Y646D01*
X897Y646D02*
X925Y646D01*
X953Y646D02*
X968Y646D01*
X1008Y646D02*
X1023Y646D01*
X1097Y646D02*
X1125Y646D01*
X1152Y646D02*
X1168Y646D01*
X1208Y646D02*
X1223Y646D01*
X1297Y646D02*
X1325Y646D01*
X1352Y646D02*
X1368Y646D01*
X1408Y646D02*
X1423Y646D01*
X1497Y646D02*
X1525Y646D01*
X1552Y646D02*
X1568Y646D01*
X1607Y646D02*
X1623Y646D01*
X498Y645D02*
X524Y645D01*
X551Y645D02*
X565Y645D01*
X611Y645D02*
X625Y645D01*
X698Y645D02*
X724Y645D01*
X751Y645D02*
X765Y645D01*
X811Y645D02*
X825Y645D01*
X898Y645D02*
X924Y645D01*
X951Y645D02*
X965Y645D01*
X1011Y645D02*
X1025Y645D01*
X1098Y645D02*
X1124Y645D01*
X1151Y645D02*
X1165Y645D01*
X1211Y645D02*
X1225Y645D01*
X1298Y645D02*
X1324Y645D01*
X1350Y645D02*
X1364Y645D01*
X1411Y645D02*
X1425Y645D01*
X1498Y645D02*
X1524Y645D01*
X1550Y645D02*
X1564Y645D01*
X1611Y645D02*
X1625Y645D01*
X500Y644D02*
X522Y644D01*
X549Y644D02*
X562Y644D01*
X614Y644D02*
X627Y644D01*
X700Y644D02*
X722Y644D01*
X749Y644D02*
X762Y644D01*
X814Y644D02*
X827Y644D01*
X900Y644D02*
X922Y644D01*
X949Y644D02*
X962Y644D01*
X1014Y644D02*
X1027Y644D01*
X1100Y644D02*
X1122Y644D01*
X1149Y644D02*
X1162Y644D01*
X1214Y644D02*
X1227Y644D01*
X1300Y644D02*
X1322Y644D01*
X1349Y644D02*
X1362Y644D01*
X1414Y644D02*
X1427Y644D01*
X1500Y644D02*
X1522Y644D01*
X1549Y644D02*
X1562Y644D01*
X1614Y644D02*
X1626Y644D01*
X503Y643D02*
X520Y643D01*
X547Y643D02*
X560Y643D01*
X616Y643D02*
X628Y643D01*
X703Y643D02*
X720Y643D01*
X747Y643D02*
X759Y643D01*
X816Y643D02*
X828Y643D01*
X903Y643D02*
X920Y643D01*
X947Y643D02*
X959Y643D01*
X1016Y643D02*
X1028Y643D01*
X1103Y643D02*
X1120Y643D01*
X1147Y643D02*
X1159Y643D01*
X1216Y643D02*
X1228Y643D01*
X1302Y643D02*
X1320Y643D01*
X1347Y643D02*
X1359Y643D01*
X1416Y643D02*
X1428Y643D01*
X1502Y643D02*
X1520Y643D01*
X1547Y643D02*
X1559Y643D01*
X1616Y643D02*
X1628Y643D01*
X511Y642D02*
X512Y642D01*
X546Y642D02*
X557Y642D01*
X619Y642D02*
X630Y642D01*
X710Y642D02*
X712Y642D01*
X746Y642D02*
X757Y642D01*
X818Y642D02*
X830Y642D01*
X910Y642D02*
X912Y642D01*
X946Y642D02*
X957Y642D01*
X1018Y642D02*
X1030Y642D01*
X1110Y642D02*
X1112Y642D01*
X1146Y642D02*
X1157Y642D01*
X1218Y642D02*
X1230Y642D01*
X1310Y642D02*
X1312Y642D01*
X1345Y642D02*
X1357Y642D01*
X1418Y642D02*
X1430Y642D01*
X1510Y642D02*
X1512Y642D01*
X1545Y642D02*
X1557Y642D01*
X1618Y642D02*
X1630Y642D01*
X544Y641D02*
X555Y641D01*
X620Y641D02*
X631Y641D01*
X744Y641D02*
X755Y641D01*
X820Y641D02*
X831Y641D01*
X944Y641D02*
X955Y641D01*
X1020Y641D02*
X1031Y641D01*
X1144Y641D02*
X1155Y641D01*
X1220Y641D02*
X1231Y641D01*
X1344Y641D02*
X1355Y641D01*
X1420Y641D02*
X1431Y641D01*
X1544Y641D02*
X1555Y641D01*
X1620Y641D02*
X1631Y641D01*
X543Y640D02*
X553Y640D01*
X622Y640D02*
X633Y640D01*
X743Y640D02*
X753Y640D01*
X822Y640D02*
X833Y640D01*
X943Y640D02*
X953Y640D01*
X1022Y640D02*
X1033Y640D01*
X1142Y640D02*
X1153Y640D01*
X1222Y640D02*
X1233Y640D01*
X1342Y640D02*
X1353Y640D01*
X1422Y640D02*
X1433Y640D01*
X1542Y640D02*
X1553Y640D01*
X1622Y640D02*
X1633Y640D01*
X541Y639D02*
X551Y639D01*
X624Y639D02*
X634Y639D01*
X741Y639D02*
X751Y639D01*
X824Y639D02*
X834Y639D01*
X941Y639D02*
X951Y639D01*
X1024Y639D02*
X1034Y639D01*
X1141Y639D02*
X1151Y639D01*
X1224Y639D02*
X1234Y639D01*
X1341Y639D02*
X1351Y639D01*
X1424Y639D02*
X1434Y639D01*
X1541Y639D02*
X1551Y639D01*
X1624Y639D02*
X1634Y639D01*
X524Y638D02*
X527Y638D01*
X540Y638D02*
X550Y638D01*
X626Y638D02*
X636Y638D01*
X724Y638D02*
X727Y638D01*
X740Y638D02*
X750Y638D01*
X826Y638D02*
X835Y638D01*
X924Y638D02*
X927Y638D01*
X940Y638D02*
X950Y638D01*
X1026Y638D02*
X1035Y638D01*
X1124Y638D02*
X1127Y638D01*
X1140Y638D02*
X1150Y638D01*
X1226Y638D02*
X1235Y638D01*
X1324Y638D02*
X1326Y638D01*
X1340Y638D02*
X1350Y638D01*
X1426Y638D02*
X1435Y638D01*
X1524Y638D02*
X1526Y638D01*
X1540Y638D02*
X1550Y638D01*
X1626Y638D02*
X1635Y638D01*
X524Y637D02*
X527Y637D01*
X539Y637D02*
X548Y637D01*
X627Y637D02*
X637Y637D01*
X724Y637D02*
X727Y637D01*
X739Y637D02*
X748Y637D01*
X827Y637D02*
X837Y637D01*
X924Y637D02*
X927Y637D01*
X939Y637D02*
X948Y637D01*
X1027Y637D02*
X1037Y637D01*
X1124Y637D02*
X1127Y637D01*
X1139Y637D02*
X1148Y637D01*
X1227Y637D02*
X1237Y637D01*
X1324Y637D02*
X1327Y637D01*
X1339Y637D02*
X1348Y637D01*
X1427Y637D02*
X1437Y637D01*
X1524Y637D02*
X1527Y637D01*
X1539Y637D02*
X1548Y637D01*
X1627Y637D02*
X1637Y637D01*
X500Y636D02*
X507Y636D01*
X524Y636D02*
X527Y636D01*
X538Y636D02*
X547Y636D01*
X629Y636D02*
X638Y636D01*
X700Y636D02*
X707Y636D01*
X724Y636D02*
X727Y636D01*
X738Y636D02*
X747Y636D01*
X829Y636D02*
X838Y636D01*
X900Y636D02*
X907Y636D01*
X924Y636D02*
X927Y636D01*
X937Y636D02*
X947Y636D01*
X1029Y636D02*
X1038Y636D01*
X1100Y636D02*
X1107Y636D01*
X1124Y636D02*
X1127Y636D01*
X1137Y636D02*
X1147Y636D01*
X1229Y636D02*
X1238Y636D01*
X1300Y636D02*
X1307Y636D01*
X1324Y636D02*
X1327Y636D01*
X1337Y636D02*
X1347Y636D01*
X1429Y636D02*
X1438Y636D01*
X1499Y636D02*
X1507Y636D01*
X1524Y636D02*
X1527Y636D01*
X1537Y636D02*
X1547Y636D01*
X1629Y636D02*
X1638Y636D01*
X498Y635D02*
X510Y635D01*
X524Y635D02*
X527Y635D01*
X536Y635D02*
X545Y635D01*
X630Y635D02*
X639Y635D01*
X698Y635D02*
X709Y635D01*
X724Y635D02*
X727Y635D01*
X736Y635D02*
X745Y635D01*
X830Y635D02*
X839Y635D01*
X898Y635D02*
X909Y635D01*
X924Y635D02*
X927Y635D01*
X936Y635D02*
X945Y635D01*
X1030Y635D02*
X1039Y635D01*
X1098Y635D02*
X1109Y635D01*
X1124Y635D02*
X1127Y635D01*
X1136Y635D02*
X1145Y635D01*
X1230Y635D02*
X1239Y635D01*
X1298Y635D02*
X1309Y635D01*
X1324Y635D02*
X1327Y635D01*
X1336Y635D02*
X1345Y635D01*
X1430Y635D02*
X1439Y635D01*
X1498Y635D02*
X1509Y635D01*
X1524Y635D02*
X1527Y635D01*
X1536Y635D02*
X1545Y635D01*
X1630Y635D02*
X1639Y635D01*
X497Y634D02*
X511Y634D01*
X524Y634D02*
X527Y634D01*
X536Y634D02*
X544Y634D01*
X632Y634D02*
X640Y634D01*
X697Y634D02*
X711Y634D01*
X724Y634D02*
X727Y634D01*
X735Y634D02*
X744Y634D01*
X832Y634D02*
X840Y634D01*
X897Y634D02*
X911Y634D01*
X924Y634D02*
X927Y634D01*
X935Y634D02*
X944Y634D01*
X1032Y634D02*
X1040Y634D01*
X1097Y634D02*
X1111Y634D01*
X1124Y634D02*
X1127Y634D01*
X1135Y634D02*
X1144Y634D01*
X1232Y634D02*
X1240Y634D01*
X1297Y634D02*
X1311Y634D01*
X1324Y634D02*
X1327Y634D01*
X1335Y634D02*
X1344Y634D01*
X1431Y634D02*
X1440Y634D01*
X1497Y634D02*
X1511Y634D01*
X1524Y634D02*
X1527Y634D01*
X1535Y634D02*
X1544Y634D01*
X1631Y634D02*
X1640Y634D01*
X496Y633D02*
X512Y633D01*
X524Y633D02*
X527Y633D01*
X535Y633D02*
X543Y633D01*
X633Y633D02*
X641Y633D01*
X696Y633D02*
X712Y633D01*
X724Y633D02*
X727Y633D01*
X735Y633D02*
X743Y633D01*
X833Y633D02*
X841Y633D01*
X896Y633D02*
X912Y633D01*
X924Y633D02*
X927Y633D01*
X935Y633D02*
X943Y633D01*
X1033Y633D02*
X1041Y633D01*
X1096Y633D02*
X1112Y633D01*
X1124Y633D02*
X1127Y633D01*
X1135Y633D02*
X1143Y633D01*
X1233Y633D02*
X1241Y633D01*
X1296Y633D02*
X1312Y633D01*
X1324Y633D02*
X1327Y633D01*
X1335Y633D02*
X1343Y633D01*
X1433Y633D02*
X1441Y633D01*
X1496Y633D02*
X1512Y633D01*
X1524Y633D02*
X1527Y633D01*
X1535Y633D02*
X1543Y633D01*
X1633Y633D02*
X1641Y633D01*
X496Y632D02*
X501Y632D01*
X507Y632D02*
X513Y632D01*
X524Y632D02*
X527Y632D01*
X535Y632D02*
X542Y632D01*
X634Y632D02*
X642Y632D01*
X696Y632D02*
X701Y632D01*
X707Y632D02*
X713Y632D01*
X724Y632D02*
X727Y632D01*
X735Y632D02*
X742Y632D01*
X834Y632D02*
X842Y632D01*
X896Y632D02*
X901Y632D01*
X907Y632D02*
X913Y632D01*
X924Y632D02*
X927Y632D01*
X935Y632D02*
X941Y632D01*
X1034Y632D02*
X1042Y632D01*
X1096Y632D02*
X1101Y632D01*
X1107Y632D02*
X1113Y632D01*
X1124Y632D02*
X1127Y632D01*
X1135Y632D02*
X1141Y632D01*
X1234Y632D02*
X1242Y632D01*
X1296Y632D02*
X1301Y632D01*
X1307Y632D02*
X1313Y632D01*
X1324Y632D02*
X1327Y632D01*
X1335Y632D02*
X1341Y632D01*
X1434Y632D02*
X1442Y632D01*
X1496Y632D02*
X1501Y632D01*
X1507Y632D02*
X1513Y632D01*
X1524Y632D02*
X1527Y632D01*
X1535Y632D02*
X1541Y632D01*
X1634Y632D02*
X1642Y632D01*
X495Y631D02*
X499Y631D01*
X509Y631D02*
X515Y631D01*
X524Y631D02*
X527Y631D01*
X535Y631D02*
X540Y631D01*
X635Y631D02*
X643Y631D01*
X695Y631D02*
X699Y631D01*
X709Y631D02*
X715Y631D01*
X724Y631D02*
X727Y631D01*
X735Y631D02*
X740Y631D01*
X835Y631D02*
X843Y631D01*
X895Y631D02*
X899Y631D01*
X909Y631D02*
X915Y631D01*
X924Y631D02*
X927Y631D01*
X935Y631D02*
X940Y631D01*
X1035Y631D02*
X1043Y631D01*
X1095Y631D02*
X1099Y631D01*
X1109Y631D02*
X1114Y631D01*
X1124Y631D02*
X1127Y631D01*
X1135Y631D02*
X1140Y631D01*
X1235Y631D02*
X1243Y631D01*
X1295Y631D02*
X1299Y631D01*
X1309Y631D02*
X1314Y631D01*
X1324Y631D02*
X1327Y631D01*
X1335Y631D02*
X1340Y631D01*
X1435Y631D02*
X1443Y631D01*
X1495Y631D02*
X1499Y631D01*
X1509Y631D02*
X1514Y631D01*
X1524Y631D02*
X1527Y631D01*
X1535Y631D02*
X1540Y631D01*
X1635Y631D02*
X1643Y631D01*
X495Y630D02*
X498Y630D01*
X511Y630D02*
X516Y630D01*
X524Y630D02*
X527Y630D01*
X535Y630D02*
X540Y630D01*
X636Y630D02*
X644Y630D01*
X695Y630D02*
X698Y630D01*
X711Y630D02*
X716Y630D01*
X724Y630D02*
X727Y630D01*
X735Y630D02*
X740Y630D01*
X836Y630D02*
X844Y630D01*
X895Y630D02*
X898Y630D01*
X911Y630D02*
X916Y630D01*
X924Y630D02*
X927Y630D01*
X935Y630D02*
X940Y630D01*
X1036Y630D02*
X1044Y630D01*
X1095Y630D02*
X1098Y630D01*
X1111Y630D02*
X1116Y630D01*
X1124Y630D02*
X1127Y630D01*
X1135Y630D02*
X1140Y630D01*
X1236Y630D02*
X1244Y630D01*
X1295Y630D02*
X1298Y630D01*
X1310Y630D02*
X1315Y630D01*
X1324Y630D02*
X1327Y630D01*
X1335Y630D02*
X1340Y630D01*
X1436Y630D02*
X1444Y630D01*
X1495Y630D02*
X1498Y630D01*
X1510Y630D02*
X1515Y630D01*
X1524Y630D02*
X1527Y630D01*
X1535Y630D02*
X1540Y630D01*
X1636Y630D02*
X1644Y630D01*
X495Y629D02*
X498Y629D01*
X512Y629D02*
X517Y629D01*
X524Y629D02*
X527Y629D01*
X535Y629D02*
X540Y629D01*
X637Y629D02*
X645Y629D01*
X695Y629D02*
X698Y629D01*
X712Y629D02*
X717Y629D01*
X724Y629D02*
X727Y629D01*
X735Y629D02*
X740Y629D01*
X837Y629D02*
X845Y629D01*
X895Y629D02*
X898Y629D01*
X912Y629D02*
X917Y629D01*
X924Y629D02*
X927Y629D01*
X935Y629D02*
X940Y629D01*
X1037Y629D02*
X1045Y629D01*
X1095Y629D02*
X1098Y629D01*
X1112Y629D02*
X1117Y629D01*
X1124Y629D02*
X1127Y629D01*
X1135Y629D02*
X1140Y629D01*
X1237Y629D02*
X1245Y629D01*
X1295Y629D02*
X1298Y629D01*
X1312Y629D02*
X1316Y629D01*
X1324Y629D02*
X1327Y629D01*
X1335Y629D02*
X1340Y629D01*
X1437Y629D02*
X1445Y629D01*
X1495Y629D02*
X1498Y629D01*
X1512Y629D02*
X1516Y629D01*
X1524Y629D02*
X1527Y629D01*
X1535Y629D02*
X1540Y629D01*
X1637Y629D02*
X1645Y629D01*
X495Y628D02*
X498Y628D01*
X513Y628D02*
X518Y628D01*
X524Y628D02*
X527Y628D01*
X535Y628D02*
X540Y628D01*
X638Y628D02*
X646Y628D01*
X695Y628D02*
X698Y628D01*
X713Y628D02*
X718Y628D01*
X724Y628D02*
X727Y628D01*
X735Y628D02*
X740Y628D01*
X838Y628D02*
X846Y628D01*
X895Y628D02*
X898Y628D01*
X913Y628D02*
X918Y628D01*
X924Y628D02*
X927Y628D01*
X935Y628D02*
X940Y628D01*
X1038Y628D02*
X1046Y628D01*
X1095Y628D02*
X1098Y628D01*
X1113Y628D02*
X1118Y628D01*
X1124Y628D02*
X1127Y628D01*
X1135Y628D02*
X1140Y628D01*
X1238Y628D02*
X1246Y628D01*
X1295Y628D02*
X1298Y628D01*
X1313Y628D02*
X1318Y628D01*
X1324Y628D02*
X1327Y628D01*
X1335Y628D02*
X1340Y628D01*
X1438Y628D02*
X1446Y628D01*
X1495Y628D02*
X1498Y628D01*
X1513Y628D02*
X1517Y628D01*
X1524Y628D02*
X1527Y628D01*
X1535Y628D02*
X1540Y628D01*
X1638Y628D02*
X1646Y628D01*
X495Y627D02*
X498Y627D01*
X514Y627D02*
X519Y627D01*
X524Y627D02*
X527Y627D01*
X535Y627D02*
X540Y627D01*
X639Y627D02*
X647Y627D01*
X695Y627D02*
X698Y627D01*
X714Y627D02*
X719Y627D01*
X724Y627D02*
X727Y627D01*
X735Y627D02*
X740Y627D01*
X839Y627D02*
X847Y627D01*
X895Y627D02*
X898Y627D01*
X914Y627D02*
X919Y627D01*
X924Y627D02*
X927Y627D01*
X935Y627D02*
X940Y627D01*
X1039Y627D02*
X1047Y627D01*
X1095Y627D02*
X1098Y627D01*
X1114Y627D02*
X1119Y627D01*
X1124Y627D02*
X1127Y627D01*
X1135Y627D02*
X1140Y627D01*
X1239Y627D02*
X1247Y627D01*
X1295Y627D02*
X1298Y627D01*
X1314Y627D02*
X1319Y627D01*
X1324Y627D02*
X1327Y627D01*
X1335Y627D02*
X1340Y627D01*
X1439Y627D02*
X1447Y627D01*
X1495Y627D02*
X1497Y627D01*
X1514Y627D02*
X1518Y627D01*
X1524Y627D02*
X1527Y627D01*
X1535Y627D02*
X1540Y627D01*
X1639Y627D02*
X1647Y627D01*
X495Y626D02*
X498Y626D01*
X516Y626D02*
X520Y626D01*
X524Y626D02*
X527Y626D01*
X535Y626D02*
X540Y626D01*
X640Y626D02*
X648Y626D01*
X695Y626D02*
X698Y626D01*
X716Y626D02*
X720Y626D01*
X724Y626D02*
X727Y626D01*
X735Y626D02*
X740Y626D01*
X840Y626D02*
X848Y626D01*
X895Y626D02*
X898Y626D01*
X916Y626D02*
X920Y626D01*
X924Y626D02*
X927Y626D01*
X935Y626D02*
X940Y626D01*
X1040Y626D02*
X1048Y626D01*
X1095Y626D02*
X1098Y626D01*
X1115Y626D02*
X1120Y626D01*
X1124Y626D02*
X1127Y626D01*
X1135Y626D02*
X1140Y626D01*
X1240Y626D02*
X1248Y626D01*
X1295Y626D02*
X1298Y626D01*
X1315Y626D02*
X1320Y626D01*
X1324Y626D02*
X1327Y626D01*
X1335Y626D02*
X1340Y626D01*
X1440Y626D02*
X1448Y626D01*
X1495Y626D02*
X1498Y626D01*
X1515Y626D02*
X1519Y626D01*
X1524Y626D02*
X1527Y626D01*
X1535Y626D02*
X1540Y626D01*
X1640Y626D02*
X1647Y626D01*
X495Y625D02*
X498Y625D01*
X517Y625D02*
X521Y625D01*
X524Y625D02*
X527Y625D01*
X535Y625D02*
X540Y625D01*
X641Y625D02*
X649Y625D01*
X695Y625D02*
X698Y625D01*
X717Y625D02*
X721Y625D01*
X724Y625D02*
X727Y625D01*
X735Y625D02*
X740Y625D01*
X841Y625D02*
X848Y625D01*
X895Y625D02*
X898Y625D01*
X917Y625D02*
X921Y625D01*
X924Y625D02*
X927Y625D01*
X935Y625D02*
X940Y625D01*
X1041Y625D02*
X1048Y625D01*
X1095Y625D02*
X1098Y625D01*
X1117Y625D02*
X1120Y625D01*
X1124Y625D02*
X1127Y625D01*
X1135Y625D02*
X1140Y625D01*
X1241Y625D02*
X1248Y625D01*
X1295Y625D02*
X1298Y625D01*
X1316Y625D02*
X1320Y625D01*
X1324Y625D02*
X1327Y625D01*
X1335Y625D02*
X1340Y625D01*
X1441Y625D02*
X1448Y625D01*
X1495Y625D02*
X1498Y625D01*
X1516Y625D02*
X1520Y625D01*
X1524Y625D02*
X1527Y625D01*
X1535Y625D02*
X1540Y625D01*
X1641Y625D02*
X1648Y625D01*
X495Y624D02*
X498Y624D01*
X518Y624D02*
X522Y624D01*
X524Y624D02*
X527Y624D01*
X535Y624D02*
X540Y624D01*
X642Y624D02*
X649Y624D01*
X695Y624D02*
X698Y624D01*
X718Y624D02*
X722Y624D01*
X724Y624D02*
X727Y624D01*
X735Y624D02*
X740Y624D01*
X842Y624D02*
X849Y624D01*
X895Y624D02*
X898Y624D01*
X918Y624D02*
X921Y624D01*
X924Y624D02*
X927Y624D01*
X935Y624D02*
X940Y624D01*
X1042Y624D02*
X1049Y624D01*
X1095Y624D02*
X1098Y624D01*
X1118Y624D02*
X1121Y624D01*
X1124Y624D02*
X1127Y624D01*
X1135Y624D02*
X1140Y624D01*
X1242Y624D02*
X1249Y624D01*
X1295Y624D02*
X1298Y624D01*
X1317Y624D02*
X1321Y624D01*
X1324Y624D02*
X1327Y624D01*
X1335Y624D02*
X1340Y624D01*
X1442Y624D02*
X1449Y624D01*
X1495Y624D02*
X1498Y624D01*
X1517Y624D02*
X1521Y624D01*
X1524Y624D02*
X1527Y624D01*
X1535Y624D02*
X1540Y624D01*
X1642Y624D02*
X1649Y624D01*
X495Y623D02*
X498Y623D01*
X519Y623D02*
X527Y623D01*
X535Y623D02*
X540Y623D01*
X643Y623D02*
X650Y623D01*
X695Y623D02*
X698Y623D01*
X719Y623D02*
X722Y623D01*
X724Y623D02*
X727Y623D01*
X735Y623D02*
X740Y623D01*
X843Y623D02*
X850Y623D01*
X895Y623D02*
X898Y623D01*
X919Y623D02*
X922Y623D01*
X924Y623D02*
X927Y623D01*
X935Y623D02*
X940Y623D01*
X1043Y623D02*
X1050Y623D01*
X1095Y623D02*
X1098Y623D01*
X1119Y623D02*
X1122Y623D01*
X1124Y623D02*
X1127Y623D01*
X1135Y623D02*
X1140Y623D01*
X1243Y623D02*
X1250Y623D01*
X1295Y623D02*
X1298Y623D01*
X1319Y623D02*
X1322Y623D01*
X1324Y623D02*
X1327Y623D01*
X1335Y623D02*
X1340Y623D01*
X1443Y623D02*
X1450Y623D01*
X1495Y623D02*
X1498Y623D01*
X1518Y623D02*
X1522Y623D01*
X1524Y623D02*
X1527Y623D01*
X1535Y623D02*
X1540Y623D01*
X1643Y623D02*
X1650Y623D01*
X496Y622D02*
X499Y622D01*
X520Y622D02*
X527Y622D01*
X535Y622D02*
X540Y622D01*
X644Y622D02*
X651Y622D01*
X696Y622D02*
X699Y622D01*
X720Y622D02*
X727Y622D01*
X735Y622D02*
X740Y622D01*
X844Y622D02*
X851Y622D01*
X896Y622D02*
X899Y622D01*
X920Y622D02*
X927Y622D01*
X935Y622D02*
X940Y622D01*
X1044Y622D02*
X1051Y622D01*
X1096Y622D02*
X1099Y622D01*
X1120Y622D02*
X1127Y622D01*
X1135Y622D02*
X1140Y622D01*
X1244Y622D02*
X1251Y622D01*
X1296Y622D02*
X1299Y622D01*
X1320Y622D02*
X1327Y622D01*
X1335Y622D02*
X1340Y622D01*
X1444Y622D02*
X1451Y622D01*
X1496Y622D02*
X1499Y622D01*
X1519Y622D02*
X1527Y622D01*
X1535Y622D02*
X1540Y622D01*
X1644Y622D02*
X1651Y622D01*
X496Y621D02*
X499Y621D01*
X521Y621D02*
X527Y621D01*
X535Y621D02*
X540Y621D01*
X645Y621D02*
X652Y621D01*
X696Y621D02*
X699Y621D01*
X721Y621D02*
X727Y621D01*
X735Y621D02*
X740Y621D01*
X845Y621D02*
X851Y621D01*
X896Y621D02*
X899Y621D01*
X921Y621D02*
X927Y621D01*
X935Y621D02*
X940Y621D01*
X1045Y621D02*
X1051Y621D01*
X1096Y621D02*
X1099Y621D01*
X1121Y621D02*
X1127Y621D01*
X1135Y621D02*
X1140Y621D01*
X1245Y621D02*
X1251Y621D01*
X1296Y621D02*
X1299Y621D01*
X1321Y621D02*
X1327Y621D01*
X1335Y621D02*
X1340Y621D01*
X1445Y621D02*
X1451Y621D01*
X1496Y621D02*
X1499Y621D01*
X1520Y621D02*
X1527Y621D01*
X1535Y621D02*
X1540Y621D01*
X1645Y621D02*
X1651Y621D01*
X496Y620D02*
X500Y620D01*
X522Y620D02*
X527Y620D01*
X535Y620D02*
X540Y620D01*
X646Y620D02*
X652Y620D01*
X696Y620D02*
X700Y620D01*
X722Y620D02*
X727Y620D01*
X735Y620D02*
X740Y620D01*
X846Y620D02*
X852Y620D01*
X896Y620D02*
X900Y620D01*
X922Y620D02*
X927Y620D01*
X935Y620D02*
X940Y620D01*
X1045Y620D02*
X1052Y620D01*
X1096Y620D02*
X1100Y620D01*
X1122Y620D02*
X1127Y620D01*
X1135Y620D02*
X1140Y620D01*
X1245Y620D02*
X1252Y620D01*
X1296Y620D02*
X1300Y620D01*
X1321Y620D02*
X1327Y620D01*
X1335Y620D02*
X1340Y620D01*
X1445Y620D02*
X1452Y620D01*
X1496Y620D02*
X1500Y620D01*
X1521Y620D02*
X1527Y620D01*
X1535Y620D02*
X1540Y620D01*
X1645Y620D02*
X1652Y620D01*
X497Y619D02*
X500Y619D01*
X523Y619D02*
X527Y619D01*
X535Y619D02*
X540Y619D01*
X646Y619D02*
X653Y619D01*
X697Y619D02*
X700Y619D01*
X723Y619D02*
X727Y619D01*
X735Y619D02*
X740Y619D01*
X846Y619D02*
X853Y619D01*
X897Y619D02*
X900Y619D01*
X923Y619D02*
X927Y619D01*
X935Y619D02*
X940Y619D01*
X1046Y619D02*
X1053Y619D01*
X1097Y619D02*
X1100Y619D01*
X1122Y619D02*
X1127Y619D01*
X1135Y619D02*
X1140Y619D01*
X1246Y619D02*
X1253Y619D01*
X1297Y619D02*
X1300Y619D01*
X1322Y619D02*
X1327Y619D01*
X1335Y619D02*
X1340Y619D01*
X1446Y619D02*
X1453Y619D01*
X1497Y619D02*
X1500Y619D01*
X1522Y619D02*
X1527Y619D01*
X1535Y619D02*
X1540Y619D01*
X1646Y619D02*
X1653Y619D01*
X535Y618D02*
X540Y618D01*
X647Y618D02*
X653Y618D01*
X735Y618D02*
X740Y618D01*
X847Y618D02*
X853Y618D01*
X935Y618D02*
X940Y618D01*
X1047Y618D02*
X1053Y618D01*
X1135Y618D02*
X1140Y618D01*
X1247Y618D02*
X1253Y618D01*
X1335Y618D02*
X1340Y618D01*
X1447Y618D02*
X1453Y618D01*
X1535Y618D02*
X1540Y618D01*
X1647Y618D02*
X1653Y618D01*
X535Y617D02*
X540Y617D01*
X648Y617D02*
X654Y617D01*
X735Y617D02*
X740Y617D01*
X848Y617D02*
X854Y617D01*
X935Y617D02*
X940Y617D01*
X1048Y617D02*
X1054Y617D01*
X1135Y617D02*
X1140Y617D01*
X1248Y617D02*
X1254Y617D01*
X1335Y617D02*
X1340Y617D01*
X1448Y617D02*
X1454Y617D01*
X1535Y617D02*
X1540Y617D01*
X1647Y617D02*
X1654Y617D01*
X535Y616D02*
X540Y616D01*
X648Y616D02*
X655Y616D01*
X735Y616D02*
X740Y616D01*
X848Y616D02*
X855Y616D01*
X935Y616D02*
X940Y616D01*
X1048Y616D02*
X1055Y616D01*
X1135Y616D02*
X1140Y616D01*
X1248Y616D02*
X1255Y616D01*
X1335Y616D02*
X1340Y616D01*
X1448Y616D02*
X1455Y616D01*
X1535Y616D02*
X1540Y616D01*
X1648Y616D02*
X1654Y616D01*
X535Y615D02*
X540Y615D01*
X649Y615D02*
X655Y615D01*
X735Y615D02*
X740Y615D01*
X849Y615D02*
X855Y615D01*
X935Y615D02*
X940Y615D01*
X1049Y615D02*
X1055Y615D01*
X1135Y615D02*
X1140Y615D01*
X1249Y615D02*
X1255Y615D01*
X1335Y615D02*
X1340Y615D01*
X1449Y615D02*
X1455Y615D01*
X1535Y615D02*
X1540Y615D01*
X1649Y615D02*
X1655Y615D01*
X514Y614D02*
X521Y614D01*
X535Y614D02*
X540Y614D01*
X650Y614D02*
X656Y614D01*
X714Y614D02*
X721Y614D01*
X735Y614D02*
X740Y614D01*
X850Y614D02*
X856Y614D01*
X914Y614D02*
X921Y614D01*
X935Y614D02*
X940Y614D01*
X1050Y614D02*
X1056Y614D01*
X1114Y614D02*
X1121Y614D01*
X1135Y614D02*
X1140Y614D01*
X1250Y614D02*
X1256Y614D01*
X1314Y614D02*
X1321Y614D01*
X1335Y614D02*
X1340Y614D01*
X1450Y614D02*
X1456Y614D01*
X1514Y614D02*
X1521Y614D01*
X1535Y614D02*
X1540Y614D01*
X1649Y614D02*
X1656Y614D01*
X500Y613D02*
X504Y613D01*
X513Y613D02*
X523Y613D01*
X535Y613D02*
X540Y613D01*
X650Y613D02*
X656Y613D01*
X700Y613D02*
X704Y613D01*
X712Y613D02*
X723Y613D01*
X735Y613D02*
X740Y613D01*
X850Y613D02*
X856Y613D01*
X900Y613D02*
X904Y613D01*
X912Y613D02*
X923Y613D01*
X935Y613D02*
X940Y613D01*
X1050Y613D02*
X1056Y613D01*
X1100Y613D02*
X1104Y613D01*
X1112Y613D02*
X1123Y613D01*
X1135Y613D02*
X1140Y613D01*
X1250Y613D02*
X1256Y613D01*
X1300Y613D02*
X1304Y613D01*
X1312Y613D02*
X1323Y613D01*
X1335Y613D02*
X1340Y613D01*
X1450Y613D02*
X1456Y613D01*
X1500Y613D02*
X1504Y613D01*
X1512Y613D02*
X1523Y613D01*
X1535Y613D02*
X1540Y613D01*
X1650Y613D02*
X1656Y613D01*
X499Y612D02*
X506Y612D01*
X512Y612D02*
X524Y612D01*
X535Y612D02*
X540Y612D01*
X651Y612D02*
X657Y612D01*
X698Y612D02*
X706Y612D01*
X712Y612D02*
X724Y612D01*
X735Y612D02*
X740Y612D01*
X851Y612D02*
X857Y612D01*
X898Y612D02*
X906Y612D01*
X911Y612D02*
X924Y612D01*
X935Y612D02*
X940Y612D01*
X1051Y612D02*
X1057Y612D01*
X1098Y612D02*
X1106Y612D01*
X1111Y612D02*
X1124Y612D01*
X1135Y612D02*
X1140Y612D01*
X1251Y612D02*
X1257Y612D01*
X1298Y612D02*
X1306Y612D01*
X1311Y612D02*
X1324Y612D01*
X1335Y612D02*
X1340Y612D01*
X1451Y612D02*
X1457Y612D01*
X1498Y612D02*
X1506Y612D01*
X1511Y612D02*
X1524Y612D01*
X1535Y612D02*
X1540Y612D01*
X1651Y612D02*
X1657Y612D01*
X498Y611D02*
X507Y611D01*
X511Y611D02*
X525Y611D01*
X535Y611D02*
X540Y611D01*
X651Y611D02*
X657Y611D01*
X698Y611D02*
X707Y611D01*
X711Y611D02*
X725Y611D01*
X735Y611D02*
X740Y611D01*
X851Y611D02*
X857Y611D01*
X897Y611D02*
X907Y611D01*
X911Y611D02*
X925Y611D01*
X935Y611D02*
X940Y611D01*
X1051Y611D02*
X1057Y611D01*
X1097Y611D02*
X1107Y611D01*
X1111Y611D02*
X1124Y611D01*
X1135Y611D02*
X1140Y611D01*
X1251Y611D02*
X1257Y611D01*
X1297Y611D02*
X1307Y611D01*
X1311Y611D02*
X1324Y611D01*
X1335Y611D02*
X1340Y611D01*
X1451Y611D02*
X1457Y611D01*
X1497Y611D02*
X1507Y611D01*
X1511Y611D02*
X1524Y611D01*
X1535Y611D02*
X1540Y611D01*
X1651Y611D02*
X1657Y611D01*
X497Y610D02*
X508Y610D01*
X510Y610D02*
X514Y610D01*
X521Y610D02*
X525Y610D01*
X535Y610D02*
X540Y610D01*
X652Y610D02*
X658Y610D01*
X697Y610D02*
X708Y610D01*
X710Y610D02*
X714Y610D01*
X720Y610D02*
X725Y610D01*
X735Y610D02*
X740Y610D01*
X852Y610D02*
X858Y610D01*
X897Y610D02*
X908Y610D01*
X910Y610D02*
X914Y610D01*
X920Y610D02*
X925Y610D01*
X935Y610D02*
X940Y610D01*
X1052Y610D02*
X1058Y610D01*
X1097Y610D02*
X1108Y610D01*
X1110Y610D02*
X1114Y610D01*
X1120Y610D02*
X1125Y610D01*
X1135Y610D02*
X1140Y610D01*
X1252Y610D02*
X1258Y610D01*
X1297Y610D02*
X1308Y610D01*
X1310Y610D02*
X1314Y610D01*
X1320Y610D02*
X1325Y610D01*
X1335Y610D02*
X1340Y610D01*
X1452Y610D02*
X1458Y610D01*
X1497Y610D02*
X1508Y610D01*
X1510Y610D02*
X1514Y610D01*
X1520Y610D02*
X1525Y610D01*
X1535Y610D02*
X1540Y610D01*
X1652Y610D02*
X1658Y610D01*
X496Y609D02*
X513Y609D01*
X522Y609D02*
X526Y609D01*
X535Y609D02*
X540Y609D01*
X652Y609D02*
X658Y609D01*
X696Y609D02*
X713Y609D01*
X722Y609D02*
X726Y609D01*
X735Y609D02*
X740Y609D01*
X852Y609D02*
X858Y609D01*
X896Y609D02*
X913Y609D01*
X922Y609D02*
X926Y609D01*
X935Y609D02*
X940Y609D01*
X1052Y609D02*
X1058Y609D01*
X1096Y609D02*
X1113Y609D01*
X1122Y609D02*
X1126Y609D01*
X1135Y609D02*
X1140Y609D01*
X1252Y609D02*
X1258Y609D01*
X1296Y609D02*
X1313Y609D01*
X1322Y609D02*
X1326Y609D01*
X1335Y609D02*
X1340Y609D01*
X1452Y609D02*
X1458Y609D01*
X1496Y609D02*
X1513Y609D01*
X1522Y609D02*
X1526Y609D01*
X1535Y609D02*
X1540Y609D01*
X1652Y609D02*
X1658Y609D01*
X496Y608D02*
X500Y608D01*
X507Y608D02*
X512Y608D01*
X523Y608D02*
X526Y608D01*
X535Y608D02*
X541Y608D01*
X653Y608D02*
X659Y608D01*
X696Y608D02*
X700Y608D01*
X707Y608D02*
X712Y608D01*
X723Y608D02*
X726Y608D01*
X735Y608D02*
X740Y608D01*
X853Y608D02*
X859Y608D01*
X896Y608D02*
X900Y608D01*
X907Y608D02*
X912Y608D01*
X923Y608D02*
X926Y608D01*
X935Y608D02*
X940Y608D01*
X1053Y608D02*
X1059Y608D01*
X1096Y608D02*
X1100Y608D01*
X1107Y608D02*
X1112Y608D01*
X1123Y608D02*
X1126Y608D01*
X1135Y608D02*
X1140Y608D01*
X1253Y608D02*
X1259Y608D01*
X1296Y608D02*
X1300Y608D01*
X1307Y608D02*
X1312Y608D01*
X1323Y608D02*
X1326Y608D01*
X1335Y608D02*
X1340Y608D01*
X1453Y608D02*
X1459Y608D01*
X1496Y608D02*
X1500Y608D01*
X1507Y608D02*
X1512Y608D01*
X1523Y608D02*
X1526Y608D01*
X1535Y608D02*
X1540Y608D01*
X1653Y608D02*
X1658Y608D01*
X496Y607D02*
X499Y607D01*
X508Y607D02*
X512Y607D01*
X523Y607D02*
X526Y607D01*
X535Y607D02*
X541Y607D01*
X654Y607D02*
X659Y607D01*
X696Y607D02*
X699Y607D01*
X708Y607D02*
X712Y607D01*
X723Y607D02*
X726Y607D01*
X735Y607D02*
X740Y607D01*
X853Y607D02*
X859Y607D01*
X896Y607D02*
X899Y607D01*
X908Y607D02*
X912Y607D01*
X923Y607D02*
X926Y607D01*
X935Y607D02*
X940Y607D01*
X1053Y607D02*
X1059Y607D01*
X1096Y607D02*
X1099Y607D01*
X1108Y607D02*
X1112Y607D01*
X1123Y607D02*
X1126Y607D01*
X1135Y607D02*
X1140Y607D01*
X1253Y607D02*
X1259Y607D01*
X1296Y607D02*
X1299Y607D01*
X1307Y607D02*
X1312Y607D01*
X1323Y607D02*
X1326Y607D01*
X1335Y607D02*
X1340Y607D01*
X1453Y607D02*
X1459Y607D01*
X1496Y607D02*
X1499Y607D01*
X1507Y607D02*
X1512Y607D01*
X1523Y607D02*
X1526Y607D01*
X1535Y607D02*
X1540Y607D01*
X1653Y607D02*
X1659Y607D01*
X496Y606D02*
X499Y606D01*
X508Y606D02*
X512Y606D01*
X524Y606D02*
X527Y606D01*
X535Y606D02*
X541Y606D01*
X654Y606D02*
X659Y606D01*
X696Y606D02*
X699Y606D01*
X708Y606D02*
X712Y606D01*
X724Y606D02*
X727Y606D01*
X735Y606D02*
X740Y606D01*
X854Y606D02*
X859Y606D01*
X896Y606D02*
X899Y606D01*
X908Y606D02*
X911Y606D01*
X924Y606D02*
X926Y606D01*
X935Y606D02*
X940Y606D01*
X1054Y606D02*
X1059Y606D01*
X1096Y606D02*
X1098Y606D01*
X1108Y606D02*
X1111Y606D01*
X1124Y606D02*
X1126Y606D01*
X1135Y606D02*
X1140Y606D01*
X1254Y606D02*
X1259Y606D01*
X1296Y606D02*
X1298Y606D01*
X1308Y606D02*
X1311Y606D01*
X1324Y606D02*
X1326Y606D01*
X1335Y606D02*
X1340Y606D01*
X1454Y606D02*
X1459Y606D01*
X1496Y606D02*
X1498Y606D01*
X1508Y606D02*
X1511Y606D01*
X1524Y606D02*
X1526Y606D01*
X1535Y606D02*
X1540Y606D01*
X1654Y606D02*
X1659Y606D01*
X496Y605D02*
X498Y605D01*
X508Y605D02*
X511Y605D01*
X524Y605D02*
X527Y605D01*
X535Y605D02*
X541Y605D01*
X654Y605D02*
X660Y605D01*
X696Y605D02*
X698Y605D01*
X708Y605D02*
X711Y605D01*
X724Y605D02*
X727Y605D01*
X735Y605D02*
X740Y605D01*
X854Y605D02*
X860Y605D01*
X896Y605D02*
X898Y605D01*
X908Y605D02*
X911Y605D01*
X924Y605D02*
X927Y605D01*
X935Y605D02*
X940Y605D01*
X1054Y605D02*
X1060Y605D01*
X1096Y605D02*
X1098Y605D01*
X1108Y605D02*
X1111Y605D01*
X1124Y605D02*
X1127Y605D01*
X1135Y605D02*
X1140Y605D01*
X1254Y605D02*
X1260Y605D01*
X1296Y605D02*
X1298Y605D01*
X1308Y605D02*
X1311Y605D01*
X1324Y605D02*
X1327Y605D01*
X1335Y605D02*
X1340Y605D01*
X1454Y605D02*
X1460Y605D01*
X1495Y605D02*
X1498Y605D01*
X1508Y605D02*
X1511Y605D01*
X1524Y605D02*
X1527Y605D01*
X1535Y605D02*
X1540Y605D01*
X1654Y605D02*
X1660Y605D01*
X496Y604D02*
X498Y604D01*
X509Y604D02*
X511Y604D01*
X524Y604D02*
X527Y604D01*
X535Y604D02*
X541Y604D01*
X655Y604D02*
X660Y604D01*
X696Y604D02*
X698Y604D01*
X709Y604D02*
X711Y604D01*
X724Y604D02*
X727Y604D01*
X735Y604D02*
X740Y604D01*
X855Y604D02*
X860Y604D01*
X896Y604D02*
X898Y604D01*
X908Y604D02*
X911Y604D01*
X924Y604D02*
X927Y604D01*
X935Y604D02*
X940Y604D01*
X1055Y604D02*
X1060Y604D01*
X1096Y604D02*
X1098Y604D01*
X1108Y604D02*
X1111Y604D01*
X1124Y604D02*
X1127Y604D01*
X1135Y604D02*
X1140Y604D01*
X1255Y604D02*
X1260Y604D01*
X1295Y604D02*
X1298Y604D01*
X1308Y604D02*
X1311Y604D01*
X1324Y604D02*
X1327Y604D01*
X1335Y604D02*
X1340Y604D01*
X1455Y604D02*
X1460Y604D01*
X1495Y604D02*
X1498Y604D01*
X1508Y604D02*
X1511Y604D01*
X1524Y604D02*
X1527Y604D01*
X1535Y604D02*
X1540Y604D01*
X1655Y604D02*
X1660Y604D01*
X496Y603D02*
X498Y603D01*
X509Y603D02*
X511Y603D01*
X524Y603D02*
X527Y603D01*
X535Y603D02*
X541Y603D01*
X655Y603D02*
X661Y603D01*
X696Y603D02*
X698Y603D01*
X709Y603D02*
X711Y603D01*
X724Y603D02*
X727Y603D01*
X735Y603D02*
X740Y603D01*
X855Y603D02*
X861Y603D01*
X896Y603D02*
X898Y603D01*
X909Y603D02*
X911Y603D01*
X924Y603D02*
X927Y603D01*
X935Y603D02*
X940Y603D01*
X1055Y603D02*
X1061Y603D01*
X1095Y603D02*
X1098Y603D01*
X1109Y603D02*
X1111Y603D01*
X1124Y603D02*
X1127Y603D01*
X1135Y603D02*
X1140Y603D01*
X1255Y603D02*
X1261Y603D01*
X1295Y603D02*
X1298Y603D01*
X1308Y603D02*
X1311Y603D01*
X1324Y603D02*
X1327Y603D01*
X1335Y603D02*
X1340Y603D01*
X1455Y603D02*
X1460Y603D01*
X1495Y603D02*
X1498Y603D01*
X1508Y603D02*
X1511Y603D01*
X1524Y603D02*
X1527Y603D01*
X1535Y603D02*
X1540Y603D01*
X1655Y603D02*
X1660Y603D01*
X496Y602D02*
X498Y602D01*
X509Y602D02*
X511Y602D01*
X524Y602D02*
X527Y602D01*
X535Y602D02*
X541Y602D01*
X656Y602D02*
X661Y602D01*
X696Y602D02*
X698Y602D01*
X709Y602D02*
X711Y602D01*
X724Y602D02*
X727Y602D01*
X735Y602D02*
X740Y602D01*
X856Y602D02*
X861Y602D01*
X895Y602D02*
X898Y602D01*
X909Y602D02*
X911Y602D01*
X924Y602D02*
X927Y602D01*
X935Y602D02*
X940Y602D01*
X1056Y602D02*
X1061Y602D01*
X1095Y602D02*
X1098Y602D01*
X1109Y602D02*
X1111Y602D01*
X1124Y602D02*
X1127Y602D01*
X1135Y602D02*
X1140Y602D01*
X1255Y602D02*
X1261Y602D01*
X1295Y602D02*
X1298Y602D01*
X1309Y602D02*
X1311Y602D01*
X1324Y602D02*
X1327Y602D01*
X1335Y602D02*
X1340Y602D01*
X1455Y602D02*
X1461Y602D01*
X1495Y602D02*
X1498Y602D01*
X1508Y602D02*
X1511Y602D01*
X1524Y602D02*
X1527Y602D01*
X1535Y602D02*
X1540Y602D01*
X1655Y602D02*
X1661Y602D01*
X496Y601D02*
X498Y601D01*
X509Y601D02*
X511Y601D01*
X524Y601D02*
X527Y601D01*
X535Y601D02*
X541Y601D01*
X656Y601D02*
X661Y601D01*
X696Y601D02*
X698Y601D01*
X709Y601D02*
X711Y601D01*
X724Y601D02*
X727Y601D01*
X735Y601D02*
X740Y601D01*
X856Y601D02*
X861Y601D01*
X895Y601D02*
X898Y601D01*
X909Y601D02*
X911Y601D01*
X924Y601D02*
X927Y601D01*
X935Y601D02*
X940Y601D01*
X1056Y601D02*
X1061Y601D01*
X1095Y601D02*
X1098Y601D01*
X1109Y601D02*
X1111Y601D01*
X1124Y601D02*
X1127Y601D01*
X1135Y601D02*
X1140Y601D01*
X1256Y601D02*
X1261Y601D01*
X1295Y601D02*
X1298Y601D01*
X1309Y601D02*
X1311Y601D01*
X1324Y601D02*
X1327Y601D01*
X1335Y601D02*
X1340Y601D01*
X1456Y601D02*
X1461Y601D01*
X1495Y601D02*
X1498Y601D01*
X1508Y601D02*
X1511Y601D01*
X1524Y601D02*
X1527Y601D01*
X1535Y601D02*
X1540Y601D01*
X1656Y601D02*
X1661Y601D01*
X496Y600D02*
X498Y600D01*
X509Y600D02*
X511Y600D01*
X524Y600D02*
X527Y600D01*
X535Y600D02*
X541Y600D01*
X656Y600D02*
X662Y600D01*
X696Y600D02*
X698Y600D01*
X709Y600D02*
X711Y600D01*
X724Y600D02*
X727Y600D01*
X735Y600D02*
X740Y600D01*
X856Y600D02*
X862Y600D01*
X895Y600D02*
X898Y600D01*
X909Y600D02*
X911Y600D01*
X924Y600D02*
X927Y600D01*
X935Y600D02*
X940Y600D01*
X1056Y600D02*
X1062Y600D01*
X1095Y600D02*
X1098Y600D01*
X1109Y600D02*
X1111Y600D01*
X1124Y600D02*
X1127Y600D01*
X1135Y600D02*
X1140Y600D01*
X1256Y600D02*
X1261Y600D01*
X1295Y600D02*
X1298Y600D01*
X1309Y600D02*
X1311Y600D01*
X1324Y600D02*
X1327Y600D01*
X1335Y600D02*
X1340Y600D01*
X1456Y600D02*
X1461Y600D01*
X1495Y600D02*
X1498Y600D01*
X1508Y600D02*
X1511Y600D01*
X1524Y600D02*
X1527Y600D01*
X1535Y600D02*
X1540Y600D01*
X1656Y600D02*
X1661Y600D01*
X496Y599D02*
X498Y599D01*
X509Y599D02*
X511Y599D01*
X524Y599D02*
X527Y599D01*
X535Y599D02*
X541Y599D01*
X657Y599D02*
X662Y599D01*
X696Y599D02*
X698Y599D01*
X709Y599D02*
X711Y599D01*
X724Y599D02*
X727Y599D01*
X735Y599D02*
X740Y599D01*
X857Y599D02*
X862Y599D01*
X895Y599D02*
X898Y599D01*
X909Y599D02*
X911Y599D01*
X924Y599D02*
X927Y599D01*
X935Y599D02*
X940Y599D01*
X1057Y599D02*
X1062Y599D01*
X1095Y599D02*
X1098Y599D01*
X1109Y599D02*
X1111Y599D01*
X1124Y599D02*
X1127Y599D01*
X1135Y599D02*
X1140Y599D01*
X1257Y599D02*
X1262Y599D01*
X1295Y599D02*
X1298Y599D01*
X1309Y599D02*
X1311Y599D01*
X1324Y599D02*
X1327Y599D01*
X1335Y599D02*
X1340Y599D01*
X1457Y599D02*
X1462Y599D01*
X1495Y599D02*
X1498Y599D01*
X1508Y599D02*
X1511Y599D01*
X1524Y599D02*
X1527Y599D01*
X1535Y599D02*
X1540Y599D01*
X1656Y599D02*
X1662Y599D01*
X496Y598D02*
X498Y598D01*
X509Y598D02*
X511Y598D01*
X524Y598D02*
X527Y598D01*
X535Y598D02*
X541Y598D01*
X657Y598D02*
X662Y598D01*
X696Y598D02*
X698Y598D01*
X709Y598D02*
X711Y598D01*
X724Y598D02*
X727Y598D01*
X735Y598D02*
X740Y598D01*
X857Y598D02*
X862Y598D01*
X895Y598D02*
X898Y598D01*
X909Y598D02*
X911Y598D01*
X924Y598D02*
X927Y598D01*
X935Y598D02*
X940Y598D01*
X1057Y598D02*
X1062Y598D01*
X1095Y598D02*
X1098Y598D01*
X1109Y598D02*
X1111Y598D01*
X1124Y598D02*
X1127Y598D01*
X1135Y598D02*
X1140Y598D01*
X1257Y598D02*
X1262Y598D01*
X1295Y598D02*
X1298Y598D01*
X1309Y598D02*
X1311Y598D01*
X1324Y598D02*
X1327Y598D01*
X1335Y598D02*
X1340Y598D01*
X1457Y598D02*
X1462Y598D01*
X1495Y598D02*
X1498Y598D01*
X1508Y598D02*
X1511Y598D01*
X1524Y598D02*
X1527Y598D01*
X1535Y598D02*
X1540Y598D01*
X1657Y598D02*
X1662Y598D01*
X496Y597D02*
X527Y597D01*
X535Y597D02*
X541Y597D01*
X657Y597D02*
X662Y597D01*
X696Y597D02*
X727Y597D01*
X735Y597D02*
X740Y597D01*
X857Y597D02*
X862Y597D01*
X895Y597D02*
X927Y597D01*
X935Y597D02*
X940Y597D01*
X1057Y597D02*
X1062Y597D01*
X1095Y597D02*
X1127Y597D01*
X1135Y597D02*
X1140Y597D01*
X1257Y597D02*
X1262Y597D01*
X1295Y597D02*
X1327Y597D01*
X1335Y597D02*
X1340Y597D01*
X1457Y597D02*
X1462Y597D01*
X1495Y597D02*
X1527Y597D01*
X1535Y597D02*
X1540Y597D01*
X1657Y597D02*
X1662Y597D01*
X496Y596D02*
X527Y596D01*
X535Y596D02*
X541Y596D01*
X658Y596D02*
X663Y596D01*
X696Y596D02*
X727Y596D01*
X735Y596D02*
X740Y596D01*
X858Y596D02*
X863Y596D01*
X895Y596D02*
X927Y596D01*
X935Y596D02*
X940Y596D01*
X1057Y596D02*
X1063Y596D01*
X1095Y596D02*
X1127Y596D01*
X1135Y596D02*
X1140Y596D01*
X1257Y596D02*
X1263Y596D01*
X1295Y596D02*
X1327Y596D01*
X1335Y596D02*
X1340Y596D01*
X1457Y596D02*
X1463Y596D01*
X1495Y596D02*
X1527Y596D01*
X1535Y596D02*
X1540Y596D01*
X1657Y596D02*
X1663Y596D01*
X496Y595D02*
X527Y595D01*
X535Y595D02*
X541Y595D01*
X658Y595D02*
X663Y595D01*
X696Y595D02*
X727Y595D01*
X735Y595D02*
X740Y595D01*
X858Y595D02*
X863Y595D01*
X895Y595D02*
X927Y595D01*
X935Y595D02*
X940Y595D01*
X1058Y595D02*
X1063Y595D01*
X1095Y595D02*
X1127Y595D01*
X1135Y595D02*
X1140Y595D01*
X1258Y595D02*
X1263Y595D01*
X1295Y595D02*
X1327Y595D01*
X1335Y595D02*
X1340Y595D01*
X1458Y595D02*
X1463Y595D01*
X1495Y595D02*
X1527Y595D01*
X1535Y595D02*
X1540Y595D01*
X1658Y595D02*
X1663Y595D01*
X496Y594D02*
X527Y594D01*
X535Y594D02*
X541Y594D01*
X658Y594D02*
X663Y594D01*
X696Y594D02*
X727Y594D01*
X735Y594D02*
X740Y594D01*
X858Y594D02*
X863Y594D01*
X895Y594D02*
X927Y594D01*
X935Y594D02*
X940Y594D01*
X1058Y594D02*
X1063Y594D01*
X1095Y594D02*
X1127Y594D01*
X1135Y594D02*
X1140Y594D01*
X1258Y594D02*
X1263Y594D01*
X1295Y594D02*
X1327Y594D01*
X1335Y594D02*
X1340Y594D01*
X1458Y594D02*
X1463Y594D01*
X1495Y594D02*
X1527Y594D01*
X1535Y594D02*
X1540Y594D01*
X1658Y594D02*
X1663Y594D01*
X496Y593D02*
X526Y593D01*
X535Y593D02*
X541Y593D01*
X658Y593D02*
X663Y593D01*
X696Y593D02*
X726Y593D01*
X735Y593D02*
X740Y593D01*
X858Y593D02*
X863Y593D01*
X896Y593D02*
X926Y593D01*
X935Y593D02*
X940Y593D01*
X1058Y593D02*
X1063Y593D01*
X1096Y593D02*
X1126Y593D01*
X1135Y593D02*
X1140Y593D01*
X1258Y593D02*
X1263Y593D01*
X1296Y593D02*
X1326Y593D01*
X1335Y593D02*
X1340Y593D01*
X1458Y593D02*
X1463Y593D01*
X1496Y593D02*
X1526Y593D01*
X1535Y593D02*
X1540Y593D01*
X1658Y593D02*
X1663Y593D01*
X535Y592D02*
X541Y592D01*
X659Y592D02*
X664Y592D01*
X735Y592D02*
X740Y592D01*
X859Y592D02*
X864Y592D01*
X935Y592D02*
X940Y592D01*
X1059Y592D02*
X1064Y592D01*
X1135Y592D02*
X1140Y592D01*
X1259Y592D02*
X1263Y592D01*
X1335Y592D02*
X1340Y592D01*
X1458Y592D02*
X1463Y592D01*
X1535Y592D02*
X1540Y592D01*
X1658Y592D02*
X1663Y592D01*
X535Y591D02*
X541Y591D01*
X659Y591D02*
X664Y591D01*
X735Y591D02*
X740Y591D01*
X859Y591D02*
X864Y591D01*
X935Y591D02*
X940Y591D01*
X1059Y591D02*
X1064Y591D01*
X1135Y591D02*
X1140Y591D01*
X1259Y591D02*
X1264Y591D01*
X1335Y591D02*
X1340Y591D01*
X1459Y591D02*
X1464Y591D01*
X1535Y591D02*
X1540Y591D01*
X1659Y591D02*
X1664Y591D01*
X535Y590D02*
X541Y590D01*
X659Y590D02*
X664Y590D01*
X735Y590D02*
X740Y590D01*
X859Y590D02*
X864Y590D01*
X935Y590D02*
X940Y590D01*
X1059Y590D02*
X1064Y590D01*
X1135Y590D02*
X1140Y590D01*
X1259Y590D02*
X1264Y590D01*
X1335Y590D02*
X1340Y590D01*
X1459Y590D02*
X1464Y590D01*
X1535Y590D02*
X1540Y590D01*
X1659Y590D02*
X1664Y590D01*
X535Y589D02*
X541Y589D01*
X659Y589D02*
X664Y589D01*
X735Y589D02*
X740Y589D01*
X859Y589D02*
X864Y589D01*
X935Y589D02*
X940Y589D01*
X1059Y589D02*
X1064Y589D01*
X1135Y589D02*
X1140Y589D01*
X1259Y589D02*
X1264Y589D01*
X1335Y589D02*
X1340Y589D01*
X1459Y589D02*
X1464Y589D01*
X1535Y589D02*
X1540Y589D01*
X1659Y589D02*
X1664Y589D01*
X518Y588D02*
X519Y588D01*
X535Y588D02*
X541Y588D01*
X659Y588D02*
X664Y588D01*
X718Y588D02*
X719Y588D01*
X735Y588D02*
X740Y588D01*
X859Y588D02*
X864Y588D01*
X918Y588D02*
X919Y588D01*
X935Y588D02*
X940Y588D01*
X1059Y588D02*
X1064Y588D01*
X1118Y588D02*
X1119Y588D01*
X1135Y588D02*
X1140Y588D01*
X1259Y588D02*
X1264Y588D01*
X1318Y588D02*
X1319Y588D01*
X1335Y588D02*
X1340Y588D01*
X1459Y588D02*
X1464Y588D01*
X1518Y588D02*
X1519Y588D01*
X1535Y588D02*
X1540Y588D01*
X1659Y588D02*
X1664Y588D01*
X501Y587D02*
X504Y587D01*
X515Y587D02*
X522Y587D01*
X535Y587D02*
X541Y587D01*
X660Y587D02*
X665Y587D01*
X701Y587D02*
X704Y587D01*
X715Y587D02*
X722Y587D01*
X735Y587D02*
X740Y587D01*
X860Y587D02*
X864Y587D01*
X901Y587D02*
X904Y587D01*
X915Y587D02*
X922Y587D01*
X935Y587D02*
X940Y587D01*
X1059Y587D02*
X1064Y587D01*
X1101Y587D02*
X1104Y587D01*
X1115Y587D02*
X1122Y587D01*
X1135Y587D02*
X1140Y587D01*
X1259Y587D02*
X1264Y587D01*
X1301Y587D02*
X1304Y587D01*
X1314Y587D02*
X1322Y587D01*
X1335Y587D02*
X1340Y587D01*
X1459Y587D02*
X1464Y587D01*
X1501Y587D02*
X1504Y587D01*
X1514Y587D02*
X1522Y587D01*
X1535Y587D02*
X1540Y587D01*
X1659Y587D02*
X1664Y587D01*
X499Y586D02*
X506Y586D01*
X513Y586D02*
X524Y586D01*
X535Y586D02*
X541Y586D01*
X660Y586D02*
X665Y586D01*
X699Y586D02*
X706Y586D01*
X713Y586D02*
X724Y586D01*
X735Y586D02*
X740Y586D01*
X860Y586D02*
X865Y586D01*
X899Y586D02*
X906Y586D01*
X913Y586D02*
X924Y586D01*
X935Y586D02*
X940Y586D01*
X1060Y586D02*
X1064Y586D01*
X1099Y586D02*
X1106Y586D01*
X1113Y586D02*
X1124Y586D01*
X1135Y586D02*
X1140Y586D01*
X1260Y586D02*
X1264Y586D01*
X1299Y586D02*
X1306Y586D01*
X1313Y586D02*
X1324Y586D01*
X1335Y586D02*
X1340Y586D01*
X1460Y586D02*
X1464Y586D01*
X1498Y586D02*
X1506Y586D01*
X1513Y586D02*
X1524Y586D01*
X1535Y586D02*
X1540Y586D01*
X1660Y586D02*
X1664Y586D01*
X498Y585D02*
X508Y585D01*
X512Y585D02*
X525Y585D01*
X535Y585D02*
X541Y585D01*
X660Y585D02*
X665Y585D01*
X697Y585D02*
X708Y585D01*
X712Y585D02*
X725Y585D01*
X735Y585D02*
X740Y585D01*
X860Y585D02*
X865Y585D01*
X897Y585D02*
X908Y585D01*
X912Y585D02*
X925Y585D01*
X935Y585D02*
X940Y585D01*
X1060Y585D02*
X1065Y585D01*
X1097Y585D02*
X1107Y585D01*
X1112Y585D02*
X1125Y585D01*
X1135Y585D02*
X1140Y585D01*
X1260Y585D02*
X1265Y585D01*
X1297Y585D02*
X1307Y585D01*
X1312Y585D02*
X1325Y585D01*
X1335Y585D02*
X1340Y585D01*
X1460Y585D02*
X1464Y585D01*
X1497Y585D02*
X1507Y585D01*
X1512Y585D02*
X1525Y585D01*
X1535Y585D02*
X1540Y585D01*
X1660Y585D02*
X1664Y585D01*
X497Y584D02*
X509Y584D01*
X512Y584D02*
X526Y584D01*
X535Y584D02*
X541Y584D01*
X660Y584D02*
X665Y584D01*
X697Y584D02*
X709Y584D01*
X712Y584D02*
X726Y584D01*
X735Y584D02*
X740Y584D01*
X860Y584D02*
X865Y584D01*
X897Y584D02*
X908Y584D01*
X912Y584D02*
X926Y584D01*
X935Y584D02*
X940Y584D01*
X1060Y584D02*
X1065Y584D01*
X1097Y584D02*
X1108Y584D01*
X1112Y584D02*
X1126Y584D01*
X1135Y584D02*
X1140Y584D01*
X1260Y584D02*
X1265Y584D01*
X1296Y584D02*
X1308Y584D01*
X1312Y584D02*
X1325Y584D01*
X1335Y584D02*
X1340Y584D01*
X1460Y584D02*
X1465Y584D01*
X1496Y584D02*
X1508Y584D01*
X1512Y584D02*
X1525Y584D01*
X1535Y584D02*
X1540Y584D01*
X1660Y584D02*
X1665Y584D01*
X496Y583D02*
X502Y583D01*
X504Y583D02*
X509Y583D01*
X511Y583D02*
X515Y583D01*
X522Y583D02*
X526Y583D01*
X535Y583D02*
X541Y583D01*
X660Y583D02*
X665Y583D01*
X696Y583D02*
X702Y583D01*
X704Y583D02*
X709Y583D01*
X711Y583D02*
X715Y583D01*
X722Y583D02*
X726Y583D01*
X735Y583D02*
X740Y583D01*
X860Y583D02*
X865Y583D01*
X896Y583D02*
X902Y583D01*
X904Y583D02*
X909Y583D01*
X911Y583D02*
X915Y583D01*
X922Y583D02*
X926Y583D01*
X935Y583D02*
X940Y583D01*
X1060Y583D02*
X1065Y583D01*
X1096Y583D02*
X1102Y583D01*
X1104Y583D02*
X1109Y583D01*
X1111Y583D02*
X1115Y583D01*
X1122Y583D02*
X1126Y583D01*
X1135Y583D02*
X1140Y583D01*
X1260Y583D02*
X1265Y583D01*
X1296Y583D02*
X1302Y583D01*
X1304Y583D02*
X1309Y583D01*
X1311Y583D02*
X1315Y583D01*
X1322Y583D02*
X1326Y583D01*
X1335Y583D02*
X1340Y583D01*
X1460Y583D02*
X1465Y583D01*
X1496Y583D02*
X1502Y583D01*
X1504Y583D02*
X1509Y583D01*
X1511Y583D02*
X1515Y583D01*
X1522Y583D02*
X1526Y583D01*
X1535Y583D02*
X1540Y583D01*
X1660Y583D02*
X1665Y583D01*
X496Y582D02*
X499Y582D01*
X507Y582D02*
X514Y582D01*
X524Y582D02*
X527Y582D01*
X535Y582D02*
X541Y582D01*
X660Y582D02*
X665Y582D01*
X696Y582D02*
X699Y582D01*
X707Y582D02*
X714Y582D01*
X724Y582D02*
X727Y582D01*
X735Y582D02*
X740Y582D01*
X860Y582D02*
X865Y582D01*
X896Y582D02*
X899Y582D01*
X907Y582D02*
X914Y582D01*
X924Y582D02*
X927Y582D01*
X935Y582D02*
X940Y582D01*
X1060Y582D02*
X1065Y582D01*
X1095Y582D02*
X1099Y582D01*
X1107Y582D02*
X1114Y582D01*
X1124Y582D02*
X1127Y582D01*
X1135Y582D02*
X1140Y582D01*
X1260Y582D02*
X1265Y582D01*
X1295Y582D02*
X1299Y582D01*
X1307Y582D02*
X1314Y582D01*
X1323Y582D02*
X1327Y582D01*
X1335Y582D02*
X1340Y582D01*
X1460Y582D02*
X1465Y582D01*
X1495Y582D02*
X1499Y582D01*
X1507Y582D02*
X1514Y582D01*
X1523Y582D02*
X1527Y582D01*
X1535Y582D02*
X1540Y582D01*
X1660Y582D02*
X1665Y582D01*
X495Y581D02*
X498Y581D01*
X508Y581D02*
X513Y581D01*
X524Y581D02*
X527Y581D01*
X535Y581D02*
X541Y581D01*
X660Y581D02*
X665Y581D01*
X695Y581D02*
X698Y581D01*
X708Y581D02*
X713Y581D01*
X724Y581D02*
X727Y581D01*
X735Y581D02*
X740Y581D01*
X860Y581D02*
X865Y581D01*
X895Y581D02*
X898Y581D01*
X908Y581D02*
X913Y581D01*
X924Y581D02*
X927Y581D01*
X935Y581D02*
X940Y581D01*
X1060Y581D02*
X1065Y581D01*
X1095Y581D02*
X1098Y581D01*
X1108Y581D02*
X1113Y581D01*
X1124Y581D02*
X1127Y581D01*
X1135Y581D02*
X1140Y581D01*
X1260Y581D02*
X1265Y581D01*
X1295Y581D02*
X1298Y581D01*
X1308Y581D02*
X1313Y581D01*
X1324Y581D02*
X1327Y581D01*
X1335Y581D02*
X1340Y581D01*
X1460Y581D02*
X1465Y581D01*
X1495Y581D02*
X1498Y581D01*
X1508Y581D02*
X1513Y581D01*
X1524Y581D02*
X1527Y581D01*
X1535Y581D02*
X1540Y581D01*
X1660Y581D02*
X1665Y581D01*
X495Y580D02*
X498Y580D01*
X509Y580D02*
X513Y580D01*
X525Y580D02*
X527Y580D01*
X535Y580D02*
X541Y580D01*
X660Y580D02*
X665Y580D01*
X695Y580D02*
X697Y580D01*
X709Y580D02*
X713Y580D01*
X725Y580D02*
X727Y580D01*
X735Y580D02*
X740Y580D01*
X860Y580D02*
X865Y580D01*
X895Y580D02*
X897Y580D01*
X909Y580D02*
X913Y580D01*
X925Y580D02*
X927Y580D01*
X935Y580D02*
X940Y580D01*
X1060Y580D02*
X1065Y580D01*
X1095Y580D02*
X1097Y580D01*
X1109Y580D02*
X1113Y580D01*
X1125Y580D02*
X1127Y580D01*
X1135Y580D02*
X1140Y580D01*
X1260Y580D02*
X1265Y580D01*
X1295Y580D02*
X1297Y580D01*
X1309Y580D02*
X1313Y580D01*
X1325Y580D02*
X1327Y580D01*
X1335Y580D02*
X1340Y580D01*
X1460Y580D02*
X1465Y580D01*
X1495Y580D02*
X1497Y580D01*
X1509Y580D02*
X1513Y580D01*
X1525Y580D02*
X1527Y580D01*
X1535Y580D02*
X1540Y580D01*
X1660Y580D02*
X1665Y580D01*
X495Y579D02*
X497Y579D01*
X509Y579D02*
X512Y579D01*
X525Y579D02*
X528Y579D01*
X535Y579D02*
X541Y579D01*
X660Y579D02*
X665Y579D01*
X695Y579D02*
X697Y579D01*
X709Y579D02*
X712Y579D01*
X725Y579D02*
X727Y579D01*
X735Y579D02*
X740Y579D01*
X860Y579D02*
X865Y579D01*
X895Y579D02*
X897Y579D01*
X909Y579D02*
X912Y579D01*
X925Y579D02*
X927Y579D01*
X935Y579D02*
X940Y579D01*
X1060Y579D02*
X1065Y579D01*
X1095Y579D02*
X1097Y579D01*
X1109Y579D02*
X1112Y579D01*
X1125Y579D02*
X1127Y579D01*
X1135Y579D02*
X1140Y579D01*
X1260Y579D02*
X1265Y579D01*
X1295Y579D02*
X1297Y579D01*
X1309Y579D02*
X1312Y579D01*
X1325Y579D02*
X1327Y579D01*
X1335Y579D02*
X1340Y579D01*
X1460Y579D02*
X1465Y579D01*
X1495Y579D02*
X1497Y579D01*
X1509Y579D02*
X1512Y579D01*
X1525Y579D02*
X1527Y579D01*
X1535Y579D02*
X1540Y579D01*
X1660Y579D02*
X1665Y579D01*
X495Y578D02*
X497Y578D01*
X509Y578D02*
X512Y578D01*
X525Y578D02*
X528Y578D01*
X535Y578D02*
X541Y578D01*
X660Y578D02*
X665Y578D01*
X695Y578D02*
X697Y578D01*
X709Y578D02*
X712Y578D01*
X725Y578D02*
X728Y578D01*
X735Y578D02*
X740Y578D01*
X860Y578D02*
X865Y578D01*
X895Y578D02*
X897Y578D01*
X909Y578D02*
X912Y578D01*
X925Y578D02*
X927Y578D01*
X935Y578D02*
X940Y578D01*
X1060Y578D02*
X1065Y578D01*
X1095Y578D02*
X1097Y578D01*
X1109Y578D02*
X1112Y578D01*
X1125Y578D02*
X1127Y578D01*
X1135Y578D02*
X1140Y578D01*
X1260Y578D02*
X1265Y578D01*
X1295Y578D02*
X1297Y578D01*
X1309Y578D02*
X1312Y578D01*
X1325Y578D02*
X1327Y578D01*
X1335Y578D02*
X1340Y578D01*
X1460Y578D02*
X1465Y578D01*
X1495Y578D02*
X1497Y578D01*
X1509Y578D02*
X1512Y578D01*
X1525Y578D02*
X1527Y578D01*
X1535Y578D02*
X1540Y578D01*
X1660Y578D02*
X1665Y578D01*
X495Y577D02*
X497Y577D01*
X508Y577D02*
X511Y577D01*
X525Y577D02*
X528Y577D01*
X535Y577D02*
X541Y577D01*
X660Y577D02*
X665Y577D01*
X695Y577D02*
X697Y577D01*
X708Y577D02*
X711Y577D01*
X725Y577D02*
X728Y577D01*
X735Y577D02*
X740Y577D01*
X860Y577D02*
X865Y577D01*
X895Y577D02*
X897Y577D01*
X908Y577D02*
X911Y577D01*
X925Y577D02*
X927Y577D01*
X935Y577D02*
X940Y577D01*
X1060Y577D02*
X1065Y577D01*
X1095Y577D02*
X1097Y577D01*
X1108Y577D02*
X1111Y577D01*
X1125Y577D02*
X1127Y577D01*
X1135Y577D02*
X1140Y577D01*
X1260Y577D02*
X1265Y577D01*
X1295Y577D02*
X1297Y577D01*
X1308Y577D02*
X1311Y577D01*
X1325Y577D02*
X1327Y577D01*
X1335Y577D02*
X1340Y577D01*
X1460Y577D02*
X1465Y577D01*
X1495Y577D02*
X1497Y577D01*
X1508Y577D02*
X1511Y577D01*
X1525Y577D02*
X1527Y577D01*
X1535Y577D02*
X1540Y577D01*
X1660Y577D02*
X1665Y577D01*
X495Y576D02*
X497Y576D01*
X508Y576D02*
X511Y576D01*
X525Y576D02*
X527Y576D01*
X535Y576D02*
X541Y576D01*
X660Y576D02*
X665Y576D01*
X695Y576D02*
X697Y576D01*
X708Y576D02*
X711Y576D01*
X725Y576D02*
X727Y576D01*
X735Y576D02*
X740Y576D01*
X860Y576D02*
X865Y576D01*
X895Y576D02*
X897Y576D01*
X908Y576D02*
X911Y576D01*
X925Y576D02*
X927Y576D01*
X935Y576D02*
X940Y576D01*
X1060Y576D02*
X1065Y576D01*
X1095Y576D02*
X1097Y576D01*
X1108Y576D02*
X1111Y576D01*
X1125Y576D02*
X1127Y576D01*
X1135Y576D02*
X1140Y576D01*
X1260Y576D02*
X1265Y576D01*
X1295Y576D02*
X1297Y576D01*
X1308Y576D02*
X1311Y576D01*
X1325Y576D02*
X1327Y576D01*
X1335Y576D02*
X1340Y576D01*
X1460Y576D02*
X1465Y576D01*
X1495Y576D02*
X1497Y576D01*
X1508Y576D02*
X1511Y576D01*
X1525Y576D02*
X1527Y576D01*
X1535Y576D02*
X1540Y576D01*
X1660Y576D02*
X1665Y576D01*
X495Y575D02*
X498Y575D01*
X507Y575D02*
X511Y575D01*
X525Y575D02*
X527Y575D01*
X535Y575D02*
X541Y575D01*
X660Y575D02*
X665Y575D01*
X695Y575D02*
X698Y575D01*
X707Y575D02*
X711Y575D01*
X725Y575D02*
X727Y575D01*
X735Y575D02*
X740Y575D01*
X860Y575D02*
X865Y575D01*
X895Y575D02*
X897Y575D01*
X907Y575D02*
X911Y575D01*
X925Y575D02*
X927Y575D01*
X935Y575D02*
X940Y575D01*
X1060Y575D02*
X1065Y575D01*
X1095Y575D02*
X1097Y575D01*
X1107Y575D02*
X1111Y575D01*
X1125Y575D02*
X1127Y575D01*
X1135Y575D02*
X1140Y575D01*
X1260Y575D02*
X1265Y575D01*
X1295Y575D02*
X1297Y575D01*
X1307Y575D02*
X1311Y575D01*
X1325Y575D02*
X1327Y575D01*
X1335Y575D02*
X1340Y575D01*
X1460Y575D02*
X1465Y575D01*
X1495Y575D02*
X1497Y575D01*
X1507Y575D02*
X1511Y575D01*
X1525Y575D02*
X1527Y575D01*
X1535Y575D02*
X1540Y575D01*
X1660Y575D02*
X1665Y575D01*
X495Y574D02*
X498Y574D01*
X507Y574D02*
X512Y574D01*
X524Y574D02*
X527Y574D01*
X535Y574D02*
X541Y574D01*
X660Y574D02*
X665Y574D01*
X695Y574D02*
X698Y574D01*
X707Y574D02*
X712Y574D01*
X724Y574D02*
X727Y574D01*
X735Y574D02*
X740Y574D01*
X860Y574D02*
X865Y574D01*
X895Y574D02*
X898Y574D01*
X907Y574D02*
X912Y574D01*
X924Y574D02*
X927Y574D01*
X935Y574D02*
X940Y574D01*
X1060Y574D02*
X1065Y574D01*
X1095Y574D02*
X1098Y574D01*
X1106Y574D02*
X1112Y574D01*
X1124Y574D02*
X1127Y574D01*
X1135Y574D02*
X1140Y574D01*
X1260Y574D02*
X1265Y574D01*
X1295Y574D02*
X1298Y574D01*
X1306Y574D02*
X1311Y574D01*
X1324Y574D02*
X1327Y574D01*
X1335Y574D02*
X1340Y574D01*
X1460Y574D02*
X1465Y574D01*
X1495Y574D02*
X1498Y574D01*
X1506Y574D02*
X1511Y574D01*
X1524Y574D02*
X1527Y574D01*
X1535Y574D02*
X1540Y574D01*
X1660Y574D02*
X1665Y574D01*
X496Y573D02*
X499Y573D01*
X506Y573D02*
X513Y573D01*
X523Y573D02*
X527Y573D01*
X535Y573D02*
X541Y573D01*
X660Y573D02*
X665Y573D01*
X696Y573D02*
X699Y573D01*
X705Y573D02*
X713Y573D01*
X723Y573D02*
X727Y573D01*
X735Y573D02*
X740Y573D01*
X860Y573D02*
X865Y573D01*
X896Y573D02*
X899Y573D01*
X905Y573D02*
X913Y573D01*
X923Y573D02*
X927Y573D01*
X935Y573D02*
X940Y573D01*
X1060Y573D02*
X1065Y573D01*
X1096Y573D02*
X1099Y573D01*
X1105Y573D02*
X1113Y573D01*
X1123Y573D02*
X1127Y573D01*
X1135Y573D02*
X1140Y573D01*
X1260Y573D02*
X1265Y573D01*
X1296Y573D02*
X1299Y573D01*
X1305Y573D02*
X1313Y573D01*
X1323Y573D02*
X1327Y573D01*
X1335Y573D02*
X1340Y573D01*
X1460Y573D02*
X1465Y573D01*
X1496Y573D02*
X1499Y573D01*
X1505Y573D02*
X1513Y573D01*
X1523Y573D02*
X1527Y573D01*
X1535Y573D02*
X1540Y573D01*
X1660Y573D02*
X1665Y573D01*
X496Y572D02*
X509Y572D01*
X511Y572D02*
X515Y572D01*
X521Y572D02*
X526Y572D01*
X535Y572D02*
X541Y572D01*
X660Y572D02*
X665Y572D01*
X696Y572D02*
X709Y572D01*
X711Y572D02*
X715Y572D01*
X721Y572D02*
X726Y572D01*
X735Y572D02*
X740Y572D01*
X860Y572D02*
X865Y572D01*
X896Y572D02*
X909Y572D01*
X911Y572D02*
X915Y572D01*
X921Y572D02*
X926Y572D01*
X935Y572D02*
X940Y572D01*
X1060Y572D02*
X1065Y572D01*
X1096Y572D02*
X1109Y572D01*
X1111Y572D02*
X1115Y572D01*
X1121Y572D02*
X1126Y572D01*
X1135Y572D02*
X1140Y572D01*
X1260Y572D02*
X1265Y572D01*
X1296Y572D02*
X1309Y572D01*
X1311Y572D02*
X1314Y572D01*
X1321Y572D02*
X1326Y572D01*
X1335Y572D02*
X1340Y572D01*
X1460Y572D02*
X1465Y572D01*
X1496Y572D02*
X1509Y572D01*
X1511Y572D02*
X1514Y572D01*
X1521Y572D02*
X1526Y572D01*
X1535Y572D02*
X1540Y572D01*
X1660Y572D02*
X1665Y572D01*
X497Y571D02*
X508Y571D01*
X512Y571D02*
X526Y571D01*
X535Y571D02*
X541Y571D01*
X660Y571D02*
X665Y571D01*
X697Y571D02*
X708Y571D01*
X712Y571D02*
X726Y571D01*
X735Y571D02*
X741Y571D01*
X860Y571D02*
X865Y571D01*
X897Y571D02*
X908Y571D01*
X912Y571D02*
X926Y571D01*
X935Y571D02*
X940Y571D01*
X1060Y571D02*
X1065Y571D01*
X1097Y571D02*
X1108Y571D01*
X1111Y571D02*
X1126Y571D01*
X1135Y571D02*
X1140Y571D01*
X1260Y571D02*
X1265Y571D01*
X1297Y571D02*
X1308Y571D01*
X1311Y571D02*
X1326Y571D01*
X1335Y571D02*
X1340Y571D01*
X1460Y571D02*
X1465Y571D01*
X1497Y571D02*
X1508Y571D01*
X1511Y571D02*
X1526Y571D01*
X1535Y571D02*
X1540Y571D01*
X1660Y571D02*
X1665Y571D01*
X498Y570D02*
X508Y570D01*
X512Y570D02*
X525Y570D01*
X535Y570D02*
X541Y570D01*
X660Y570D02*
X665Y570D01*
X698Y570D02*
X708Y570D01*
X712Y570D02*
X725Y570D01*
X735Y570D02*
X741Y570D01*
X860Y570D02*
X865Y570D01*
X898Y570D02*
X907Y570D01*
X912Y570D02*
X925Y570D01*
X935Y570D02*
X940Y570D01*
X1060Y570D02*
X1065Y570D01*
X1098Y570D02*
X1107Y570D01*
X1112Y570D02*
X1125Y570D01*
X1135Y570D02*
X1140Y570D01*
X1260Y570D02*
X1265Y570D01*
X1298Y570D02*
X1307Y570D01*
X1312Y570D02*
X1325Y570D01*
X1335Y570D02*
X1340Y570D01*
X1460Y570D02*
X1465Y570D01*
X1498Y570D02*
X1507Y570D01*
X1512Y570D02*
X1525Y570D01*
X1535Y570D02*
X1540Y570D01*
X1660Y570D02*
X1665Y570D01*
X499Y569D02*
X506Y569D01*
X514Y569D02*
X524Y569D01*
X535Y569D02*
X541Y569D01*
X660Y569D02*
X665Y569D01*
X699Y569D02*
X706Y569D01*
X713Y569D02*
X724Y569D01*
X735Y569D02*
X741Y569D01*
X860Y569D02*
X865Y569D01*
X899Y569D02*
X906Y569D01*
X913Y569D02*
X924Y569D01*
X935Y569D02*
X940Y569D01*
X1060Y569D02*
X1065Y569D01*
X1099Y569D02*
X1106Y569D01*
X1113Y569D02*
X1124Y569D01*
X1135Y569D02*
X1140Y569D01*
X1260Y569D02*
X1265Y569D01*
X1299Y569D02*
X1306Y569D01*
X1313Y569D02*
X1324Y569D01*
X1335Y569D02*
X1340Y569D01*
X1460Y569D02*
X1465Y569D01*
X1499Y569D02*
X1506Y569D01*
X1513Y569D02*
X1524Y569D01*
X1535Y569D02*
X1540Y569D01*
X1660Y569D02*
X1664Y569D01*
X502Y568D02*
X504Y568D01*
X515Y568D02*
X522Y568D01*
X535Y568D02*
X541Y568D01*
X660Y568D02*
X665Y568D01*
X702Y568D02*
X704Y568D01*
X715Y568D02*
X722Y568D01*
X735Y568D02*
X741Y568D01*
X860Y568D02*
X865Y568D01*
X902Y568D02*
X904Y568D01*
X915Y568D02*
X922Y568D01*
X935Y568D02*
X940Y568D01*
X1060Y568D02*
X1065Y568D01*
X1102Y568D02*
X1103Y568D01*
X1115Y568D02*
X1122Y568D01*
X1135Y568D02*
X1140Y568D01*
X1260Y568D02*
X1264Y568D01*
X1302Y568D02*
X1303Y568D01*
X1315Y568D02*
X1322Y568D01*
X1335Y568D02*
X1340Y568D01*
X1460Y568D02*
X1464Y568D01*
X1502Y568D02*
X1503Y568D01*
X1515Y568D02*
X1522Y568D01*
X1535Y568D02*
X1540Y568D01*
X1660Y568D02*
X1664Y568D01*
X535Y567D02*
X541Y567D01*
X660Y567D02*
X665Y567D01*
X735Y567D02*
X741Y567D01*
X860Y567D02*
X864Y567D01*
X935Y567D02*
X940Y567D01*
X1060Y567D02*
X1064Y567D01*
X1135Y567D02*
X1140Y567D01*
X1260Y567D02*
X1264Y567D01*
X1335Y567D02*
X1340Y567D01*
X1459Y567D02*
X1464Y567D01*
X1535Y567D02*
X1540Y567D01*
X1659Y567D02*
X1664Y567D01*
X535Y566D02*
X541Y566D01*
X660Y566D02*
X664Y566D01*
X735Y566D02*
X741Y566D01*
X860Y566D02*
X864Y566D01*
X935Y566D02*
X940Y566D01*
X1059Y566D02*
X1064Y566D01*
X1135Y566D02*
X1140Y566D01*
X1259Y566D02*
X1264Y566D01*
X1335Y566D02*
X1340Y566D01*
X1459Y566D02*
X1464Y566D01*
X1535Y566D02*
X1540Y566D01*
X1659Y566D02*
X1664Y566D01*
X535Y565D02*
X541Y565D01*
X659Y565D02*
X664Y565D01*
X735Y565D02*
X741Y565D01*
X859Y565D02*
X864Y565D01*
X935Y565D02*
X940Y565D01*
X1059Y565D02*
X1064Y565D01*
X1135Y565D02*
X1140Y565D01*
X1259Y565D02*
X1264Y565D01*
X1335Y565D02*
X1340Y565D01*
X1459Y565D02*
X1464Y565D01*
X1535Y565D02*
X1540Y565D01*
X1659Y565D02*
X1664Y565D01*
X535Y564D02*
X541Y564D01*
X659Y564D02*
X664Y564D01*
X735Y564D02*
X741Y564D01*
X859Y564D02*
X864Y564D01*
X935Y564D02*
X940Y564D01*
X1059Y564D02*
X1064Y564D01*
X1135Y564D02*
X1140Y564D01*
X1259Y564D02*
X1264Y564D01*
X1335Y564D02*
X1340Y564D01*
X1459Y564D02*
X1464Y564D01*
X1535Y564D02*
X1540Y564D01*
X1659Y564D02*
X1664Y564D01*
X535Y563D02*
X541Y563D01*
X659Y563D02*
X664Y563D01*
X735Y563D02*
X741Y563D01*
X859Y563D02*
X864Y563D01*
X935Y563D02*
X940Y563D01*
X1059Y563D02*
X1064Y563D01*
X1135Y563D02*
X1140Y563D01*
X1259Y563D02*
X1264Y563D01*
X1335Y563D02*
X1340Y563D01*
X1459Y563D02*
X1464Y563D01*
X1535Y563D02*
X1540Y563D01*
X1659Y563D02*
X1664Y563D01*
X535Y562D02*
X541Y562D01*
X659Y562D02*
X664Y562D01*
X735Y562D02*
X741Y562D01*
X859Y562D02*
X864Y562D01*
X935Y562D02*
X940Y562D01*
X1059Y562D02*
X1064Y562D01*
X1135Y562D02*
X1140Y562D01*
X1259Y562D02*
X1264Y562D01*
X1335Y562D02*
X1340Y562D01*
X1459Y562D02*
X1464Y562D01*
X1535Y562D02*
X1540Y562D01*
X1659Y562D02*
X1663Y562D01*
X525Y561D02*
X527Y561D01*
X535Y561D02*
X541Y561D01*
X659Y561D02*
X664Y561D01*
X725Y561D02*
X727Y561D01*
X735Y561D02*
X741Y561D01*
X859Y561D02*
X863Y561D01*
X924Y561D02*
X927Y561D01*
X935Y561D02*
X940Y561D01*
X1058Y561D02*
X1063Y561D01*
X1124Y561D02*
X1127Y561D01*
X1135Y561D02*
X1140Y561D01*
X1258Y561D02*
X1263Y561D01*
X1324Y561D02*
X1327Y561D01*
X1335Y561D02*
X1340Y561D01*
X1458Y561D02*
X1463Y561D01*
X1524Y561D02*
X1527Y561D01*
X1535Y561D02*
X1540Y561D01*
X1658Y561D02*
X1663Y561D01*
X525Y560D02*
X527Y560D01*
X535Y560D02*
X541Y560D01*
X658Y560D02*
X663Y560D01*
X725Y560D02*
X727Y560D01*
X735Y560D02*
X741Y560D01*
X858Y560D02*
X863Y560D01*
X924Y560D02*
X927Y560D01*
X935Y560D02*
X940Y560D01*
X1058Y560D02*
X1063Y560D01*
X1124Y560D02*
X1127Y560D01*
X1135Y560D02*
X1140Y560D01*
X1258Y560D02*
X1263Y560D01*
X1324Y560D02*
X1327Y560D01*
X1335Y560D02*
X1340Y560D01*
X1458Y560D02*
X1463Y560D01*
X1524Y560D02*
X1527Y560D01*
X1535Y560D02*
X1540Y560D01*
X1658Y560D02*
X1663Y560D01*
X525Y559D02*
X527Y559D01*
X535Y559D02*
X541Y559D01*
X658Y559D02*
X663Y559D01*
X725Y559D02*
X727Y559D01*
X735Y559D02*
X741Y559D01*
X858Y559D02*
X863Y559D01*
X924Y559D02*
X927Y559D01*
X935Y559D02*
X940Y559D01*
X1058Y559D02*
X1063Y559D01*
X1124Y559D02*
X1127Y559D01*
X1135Y559D02*
X1140Y559D01*
X1258Y559D02*
X1263Y559D01*
X1324Y559D02*
X1327Y559D01*
X1335Y559D02*
X1340Y559D01*
X1458Y559D02*
X1463Y559D01*
X1524Y559D02*
X1527Y559D01*
X1535Y559D02*
X1540Y559D01*
X1658Y559D02*
X1663Y559D01*
X525Y558D02*
X527Y558D01*
X535Y558D02*
X541Y558D01*
X658Y558D02*
X663Y558D01*
X725Y558D02*
X727Y558D01*
X735Y558D02*
X741Y558D01*
X858Y558D02*
X863Y558D01*
X924Y558D02*
X927Y558D01*
X935Y558D02*
X940Y558D01*
X1058Y558D02*
X1063Y558D01*
X1124Y558D02*
X1127Y558D01*
X1135Y558D02*
X1140Y558D01*
X1258Y558D02*
X1263Y558D01*
X1324Y558D02*
X1327Y558D01*
X1335Y558D02*
X1340Y558D01*
X1458Y558D02*
X1463Y558D01*
X1524Y558D02*
X1527Y558D01*
X1535Y558D02*
X1540Y558D01*
X1658Y558D02*
X1663Y558D01*
X525Y557D02*
X527Y557D01*
X535Y557D02*
X541Y557D01*
X658Y557D02*
X663Y557D01*
X725Y557D02*
X727Y557D01*
X735Y557D02*
X741Y557D01*
X857Y557D02*
X863Y557D01*
X924Y557D02*
X927Y557D01*
X935Y557D02*
X940Y557D01*
X1057Y557D02*
X1063Y557D01*
X1124Y557D02*
X1127Y557D01*
X1135Y557D02*
X1140Y557D01*
X1257Y557D02*
X1263Y557D01*
X1324Y557D02*
X1327Y557D01*
X1335Y557D02*
X1340Y557D01*
X1457Y557D02*
X1462Y557D01*
X1524Y557D02*
X1527Y557D01*
X1535Y557D02*
X1540Y557D01*
X1657Y557D02*
X1662Y557D01*
X496Y556D02*
X527Y556D01*
X535Y556D02*
X541Y556D01*
X657Y556D02*
X662Y556D01*
X696Y556D02*
X727Y556D01*
X735Y556D02*
X741Y556D01*
X857Y556D02*
X862Y556D01*
X896Y556D02*
X927Y556D01*
X935Y556D02*
X940Y556D01*
X1057Y556D02*
X1062Y556D01*
X1096Y556D02*
X1127Y556D01*
X1135Y556D02*
X1140Y556D01*
X1257Y556D02*
X1262Y556D01*
X1296Y556D02*
X1327Y556D01*
X1335Y556D02*
X1340Y556D01*
X1457Y556D02*
X1462Y556D01*
X1496Y556D02*
X1527Y556D01*
X1535Y556D02*
X1540Y556D01*
X1657Y556D02*
X1662Y556D01*
X495Y555D02*
X527Y555D01*
X535Y555D02*
X541Y555D01*
X657Y555D02*
X662Y555D01*
X695Y555D02*
X727Y555D01*
X735Y555D02*
X741Y555D01*
X857Y555D02*
X862Y555D01*
X895Y555D02*
X927Y555D01*
X935Y555D02*
X940Y555D01*
X1057Y555D02*
X1062Y555D01*
X1095Y555D02*
X1127Y555D01*
X1135Y555D02*
X1140Y555D01*
X1257Y555D02*
X1262Y555D01*
X1295Y555D02*
X1327Y555D01*
X1335Y555D02*
X1340Y555D01*
X1457Y555D02*
X1462Y555D01*
X1495Y555D02*
X1527Y555D01*
X1535Y555D02*
X1540Y555D01*
X1657Y555D02*
X1662Y555D01*
X495Y554D02*
X527Y554D01*
X535Y554D02*
X541Y554D01*
X657Y554D02*
X662Y554D01*
X695Y554D02*
X727Y554D01*
X735Y554D02*
X741Y554D01*
X857Y554D02*
X862Y554D01*
X895Y554D02*
X927Y554D01*
X935Y554D02*
X940Y554D01*
X1057Y554D02*
X1062Y554D01*
X1095Y554D02*
X1127Y554D01*
X1135Y554D02*
X1140Y554D01*
X1256Y554D02*
X1262Y554D01*
X1295Y554D02*
X1327Y554D01*
X1335Y554D02*
X1340Y554D01*
X1456Y554D02*
X1462Y554D01*
X1495Y554D02*
X1527Y554D01*
X1535Y554D02*
X1540Y554D01*
X1656Y554D02*
X1662Y554D01*
X496Y553D02*
X527Y553D01*
X535Y553D02*
X541Y553D01*
X656Y553D02*
X661Y553D01*
X696Y553D02*
X727Y553D01*
X735Y553D02*
X741Y553D01*
X856Y553D02*
X861Y553D01*
X895Y553D02*
X927Y553D01*
X935Y553D02*
X940Y553D01*
X1056Y553D02*
X1061Y553D01*
X1095Y553D02*
X1127Y553D01*
X1135Y553D02*
X1140Y553D01*
X1256Y553D02*
X1261Y553D01*
X1295Y553D02*
X1327Y553D01*
X1335Y553D02*
X1340Y553D01*
X1456Y553D02*
X1461Y553D01*
X1495Y553D02*
X1527Y553D01*
X1535Y553D02*
X1540Y553D01*
X1656Y553D02*
X1661Y553D01*
X498Y552D02*
X527Y552D01*
X535Y552D02*
X541Y552D01*
X656Y552D02*
X661Y552D01*
X698Y552D02*
X727Y552D01*
X735Y552D02*
X741Y552D01*
X856Y552D02*
X861Y552D01*
X898Y552D02*
X927Y552D01*
X935Y552D02*
X940Y552D01*
X1056Y552D02*
X1061Y552D01*
X1098Y552D02*
X1127Y552D01*
X1135Y552D02*
X1140Y552D01*
X1256Y552D02*
X1261Y552D01*
X1298Y552D02*
X1327Y552D01*
X1335Y552D02*
X1340Y552D01*
X1456Y552D02*
X1461Y552D01*
X1498Y552D02*
X1527Y552D01*
X1535Y552D02*
X1540Y552D01*
X1656Y552D02*
X1661Y552D01*
X499Y551D02*
X502Y551D01*
X525Y551D02*
X527Y551D01*
X535Y551D02*
X541Y551D01*
X656Y551D02*
X661Y551D01*
X699Y551D02*
X702Y551D01*
X725Y551D02*
X727Y551D01*
X735Y551D02*
X741Y551D01*
X855Y551D02*
X861Y551D01*
X899Y551D02*
X902Y551D01*
X924Y551D02*
X927Y551D01*
X935Y551D02*
X940Y551D01*
X1055Y551D02*
X1061Y551D01*
X1099Y551D02*
X1102Y551D01*
X1124Y551D02*
X1127Y551D01*
X1135Y551D02*
X1140Y551D01*
X1255Y551D02*
X1261Y551D01*
X1299Y551D02*
X1302Y551D01*
X1324Y551D02*
X1327Y551D01*
X1335Y551D02*
X1340Y551D01*
X1455Y551D02*
X1461Y551D01*
X1499Y551D02*
X1502Y551D01*
X1524Y551D02*
X1527Y551D01*
X1535Y551D02*
X1540Y551D01*
X1655Y551D02*
X1661Y551D01*
X499Y550D02*
X502Y550D01*
X525Y550D02*
X527Y550D01*
X535Y550D02*
X541Y550D01*
X655Y550D02*
X661Y550D01*
X699Y550D02*
X702Y550D01*
X725Y550D02*
X727Y550D01*
X735Y550D02*
X741Y550D01*
X855Y550D02*
X860Y550D01*
X899Y550D02*
X902Y550D01*
X924Y550D02*
X927Y550D01*
X935Y550D02*
X940Y550D01*
X1055Y550D02*
X1060Y550D01*
X1099Y550D02*
X1102Y550D01*
X1124Y550D02*
X1127Y550D01*
X1135Y550D02*
X1140Y550D01*
X1255Y550D02*
X1260Y550D01*
X1299Y550D02*
X1302Y550D01*
X1324Y550D02*
X1327Y550D01*
X1335Y550D02*
X1340Y550D01*
X1455Y550D02*
X1460Y550D01*
X1499Y550D02*
X1502Y550D01*
X1524Y550D02*
X1527Y550D01*
X1535Y550D02*
X1540Y550D01*
X1655Y550D02*
X1660Y550D01*
X500Y549D02*
X502Y549D01*
X525Y549D02*
X527Y549D01*
X535Y549D02*
X541Y549D01*
X655Y549D02*
X660Y549D01*
X700Y549D02*
X702Y549D01*
X725Y549D02*
X727Y549D01*
X735Y549D02*
X741Y549D01*
X855Y549D02*
X860Y549D01*
X900Y549D02*
X902Y549D01*
X924Y549D02*
X927Y549D01*
X935Y549D02*
X940Y549D01*
X1055Y549D02*
X1060Y549D01*
X1100Y549D02*
X1102Y549D01*
X1124Y549D02*
X1127Y549D01*
X1135Y549D02*
X1140Y549D01*
X1255Y549D02*
X1260Y549D01*
X1300Y549D02*
X1302Y549D01*
X1324Y549D02*
X1327Y549D01*
X1335Y549D02*
X1340Y549D01*
X1455Y549D02*
X1460Y549D01*
X1499Y549D02*
X1502Y549D01*
X1524Y549D02*
X1527Y549D01*
X1535Y549D02*
X1540Y549D01*
X1654Y549D02*
X1660Y549D01*
X500Y548D02*
X502Y548D01*
X525Y548D02*
X527Y548D01*
X535Y548D02*
X541Y548D01*
X654Y548D02*
X660Y548D01*
X700Y548D02*
X702Y548D01*
X725Y548D02*
X727Y548D01*
X735Y548D02*
X741Y548D01*
X854Y548D02*
X860Y548D01*
X900Y548D02*
X902Y548D01*
X924Y548D02*
X927Y548D01*
X935Y548D02*
X940Y548D01*
X1054Y548D02*
X1060Y548D01*
X1100Y548D02*
X1102Y548D01*
X1124Y548D02*
X1127Y548D01*
X1135Y548D02*
X1140Y548D01*
X1254Y548D02*
X1260Y548D01*
X1300Y548D02*
X1302Y548D01*
X1324Y548D02*
X1327Y548D01*
X1335Y548D02*
X1340Y548D01*
X1454Y548D02*
X1460Y548D01*
X1500Y548D02*
X1502Y548D01*
X1524Y548D02*
X1527Y548D01*
X1535Y548D02*
X1540Y548D01*
X1654Y548D02*
X1659Y548D01*
X500Y547D02*
X502Y547D01*
X525Y547D02*
X527Y547D01*
X535Y547D02*
X541Y547D01*
X654Y547D02*
X659Y547D01*
X700Y547D02*
X702Y547D01*
X725Y547D02*
X727Y547D01*
X735Y547D02*
X741Y547D01*
X854Y547D02*
X859Y547D01*
X900Y547D02*
X902Y547D01*
X924Y547D02*
X927Y547D01*
X935Y547D02*
X940Y547D01*
X1054Y547D02*
X1059Y547D01*
X1100Y547D02*
X1102Y547D01*
X1124Y547D02*
X1127Y547D01*
X1135Y547D02*
X1140Y547D01*
X1254Y547D02*
X1259Y547D01*
X1300Y547D02*
X1302Y547D01*
X1324Y547D02*
X1327Y547D01*
X1335Y547D02*
X1340Y547D01*
X1454Y547D02*
X1459Y547D01*
X1500Y547D02*
X1502Y547D01*
X1524Y547D02*
X1527Y547D01*
X1535Y547D02*
X1540Y547D01*
X1654Y547D02*
X1659Y547D01*
X535Y546D02*
X541Y546D01*
X653Y546D02*
X659Y546D01*
X735Y546D02*
X741Y546D01*
X853Y546D02*
X859Y546D01*
X935Y546D02*
X940Y546D01*
X1053Y546D02*
X1059Y546D01*
X1135Y546D02*
X1140Y546D01*
X1253Y546D02*
X1259Y546D01*
X1335Y546D02*
X1340Y546D01*
X1453Y546D02*
X1459Y546D01*
X1535Y546D02*
X1540Y546D01*
X1653Y546D02*
X1659Y546D01*
X535Y545D02*
X541Y545D01*
X653Y545D02*
X658Y545D01*
X735Y545D02*
X741Y545D01*
X853Y545D02*
X858Y545D01*
X935Y545D02*
X940Y545D01*
X1053Y545D02*
X1058Y545D01*
X1135Y545D02*
X1140Y545D01*
X1253Y545D02*
X1258Y545D01*
X1335Y545D02*
X1340Y545D01*
X1453Y545D02*
X1458Y545D01*
X1535Y545D02*
X1540Y545D01*
X1653Y545D02*
X1658Y545D01*
X535Y544D02*
X541Y544D01*
X652Y544D02*
X658Y544D01*
X735Y544D02*
X741Y544D01*
X852Y544D02*
X858Y544D01*
X935Y544D02*
X940Y544D01*
X1052Y544D02*
X1058Y544D01*
X1135Y544D02*
X1140Y544D01*
X1252Y544D02*
X1258Y544D01*
X1335Y544D02*
X1340Y544D01*
X1452Y544D02*
X1458Y544D01*
X1535Y544D02*
X1540Y544D01*
X1652Y544D02*
X1658Y544D01*
X535Y543D02*
X541Y543D01*
X652Y543D02*
X658Y543D01*
X735Y543D02*
X741Y543D01*
X852Y543D02*
X858Y543D01*
X935Y543D02*
X940Y543D01*
X1052Y543D02*
X1058Y543D01*
X1135Y543D02*
X1140Y543D01*
X1252Y543D02*
X1258Y543D01*
X1335Y543D02*
X1340Y543D01*
X1452Y543D02*
X1457Y543D01*
X1535Y543D02*
X1540Y543D01*
X1652Y543D02*
X1657Y543D01*
X535Y542D02*
X541Y542D01*
X651Y542D02*
X657Y542D01*
X735Y542D02*
X741Y542D01*
X851Y542D02*
X857Y542D01*
X935Y542D02*
X940Y542D01*
X1051Y542D02*
X1057Y542D01*
X1135Y542D02*
X1140Y542D01*
X1251Y542D02*
X1257Y542D01*
X1335Y542D02*
X1340Y542D01*
X1451Y542D02*
X1457Y542D01*
X1535Y542D02*
X1540Y542D01*
X1651Y542D02*
X1657Y542D01*
X535Y541D02*
X541Y541D01*
X651Y541D02*
X657Y541D01*
X735Y541D02*
X741Y541D01*
X851Y541D02*
X857Y541D01*
X935Y541D02*
X940Y541D01*
X1051Y541D02*
X1057Y541D01*
X1135Y541D02*
X1140Y541D01*
X1251Y541D02*
X1256Y541D01*
X1335Y541D02*
X1340Y541D01*
X1451Y541D02*
X1456Y541D01*
X1535Y541D02*
X1540Y541D01*
X1651Y541D02*
X1656Y541D01*
X518Y540D02*
X519Y540D01*
X535Y540D02*
X541Y540D01*
X650Y540D02*
X656Y540D01*
X718Y540D02*
X719Y540D01*
X735Y540D02*
X741Y540D01*
X850Y540D02*
X856Y540D01*
X918Y540D02*
X919Y540D01*
X935Y540D02*
X940Y540D01*
X1050Y540D02*
X1056Y540D01*
X1118Y540D02*
X1119Y540D01*
X1135Y540D02*
X1140Y540D01*
X1250Y540D02*
X1256Y540D01*
X1318Y540D02*
X1319Y540D01*
X1335Y540D02*
X1340Y540D01*
X1450Y540D02*
X1456Y540D01*
X1518Y540D02*
X1519Y540D01*
X1535Y540D02*
X1540Y540D01*
X1650Y540D02*
X1656Y540D01*
X514Y539D02*
X522Y539D01*
X535Y539D02*
X541Y539D01*
X650Y539D02*
X656Y539D01*
X714Y539D02*
X722Y539D01*
X735Y539D02*
X741Y539D01*
X850Y539D02*
X855Y539D01*
X914Y539D02*
X922Y539D01*
X935Y539D02*
X940Y539D01*
X1049Y539D02*
X1055Y539D01*
X1114Y539D02*
X1122Y539D01*
X1135Y539D02*
X1140Y539D01*
X1249Y539D02*
X1255Y539D01*
X1314Y539D02*
X1322Y539D01*
X1335Y539D02*
X1340Y539D01*
X1449Y539D02*
X1455Y539D01*
X1514Y539D02*
X1522Y539D01*
X1535Y539D02*
X1540Y539D01*
X1649Y539D02*
X1655Y539D01*
X497Y538D02*
X501Y538D01*
X513Y538D02*
X524Y538D01*
X535Y538D02*
X541Y538D01*
X649Y538D02*
X655Y538D01*
X697Y538D02*
X701Y538D01*
X713Y538D02*
X724Y538D01*
X735Y538D02*
X741Y538D01*
X849Y538D02*
X855Y538D01*
X897Y538D02*
X901Y538D01*
X913Y538D02*
X923Y538D01*
X935Y538D02*
X940Y538D01*
X1049Y538D02*
X1055Y538D01*
X1097Y538D02*
X1101Y538D01*
X1113Y538D02*
X1123Y538D01*
X1135Y538D02*
X1140Y538D01*
X1249Y538D02*
X1255Y538D01*
X1297Y538D02*
X1301Y538D01*
X1313Y538D02*
X1323Y538D01*
X1335Y538D02*
X1340Y538D01*
X1449Y538D02*
X1455Y538D01*
X1496Y538D02*
X1501Y538D01*
X1513Y538D02*
X1523Y538D01*
X1535Y538D02*
X1540Y538D01*
X1649Y538D02*
X1655Y538D01*
X496Y537D02*
X500Y537D01*
X512Y537D02*
X525Y537D01*
X535Y537D02*
X541Y537D01*
X648Y537D02*
X654Y537D01*
X696Y537D02*
X700Y537D01*
X712Y537D02*
X725Y537D01*
X735Y537D02*
X741Y537D01*
X848Y537D02*
X854Y537D01*
X896Y537D02*
X900Y537D01*
X912Y537D02*
X925Y537D01*
X935Y537D02*
X940Y537D01*
X1048Y537D02*
X1054Y537D01*
X1096Y537D02*
X1100Y537D01*
X1112Y537D02*
X1125Y537D01*
X1135Y537D02*
X1140Y537D01*
X1248Y537D02*
X1254Y537D01*
X1296Y537D02*
X1300Y537D01*
X1312Y537D02*
X1324Y537D01*
X1335Y537D02*
X1340Y537D01*
X1448Y537D02*
X1454Y537D01*
X1496Y537D02*
X1500Y537D01*
X1512Y537D02*
X1524Y537D01*
X1535Y537D02*
X1540Y537D01*
X1648Y537D02*
X1654Y537D01*
X496Y536D02*
X499Y536D01*
X512Y536D02*
X525Y536D01*
X535Y536D02*
X541Y536D01*
X648Y536D02*
X654Y536D01*
X696Y536D02*
X699Y536D01*
X711Y536D02*
X725Y536D01*
X735Y536D02*
X741Y536D01*
X847Y536D02*
X854Y536D01*
X896Y536D02*
X899Y536D01*
X911Y536D02*
X925Y536D01*
X935Y536D02*
X940Y536D01*
X1047Y536D02*
X1054Y536D01*
X1096Y536D02*
X1099Y536D01*
X1111Y536D02*
X1125Y536D01*
X1135Y536D02*
X1140Y536D01*
X1247Y536D02*
X1254Y536D01*
X1296Y536D02*
X1299Y536D01*
X1311Y536D02*
X1325Y536D01*
X1335Y536D02*
X1340Y536D01*
X1447Y536D02*
X1454Y536D01*
X1496Y536D02*
X1499Y536D01*
X1511Y536D02*
X1525Y536D01*
X1535Y536D02*
X1540Y536D01*
X1647Y536D02*
X1654Y536D01*
X496Y535D02*
X499Y535D01*
X511Y535D02*
X516Y535D01*
X522Y535D02*
X526Y535D01*
X535Y535D02*
X541Y535D01*
X647Y535D02*
X653Y535D01*
X696Y535D02*
X699Y535D01*
X711Y535D02*
X716Y535D01*
X722Y535D02*
X726Y535D01*
X735Y535D02*
X741Y535D01*
X847Y535D02*
X853Y535D01*
X896Y535D02*
X899Y535D01*
X911Y535D02*
X916Y535D01*
X922Y535D02*
X926Y535D01*
X935Y535D02*
X940Y535D01*
X1047Y535D02*
X1053Y535D01*
X1096Y535D02*
X1099Y535D01*
X1111Y535D02*
X1116Y535D01*
X1122Y535D02*
X1126Y535D01*
X1135Y535D02*
X1140Y535D01*
X1247Y535D02*
X1253Y535D01*
X1296Y535D02*
X1299Y535D01*
X1311Y535D02*
X1316Y535D01*
X1322Y535D02*
X1326Y535D01*
X1335Y535D02*
X1340Y535D01*
X1447Y535D02*
X1453Y535D01*
X1495Y535D02*
X1499Y535D01*
X1511Y535D02*
X1516Y535D01*
X1521Y535D02*
X1526Y535D01*
X1535Y535D02*
X1540Y535D01*
X1647Y535D02*
X1653Y535D01*
X495Y534D02*
X499Y534D01*
X511Y534D02*
X515Y534D01*
X523Y534D02*
X527Y534D01*
X535Y534D02*
X541Y534D01*
X646Y534D02*
X653Y534D01*
X695Y534D02*
X699Y534D01*
X711Y534D02*
X715Y534D01*
X723Y534D02*
X726Y534D01*
X735Y534D02*
X741Y534D01*
X846Y534D02*
X853Y534D01*
X895Y534D02*
X898Y534D01*
X911Y534D02*
X915Y534D01*
X923Y534D02*
X926Y534D01*
X935Y534D02*
X940Y534D01*
X1046Y534D02*
X1052Y534D01*
X1095Y534D02*
X1098Y534D01*
X1111Y534D02*
X1114Y534D01*
X1123Y534D02*
X1126Y534D01*
X1135Y534D02*
X1140Y534D01*
X1246Y534D02*
X1252Y534D01*
X1295Y534D02*
X1298Y534D01*
X1310Y534D02*
X1314Y534D01*
X1323Y534D02*
X1326Y534D01*
X1335Y534D02*
X1340Y534D01*
X1446Y534D02*
X1452Y534D01*
X1495Y534D02*
X1498Y534D01*
X1510Y534D02*
X1514Y534D01*
X1523Y534D02*
X1526Y534D01*
X1535Y534D02*
X1540Y534D01*
X1646Y534D02*
X1652Y534D01*
X495Y533D02*
X498Y533D01*
X510Y533D02*
X514Y533D01*
X524Y533D02*
X527Y533D01*
X535Y533D02*
X541Y533D01*
X645Y533D02*
X652Y533D01*
X695Y533D02*
X698Y533D01*
X710Y533D02*
X714Y533D01*
X724Y533D02*
X727Y533D01*
X735Y533D02*
X741Y533D01*
X845Y533D02*
X852Y533D01*
X895Y533D02*
X898Y533D01*
X910Y533D02*
X914Y533D01*
X924Y533D02*
X927Y533D01*
X935Y533D02*
X941Y533D01*
X1045Y533D02*
X1052Y533D01*
X1095Y533D02*
X1098Y533D01*
X1110Y533D02*
X1114Y533D01*
X1124Y533D02*
X1127Y533D01*
X1135Y533D02*
X1140Y533D01*
X1245Y533D02*
X1252Y533D01*
X1295Y533D02*
X1298Y533D01*
X1310Y533D02*
X1314Y533D01*
X1324Y533D02*
X1327Y533D01*
X1335Y533D02*
X1340Y533D01*
X1445Y533D02*
X1452Y533D01*
X1495Y533D02*
X1498Y533D01*
X1510Y533D02*
X1514Y533D01*
X1524Y533D02*
X1527Y533D01*
X1535Y533D02*
X1540Y533D01*
X1645Y533D02*
X1652Y533D01*
X495Y532D02*
X498Y532D01*
X510Y532D02*
X514Y532D01*
X524Y532D02*
X527Y532D01*
X535Y532D02*
X541Y532D01*
X645Y532D02*
X651Y532D01*
X695Y532D02*
X698Y532D01*
X710Y532D02*
X714Y532D01*
X724Y532D02*
X727Y532D01*
X735Y532D02*
X741Y532D01*
X844Y532D02*
X851Y532D01*
X895Y532D02*
X898Y532D01*
X910Y532D02*
X913Y532D01*
X924Y532D02*
X927Y532D01*
X935Y532D02*
X941Y532D01*
X1044Y532D02*
X1051Y532D01*
X1095Y532D02*
X1098Y532D01*
X1110Y532D02*
X1113Y532D01*
X1124Y532D02*
X1127Y532D01*
X1135Y532D02*
X1140Y532D01*
X1244Y532D02*
X1251Y532D01*
X1295Y532D02*
X1298Y532D01*
X1310Y532D02*
X1313Y532D01*
X1324Y532D02*
X1327Y532D01*
X1335Y532D02*
X1340Y532D01*
X1444Y532D02*
X1451Y532D01*
X1495Y532D02*
X1498Y532D01*
X1510Y532D02*
X1513Y532D01*
X1524Y532D02*
X1527Y532D01*
X1535Y532D02*
X1540Y532D01*
X1644Y532D02*
X1651Y532D01*
X495Y531D02*
X498Y531D01*
X510Y531D02*
X513Y531D01*
X524Y531D02*
X527Y531D01*
X535Y531D02*
X541Y531D01*
X644Y531D02*
X651Y531D01*
X695Y531D02*
X698Y531D01*
X710Y531D02*
X713Y531D01*
X724Y531D02*
X727Y531D01*
X735Y531D02*
X741Y531D01*
X844Y531D02*
X851Y531D01*
X895Y531D02*
X898Y531D01*
X910Y531D02*
X913Y531D01*
X924Y531D02*
X927Y531D01*
X935Y531D02*
X941Y531D01*
X1044Y531D02*
X1050Y531D01*
X1095Y531D02*
X1098Y531D01*
X1110Y531D02*
X1113Y531D01*
X1124Y531D02*
X1127Y531D01*
X1135Y531D02*
X1140Y531D01*
X1244Y531D02*
X1250Y531D01*
X1295Y531D02*
X1298Y531D01*
X1310Y531D02*
X1313Y531D01*
X1324Y531D02*
X1327Y531D01*
X1335Y531D02*
X1340Y531D01*
X1444Y531D02*
X1450Y531D01*
X1495Y531D02*
X1498Y531D01*
X1510Y531D02*
X1513Y531D01*
X1524Y531D02*
X1527Y531D01*
X1535Y531D02*
X1540Y531D01*
X1643Y531D02*
X1650Y531D01*
X495Y530D02*
X498Y530D01*
X510Y530D02*
X513Y530D01*
X525Y530D02*
X527Y530D01*
X535Y530D02*
X541Y530D01*
X643Y530D02*
X650Y530D01*
X695Y530D02*
X698Y530D01*
X710Y530D02*
X713Y530D01*
X725Y530D02*
X727Y530D01*
X735Y530D02*
X741Y530D01*
X843Y530D02*
X850Y530D01*
X895Y530D02*
X898Y530D01*
X909Y530D02*
X913Y530D01*
X925Y530D02*
X927Y530D01*
X935Y530D02*
X941Y530D01*
X1043Y530D02*
X1050Y530D01*
X1095Y530D02*
X1098Y530D01*
X1109Y530D02*
X1113Y530D01*
X1125Y530D02*
X1127Y530D01*
X1135Y530D02*
X1140Y530D01*
X1243Y530D02*
X1250Y530D01*
X1295Y530D02*
X1298Y530D01*
X1309Y530D02*
X1313Y530D01*
X1324Y530D02*
X1327Y530D01*
X1335Y530D02*
X1340Y530D01*
X1443Y530D02*
X1450Y530D01*
X1495Y530D02*
X1498Y530D01*
X1509Y530D02*
X1513Y530D01*
X1524Y530D02*
X1527Y530D01*
X1535Y530D02*
X1540Y530D01*
X1643Y530D02*
X1650Y530D01*
X495Y529D02*
X498Y529D01*
X509Y529D02*
X513Y529D01*
X525Y529D02*
X527Y529D01*
X535Y529D02*
X541Y529D01*
X642Y529D02*
X649Y529D01*
X695Y529D02*
X698Y529D01*
X709Y529D02*
X713Y529D01*
X725Y529D02*
X727Y529D01*
X735Y529D02*
X741Y529D01*
X842Y529D02*
X849Y529D01*
X895Y529D02*
X898Y529D01*
X909Y529D02*
X913Y529D01*
X925Y529D02*
X927Y529D01*
X935Y529D02*
X941Y529D01*
X1042Y529D02*
X1049Y529D01*
X1095Y529D02*
X1098Y529D01*
X1109Y529D02*
X1113Y529D01*
X1125Y529D02*
X1127Y529D01*
X1135Y529D02*
X1140Y529D01*
X1242Y529D02*
X1249Y529D01*
X1295Y529D02*
X1298Y529D01*
X1309Y529D02*
X1313Y529D01*
X1325Y529D02*
X1327Y529D01*
X1335Y529D02*
X1340Y529D01*
X1442Y529D02*
X1449Y529D01*
X1495Y529D02*
X1498Y529D01*
X1509Y529D02*
X1512Y529D01*
X1524Y529D02*
X1527Y529D01*
X1535Y529D02*
X1540Y529D01*
X1642Y529D02*
X1649Y529D01*
X495Y528D02*
X498Y528D01*
X509Y528D02*
X512Y528D01*
X525Y528D02*
X527Y528D01*
X535Y528D02*
X541Y528D01*
X641Y528D02*
X648Y528D01*
X695Y528D02*
X698Y528D01*
X709Y528D02*
X712Y528D01*
X725Y528D02*
X727Y528D01*
X735Y528D02*
X741Y528D01*
X841Y528D02*
X848Y528D01*
X895Y528D02*
X898Y528D01*
X909Y528D02*
X912Y528D01*
X925Y528D02*
X927Y528D01*
X935Y528D02*
X941Y528D01*
X1041Y528D02*
X1048Y528D01*
X1095Y528D02*
X1098Y528D01*
X1109Y528D02*
X1112Y528D01*
X1125Y528D02*
X1127Y528D01*
X1135Y528D02*
X1140Y528D01*
X1241Y528D02*
X1248Y528D01*
X1295Y528D02*
X1298Y528D01*
X1309Y528D02*
X1312Y528D01*
X1325Y528D02*
X1327Y528D01*
X1335Y528D02*
X1340Y528D01*
X1441Y528D02*
X1448Y528D01*
X1495Y528D02*
X1498Y528D01*
X1509Y528D02*
X1512Y528D01*
X1524Y528D02*
X1527Y528D01*
X1535Y528D02*
X1540Y528D01*
X1641Y528D02*
X1648Y528D01*
X495Y527D02*
X498Y527D01*
X509Y527D02*
X512Y527D01*
X525Y527D02*
X527Y527D01*
X535Y527D02*
X541Y527D01*
X640Y527D02*
X647Y527D01*
X695Y527D02*
X698Y527D01*
X709Y527D02*
X712Y527D01*
X725Y527D02*
X727Y527D01*
X735Y527D02*
X741Y527D01*
X840Y527D02*
X847Y527D01*
X895Y527D02*
X898Y527D01*
X909Y527D02*
X912Y527D01*
X925Y527D02*
X927Y527D01*
X935Y527D02*
X941Y527D01*
X1040Y527D02*
X1047Y527D01*
X1095Y527D02*
X1098Y527D01*
X1109Y527D02*
X1112Y527D01*
X1124Y527D02*
X1127Y527D01*
X1135Y527D02*
X1140Y527D01*
X1240Y527D02*
X1247Y527D01*
X1295Y527D02*
X1298Y527D01*
X1309Y527D02*
X1312Y527D01*
X1324Y527D02*
X1327Y527D01*
X1335Y527D02*
X1340Y527D01*
X1440Y527D02*
X1447Y527D01*
X1495Y527D02*
X1498Y527D01*
X1509Y527D02*
X1512Y527D01*
X1524Y527D02*
X1527Y527D01*
X1535Y527D02*
X1540Y527D01*
X1640Y527D02*
X1647Y527D01*
X495Y526D02*
X498Y526D01*
X508Y526D02*
X512Y526D01*
X524Y526D02*
X527Y526D01*
X535Y526D02*
X541Y526D01*
X639Y526D02*
X647Y526D01*
X695Y526D02*
X698Y526D01*
X708Y526D02*
X712Y526D01*
X724Y526D02*
X727Y526D01*
X735Y526D02*
X741Y526D01*
X839Y526D02*
X847Y526D01*
X895Y526D02*
X898Y526D01*
X908Y526D02*
X912Y526D01*
X924Y526D02*
X927Y526D01*
X935Y526D02*
X941Y526D01*
X1039Y526D02*
X1047Y526D01*
X1095Y526D02*
X1098Y526D01*
X1108Y526D02*
X1112Y526D01*
X1124Y526D02*
X1127Y526D01*
X1135Y526D02*
X1140Y526D01*
X1239Y526D02*
X1246Y526D01*
X1295Y526D02*
X1298Y526D01*
X1308Y526D02*
X1312Y526D01*
X1324Y526D02*
X1327Y526D01*
X1335Y526D02*
X1340Y526D01*
X1439Y526D02*
X1446Y526D01*
X1495Y526D02*
X1498Y526D01*
X1508Y526D02*
X1512Y526D01*
X1524Y526D02*
X1527Y526D01*
X1535Y526D02*
X1540Y526D01*
X1639Y526D02*
X1646Y526D01*
X496Y525D02*
X499Y525D01*
X508Y525D02*
X512Y525D01*
X524Y525D02*
X527Y525D01*
X535Y525D02*
X541Y525D01*
X638Y525D02*
X646Y525D01*
X696Y525D02*
X699Y525D01*
X708Y525D02*
X712Y525D01*
X724Y525D02*
X727Y525D01*
X735Y525D02*
X741Y525D01*
X838Y525D02*
X846Y525D01*
X896Y525D02*
X899Y525D01*
X908Y525D02*
X912Y525D01*
X924Y525D02*
X927Y525D01*
X935Y525D02*
X941Y525D01*
X1038Y525D02*
X1046Y525D01*
X1096Y525D02*
X1099Y525D01*
X1108Y525D02*
X1111Y525D01*
X1124Y525D02*
X1127Y525D01*
X1135Y525D02*
X1140Y525D01*
X1238Y525D02*
X1246Y525D01*
X1295Y525D02*
X1299Y525D01*
X1308Y525D02*
X1311Y525D01*
X1324Y525D02*
X1327Y525D01*
X1335Y525D02*
X1340Y525D01*
X1438Y525D02*
X1446Y525D01*
X1495Y525D02*
X1499Y525D01*
X1508Y525D02*
X1511Y525D01*
X1524Y525D02*
X1527Y525D01*
X1535Y525D02*
X1540Y525D01*
X1638Y525D02*
X1646Y525D01*
X496Y524D02*
X500Y524D01*
X507Y524D02*
X511Y524D01*
X524Y524D02*
X527Y524D01*
X535Y524D02*
X541Y524D01*
X637Y524D02*
X645Y524D01*
X696Y524D02*
X700Y524D01*
X707Y524D02*
X711Y524D01*
X724Y524D02*
X727Y524D01*
X735Y524D02*
X741Y524D01*
X837Y524D02*
X845Y524D01*
X896Y524D02*
X900Y524D01*
X907Y524D02*
X911Y524D01*
X924Y524D02*
X927Y524D01*
X935Y524D02*
X941Y524D01*
X1037Y524D02*
X1045Y524D01*
X1096Y524D02*
X1100Y524D01*
X1107Y524D02*
X1111Y524D01*
X1124Y524D02*
X1127Y524D01*
X1135Y524D02*
X1140Y524D01*
X1237Y524D02*
X1245Y524D01*
X1296Y524D02*
X1300Y524D01*
X1307Y524D02*
X1311Y524D01*
X1324Y524D02*
X1327Y524D01*
X1335Y524D02*
X1340Y524D01*
X1437Y524D02*
X1445Y524D01*
X1496Y524D02*
X1500Y524D01*
X1507Y524D02*
X1511Y524D01*
X1524Y524D02*
X1527Y524D01*
X1535Y524D02*
X1540Y524D01*
X1637Y524D02*
X1645Y524D01*
X497Y523D02*
X502Y523D01*
X505Y523D02*
X511Y523D01*
X524Y523D02*
X527Y523D01*
X535Y523D02*
X541Y523D01*
X636Y523D02*
X644Y523D01*
X697Y523D02*
X702Y523D01*
X705Y523D02*
X711Y523D01*
X723Y523D02*
X727Y523D01*
X735Y523D02*
X741Y523D01*
X836Y523D02*
X844Y523D01*
X896Y523D02*
X902Y523D01*
X905Y523D02*
X911Y523D01*
X923Y523D02*
X927Y523D01*
X935Y523D02*
X941Y523D01*
X1036Y523D02*
X1044Y523D01*
X1096Y523D02*
X1101Y523D01*
X1105Y523D02*
X1111Y523D01*
X1123Y523D02*
X1127Y523D01*
X1135Y523D02*
X1140Y523D01*
X1236Y523D02*
X1244Y523D01*
X1296Y523D02*
X1301Y523D01*
X1305Y523D02*
X1311Y523D01*
X1323Y523D02*
X1327Y523D01*
X1335Y523D02*
X1340Y523D01*
X1436Y523D02*
X1444Y523D01*
X1496Y523D02*
X1501Y523D01*
X1505Y523D02*
X1511Y523D01*
X1523Y523D02*
X1527Y523D01*
X1535Y523D02*
X1540Y523D01*
X1636Y523D02*
X1644Y523D01*
X497Y522D02*
X510Y522D01*
X523Y522D02*
X526Y522D01*
X535Y522D02*
X541Y522D01*
X635Y522D02*
X643Y522D01*
X697Y522D02*
X710Y522D01*
X723Y522D02*
X726Y522D01*
X735Y522D02*
X741Y522D01*
X835Y522D02*
X843Y522D01*
X897Y522D02*
X910Y522D01*
X923Y522D02*
X926Y522D01*
X935Y522D02*
X941Y522D01*
X1035Y522D02*
X1043Y522D01*
X1097Y522D02*
X1110Y522D01*
X1123Y522D02*
X1126Y522D01*
X1135Y522D02*
X1141Y522D01*
X1235Y522D02*
X1243Y522D01*
X1297Y522D02*
X1310Y522D01*
X1323Y522D02*
X1326Y522D01*
X1335Y522D02*
X1341Y522D01*
X1435Y522D02*
X1443Y522D01*
X1497Y522D02*
X1510Y522D01*
X1523Y522D02*
X1526Y522D01*
X1535Y522D02*
X1541Y522D01*
X1635Y522D02*
X1643Y522D01*
X498Y521D02*
X509Y521D01*
X522Y521D02*
X526Y521D01*
X535Y521D02*
X542Y521D01*
X634Y521D02*
X642Y521D01*
X698Y521D02*
X709Y521D01*
X722Y521D02*
X726Y521D01*
X735Y521D02*
X742Y521D01*
X834Y521D02*
X842Y521D01*
X898Y521D02*
X909Y521D01*
X922Y521D02*
X926Y521D01*
X935Y521D02*
X942Y521D01*
X1034Y521D02*
X1042Y521D01*
X1098Y521D02*
X1109Y521D01*
X1122Y521D02*
X1126Y521D01*
X1135Y521D02*
X1142Y521D01*
X1233Y521D02*
X1242Y521D01*
X1298Y521D02*
X1309Y521D01*
X1322Y521D02*
X1326Y521D01*
X1335Y521D02*
X1342Y521D01*
X1433Y521D02*
X1442Y521D01*
X1498Y521D02*
X1509Y521D01*
X1522Y521D02*
X1526Y521D01*
X1535Y521D02*
X1542Y521D01*
X1633Y521D02*
X1642Y521D01*
X499Y520D02*
X508Y520D01*
X522Y520D02*
X526Y520D01*
X535Y520D02*
X543Y520D01*
X632Y520D02*
X641Y520D01*
X699Y520D02*
X708Y520D01*
X722Y520D02*
X726Y520D01*
X735Y520D02*
X743Y520D01*
X832Y520D02*
X841Y520D01*
X899Y520D02*
X908Y520D01*
X922Y520D02*
X926Y520D01*
X935Y520D02*
X943Y520D01*
X1032Y520D02*
X1041Y520D01*
X1099Y520D02*
X1108Y520D01*
X1122Y520D02*
X1126Y520D01*
X1135Y520D02*
X1143Y520D01*
X1232Y520D02*
X1241Y520D01*
X1299Y520D02*
X1308Y520D01*
X1322Y520D02*
X1325Y520D01*
X1335Y520D02*
X1343Y520D01*
X1432Y520D02*
X1441Y520D01*
X1499Y520D02*
X1508Y520D01*
X1522Y520D02*
X1525Y520D01*
X1535Y520D02*
X1543Y520D01*
X1632Y520D02*
X1641Y520D01*
X501Y519D02*
X507Y519D01*
X521Y519D02*
X525Y519D01*
X536Y519D02*
X544Y519D01*
X631Y519D02*
X640Y519D01*
X701Y519D02*
X707Y519D01*
X721Y519D02*
X725Y519D01*
X736Y519D02*
X744Y519D01*
X831Y519D02*
X840Y519D01*
X901Y519D02*
X907Y519D01*
X921Y519D02*
X925Y519D01*
X936Y519D02*
X944Y519D01*
X1031Y519D02*
X1040Y519D01*
X1101Y519D02*
X1107Y519D01*
X1121Y519D02*
X1125Y519D01*
X1136Y519D02*
X1144Y519D01*
X1231Y519D02*
X1240Y519D01*
X1301Y519D02*
X1307Y519D01*
X1321Y519D02*
X1325Y519D01*
X1336Y519D02*
X1344Y519D01*
X1431Y519D02*
X1440Y519D01*
X1501Y519D02*
X1506Y519D01*
X1521Y519D02*
X1525Y519D01*
X1536Y519D02*
X1544Y519D01*
X1631Y519D02*
X1640Y519D01*
X537Y518D02*
X546Y518D01*
X630Y518D02*
X639Y518D01*
X737Y518D02*
X746Y518D01*
X830Y518D02*
X839Y518D01*
X937Y518D02*
X946Y518D01*
X1030Y518D02*
X1039Y518D01*
X1137Y518D02*
X1146Y518D01*
X1230Y518D02*
X1239Y518D01*
X1337Y518D02*
X1346Y518D01*
X1430Y518D02*
X1439Y518D01*
X1537Y518D02*
X1546Y518D01*
X1629Y518D02*
X1639Y518D01*
X538Y517D02*
X547Y517D01*
X628Y517D02*
X638Y517D01*
X738Y517D02*
X747Y517D01*
X828Y517D02*
X838Y517D01*
X938Y517D02*
X947Y517D01*
X1028Y517D02*
X1037Y517D01*
X1138Y517D02*
X1147Y517D01*
X1228Y517D02*
X1237Y517D01*
X1338Y517D02*
X1347Y517D01*
X1428Y517D02*
X1437Y517D01*
X1538Y517D02*
X1547Y517D01*
X1628Y517D02*
X1637Y517D01*
X539Y516D02*
X549Y516D01*
X627Y516D02*
X636Y516D01*
X739Y516D02*
X749Y516D01*
X827Y516D02*
X836Y516D01*
X939Y516D02*
X949Y516D01*
X1027Y516D02*
X1036Y516D01*
X1139Y516D02*
X1149Y516D01*
X1227Y516D02*
X1236Y516D01*
X1339Y516D02*
X1349Y516D01*
X1427Y516D02*
X1436Y516D01*
X1539Y516D02*
X1549Y516D01*
X1627Y516D02*
X1636Y516D01*
X510Y515D02*
X512Y515D01*
X540Y515D02*
X550Y515D01*
X625Y515D02*
X635Y515D01*
X710Y515D02*
X712Y515D01*
X740Y515D02*
X750Y515D01*
X825Y515D02*
X835Y515D01*
X910Y515D02*
X912Y515D01*
X940Y515D02*
X950Y515D01*
X1025Y515D02*
X1035Y515D01*
X1110Y515D02*
X1112Y515D01*
X1140Y515D02*
X1150Y515D01*
X1225Y515D02*
X1235Y515D01*
X1310Y515D02*
X1312Y515D01*
X1340Y515D02*
X1350Y515D01*
X1425Y515D02*
X1435Y515D01*
X1510Y515D02*
X1512Y515D01*
X1540Y515D02*
X1550Y515D01*
X1625Y515D02*
X1635Y515D01*
X505Y514D02*
X517Y514D01*
X542Y514D02*
X552Y514D01*
X623Y514D02*
X634Y514D01*
X705Y514D02*
X717Y514D01*
X742Y514D02*
X752Y514D01*
X823Y514D02*
X834Y514D01*
X905Y514D02*
X917Y514D01*
X942Y514D02*
X952Y514D01*
X1023Y514D02*
X1034Y514D01*
X1105Y514D02*
X1117Y514D01*
X1142Y514D02*
X1152Y514D01*
X1223Y514D02*
X1234Y514D01*
X1305Y514D02*
X1317Y514D01*
X1342Y514D02*
X1352Y514D01*
X1423Y514D02*
X1434Y514D01*
X1505Y514D02*
X1517Y514D01*
X1541Y514D02*
X1552Y514D01*
X1623Y514D02*
X1634Y514D01*
X503Y513D02*
X519Y513D01*
X543Y513D02*
X554Y513D01*
X622Y513D02*
X632Y513D01*
X703Y513D02*
X719Y513D01*
X743Y513D02*
X754Y513D01*
X822Y513D02*
X832Y513D01*
X903Y513D02*
X919Y513D01*
X943Y513D02*
X954Y513D01*
X1021Y513D02*
X1032Y513D01*
X1103Y513D02*
X1119Y513D01*
X1143Y513D02*
X1154Y513D01*
X1221Y513D02*
X1232Y513D01*
X1303Y513D02*
X1319Y513D01*
X1343Y513D02*
X1354Y513D01*
X1421Y513D02*
X1432Y513D01*
X1503Y513D02*
X1519Y513D01*
X1543Y513D02*
X1554Y513D01*
X1621Y513D02*
X1632Y513D01*
X502Y512D02*
X521Y512D01*
X545Y512D02*
X556Y512D01*
X620Y512D02*
X631Y512D01*
X702Y512D02*
X721Y512D01*
X745Y512D02*
X756Y512D01*
X820Y512D02*
X831Y512D01*
X901Y512D02*
X921Y512D01*
X945Y512D02*
X956Y512D01*
X1020Y512D02*
X1031Y512D01*
X1101Y512D02*
X1121Y512D01*
X1145Y512D02*
X1156Y512D01*
X1220Y512D02*
X1231Y512D01*
X1301Y512D02*
X1320Y512D01*
X1344Y512D02*
X1356Y512D01*
X1420Y512D02*
X1431Y512D01*
X1501Y512D02*
X1520Y512D01*
X1544Y512D02*
X1556Y512D01*
X1620Y512D02*
X1631Y512D01*
X500Y511D02*
X522Y511D01*
X546Y511D02*
X558Y511D01*
X618Y511D02*
X629Y511D01*
X700Y511D02*
X722Y511D01*
X746Y511D02*
X758Y511D01*
X817Y511D02*
X829Y511D01*
X900Y511D02*
X922Y511D01*
X946Y511D02*
X958Y511D01*
X1017Y511D02*
X1029Y511D01*
X1100Y511D02*
X1122Y511D01*
X1146Y511D02*
X1158Y511D01*
X1217Y511D02*
X1229Y511D01*
X1300Y511D02*
X1322Y511D01*
X1346Y511D02*
X1358Y511D01*
X1417Y511D02*
X1429Y511D01*
X1500Y511D02*
X1522Y511D01*
X1546Y511D02*
X1558Y511D01*
X1617Y511D02*
X1629Y511D01*
X499Y510D02*
X506Y510D01*
X516Y510D02*
X523Y510D01*
X548Y510D02*
X560Y510D01*
X615Y510D02*
X628Y510D01*
X699Y510D02*
X706Y510D01*
X716Y510D02*
X723Y510D01*
X748Y510D02*
X760Y510D01*
X815Y510D02*
X828Y510D01*
X899Y510D02*
X906Y510D01*
X916Y510D02*
X923Y510D01*
X948Y510D02*
X960Y510D01*
X1015Y510D02*
X1028Y510D01*
X1099Y510D02*
X1106Y510D01*
X1116Y510D02*
X1123Y510D01*
X1148Y510D02*
X1160Y510D01*
X1215Y510D02*
X1228Y510D01*
X1299Y510D02*
X1306Y510D01*
X1316Y510D02*
X1323Y510D01*
X1347Y510D02*
X1360Y510D01*
X1415Y510D02*
X1428Y510D01*
X1499Y510D02*
X1506Y510D01*
X1516Y510D02*
X1523Y510D01*
X1547Y510D02*
X1560Y510D01*
X1615Y510D02*
X1628Y510D01*
X499Y509D02*
X504Y509D01*
X519Y509D02*
X524Y509D01*
X549Y509D02*
X563Y509D01*
X613Y509D02*
X626Y509D01*
X699Y509D02*
X704Y509D01*
X719Y509D02*
X724Y509D01*
X749Y509D02*
X763Y509D01*
X813Y509D02*
X826Y509D01*
X898Y509D02*
X904Y509D01*
X919Y509D02*
X924Y509D01*
X949Y509D02*
X963Y509D01*
X1013Y509D02*
X1026Y509D01*
X1098Y509D02*
X1104Y509D01*
X1119Y509D02*
X1124Y509D01*
X1149Y509D02*
X1163Y509D01*
X1213Y509D02*
X1226Y509D01*
X1298Y509D02*
X1304Y509D01*
X1319Y509D02*
X1324Y509D01*
X1349Y509D02*
X1363Y509D01*
X1413Y509D02*
X1426Y509D01*
X1498Y509D02*
X1504Y509D01*
X1519Y509D02*
X1524Y509D01*
X1549Y509D02*
X1563Y509D01*
X1612Y509D02*
X1626Y509D01*
X498Y508D02*
X502Y508D01*
X520Y508D02*
X525Y508D01*
X551Y508D02*
X566Y508D01*
X610Y508D02*
X624Y508D01*
X698Y508D02*
X702Y508D01*
X720Y508D02*
X724Y508D01*
X751Y508D02*
X766Y508D01*
X810Y508D02*
X824Y508D01*
X898Y508D02*
X902Y508D01*
X920Y508D02*
X924Y508D01*
X951Y508D02*
X966Y508D01*
X1010Y508D02*
X1024Y508D01*
X1098Y508D02*
X1102Y508D01*
X1120Y508D02*
X1124Y508D01*
X1151Y508D02*
X1166Y508D01*
X1210Y508D02*
X1224Y508D01*
X1298Y508D02*
X1302Y508D01*
X1320Y508D02*
X1324Y508D01*
X1351Y508D02*
X1366Y508D01*
X1410Y508D02*
X1424Y508D01*
X1498Y508D02*
X1502Y508D01*
X1520Y508D02*
X1524Y508D01*
X1551Y508D02*
X1566Y508D01*
X1609Y508D02*
X1624Y508D01*
X497Y507D02*
X501Y507D01*
X521Y507D02*
X525Y507D01*
X553Y507D02*
X569Y507D01*
X606Y507D02*
X622Y507D01*
X697Y507D02*
X701Y507D01*
X721Y507D02*
X725Y507D01*
X753Y507D02*
X769Y507D01*
X806Y507D02*
X822Y507D01*
X897Y507D02*
X901Y507D01*
X921Y507D02*
X925Y507D01*
X953Y507D02*
X969Y507D01*
X1006Y507D02*
X1022Y507D01*
X1097Y507D02*
X1101Y507D01*
X1121Y507D02*
X1125Y507D01*
X1153Y507D02*
X1169Y507D01*
X1206Y507D02*
X1222Y507D01*
X1297Y507D02*
X1301Y507D01*
X1321Y507D02*
X1325Y507D01*
X1353Y507D02*
X1369Y507D01*
X1406Y507D02*
X1422Y507D01*
X1497Y507D02*
X1501Y507D01*
X1521Y507D02*
X1525Y507D01*
X1553Y507D02*
X1569Y507D01*
X1606Y507D02*
X1622Y507D01*
X497Y506D02*
X500Y506D01*
X522Y506D02*
X526Y506D01*
X555Y506D02*
X574Y506D01*
X602Y506D02*
X620Y506D01*
X697Y506D02*
X700Y506D01*
X722Y506D02*
X726Y506D01*
X755Y506D02*
X774Y506D01*
X802Y506D02*
X820Y506D01*
X897Y506D02*
X900Y506D01*
X922Y506D02*
X925Y506D01*
X955Y506D02*
X973Y506D01*
X1002Y506D02*
X1020Y506D01*
X1097Y506D02*
X1100Y506D01*
X1122Y506D02*
X1125Y506D01*
X1155Y506D02*
X1173Y506D01*
X1202Y506D02*
X1220Y506D01*
X1297Y506D02*
X1300Y506D01*
X1322Y506D02*
X1325Y506D01*
X1355Y506D02*
X1373Y506D01*
X1402Y506D02*
X1420Y506D01*
X1497Y506D02*
X1500Y506D01*
X1522Y506D02*
X1525Y506D01*
X1555Y506D02*
X1573Y506D01*
X1602Y506D02*
X1620Y506D01*
X497Y505D02*
X500Y505D01*
X523Y505D02*
X526Y505D01*
X558Y505D02*
X580Y505D01*
X595Y505D02*
X618Y505D01*
X696Y505D02*
X700Y505D01*
X723Y505D02*
X726Y505D01*
X758Y505D02*
X780Y505D01*
X795Y505D02*
X818Y505D01*
X896Y505D02*
X900Y505D01*
X923Y505D02*
X926Y505D01*
X958Y505D02*
X980Y505D01*
X995Y505D02*
X1018Y505D01*
X1096Y505D02*
X1100Y505D01*
X1123Y505D02*
X1126Y505D01*
X1158Y505D02*
X1180Y505D01*
X1195Y505D02*
X1218Y505D01*
X1296Y505D02*
X1300Y505D01*
X1322Y505D02*
X1326Y505D01*
X1357Y505D02*
X1380Y505D01*
X1395Y505D02*
X1418Y505D01*
X1496Y505D02*
X1500Y505D01*
X1522Y505D02*
X1526Y505D01*
X1557Y505D02*
X1580Y505D01*
X1595Y505D02*
X1618Y505D01*
X496Y504D02*
X499Y504D01*
X523Y504D02*
X526Y504D01*
X560Y504D02*
X616Y504D01*
X696Y504D02*
X699Y504D01*
X723Y504D02*
X726Y504D01*
X760Y504D02*
X816Y504D01*
X896Y504D02*
X899Y504D01*
X923Y504D02*
X926Y504D01*
X960Y504D02*
X1015Y504D01*
X1096Y504D02*
X1099Y504D01*
X1123Y504D02*
X1126Y504D01*
X1160Y504D02*
X1215Y504D01*
X1296Y504D02*
X1299Y504D01*
X1323Y504D02*
X1326Y504D01*
X1360Y504D02*
X1415Y504D01*
X1496Y504D02*
X1499Y504D01*
X1523Y504D02*
X1526Y504D01*
X1560Y504D02*
X1615Y504D01*
X496Y503D02*
X499Y503D01*
X523Y503D02*
X526Y503D01*
X563Y503D02*
X613Y503D01*
X696Y503D02*
X699Y503D01*
X723Y503D02*
X726Y503D01*
X763Y503D02*
X813Y503D01*
X896Y503D02*
X899Y503D01*
X923Y503D02*
X926Y503D01*
X963Y503D02*
X1013Y503D01*
X1096Y503D02*
X1099Y503D01*
X1123Y503D02*
X1126Y503D01*
X1163Y503D02*
X1213Y503D01*
X1296Y503D02*
X1299Y503D01*
X1323Y503D02*
X1326Y503D01*
X1363Y503D02*
X1412Y503D01*
X1496Y503D02*
X1499Y503D01*
X1523Y503D02*
X1526Y503D01*
X1563Y503D02*
X1612Y503D01*
X496Y502D02*
X499Y502D01*
X524Y502D02*
X527Y502D01*
X566Y502D02*
X610Y502D01*
X696Y502D02*
X699Y502D01*
X724Y502D02*
X727Y502D01*
X766Y502D02*
X810Y502D01*
X896Y502D02*
X899Y502D01*
X924Y502D02*
X926Y502D01*
X966Y502D02*
X1009Y502D01*
X1096Y502D02*
X1099Y502D01*
X1124Y502D02*
X1126Y502D01*
X1166Y502D02*
X1209Y502D01*
X1296Y502D02*
X1299Y502D01*
X1324Y502D02*
X1326Y502D01*
X1366Y502D02*
X1409Y502D01*
X1496Y502D02*
X1498Y502D01*
X1524Y502D02*
X1526Y502D01*
X1566Y502D02*
X1609Y502D01*
X496Y501D02*
X499Y501D01*
X524Y501D02*
X527Y501D01*
X570Y501D02*
X606Y501D01*
X696Y501D02*
X699Y501D01*
X724Y501D02*
X727Y501D01*
X770Y501D02*
X806Y501D01*
X896Y501D02*
X898Y501D01*
X924Y501D02*
X927Y501D01*
X970Y501D02*
X1006Y501D01*
X1096Y501D02*
X1098Y501D01*
X1124Y501D02*
X1127Y501D01*
X1170Y501D02*
X1206Y501D01*
X1296Y501D02*
X1298Y501D01*
X1324Y501D02*
X1327Y501D01*
X1370Y501D02*
X1406Y501D01*
X1496Y501D02*
X1498Y501D01*
X1524Y501D02*
X1526Y501D01*
X1570Y501D02*
X1605Y501D01*
X496Y500D02*
X498Y500D01*
X524Y500D02*
X527Y500D01*
X574Y500D02*
X601Y500D01*
X696Y500D02*
X698Y500D01*
X724Y500D02*
X727Y500D01*
X774Y500D02*
X801Y500D01*
X896Y500D02*
X898Y500D01*
X924Y500D02*
X927Y500D01*
X974Y500D02*
X1001Y500D01*
X1096Y500D02*
X1098Y500D01*
X1124Y500D02*
X1127Y500D01*
X1174Y500D02*
X1201Y500D01*
X1296Y500D02*
X1298Y500D01*
X1324Y500D02*
X1327Y500D01*
X1374Y500D02*
X1401Y500D01*
X1495Y500D02*
X1498Y500D01*
X1524Y500D02*
X1527Y500D01*
X1574Y500D02*
X1601Y500D01*
X496Y499D02*
X498Y499D01*
X524Y499D02*
X527Y499D01*
X583Y499D02*
X593Y499D01*
X696Y499D02*
X698Y499D01*
X724Y499D02*
X727Y499D01*
X783Y499D02*
X793Y499D01*
X896Y499D02*
X898Y499D01*
X924Y499D02*
X927Y499D01*
X983Y499D02*
X993Y499D01*
X1096Y499D02*
X1098Y499D01*
X1124Y499D02*
X1127Y499D01*
X1183Y499D02*
X1192Y499D01*
X1295Y499D02*
X1298Y499D01*
X1324Y499D02*
X1327Y499D01*
X1383Y499D02*
X1392Y499D01*
X1495Y499D02*
X1498Y499D01*
X1524Y499D02*
X1527Y499D01*
X1583Y499D02*
X1592Y499D01*
X496Y498D02*
X498Y498D01*
X524Y498D02*
X527Y498D01*
X696Y498D02*
X698Y498D01*
X724Y498D02*
X727Y498D01*
X896Y498D02*
X898Y498D01*
X924Y498D02*
X927Y498D01*
X1095Y498D02*
X1098Y498D01*
X1124Y498D02*
X1127Y498D01*
X1295Y498D02*
X1298Y498D01*
X1324Y498D02*
X1327Y498D01*
X1495Y498D02*
X1498Y498D01*
X1524Y498D02*
X1527Y498D01*
X496Y497D02*
X498Y497D01*
X524Y497D02*
X527Y497D01*
X696Y497D02*
X698Y497D01*
X724Y497D02*
X727Y497D01*
X895Y497D02*
X898Y497D01*
X924Y497D02*
X927Y497D01*
X1095Y497D02*
X1098Y497D01*
X1124Y497D02*
X1127Y497D01*
X1295Y497D02*
X1298Y497D01*
X1324Y497D02*
X1327Y497D01*
X1495Y497D02*
X1498Y497D01*
X1524Y497D02*
X1527Y497D01*
X496Y496D02*
X498Y496D01*
X524Y496D02*
X527Y496D01*
X696Y496D02*
X698Y496D01*
X724Y496D02*
X727Y496D01*
X895Y496D02*
X898Y496D01*
X924Y496D02*
X927Y496D01*
X1095Y496D02*
X1098Y496D01*
X1124Y496D02*
X1127Y496D01*
X1295Y496D02*
X1298Y496D01*
X1324Y496D02*
X1327Y496D01*
X1495Y496D02*
X1498Y496D01*
X1524Y496D02*
X1527Y496D01*
X496Y495D02*
X498Y495D01*
X524Y495D02*
X527Y495D01*
X696Y495D02*
X698Y495D01*
X724Y495D02*
X727Y495D01*
X895Y495D02*
X898Y495D01*
X924Y495D02*
X927Y495D01*
X1095Y495D02*
X1098Y495D01*
X1124Y495D02*
X1127Y495D01*
X1295Y495D02*
X1298Y495D01*
X1324Y495D02*
X1327Y495D01*
X1495Y495D02*
X1498Y495D01*
X1524Y495D02*
X1527Y495D01*
X496Y494D02*
X499Y494D01*
X524Y494D02*
X527Y494D01*
X696Y494D02*
X699Y494D01*
X724Y494D02*
X727Y494D01*
X895Y494D02*
X898Y494D01*
X924Y494D02*
X927Y494D01*
X1095Y494D02*
X1098Y494D01*
X1124Y494D02*
X1127Y494D01*
X1295Y494D02*
X1298Y494D01*
X1324Y494D02*
X1327Y494D01*
X1495Y494D02*
X1498Y494D01*
X1524Y494D02*
X1527Y494D01*
X496Y493D02*
X527Y493D01*
X696Y493D02*
X727Y493D01*
X895Y493D02*
X927Y493D01*
X1095Y493D02*
X1127Y493D01*
X1295Y493D02*
X1327Y493D01*
X1495Y493D02*
X1527Y493D01*
X496Y492D02*
X527Y492D01*
X696Y492D02*
X727Y492D01*
X895Y492D02*
X927Y492D01*
X1095Y492D02*
X1127Y492D01*
X1295Y492D02*
X1327Y492D01*
X1495Y492D02*
X1527Y492D01*
X496Y491D02*
X527Y491D01*
X696Y491D02*
X727Y491D01*
X895Y491D02*
X927Y491D01*
X1095Y491D02*
X1127Y491D01*
X1295Y491D02*
X1327Y491D01*
X1495Y491D02*
X1527Y491D01*
X496Y490D02*
X527Y490D01*
X696Y490D02*
X727Y490D01*
X896Y490D02*
X927Y490D01*
X1095Y490D02*
X1127Y490D01*
X1295Y490D02*
X1327Y490D01*
X1495Y490D02*
X1527Y490D01*
X451Y375D02*
X478Y375D01*
X502Y375D02*
X521Y375D01*
X451Y374D02*
X480Y374D01*
X502Y374D02*
X521Y374D01*
X451Y373D02*
X481Y373D01*
X501Y373D02*
X521Y373D01*
X451Y372D02*
X482Y372D01*
X501Y372D02*
X521Y372D01*
X451Y371D02*
X483Y371D01*
X502Y371D02*
X521Y371D01*
X451Y370D02*
X483Y370D01*
X502Y370D02*
X521Y370D01*
X451Y369D02*
X484Y369D01*
X504Y369D02*
X521Y369D01*
X451Y368D02*
X457Y368D01*
X477Y368D02*
X484Y368D01*
X515Y368D02*
X521Y368D01*
X451Y367D02*
X457Y367D01*
X478Y367D02*
X484Y367D01*
X515Y367D02*
X521Y367D01*
X451Y366D02*
X457Y366D01*
X478Y366D02*
X485Y366D01*
X515Y366D02*
X521Y366D01*
X451Y365D02*
X457Y365D01*
X479Y365D02*
X485Y365D01*
X515Y365D02*
X521Y365D01*
X451Y364D02*
X457Y364D01*
X479Y364D02*
X485Y364D01*
X515Y364D02*
X521Y364D01*
X451Y363D02*
X457Y363D01*
X479Y363D02*
X485Y363D01*
X515Y363D02*
X521Y363D01*
X451Y362D02*
X457Y362D01*
X479Y362D02*
X485Y362D01*
X515Y362D02*
X521Y362D01*
X451Y361D02*
X457Y361D01*
X478Y361D02*
X485Y361D01*
X515Y361D02*
X521Y361D01*
X451Y360D02*
X457Y360D01*
X478Y360D02*
X484Y360D01*
X515Y360D02*
X521Y360D01*
X451Y359D02*
X457Y359D01*
X477Y359D02*
X484Y359D01*
X515Y359D02*
X521Y359D01*
X451Y358D02*
X484Y358D01*
X515Y358D02*
X521Y358D01*
X451Y357D02*
X483Y357D01*
X515Y357D02*
X521Y357D01*
X451Y356D02*
X483Y356D01*
X515Y356D02*
X521Y356D01*
X451Y355D02*
X482Y355D01*
X515Y355D02*
X521Y355D01*
X451Y354D02*
X481Y354D01*
X515Y354D02*
X521Y354D01*
X451Y353D02*
X480Y353D01*
X515Y353D02*
X521Y353D01*
X451Y352D02*
X478Y352D01*
X515Y352D02*
X521Y352D01*
X451Y351D02*
X457Y351D01*
X463Y351D02*
X470Y351D01*
X515Y351D02*
X521Y351D01*
X451Y350D02*
X457Y350D01*
X463Y350D02*
X471Y350D01*
X515Y350D02*
X521Y350D01*
X451Y349D02*
X457Y349D01*
X464Y349D02*
X471Y349D01*
X515Y349D02*
X521Y349D01*
X451Y348D02*
X457Y348D01*
X465Y348D02*
X472Y348D01*
X515Y348D02*
X521Y348D01*
X451Y347D02*
X457Y347D01*
X465Y347D02*
X472Y347D01*
X515Y347D02*
X521Y347D01*
X451Y346D02*
X457Y346D01*
X466Y346D02*
X473Y346D01*
X515Y346D02*
X521Y346D01*
X531Y346D02*
X533Y346D01*
X451Y345D02*
X457Y345D01*
X466Y345D02*
X474Y345D01*
X515Y345D02*
X521Y345D01*
X529Y345D02*
X534Y345D01*
X451Y344D02*
X457Y344D01*
X467Y344D02*
X474Y344D01*
X515Y344D02*
X521Y344D01*
X529Y344D02*
X535Y344D01*
X451Y343D02*
X457Y343D01*
X468Y343D02*
X475Y343D01*
X515Y343D02*
X521Y343D01*
X529Y343D02*
X535Y343D01*
X451Y342D02*
X457Y342D01*
X468Y342D02*
X475Y342D01*
X515Y342D02*
X521Y342D01*
X529Y342D02*
X535Y342D01*
X451Y341D02*
X457Y341D01*
X469Y341D02*
X476Y341D01*
X515Y341D02*
X521Y341D01*
X529Y341D02*
X535Y341D01*
X451Y340D02*
X457Y340D01*
X469Y340D02*
X477Y340D01*
X515Y340D02*
X521Y340D01*
X529Y340D02*
X535Y340D01*
X451Y339D02*
X457Y339D01*
X470Y339D02*
X477Y339D01*
X515Y339D02*
X521Y339D01*
X529Y339D02*
X535Y339D01*
X451Y338D02*
X457Y338D01*
X470Y338D02*
X478Y338D01*
X515Y338D02*
X521Y338D01*
X529Y338D02*
X535Y338D01*
X451Y337D02*
X457Y337D01*
X471Y337D02*
X478Y337D01*
X515Y337D02*
X521Y337D01*
X529Y337D02*
X535Y337D01*
X451Y336D02*
X457Y336D01*
X472Y336D02*
X479Y336D01*
X515Y336D02*
X521Y336D01*
X529Y336D02*
X535Y336D01*
X451Y335D02*
X457Y335D01*
X472Y335D02*
X479Y335D01*
X515Y335D02*
X521Y335D01*
X529Y335D02*
X535Y335D01*
X451Y334D02*
X457Y334D01*
X473Y334D02*
X480Y334D01*
X515Y334D02*
X521Y334D01*
X529Y334D02*
X535Y334D01*
X451Y333D02*
X457Y333D01*
X473Y333D02*
X481Y333D01*
X515Y333D02*
X521Y333D01*
X529Y333D02*
X535Y333D01*
X451Y332D02*
X457Y332D01*
X474Y332D02*
X481Y332D01*
X515Y332D02*
X521Y332D01*
X529Y332D02*
X535Y332D01*
X451Y331D02*
X457Y331D01*
X475Y331D02*
X482Y331D01*
X515Y331D02*
X521Y331D01*
X529Y331D02*
X535Y331D01*
X451Y330D02*
X457Y330D01*
X475Y330D02*
X482Y330D01*
X515Y330D02*
X521Y330D01*
X529Y330D02*
X535Y330D01*
X451Y329D02*
X457Y329D01*
X476Y329D02*
X483Y329D01*
X515Y329D02*
X521Y329D01*
X529Y329D02*
X535Y329D01*
X451Y328D02*
X457Y328D01*
X476Y328D02*
X484Y328D01*
X503Y328D02*
X535Y328D01*
X451Y327D02*
X457Y327D01*
X477Y327D02*
X484Y327D01*
X502Y327D02*
X535Y327D01*
X451Y326D02*
X457Y326D01*
X478Y326D02*
X484Y326D01*
X501Y326D02*
X535Y326D01*
X451Y325D02*
X457Y325D01*
X478Y325D02*
X485Y325D01*
X501Y325D02*
X535Y325D01*
X451Y324D02*
X457Y324D01*
X479Y324D02*
X484Y324D01*
X501Y324D02*
X534Y324D01*
X452Y323D02*
X456Y323D01*
X479Y323D02*
X484Y323D01*
X502Y323D02*
X534Y323D01*
X453Y322D02*
X455Y322D01*
X481Y322D02*
X482Y322D01*
X503Y322D02*
X532Y322D01*
D02*
G04 End of Silk1*
M02*