; NON-PLATED HOLES START AT T1
; THROUGH (PLATED) HOLES START AT T100
M48
INCH
T100C0.035000
T101C0.040000
T102C0.038000
T103C0.030556
%
T100
X003874Y005762
X003874Y001762
T101
X001874Y004762
X001874Y006762
X001874Y005762
T102
X017874Y003762
X017874Y004762
X017874Y005762
T103
X009874Y004763
X013874Y006762
X011874Y006762
X011875Y005764
X007874Y006762
X005875Y005764
X009875Y005764
X011874Y004763
X015874Y004763
X005874Y006762
X013874Y004763
X015874Y006762
X013875Y005764
X007875Y005764
X005874Y004763
X015875Y005764
X009874Y006762
X007874Y004763
T00
M30
