; NON-PLATED HOLES START AT T1
; THROUGH (PLATED) HOLES START AT T100
M48
INCH
T1C0.086614
T100C0.035000
T101C0.040000
T102C0.038000
T103C0.030556
%
T1
X000985Y001030
X018985Y001030
X018985Y008030
X000985Y008030
T100
X003985Y001030
X003985Y005030
T101
X001985Y004030
X001985Y006030
X001985Y005030
T102
X017985Y004030
X017985Y005030
X017985Y003030
T103
X011986Y005032
X013985Y004031
X009986Y005032
X013985Y006030
X007985Y004031
X005985Y006030
X005985Y004031
X005986Y005032
X007985Y006030
X009985Y004031
X015986Y005032
X011985Y006030
X013986Y005032
X007986Y005032
X009985Y006030
X011985Y004031
X015985Y004031
X015985Y006030
T00
M30
