G04 MADE WITH FRITZING*
G04 WWW.FRITZING.ORG*
G04 SINGLE SIDED*
G04 HOLES NOT PLATED*
G04 CONTOUR ON CENTER OF CONTOUR VECTOR*
%ASAXBY*%
%FSLAX23Y23*%
%MOIN*%
%OFA0B0*%
%SFA1.0B1.0*%
%ADD10R,1.988190X0.905512X1.972190X0.889512*%
%ADD11C,0.008000*%
%ADD12C,0.010000*%
%ADD13C,0.005000*%
%ADD14R,0.001000X0.001000*%
%LNSILK1*%
G90*
G70*
G54D11*
X4Y902D02*
X1984Y902D01*
X1984Y4D01*
X4Y4D01*
X4Y902D01*
D02*
G54D12*
X399Y466D02*
X399Y394D01*
D02*
X399Y194D02*
X399Y141D01*
D02*
X432Y394D02*
X432Y194D01*
D02*
X432Y194D02*
X366Y194D01*
D02*
X366Y194D02*
X366Y394D01*
D02*
X366Y394D02*
X432Y394D01*
D02*
X1749Y553D02*
X1749Y253D01*
D02*
X1749Y253D02*
X1849Y253D01*
D02*
X1849Y253D02*
X1849Y553D01*
D02*
X1849Y553D02*
X1749Y553D01*
G54D13*
D02*
X1749Y518D02*
X1784Y553D01*
G54D12*
D02*
X111Y658D02*
X111Y348D01*
D02*
X111Y348D02*
X327Y348D01*
D02*
X327Y348D02*
X327Y658D01*
D02*
X327Y658D02*
X111Y658D01*
G54D13*
D02*
X287Y348D02*
X287Y658D01*
G54D14*
X197Y746D02*
X201Y746D01*
X224Y746D02*
X242Y746D01*
X197Y745D02*
X202Y745D01*
X223Y745D02*
X242Y745D01*
X196Y744D02*
X202Y744D01*
X222Y744D02*
X242Y744D01*
X196Y743D02*
X202Y743D01*
X222Y743D02*
X242Y743D01*
X196Y742D02*
X202Y742D01*
X223Y742D02*
X242Y742D01*
X196Y741D02*
X202Y741D01*
X223Y741D02*
X242Y741D01*
X196Y740D02*
X202Y740D01*
X225Y740D02*
X242Y740D01*
X196Y739D02*
X202Y739D01*
X236Y739D02*
X242Y739D01*
X196Y738D02*
X202Y738D01*
X236Y738D02*
X242Y738D01*
X196Y737D02*
X202Y737D01*
X236Y737D02*
X242Y737D01*
X196Y736D02*
X202Y736D01*
X236Y736D02*
X242Y736D01*
X196Y735D02*
X202Y735D01*
X236Y735D02*
X242Y735D01*
X196Y734D02*
X202Y734D01*
X236Y734D02*
X242Y734D01*
X196Y733D02*
X202Y733D01*
X236Y733D02*
X242Y733D01*
X196Y732D02*
X202Y732D01*
X236Y732D02*
X242Y732D01*
X196Y731D02*
X202Y731D01*
X236Y731D02*
X242Y731D01*
X196Y730D02*
X202Y730D01*
X236Y730D02*
X242Y730D01*
X196Y729D02*
X202Y729D01*
X236Y729D02*
X242Y729D01*
X196Y728D02*
X202Y728D01*
X236Y728D02*
X242Y728D01*
X196Y727D02*
X202Y727D01*
X236Y727D02*
X242Y727D01*
X196Y726D02*
X202Y726D01*
X236Y726D02*
X242Y726D01*
X196Y725D02*
X202Y725D01*
X236Y725D02*
X242Y725D01*
X196Y724D02*
X202Y724D01*
X236Y724D02*
X242Y724D01*
X196Y723D02*
X202Y723D01*
X236Y723D02*
X242Y723D01*
X196Y722D02*
X202Y722D01*
X236Y722D02*
X242Y722D01*
X196Y721D02*
X202Y721D01*
X236Y721D02*
X242Y721D01*
X196Y720D02*
X202Y720D01*
X236Y720D02*
X242Y720D01*
X930Y720D02*
X946Y720D01*
X984Y720D02*
X1005Y720D01*
X1031Y720D02*
X1057Y720D01*
X196Y719D02*
X202Y719D01*
X236Y719D02*
X242Y719D01*
X537Y719D02*
X554Y719D01*
X590Y719D02*
X613Y719D01*
X637Y719D02*
X655Y719D01*
X746Y719D02*
X762Y719D01*
X800Y719D02*
X821Y719D01*
X846Y719D02*
X873Y719D01*
X929Y719D02*
X949Y719D01*
X982Y719D02*
X1007Y719D01*
X1029Y719D02*
X1059Y719D01*
X196Y718D02*
X202Y718D01*
X236Y718D02*
X242Y718D01*
X536Y718D02*
X556Y718D01*
X589Y718D02*
X615Y718D01*
X636Y718D02*
X655Y718D01*
X745Y718D02*
X764Y718D01*
X798Y718D02*
X823Y718D01*
X845Y718D02*
X875Y718D01*
X928Y718D02*
X950Y718D01*
X981Y718D02*
X1009Y718D01*
X1029Y718D02*
X1060Y718D01*
X177Y717D02*
X180Y717D01*
X196Y717D02*
X202Y717D01*
X236Y717D02*
X242Y717D01*
X252Y717D02*
X254Y717D01*
X535Y717D02*
X557Y717D01*
X588Y717D02*
X616Y717D01*
X636Y717D02*
X655Y717D01*
X744Y717D02*
X766Y717D01*
X796Y717D02*
X824Y717D01*
X845Y717D02*
X876Y717D01*
X928Y717D02*
X951Y717D01*
X980Y717D02*
X1010Y717D01*
X1029Y717D02*
X1061Y717D01*
X1331Y717D02*
X1349Y717D01*
X1385Y717D02*
X1408Y717D01*
X1437Y717D02*
X1463Y717D01*
X1532Y717D02*
X1550Y717D01*
X1585Y717D02*
X1609Y717D01*
X1633Y717D02*
X1639Y717D01*
X176Y716D02*
X181Y716D01*
X196Y716D02*
X202Y716D01*
X236Y716D02*
X242Y716D01*
X251Y716D02*
X255Y716D01*
X535Y716D02*
X558Y716D01*
X587Y716D02*
X617Y716D01*
X636Y716D02*
X655Y716D01*
X744Y716D02*
X767Y716D01*
X796Y716D02*
X825Y716D01*
X844Y716D02*
X877Y716D01*
X928Y716D02*
X952Y716D01*
X979Y716D02*
X1010Y716D01*
X1029Y716D02*
X1062Y716D01*
X1137Y716D02*
X1155Y716D01*
X1190Y716D02*
X1214Y716D01*
X1239Y716D02*
X1242Y716D01*
X1330Y716D02*
X1351Y716D01*
X1383Y716D02*
X1410Y716D01*
X1437Y716D02*
X1463Y716D01*
X1531Y716D02*
X1552Y716D01*
X1584Y716D02*
X1611Y716D01*
X1632Y716D02*
X1640Y716D01*
X176Y715D02*
X181Y715D01*
X196Y715D02*
X202Y715D01*
X236Y715D02*
X242Y715D01*
X250Y715D02*
X256Y715D01*
X535Y715D02*
X559Y715D01*
X586Y715D02*
X618Y715D01*
X636Y715D02*
X655Y715D01*
X744Y715D02*
X768Y715D01*
X795Y715D02*
X826Y715D01*
X845Y715D02*
X877Y715D01*
X929Y715D02*
X953Y715D01*
X979Y715D02*
X1011Y715D01*
X1029Y715D02*
X1062Y715D01*
X1136Y715D02*
X1157Y715D01*
X1189Y715D02*
X1215Y715D01*
X1238Y715D02*
X1243Y715D01*
X1330Y715D02*
X1352Y715D01*
X1382Y715D02*
X1411Y715D01*
X1437Y715D02*
X1464Y715D01*
X1531Y715D02*
X1553Y715D01*
X1583Y715D02*
X1612Y715D01*
X1631Y715D02*
X1641Y715D01*
X175Y714D02*
X181Y714D01*
X196Y714D02*
X202Y714D01*
X236Y714D02*
X242Y714D01*
X250Y714D02*
X256Y714D01*
X536Y714D02*
X560Y714D01*
X586Y714D02*
X618Y714D01*
X636Y714D02*
X655Y714D01*
X745Y714D02*
X768Y714D01*
X795Y714D02*
X827Y714D01*
X845Y714D02*
X878Y714D01*
X930Y714D02*
X953Y714D01*
X979Y714D02*
X1011Y714D01*
X1030Y714D02*
X1062Y714D01*
X1136Y714D02*
X1158Y714D01*
X1188Y714D02*
X1217Y714D01*
X1238Y714D02*
X1244Y714D01*
X1330Y714D02*
X1353Y714D01*
X1381Y714D02*
X1412Y714D01*
X1437Y714D02*
X1464Y714D01*
X1531Y714D02*
X1554Y714D01*
X1582Y714D02*
X1613Y714D01*
X1631Y714D02*
X1641Y714D01*
X175Y713D02*
X181Y713D01*
X196Y713D02*
X202Y713D01*
X236Y713D02*
X242Y713D01*
X250Y713D02*
X256Y713D01*
X537Y713D02*
X560Y713D01*
X586Y713D02*
X619Y713D01*
X637Y713D02*
X655Y713D01*
X746Y713D02*
X769Y713D01*
X794Y713D02*
X827Y713D01*
X846Y713D02*
X878Y713D01*
X935Y713D02*
X941Y713D01*
X946Y713D02*
X954Y713D01*
X978Y713D02*
X985Y713D01*
X1005Y713D02*
X1012Y713D01*
X1056Y713D02*
X1062Y713D01*
X1136Y713D02*
X1159Y713D01*
X1187Y713D02*
X1217Y713D01*
X1238Y713D02*
X1244Y713D01*
X1330Y713D02*
X1354Y713D01*
X1381Y713D02*
X1412Y713D01*
X1437Y713D02*
X1464Y713D01*
X1531Y713D02*
X1555Y713D01*
X1582Y713D02*
X1613Y713D01*
X1631Y713D02*
X1640Y713D01*
X175Y712D02*
X181Y712D01*
X196Y712D02*
X202Y712D01*
X236Y712D02*
X242Y712D01*
X250Y712D02*
X256Y712D01*
X542Y712D02*
X548Y712D01*
X553Y712D02*
X561Y712D01*
X585Y712D02*
X592Y712D01*
X612Y712D02*
X619Y712D01*
X649Y712D02*
X655Y712D01*
X751Y712D02*
X757Y712D01*
X762Y712D02*
X770Y712D01*
X794Y712D02*
X800Y712D01*
X820Y712D02*
X828Y712D01*
X872Y712D02*
X878Y712D01*
X935Y712D02*
X941Y712D01*
X947Y712D02*
X954Y712D01*
X978Y712D02*
X985Y712D01*
X1006Y712D02*
X1012Y712D01*
X1056Y712D02*
X1062Y712D01*
X1136Y712D02*
X1160Y712D01*
X1186Y712D02*
X1218Y712D01*
X1238Y712D02*
X1244Y712D01*
X1331Y712D02*
X1355Y712D01*
X1380Y712D02*
X1413Y712D01*
X1437Y712D02*
X1463Y712D01*
X1532Y712D02*
X1556Y712D01*
X1581Y712D02*
X1614Y712D01*
X1631Y712D02*
X1640Y712D01*
X175Y711D02*
X181Y711D01*
X196Y711D02*
X202Y711D01*
X236Y711D02*
X242Y711D01*
X250Y711D02*
X256Y711D01*
X542Y711D02*
X548Y711D01*
X554Y711D02*
X561Y711D01*
X586Y711D02*
X592Y711D01*
X613Y711D02*
X619Y711D01*
X649Y711D02*
X655Y711D01*
X751Y711D02*
X757Y711D01*
X763Y711D02*
X770Y711D01*
X794Y711D02*
X800Y711D01*
X821Y711D02*
X828Y711D01*
X872Y711D02*
X878Y711D01*
X935Y711D02*
X941Y711D01*
X948Y711D02*
X955Y711D01*
X979Y711D02*
X985Y711D01*
X1006Y711D02*
X1012Y711D01*
X1056Y711D02*
X1062Y711D01*
X1137Y711D02*
X1160Y711D01*
X1186Y711D02*
X1219Y711D01*
X1238Y711D02*
X1244Y711D01*
X1332Y711D02*
X1355Y711D01*
X1380Y711D02*
X1413Y711D01*
X1437Y711D02*
X1461Y711D01*
X1533Y711D02*
X1556Y711D01*
X1581Y711D02*
X1614Y711D01*
X1631Y711D02*
X1638Y711D01*
X175Y710D02*
X181Y710D01*
X196Y710D02*
X202Y710D01*
X236Y710D02*
X242Y710D01*
X250Y710D02*
X256Y710D01*
X542Y710D02*
X548Y710D01*
X555Y710D02*
X562Y710D01*
X586Y710D02*
X593Y710D01*
X613Y710D02*
X619Y710D01*
X649Y710D02*
X655Y710D01*
X751Y710D02*
X757Y710D01*
X764Y710D02*
X771Y710D01*
X794Y710D02*
X801Y710D01*
X822Y710D02*
X828Y710D01*
X872Y710D02*
X878Y710D01*
X935Y710D02*
X941Y710D01*
X948Y710D02*
X955Y710D01*
X979Y710D02*
X986Y710D01*
X1006Y710D02*
X1012Y710D01*
X1056Y710D02*
X1062Y710D01*
X1138Y710D02*
X1161Y710D01*
X1186Y710D02*
X1219Y710D01*
X1238Y710D02*
X1244Y710D01*
X1259Y710D02*
X1263Y710D01*
X1337Y710D02*
X1343Y710D01*
X1349Y710D02*
X1356Y710D01*
X1380Y710D02*
X1386Y710D01*
X1407Y710D02*
X1414Y710D01*
X1437Y710D02*
X1443Y710D01*
X1538Y710D02*
X1544Y710D01*
X1549Y710D02*
X1557Y710D01*
X1581Y710D02*
X1587Y710D01*
X1608Y710D02*
X1615Y710D01*
X1631Y710D02*
X1637Y710D01*
X175Y709D02*
X181Y709D01*
X196Y709D02*
X202Y709D01*
X236Y709D02*
X242Y709D01*
X250Y709D02*
X256Y709D01*
X542Y709D02*
X548Y709D01*
X555Y709D02*
X562Y709D01*
X586Y709D02*
X593Y709D01*
X613Y709D02*
X619Y709D01*
X649Y709D02*
X655Y709D01*
X751Y709D02*
X757Y709D01*
X764Y709D02*
X771Y709D01*
X795Y709D02*
X802Y709D01*
X822Y709D02*
X828Y709D01*
X872Y709D02*
X878Y709D01*
X935Y709D02*
X941Y709D01*
X949Y709D02*
X956Y709D01*
X979Y709D02*
X987Y709D01*
X1007Y709D02*
X1011Y709D01*
X1056Y709D02*
X1062Y709D01*
X1142Y709D02*
X1148Y709D01*
X1154Y709D02*
X1161Y709D01*
X1186Y709D02*
X1192Y709D01*
X1213Y709D02*
X1219Y709D01*
X1238Y709D02*
X1244Y709D01*
X1259Y709D02*
X1264Y709D01*
X1337Y709D02*
X1343Y709D01*
X1349Y709D02*
X1356Y709D01*
X1380Y709D02*
X1387Y709D01*
X1408Y709D02*
X1414Y709D01*
X1437Y709D02*
X1443Y709D01*
X1538Y709D02*
X1544Y709D01*
X1550Y709D02*
X1557Y709D01*
X1581Y709D02*
X1588Y709D01*
X1609Y709D02*
X1615Y709D01*
X1631Y709D02*
X1637Y709D01*
X175Y708D02*
X181Y708D01*
X196Y708D02*
X202Y708D01*
X236Y708D02*
X242Y708D01*
X250Y708D02*
X256Y708D01*
X542Y708D02*
X548Y708D01*
X556Y708D02*
X563Y708D01*
X586Y708D02*
X594Y708D01*
X614Y708D02*
X618Y708D01*
X649Y708D02*
X655Y708D01*
X751Y708D02*
X757Y708D01*
X765Y708D02*
X772Y708D01*
X795Y708D02*
X803Y708D01*
X822Y708D02*
X827Y708D01*
X872Y708D02*
X878Y708D01*
X935Y708D02*
X941Y708D01*
X949Y708D02*
X956Y708D01*
X980Y708D02*
X988Y708D01*
X1008Y708D02*
X1010Y708D01*
X1056Y708D02*
X1062Y708D01*
X1142Y708D02*
X1148Y708D01*
X1155Y708D02*
X1162Y708D01*
X1186Y708D02*
X1192Y708D01*
X1213Y708D02*
X1219Y708D01*
X1238Y708D02*
X1244Y708D01*
X1258Y708D02*
X1264Y708D01*
X1337Y708D02*
X1343Y708D01*
X1350Y708D02*
X1357Y708D01*
X1380Y708D02*
X1387Y708D01*
X1408Y708D02*
X1414Y708D01*
X1437Y708D02*
X1443Y708D01*
X1538Y708D02*
X1544Y708D01*
X1551Y708D02*
X1558Y708D01*
X1581Y708D02*
X1588Y708D01*
X1609Y708D02*
X1615Y708D01*
X1631Y708D02*
X1637Y708D01*
X175Y707D02*
X181Y707D01*
X196Y707D02*
X202Y707D01*
X236Y707D02*
X242Y707D01*
X250Y707D02*
X256Y707D01*
X542Y707D02*
X548Y707D01*
X556Y707D02*
X563Y707D01*
X587Y707D02*
X595Y707D01*
X615Y707D02*
X617Y707D01*
X649Y707D02*
X655Y707D01*
X751Y707D02*
X757Y707D01*
X765Y707D02*
X772Y707D01*
X796Y707D02*
X803Y707D01*
X824Y707D02*
X826Y707D01*
X872Y707D02*
X878Y707D01*
X935Y707D02*
X941Y707D01*
X950Y707D02*
X957Y707D01*
X980Y707D02*
X988Y707D01*
X1056Y707D02*
X1062Y707D01*
X1142Y707D02*
X1148Y707D01*
X1155Y707D02*
X1162Y707D01*
X1186Y707D02*
X1193Y707D01*
X1213Y707D02*
X1219Y707D01*
X1238Y707D02*
X1244Y707D01*
X1258Y707D02*
X1264Y707D01*
X1337Y707D02*
X1343Y707D01*
X1350Y707D02*
X1357Y707D01*
X1381Y707D02*
X1388Y707D01*
X1408Y707D02*
X1413Y707D01*
X1437Y707D02*
X1443Y707D01*
X1538Y707D02*
X1544Y707D01*
X1551Y707D02*
X1558Y707D01*
X1582Y707D02*
X1589Y707D01*
X1609Y707D02*
X1614Y707D01*
X1631Y707D02*
X1637Y707D01*
X175Y706D02*
X181Y706D01*
X196Y706D02*
X202Y706D01*
X236Y706D02*
X242Y706D01*
X250Y706D02*
X256Y706D01*
X542Y706D02*
X548Y706D01*
X557Y706D02*
X564Y706D01*
X588Y706D02*
X596Y706D01*
X649Y706D02*
X655Y706D01*
X751Y706D02*
X757Y706D01*
X766Y706D02*
X773Y706D01*
X796Y706D02*
X804Y706D01*
X872Y706D02*
X878Y706D01*
X935Y706D02*
X941Y706D01*
X950Y706D02*
X957Y706D01*
X981Y706D02*
X989Y706D01*
X1056Y706D02*
X1062Y706D01*
X1142Y706D02*
X1148Y706D01*
X1156Y706D02*
X1163Y706D01*
X1186Y706D02*
X1194Y706D01*
X1214Y706D02*
X1219Y706D01*
X1238Y706D02*
X1244Y706D01*
X1258Y706D02*
X1264Y706D01*
X1337Y706D02*
X1343Y706D01*
X1351Y706D02*
X1358Y706D01*
X1381Y706D02*
X1389Y706D01*
X1409Y706D02*
X1413Y706D01*
X1437Y706D02*
X1443Y706D01*
X1538Y706D02*
X1544Y706D01*
X1552Y706D02*
X1559Y706D01*
X1582Y706D02*
X1590Y706D01*
X1610Y706D02*
X1614Y706D01*
X1631Y706D02*
X1637Y706D01*
X175Y705D02*
X181Y705D01*
X196Y705D02*
X202Y705D01*
X236Y705D02*
X242Y705D01*
X250Y705D02*
X256Y705D01*
X542Y705D02*
X548Y705D01*
X558Y705D02*
X564Y705D01*
X588Y705D02*
X596Y705D01*
X649Y705D02*
X655Y705D01*
X751Y705D02*
X757Y705D01*
X766Y705D02*
X773Y705D01*
X797Y705D02*
X805Y705D01*
X872Y705D02*
X878Y705D01*
X935Y705D02*
X941Y705D01*
X951Y705D02*
X958Y705D01*
X982Y705D02*
X990Y705D01*
X1056Y705D02*
X1062Y705D01*
X1142Y705D02*
X1148Y705D01*
X1156Y705D02*
X1163Y705D01*
X1187Y705D02*
X1195Y705D01*
X1214Y705D02*
X1218Y705D01*
X1238Y705D02*
X1244Y705D01*
X1258Y705D02*
X1264Y705D01*
X1337Y705D02*
X1343Y705D01*
X1351Y705D02*
X1358Y705D01*
X1382Y705D02*
X1390Y705D01*
X1411Y705D02*
X1411Y705D01*
X1437Y705D02*
X1443Y705D01*
X1538Y705D02*
X1544Y705D01*
X1552Y705D02*
X1559Y705D01*
X1583Y705D02*
X1591Y705D01*
X1612Y705D02*
X1612Y705D01*
X1631Y705D02*
X1637Y705D01*
X175Y704D02*
X181Y704D01*
X196Y704D02*
X202Y704D01*
X236Y704D02*
X242Y704D01*
X250Y704D02*
X256Y704D01*
X542Y704D02*
X548Y704D01*
X558Y704D02*
X565Y704D01*
X589Y704D02*
X597Y704D01*
X649Y704D02*
X655Y704D01*
X751Y704D02*
X757Y704D01*
X767Y704D02*
X774Y704D01*
X798Y704D02*
X806Y704D01*
X872Y704D02*
X878Y704D01*
X935Y704D02*
X941Y704D01*
X951Y704D02*
X958Y704D01*
X983Y704D02*
X991Y704D01*
X1056Y704D02*
X1062Y704D01*
X1142Y704D02*
X1148Y704D01*
X1157Y704D02*
X1164Y704D01*
X1187Y704D02*
X1195Y704D01*
X1238Y704D02*
X1244Y704D01*
X1258Y704D02*
X1264Y704D01*
X1337Y704D02*
X1343Y704D01*
X1352Y704D02*
X1359Y704D01*
X1383Y704D02*
X1391Y704D01*
X1437Y704D02*
X1443Y704D01*
X1538Y704D02*
X1544Y704D01*
X1553Y704D02*
X1560Y704D01*
X1583Y704D02*
X1591Y704D01*
X1631Y704D02*
X1637Y704D01*
X175Y703D02*
X182Y703D01*
X196Y703D02*
X202Y703D01*
X236Y703D02*
X242Y703D01*
X250Y703D02*
X256Y703D01*
X542Y703D02*
X548Y703D01*
X559Y703D02*
X565Y703D01*
X590Y703D02*
X598Y703D01*
X649Y703D02*
X655Y703D01*
X751Y703D02*
X757Y703D01*
X767Y703D02*
X774Y703D01*
X799Y703D02*
X807Y703D01*
X872Y703D02*
X878Y703D01*
X935Y703D02*
X941Y703D01*
X952Y703D02*
X959Y703D01*
X984Y703D02*
X992Y703D01*
X1056Y703D02*
X1062Y703D01*
X1142Y703D02*
X1148Y703D01*
X1157Y703D02*
X1164Y703D01*
X1188Y703D02*
X1196Y703D01*
X1238Y703D02*
X1244Y703D01*
X1258Y703D02*
X1264Y703D01*
X1337Y703D02*
X1343Y703D01*
X1352Y703D02*
X1359Y703D01*
X1383Y703D02*
X1391Y703D01*
X1437Y703D02*
X1443Y703D01*
X1538Y703D02*
X1544Y703D01*
X1553Y703D02*
X1560Y703D01*
X1584Y703D02*
X1592Y703D01*
X1631Y703D02*
X1637Y703D01*
X176Y702D02*
X182Y702D01*
X196Y702D02*
X202Y702D01*
X236Y702D02*
X242Y702D01*
X250Y702D02*
X256Y702D01*
X542Y702D02*
X548Y702D01*
X559Y702D02*
X566Y702D01*
X591Y702D02*
X599Y702D01*
X649Y702D02*
X655Y702D01*
X751Y702D02*
X757Y702D01*
X768Y702D02*
X775Y702D01*
X799Y702D02*
X807Y702D01*
X872Y702D02*
X878Y702D01*
X935Y702D02*
X941Y702D01*
X952Y702D02*
X959Y702D01*
X984Y702D02*
X992Y702D01*
X1056Y702D02*
X1062Y702D01*
X1142Y702D02*
X1148Y702D01*
X1158Y702D02*
X1165Y702D01*
X1189Y702D02*
X1197Y702D01*
X1238Y702D02*
X1244Y702D01*
X1258Y702D02*
X1264Y702D01*
X1337Y702D02*
X1343Y702D01*
X1353Y702D02*
X1360Y702D01*
X1384Y702D02*
X1392Y702D01*
X1437Y702D02*
X1443Y702D01*
X1538Y702D02*
X1544Y702D01*
X1554Y702D02*
X1561Y702D01*
X1585Y702D02*
X1593Y702D01*
X1631Y702D02*
X1637Y702D01*
X176Y701D02*
X182Y701D01*
X195Y701D02*
X202Y701D01*
X236Y701D02*
X242Y701D01*
X250Y701D02*
X256Y701D01*
X542Y701D02*
X548Y701D01*
X560Y701D02*
X566Y701D01*
X592Y701D02*
X600Y701D01*
X649Y701D02*
X655Y701D01*
X751Y701D02*
X757Y701D01*
X768Y701D02*
X775Y701D01*
X800Y701D02*
X808Y701D01*
X872Y701D02*
X878Y701D01*
X935Y701D02*
X941Y701D01*
X953Y701D02*
X960Y701D01*
X985Y701D02*
X993Y701D01*
X1056Y701D02*
X1062Y701D01*
X1142Y701D02*
X1148Y701D01*
X1158Y701D02*
X1165Y701D01*
X1190Y701D02*
X1198Y701D01*
X1238Y701D02*
X1244Y701D01*
X1258Y701D02*
X1264Y701D01*
X1337Y701D02*
X1343Y701D01*
X1353Y701D02*
X1360Y701D01*
X1385Y701D02*
X1393Y701D01*
X1437Y701D02*
X1443Y701D01*
X1538Y701D02*
X1544Y701D01*
X1554Y701D02*
X1561Y701D01*
X1586Y701D02*
X1594Y701D01*
X1631Y701D02*
X1637Y701D01*
X176Y700D02*
X184Y700D01*
X194Y700D02*
X202Y700D01*
X236Y700D02*
X242Y700D01*
X250Y700D02*
X256Y700D01*
X542Y700D02*
X548Y700D01*
X560Y700D02*
X567Y700D01*
X592Y700D02*
X600Y700D01*
X649Y700D02*
X655Y700D01*
X751Y700D02*
X757Y700D01*
X769Y700D02*
X776Y700D01*
X801Y700D02*
X809Y700D01*
X872Y700D02*
X878Y700D01*
X935Y700D02*
X941Y700D01*
X953Y700D02*
X960Y700D01*
X986Y700D02*
X994Y700D01*
X1056Y700D02*
X1062Y700D01*
X1142Y700D02*
X1148Y700D01*
X1159Y700D02*
X1166Y700D01*
X1191Y700D02*
X1199Y700D01*
X1238Y700D02*
X1244Y700D01*
X1258Y700D02*
X1264Y700D01*
X1337Y700D02*
X1343Y700D01*
X1354Y700D02*
X1361Y700D01*
X1386Y700D02*
X1394Y700D01*
X1437Y700D02*
X1443Y700D01*
X1538Y700D02*
X1544Y700D01*
X1555Y700D02*
X1562Y700D01*
X1587Y700D02*
X1595Y700D01*
X1631Y700D02*
X1637Y700D01*
X176Y699D02*
X201Y699D01*
X224Y699D02*
X256Y699D01*
X542Y699D02*
X548Y699D01*
X561Y699D02*
X567Y699D01*
X593Y699D02*
X601Y699D01*
X649Y699D02*
X655Y699D01*
X751Y699D02*
X757Y699D01*
X769Y699D02*
X776Y699D01*
X802Y699D02*
X810Y699D01*
X872Y699D02*
X878Y699D01*
X935Y699D02*
X941Y699D01*
X954Y699D02*
X961Y699D01*
X987Y699D02*
X995Y699D01*
X1056Y699D02*
X1062Y699D01*
X1142Y699D02*
X1148Y699D01*
X1160Y699D02*
X1166Y699D01*
X1191Y699D02*
X1199Y699D01*
X1238Y699D02*
X1244Y699D01*
X1258Y699D02*
X1264Y699D01*
X1337Y699D02*
X1343Y699D01*
X1354Y699D02*
X1361Y699D01*
X1386Y699D02*
X1394Y699D01*
X1437Y699D02*
X1443Y699D01*
X1538Y699D02*
X1544Y699D01*
X1555Y699D02*
X1562Y699D01*
X1587Y699D02*
X1595Y699D01*
X1631Y699D02*
X1637Y699D01*
X177Y698D02*
X201Y698D01*
X223Y698D02*
X256Y698D01*
X542Y698D02*
X548Y698D01*
X561Y698D02*
X568Y698D01*
X594Y698D02*
X602Y698D01*
X649Y698D02*
X655Y698D01*
X751Y698D02*
X757Y698D01*
X770Y698D02*
X776Y698D01*
X802Y698D02*
X810Y698D01*
X872Y698D02*
X878Y698D01*
X935Y698D02*
X941Y698D01*
X954Y698D02*
X961Y698D01*
X987Y698D02*
X995Y698D01*
X1055Y698D02*
X1062Y698D01*
X1142Y698D02*
X1148Y698D01*
X1160Y698D02*
X1167Y698D01*
X1192Y698D02*
X1200Y698D01*
X1238Y698D02*
X1244Y698D01*
X1258Y698D02*
X1264Y698D01*
X1337Y698D02*
X1343Y698D01*
X1355Y698D02*
X1362Y698D01*
X1387Y698D02*
X1395Y698D01*
X1437Y698D02*
X1443Y698D01*
X1538Y698D02*
X1544Y698D01*
X1556Y698D02*
X1563Y698D01*
X1588Y698D02*
X1596Y698D01*
X1631Y698D02*
X1637Y698D01*
X178Y697D02*
X200Y697D01*
X222Y697D02*
X256Y697D01*
X542Y697D02*
X548Y697D01*
X562Y697D02*
X568Y697D01*
X595Y697D02*
X603Y697D01*
X649Y697D02*
X655Y697D01*
X751Y697D02*
X757Y697D01*
X770Y697D02*
X777Y697D01*
X803Y697D02*
X811Y697D01*
X872Y697D02*
X878Y697D01*
X935Y697D02*
X941Y697D01*
X955Y697D02*
X961Y697D01*
X988Y697D02*
X996Y697D01*
X1054Y697D02*
X1062Y697D01*
X1142Y697D02*
X1148Y697D01*
X1161Y697D02*
X1167Y697D01*
X1193Y697D02*
X1201Y697D01*
X1238Y697D02*
X1244Y697D01*
X1258Y697D02*
X1264Y697D01*
X1337Y697D02*
X1343Y697D01*
X1355Y697D02*
X1362Y697D01*
X1388Y697D02*
X1396Y697D01*
X1437Y697D02*
X1443Y697D01*
X1538Y697D02*
X1544Y697D01*
X1556Y697D02*
X1563Y697D01*
X1589Y697D02*
X1597Y697D01*
X1631Y697D02*
X1637Y697D01*
X178Y696D02*
X199Y696D01*
X222Y696D02*
X256Y696D01*
X542Y696D02*
X548Y696D01*
X562Y696D02*
X568Y696D01*
X595Y696D02*
X603Y696D01*
X649Y696D02*
X655Y696D01*
X751Y696D02*
X757Y696D01*
X771Y696D02*
X777Y696D01*
X804Y696D02*
X812Y696D01*
X872Y696D02*
X878Y696D01*
X935Y696D02*
X941Y696D01*
X955Y696D02*
X962Y696D01*
X989Y696D02*
X997Y696D01*
X1037Y696D02*
X1061Y696D01*
X1142Y696D02*
X1148Y696D01*
X1161Y696D02*
X1168Y696D01*
X1194Y696D02*
X1202Y696D01*
X1238Y696D02*
X1244Y696D01*
X1258Y696D02*
X1264Y696D01*
X1337Y696D02*
X1343Y696D01*
X1356Y696D02*
X1362Y696D01*
X1389Y696D02*
X1397Y696D01*
X1437Y696D02*
X1443Y696D01*
X1538Y696D02*
X1544Y696D01*
X1557Y696D02*
X1563Y696D01*
X1590Y696D02*
X1598Y696D01*
X1631Y696D02*
X1637Y696D01*
X180Y695D02*
X198Y695D01*
X223Y695D02*
X256Y695D01*
X542Y695D02*
X548Y695D01*
X562Y695D02*
X569Y695D01*
X596Y695D02*
X604Y695D01*
X649Y695D02*
X655Y695D01*
X751Y695D02*
X757Y695D01*
X771Y695D02*
X777Y695D01*
X805Y695D02*
X813Y695D01*
X848Y695D02*
X878Y695D01*
X935Y695D02*
X941Y695D01*
X956Y695D02*
X962Y695D01*
X990Y695D02*
X998Y695D01*
X1036Y695D02*
X1061Y695D01*
X1142Y695D02*
X1148Y695D01*
X1162Y695D02*
X1168Y695D01*
X1194Y695D02*
X1202Y695D01*
X1238Y695D02*
X1244Y695D01*
X1258Y695D02*
X1264Y695D01*
X1337Y695D02*
X1343Y695D01*
X1356Y695D02*
X1363Y695D01*
X1390Y695D02*
X1398Y695D01*
X1437Y695D02*
X1443Y695D01*
X1538Y695D02*
X1544Y695D01*
X1557Y695D02*
X1564Y695D01*
X1590Y695D02*
X1598Y695D01*
X1631Y695D02*
X1637Y695D01*
X181Y694D02*
X197Y694D01*
X223Y694D02*
X255Y694D01*
X542Y694D02*
X548Y694D01*
X563Y694D02*
X569Y694D01*
X597Y694D02*
X605Y694D01*
X649Y694D02*
X655Y694D01*
X751Y694D02*
X757Y694D01*
X771Y694D02*
X777Y694D01*
X806Y694D02*
X814Y694D01*
X847Y694D02*
X878Y694D01*
X935Y694D02*
X941Y694D01*
X956Y694D02*
X962Y694D01*
X991Y694D02*
X999Y694D01*
X1036Y694D02*
X1060Y694D01*
X1142Y694D02*
X1148Y694D01*
X1162Y694D02*
X1168Y694D01*
X1195Y694D02*
X1203Y694D01*
X1238Y694D02*
X1244Y694D01*
X1258Y694D02*
X1264Y694D01*
X1337Y694D02*
X1343Y694D01*
X1357Y694D02*
X1363Y694D01*
X1390Y694D02*
X1398Y694D01*
X1437Y694D02*
X1459Y694D01*
X1538Y694D02*
X1544Y694D01*
X1558Y694D02*
X1564Y694D01*
X1591Y694D02*
X1599Y694D01*
X1631Y694D02*
X1637Y694D01*
X184Y693D02*
X194Y693D01*
X225Y693D02*
X254Y693D01*
X542Y693D02*
X548Y693D01*
X563Y693D02*
X569Y693D01*
X598Y693D02*
X606Y693D01*
X649Y693D02*
X655Y693D01*
X751Y693D02*
X757Y693D01*
X771Y693D02*
X777Y693D01*
X806Y693D02*
X814Y693D01*
X846Y693D02*
X877Y693D01*
X935Y693D02*
X941Y693D01*
X956Y693D02*
X962Y693D01*
X991Y693D02*
X999Y693D01*
X1036Y693D02*
X1060Y693D01*
X1142Y693D02*
X1148Y693D01*
X1162Y693D02*
X1169Y693D01*
X1196Y693D02*
X1204Y693D01*
X1238Y693D02*
X1244Y693D01*
X1258Y693D02*
X1264Y693D01*
X1337Y693D02*
X1343Y693D01*
X1357Y693D02*
X1363Y693D01*
X1391Y693D02*
X1399Y693D01*
X1437Y693D02*
X1461Y693D01*
X1538Y693D02*
X1544Y693D01*
X1558Y693D02*
X1564Y693D01*
X1592Y693D02*
X1600Y693D01*
X1631Y693D02*
X1637Y693D01*
X542Y692D02*
X548Y692D01*
X563Y692D02*
X569Y692D01*
X598Y692D02*
X607Y692D01*
X649Y692D02*
X655Y692D01*
X751Y692D02*
X757Y692D01*
X771Y692D02*
X778Y692D01*
X807Y692D02*
X815Y692D01*
X845Y692D02*
X877Y692D01*
X935Y692D02*
X941Y692D01*
X956Y692D02*
X962Y692D01*
X992Y692D02*
X1000Y692D01*
X1036Y692D02*
X1060Y692D01*
X1142Y692D02*
X1148Y692D01*
X1163Y692D02*
X1169Y692D01*
X1197Y692D02*
X1205Y692D01*
X1238Y692D02*
X1244Y692D01*
X1258Y692D02*
X1264Y692D01*
X1337Y692D02*
X1343Y692D01*
X1357Y692D02*
X1363Y692D01*
X1392Y692D02*
X1400Y692D01*
X1437Y692D02*
X1462Y692D01*
X1538Y692D02*
X1544Y692D01*
X1558Y692D02*
X1564Y692D01*
X1593Y692D02*
X1601Y692D01*
X1631Y692D02*
X1637Y692D01*
X542Y691D02*
X548Y691D01*
X563Y691D02*
X569Y691D01*
X599Y691D02*
X607Y691D01*
X649Y691D02*
X655Y691D01*
X751Y691D02*
X757Y691D01*
X771Y691D02*
X777Y691D01*
X808Y691D02*
X816Y691D01*
X845Y691D02*
X876Y691D01*
X935Y691D02*
X941Y691D01*
X955Y691D02*
X962Y691D01*
X993Y691D02*
X1001Y691D01*
X1036Y691D02*
X1061Y691D01*
X1142Y691D02*
X1148Y691D01*
X1163Y691D02*
X1169Y691D01*
X1198Y691D02*
X1206Y691D01*
X1238Y691D02*
X1244Y691D01*
X1258Y691D02*
X1264Y691D01*
X1337Y691D02*
X1343Y691D01*
X1357Y691D02*
X1364Y691D01*
X1393Y691D02*
X1401Y691D01*
X1437Y691D02*
X1463Y691D01*
X1538Y691D02*
X1544Y691D01*
X1558Y691D02*
X1564Y691D01*
X1594Y691D02*
X1602Y691D01*
X1631Y691D02*
X1637Y691D01*
X542Y690D02*
X548Y690D01*
X562Y690D02*
X569Y690D01*
X600Y690D02*
X608Y690D01*
X649Y690D02*
X655Y690D01*
X666Y690D02*
X666Y690D01*
X751Y690D02*
X757Y690D01*
X771Y690D02*
X777Y690D01*
X809Y690D02*
X817Y690D01*
X844Y690D02*
X875Y690D01*
X935Y690D02*
X941Y690D01*
X955Y690D02*
X961Y690D01*
X994Y690D02*
X1002Y690D01*
X1038Y690D02*
X1061Y690D01*
X1142Y690D02*
X1148Y690D01*
X1163Y690D02*
X1169Y690D01*
X1198Y690D02*
X1206Y690D01*
X1238Y690D02*
X1244Y690D01*
X1258Y690D02*
X1264Y690D01*
X1337Y690D02*
X1343Y690D01*
X1357Y690D02*
X1364Y690D01*
X1393Y690D02*
X1401Y690D01*
X1437Y690D02*
X1463Y690D01*
X1538Y690D02*
X1544Y690D01*
X1558Y690D02*
X1564Y690D01*
X1594Y690D02*
X1602Y690D01*
X1631Y690D02*
X1637Y690D01*
X542Y689D02*
X548Y689D01*
X562Y689D02*
X568Y689D01*
X601Y689D02*
X609Y689D01*
X649Y689D02*
X655Y689D01*
X664Y689D02*
X668Y689D01*
X751Y689D02*
X757Y689D01*
X771Y689D02*
X777Y689D01*
X809Y689D02*
X817Y689D01*
X844Y689D02*
X872Y689D01*
X935Y689D02*
X941Y689D01*
X955Y689D02*
X961Y689D01*
X994Y689D02*
X1002Y689D01*
X1055Y689D02*
X1062Y689D01*
X1142Y689D02*
X1148Y689D01*
X1163Y689D02*
X1169Y689D01*
X1199Y689D02*
X1207Y689D01*
X1238Y689D02*
X1244Y689D01*
X1258Y689D02*
X1264Y689D01*
X1337Y689D02*
X1343Y689D01*
X1357Y689D02*
X1363Y689D01*
X1394Y689D02*
X1402Y689D01*
X1437Y689D02*
X1464Y689D01*
X1538Y689D02*
X1544Y689D01*
X1558Y689D02*
X1564Y689D01*
X1595Y689D02*
X1603Y689D01*
X1631Y689D02*
X1637Y689D01*
X542Y688D02*
X548Y688D01*
X562Y688D02*
X568Y688D01*
X602Y688D02*
X610Y688D01*
X649Y688D02*
X655Y688D01*
X664Y688D02*
X669Y688D01*
X751Y688D02*
X757Y688D01*
X770Y688D02*
X777Y688D01*
X810Y688D02*
X818Y688D01*
X844Y688D02*
X850Y688D01*
X935Y688D02*
X941Y688D01*
X954Y688D02*
X961Y688D01*
X995Y688D02*
X1003Y688D01*
X1056Y688D02*
X1062Y688D01*
X1142Y688D02*
X1148Y688D01*
X1163Y688D02*
X1169Y688D01*
X1200Y688D02*
X1208Y688D01*
X1238Y688D02*
X1244Y688D01*
X1258Y688D02*
X1264Y688D01*
X1337Y688D02*
X1343Y688D01*
X1357Y688D02*
X1363Y688D01*
X1395Y688D02*
X1403Y688D01*
X1437Y688D02*
X1464Y688D01*
X1538Y688D02*
X1544Y688D01*
X1558Y688D02*
X1564Y688D01*
X1596Y688D02*
X1604Y688D01*
X1631Y688D02*
X1663Y688D01*
X542Y687D02*
X548Y687D01*
X561Y687D02*
X568Y687D01*
X602Y687D02*
X610Y687D01*
X649Y687D02*
X655Y687D01*
X663Y687D02*
X669Y687D01*
X751Y687D02*
X757Y687D01*
X770Y687D02*
X776Y687D01*
X811Y687D02*
X819Y687D01*
X844Y687D02*
X850Y687D01*
X935Y687D02*
X941Y687D01*
X954Y687D02*
X960Y687D01*
X996Y687D02*
X1004Y687D01*
X1056Y687D02*
X1062Y687D01*
X1142Y687D02*
X1148Y687D01*
X1163Y687D02*
X1169Y687D01*
X1201Y687D02*
X1209Y687D01*
X1238Y687D02*
X1266Y687D01*
X1337Y687D02*
X1343Y687D01*
X1357Y687D02*
X1363Y687D01*
X1396Y687D02*
X1404Y687D01*
X1458Y687D02*
X1464Y687D01*
X1538Y687D02*
X1544Y687D01*
X1558Y687D02*
X1564Y687D01*
X1597Y687D02*
X1605Y687D01*
X1631Y687D02*
X1664Y687D01*
X542Y686D02*
X548Y686D01*
X561Y686D02*
X567Y686D01*
X603Y686D02*
X611Y686D01*
X649Y686D02*
X655Y686D01*
X663Y686D02*
X669Y686D01*
X751Y686D02*
X757Y686D01*
X769Y686D02*
X776Y686D01*
X812Y686D02*
X820Y686D01*
X844Y686D02*
X850Y686D01*
X935Y686D02*
X941Y686D01*
X953Y686D02*
X960Y686D01*
X997Y686D02*
X1005Y686D01*
X1056Y686D02*
X1062Y686D01*
X1142Y686D02*
X1148Y686D01*
X1162Y686D02*
X1169Y686D01*
X1201Y686D02*
X1209Y686D01*
X1238Y686D02*
X1267Y686D01*
X1337Y686D02*
X1343Y686D01*
X1356Y686D02*
X1363Y686D01*
X1397Y686D02*
X1405Y686D01*
X1458Y686D02*
X1464Y686D01*
X1538Y686D02*
X1544Y686D01*
X1557Y686D02*
X1564Y686D01*
X1597Y686D02*
X1605Y686D01*
X1631Y686D02*
X1665Y686D01*
X1781Y686D02*
X1783Y686D01*
X1807Y686D02*
X1834Y686D01*
X542Y685D02*
X548Y685D01*
X560Y685D02*
X567Y685D01*
X604Y685D02*
X612Y685D01*
X649Y685D02*
X655Y685D01*
X663Y685D02*
X669Y685D01*
X751Y685D02*
X757Y685D01*
X769Y685D02*
X776Y685D01*
X813Y685D02*
X821Y685D01*
X844Y685D02*
X850Y685D01*
X935Y685D02*
X941Y685D01*
X953Y685D02*
X959Y685D01*
X998Y685D02*
X1006Y685D01*
X1056Y685D02*
X1062Y685D01*
X1142Y685D02*
X1148Y685D01*
X1162Y685D02*
X1168Y685D01*
X1202Y685D02*
X1210Y685D01*
X1238Y685D02*
X1268Y685D01*
X1337Y685D02*
X1343Y685D01*
X1356Y685D02*
X1362Y685D01*
X1397Y685D02*
X1405Y685D01*
X1458Y685D02*
X1464Y685D01*
X1538Y685D02*
X1544Y685D01*
X1557Y685D02*
X1563Y685D01*
X1598Y685D02*
X1606Y685D01*
X1631Y685D02*
X1665Y685D01*
X1780Y685D02*
X1784Y685D01*
X1806Y685D02*
X1836Y685D01*
X542Y684D02*
X548Y684D01*
X560Y684D02*
X566Y684D01*
X605Y684D02*
X613Y684D01*
X649Y684D02*
X655Y684D01*
X663Y684D02*
X669Y684D01*
X751Y684D02*
X757Y684D01*
X768Y684D02*
X775Y684D01*
X813Y684D02*
X821Y684D01*
X844Y684D02*
X850Y684D01*
X935Y684D02*
X941Y684D01*
X952Y684D02*
X959Y684D01*
X998Y684D02*
X1006Y684D01*
X1056Y684D02*
X1062Y684D01*
X1142Y684D02*
X1148Y684D01*
X1161Y684D02*
X1168Y684D01*
X1203Y684D02*
X1211Y684D01*
X1238Y684D02*
X1268Y684D01*
X1337Y684D02*
X1343Y684D01*
X1355Y684D02*
X1362Y684D01*
X1398Y684D02*
X1406Y684D01*
X1458Y684D02*
X1464Y684D01*
X1538Y684D02*
X1544Y684D01*
X1556Y684D02*
X1563Y684D01*
X1599Y684D02*
X1607Y684D01*
X1631Y684D02*
X1665Y684D01*
X1779Y684D02*
X1785Y684D01*
X1805Y684D02*
X1837Y684D01*
X542Y683D02*
X548Y683D01*
X559Y683D02*
X566Y683D01*
X605Y683D02*
X614Y683D01*
X649Y683D02*
X655Y683D01*
X663Y683D02*
X669Y683D01*
X751Y683D02*
X757Y683D01*
X768Y683D02*
X775Y683D01*
X814Y683D02*
X822Y683D01*
X844Y683D02*
X850Y683D01*
X935Y683D02*
X941Y683D01*
X952Y683D02*
X958Y683D01*
X999Y683D02*
X1007Y683D01*
X1056Y683D02*
X1062Y683D01*
X1142Y683D02*
X1148Y683D01*
X1161Y683D02*
X1168Y683D01*
X1204Y683D02*
X1212Y683D01*
X1238Y683D02*
X1268Y683D01*
X1337Y683D02*
X1343Y683D01*
X1355Y683D02*
X1361Y683D01*
X1399Y683D02*
X1407Y683D01*
X1458Y683D02*
X1464Y683D01*
X1538Y683D02*
X1544Y683D01*
X1556Y683D02*
X1562Y683D01*
X1600Y683D02*
X1608Y683D01*
X1631Y683D02*
X1665Y683D01*
X1779Y683D02*
X1785Y683D01*
X1805Y683D02*
X1838Y683D01*
X542Y682D02*
X548Y682D01*
X559Y682D02*
X565Y682D01*
X606Y682D02*
X614Y682D01*
X649Y682D02*
X655Y682D01*
X663Y682D02*
X669Y682D01*
X751Y682D02*
X757Y682D01*
X767Y682D02*
X774Y682D01*
X815Y682D02*
X823Y682D01*
X844Y682D02*
X850Y682D01*
X935Y682D02*
X941Y682D01*
X951Y682D02*
X958Y682D01*
X1000Y682D02*
X1008Y682D01*
X1056Y682D02*
X1062Y682D01*
X1142Y682D02*
X1148Y682D01*
X1160Y682D02*
X1167Y682D01*
X1205Y682D02*
X1213Y682D01*
X1238Y682D02*
X1267Y682D01*
X1337Y682D02*
X1343Y682D01*
X1354Y682D02*
X1361Y682D01*
X1400Y682D02*
X1408Y682D01*
X1458Y682D02*
X1464Y682D01*
X1538Y682D02*
X1544Y682D01*
X1555Y682D02*
X1562Y682D01*
X1601Y682D02*
X1609Y682D01*
X1631Y682D02*
X1665Y682D01*
X1779Y682D02*
X1785Y682D01*
X1805Y682D02*
X1838Y682D01*
X542Y681D02*
X548Y681D01*
X558Y681D02*
X565Y681D01*
X607Y681D02*
X615Y681D01*
X649Y681D02*
X655Y681D01*
X663Y681D02*
X669Y681D01*
X751Y681D02*
X757Y681D01*
X767Y681D02*
X774Y681D01*
X816Y681D02*
X824Y681D01*
X844Y681D02*
X850Y681D01*
X935Y681D02*
X941Y681D01*
X951Y681D02*
X958Y681D01*
X1001Y681D02*
X1009Y681D01*
X1056Y681D02*
X1062Y681D01*
X1142Y681D02*
X1148Y681D01*
X1160Y681D02*
X1167Y681D01*
X1205Y681D02*
X1213Y681D01*
X1238Y681D02*
X1266Y681D01*
X1337Y681D02*
X1343Y681D01*
X1354Y681D02*
X1361Y681D01*
X1400Y681D02*
X1408Y681D01*
X1458Y681D02*
X1464Y681D01*
X1538Y681D02*
X1544Y681D01*
X1555Y681D02*
X1561Y681D01*
X1601Y681D02*
X1609Y681D01*
X1631Y681D02*
X1637Y681D01*
X1659Y681D02*
X1665Y681D01*
X1779Y681D02*
X1785Y681D01*
X1806Y681D02*
X1839Y681D01*
X542Y680D02*
X548Y680D01*
X558Y680D02*
X564Y680D01*
X608Y680D02*
X616Y680D01*
X649Y680D02*
X655Y680D01*
X663Y680D02*
X669Y680D01*
X751Y680D02*
X757Y680D01*
X766Y680D02*
X773Y680D01*
X816Y680D02*
X824Y680D01*
X844Y680D02*
X850Y680D01*
X935Y680D02*
X941Y680D01*
X950Y680D02*
X957Y680D01*
X1001Y680D02*
X1009Y680D01*
X1056Y680D02*
X1062Y680D01*
X1142Y680D02*
X1148Y680D01*
X1159Y680D02*
X1166Y680D01*
X1206Y680D02*
X1214Y680D01*
X1258Y680D02*
X1264Y680D01*
X1337Y680D02*
X1343Y680D01*
X1353Y680D02*
X1360Y680D01*
X1401Y680D02*
X1409Y680D01*
X1458Y680D02*
X1464Y680D01*
X1538Y680D02*
X1544Y680D01*
X1554Y680D02*
X1561Y680D01*
X1602Y680D02*
X1610Y680D01*
X1631Y680D02*
X1637Y680D01*
X1659Y680D02*
X1665Y680D01*
X1779Y680D02*
X1785Y680D01*
X1807Y680D02*
X1839Y680D01*
X542Y679D02*
X548Y679D01*
X557Y679D02*
X564Y679D01*
X609Y679D02*
X617Y679D01*
X649Y679D02*
X655Y679D01*
X663Y679D02*
X669Y679D01*
X751Y679D02*
X757Y679D01*
X766Y679D02*
X773Y679D01*
X817Y679D02*
X825Y679D01*
X844Y679D02*
X850Y679D01*
X935Y679D02*
X941Y679D01*
X950Y679D02*
X957Y679D01*
X981Y679D02*
X982Y679D01*
X1002Y679D02*
X1010Y679D01*
X1056Y679D02*
X1062Y679D01*
X1142Y679D02*
X1148Y679D01*
X1159Y679D02*
X1166Y679D01*
X1207Y679D02*
X1215Y679D01*
X1258Y679D02*
X1264Y679D01*
X1337Y679D02*
X1343Y679D01*
X1353Y679D02*
X1360Y679D01*
X1402Y679D02*
X1410Y679D01*
X1458Y679D02*
X1464Y679D01*
X1538Y679D02*
X1544Y679D01*
X1554Y679D02*
X1560Y679D01*
X1603Y679D02*
X1611Y679D01*
X1631Y679D02*
X1637Y679D01*
X1659Y679D02*
X1665Y679D01*
X1779Y679D02*
X1785Y679D01*
X1833Y679D02*
X1839Y679D01*
X542Y678D02*
X548Y678D01*
X557Y678D02*
X563Y678D01*
X588Y678D02*
X589Y678D01*
X609Y678D02*
X617Y678D01*
X649Y678D02*
X655Y678D01*
X663Y678D02*
X669Y678D01*
X751Y678D02*
X757Y678D01*
X765Y678D02*
X772Y678D01*
X797Y678D02*
X798Y678D01*
X818Y678D02*
X826Y678D01*
X844Y678D02*
X850Y678D01*
X935Y678D02*
X941Y678D01*
X949Y678D02*
X956Y678D01*
X979Y678D02*
X983Y678D01*
X1003Y678D02*
X1011Y678D01*
X1056Y678D02*
X1062Y678D01*
X1142Y678D02*
X1148Y678D01*
X1158Y678D02*
X1165Y678D01*
X1208Y678D02*
X1216Y678D01*
X1258Y678D02*
X1264Y678D01*
X1337Y678D02*
X1343Y678D01*
X1352Y678D02*
X1359Y678D01*
X1403Y678D02*
X1411Y678D01*
X1458Y678D02*
X1464Y678D01*
X1538Y678D02*
X1544Y678D01*
X1553Y678D02*
X1560Y678D01*
X1604Y678D02*
X1612Y678D01*
X1631Y678D02*
X1637Y678D01*
X1659Y678D02*
X1665Y678D01*
X1779Y678D02*
X1785Y678D01*
X1833Y678D02*
X1839Y678D01*
X542Y677D02*
X548Y677D01*
X556Y677D02*
X563Y677D01*
X586Y677D02*
X591Y677D01*
X610Y677D02*
X618Y677D01*
X649Y677D02*
X655Y677D01*
X663Y677D02*
X669Y677D01*
X751Y677D02*
X757Y677D01*
X765Y677D02*
X772Y677D01*
X795Y677D02*
X799Y677D01*
X819Y677D02*
X827Y677D01*
X844Y677D02*
X850Y677D01*
X935Y677D02*
X941Y677D01*
X949Y677D02*
X956Y677D01*
X979Y677D02*
X984Y677D01*
X1004Y677D02*
X1011Y677D01*
X1056Y677D02*
X1062Y677D01*
X1142Y677D02*
X1148Y677D01*
X1158Y677D02*
X1165Y677D01*
X1208Y677D02*
X1216Y677D01*
X1258Y677D02*
X1264Y677D01*
X1337Y677D02*
X1343Y677D01*
X1352Y677D02*
X1359Y677D01*
X1404Y677D02*
X1412Y677D01*
X1458Y677D02*
X1464Y677D01*
X1538Y677D02*
X1544Y677D01*
X1553Y677D02*
X1559Y677D01*
X1604Y677D02*
X1612Y677D01*
X1631Y677D02*
X1637Y677D01*
X1659Y677D02*
X1665Y677D01*
X1779Y677D02*
X1785Y677D01*
X1833Y677D02*
X1839Y677D01*
X542Y676D02*
X548Y676D01*
X556Y676D02*
X562Y676D01*
X586Y676D02*
X591Y676D01*
X611Y676D02*
X619Y676D01*
X649Y676D02*
X655Y676D01*
X663Y676D02*
X669Y676D01*
X751Y676D02*
X757Y676D01*
X764Y676D02*
X771Y676D01*
X794Y676D02*
X800Y676D01*
X820Y676D02*
X827Y676D01*
X844Y676D02*
X850Y676D01*
X935Y676D02*
X941Y676D01*
X948Y676D02*
X955Y676D01*
X978Y676D02*
X984Y676D01*
X1005Y676D02*
X1012Y676D01*
X1056Y676D02*
X1062Y676D01*
X1142Y676D02*
X1148Y676D01*
X1157Y676D02*
X1164Y676D01*
X1209Y676D02*
X1217Y676D01*
X1258Y676D02*
X1264Y676D01*
X1337Y676D02*
X1343Y676D01*
X1351Y676D02*
X1358Y676D01*
X1382Y676D02*
X1384Y676D01*
X1404Y676D02*
X1412Y676D01*
X1458Y676D02*
X1464Y676D01*
X1538Y676D02*
X1544Y676D01*
X1552Y676D02*
X1559Y676D01*
X1583Y676D02*
X1585Y676D01*
X1605Y676D02*
X1613Y676D01*
X1631Y676D02*
X1637Y676D01*
X1659Y676D02*
X1665Y676D01*
X1779Y676D02*
X1785Y676D01*
X1833Y676D02*
X1839Y676D01*
X542Y675D02*
X548Y675D01*
X555Y675D02*
X562Y675D01*
X585Y675D02*
X591Y675D01*
X612Y675D02*
X619Y675D01*
X649Y675D02*
X655Y675D01*
X663Y675D02*
X669Y675D01*
X751Y675D02*
X757Y675D01*
X764Y675D02*
X771Y675D01*
X794Y675D02*
X800Y675D01*
X820Y675D02*
X828Y675D01*
X844Y675D02*
X850Y675D01*
X935Y675D02*
X941Y675D01*
X948Y675D02*
X955Y675D01*
X978Y675D02*
X985Y675D01*
X1005Y675D02*
X1012Y675D01*
X1056Y675D02*
X1062Y675D01*
X1142Y675D02*
X1148Y675D01*
X1157Y675D02*
X1164Y675D01*
X1187Y675D02*
X1190Y675D01*
X1210Y675D02*
X1218Y675D01*
X1258Y675D02*
X1264Y675D01*
X1337Y675D02*
X1343Y675D01*
X1351Y675D02*
X1358Y675D01*
X1381Y675D02*
X1386Y675D01*
X1405Y675D02*
X1413Y675D01*
X1458Y675D02*
X1464Y675D01*
X1538Y675D02*
X1544Y675D01*
X1552Y675D02*
X1558Y675D01*
X1582Y675D02*
X1586Y675D01*
X1606Y675D02*
X1614Y675D01*
X1631Y675D02*
X1637Y675D01*
X1659Y675D02*
X1665Y675D01*
X1779Y675D02*
X1785Y675D01*
X1833Y675D02*
X1839Y675D01*
X542Y674D02*
X548Y674D01*
X554Y674D02*
X561Y674D01*
X586Y674D02*
X592Y674D01*
X612Y674D02*
X619Y674D01*
X649Y674D02*
X655Y674D01*
X663Y674D02*
X669Y674D01*
X751Y674D02*
X757Y674D01*
X763Y674D02*
X770Y674D01*
X794Y674D02*
X800Y674D01*
X821Y674D02*
X828Y674D01*
X844Y674D02*
X850Y674D01*
X935Y674D02*
X941Y674D01*
X947Y674D02*
X954Y674D01*
X979Y674D02*
X985Y674D01*
X1006Y674D02*
X1012Y674D01*
X1056Y674D02*
X1062Y674D01*
X1142Y674D02*
X1148Y674D01*
X1156Y674D02*
X1163Y674D01*
X1186Y674D02*
X1191Y674D01*
X1211Y674D02*
X1218Y674D01*
X1258Y674D02*
X1264Y674D01*
X1337Y674D02*
X1343Y674D01*
X1350Y674D02*
X1357Y674D01*
X1380Y674D02*
X1386Y674D01*
X1406Y674D02*
X1413Y674D01*
X1458Y674D02*
X1464Y674D01*
X1538Y674D02*
X1544Y674D01*
X1551Y674D02*
X1558Y674D01*
X1581Y674D02*
X1587Y674D01*
X1607Y674D02*
X1614Y674D01*
X1631Y674D02*
X1637Y674D01*
X1659Y674D02*
X1665Y674D01*
X1779Y674D02*
X1785Y674D01*
X1833Y674D02*
X1839Y674D01*
X542Y673D02*
X548Y673D01*
X554Y673D02*
X561Y673D01*
X586Y673D02*
X592Y673D01*
X613Y673D02*
X619Y673D01*
X649Y673D02*
X655Y673D01*
X663Y673D02*
X669Y673D01*
X751Y673D02*
X757Y673D01*
X762Y673D02*
X770Y673D01*
X794Y673D02*
X801Y673D01*
X822Y673D02*
X828Y673D01*
X844Y673D02*
X850Y673D01*
X931Y673D02*
X954Y673D01*
X979Y673D02*
X1012Y673D01*
X1031Y673D02*
X1062Y673D01*
X1142Y673D02*
X1148Y673D01*
X1156Y673D02*
X1163Y673D01*
X1186Y673D02*
X1192Y673D01*
X1211Y673D02*
X1219Y673D01*
X1258Y673D02*
X1264Y673D01*
X1337Y673D02*
X1343Y673D01*
X1350Y673D02*
X1357Y673D01*
X1380Y673D02*
X1386Y673D01*
X1407Y673D02*
X1414Y673D01*
X1432Y673D02*
X1435Y673D01*
X1458Y673D02*
X1464Y673D01*
X1538Y673D02*
X1544Y673D01*
X1551Y673D02*
X1557Y673D01*
X1581Y673D02*
X1587Y673D01*
X1608Y673D02*
X1615Y673D01*
X1631Y673D02*
X1637Y673D01*
X1659Y673D02*
X1665Y673D01*
X1779Y673D02*
X1785Y673D01*
X1833Y673D02*
X1839Y673D01*
X537Y672D02*
X560Y672D01*
X586Y672D02*
X619Y672D01*
X638Y672D02*
X669Y672D01*
X746Y672D02*
X769Y672D01*
X795Y672D02*
X828Y672D01*
X844Y672D02*
X876Y672D01*
X929Y672D02*
X953Y672D01*
X979Y672D02*
X1012Y672D01*
X1030Y672D02*
X1062Y672D01*
X1142Y672D02*
X1148Y672D01*
X1155Y672D02*
X1162Y672D01*
X1186Y672D02*
X1192Y672D01*
X1212Y672D02*
X1219Y672D01*
X1258Y672D02*
X1264Y672D01*
X1337Y672D02*
X1343Y672D01*
X1349Y672D02*
X1356Y672D01*
X1380Y672D02*
X1386Y672D01*
X1407Y672D02*
X1414Y672D01*
X1431Y672D02*
X1437Y672D01*
X1458Y672D02*
X1464Y672D01*
X1538Y672D02*
X1544Y672D01*
X1550Y672D02*
X1557Y672D01*
X1581Y672D02*
X1587Y672D01*
X1608Y672D02*
X1615Y672D01*
X1631Y672D02*
X1637Y672D01*
X1659Y672D02*
X1665Y672D01*
X1779Y672D02*
X1785Y672D01*
X1833Y672D02*
X1839Y672D01*
X536Y671D02*
X560Y671D01*
X586Y671D02*
X619Y671D01*
X636Y671D02*
X669Y671D01*
X745Y671D02*
X769Y671D01*
X795Y671D02*
X827Y671D01*
X844Y671D02*
X877Y671D01*
X928Y671D02*
X952Y671D01*
X980Y671D02*
X1011Y671D01*
X1029Y671D02*
X1062Y671D01*
X1142Y671D02*
X1148Y671D01*
X1155Y671D02*
X1162Y671D01*
X1186Y671D02*
X1192Y671D01*
X1213Y671D02*
X1219Y671D01*
X1258Y671D02*
X1264Y671D01*
X1337Y671D02*
X1343Y671D01*
X1348Y671D02*
X1356Y671D01*
X1380Y671D02*
X1387Y671D01*
X1407Y671D02*
X1414Y671D01*
X1431Y671D02*
X1440Y671D01*
X1458Y671D02*
X1464Y671D01*
X1538Y671D02*
X1544Y671D01*
X1549Y671D02*
X1556Y671D01*
X1581Y671D02*
X1588Y671D01*
X1608Y671D02*
X1615Y671D01*
X1631Y671D02*
X1637Y671D01*
X1659Y671D02*
X1665Y671D01*
X1779Y671D02*
X1785Y671D01*
X1833Y671D02*
X1839Y671D01*
X535Y670D02*
X559Y670D01*
X587Y670D02*
X618Y670D01*
X636Y670D02*
X669Y670D01*
X744Y670D02*
X768Y670D01*
X795Y670D02*
X827Y670D01*
X844Y670D02*
X878Y670D01*
X928Y670D02*
X952Y670D01*
X980Y670D02*
X1011Y670D01*
X1029Y670D02*
X1061Y670D01*
X1142Y670D02*
X1149Y670D01*
X1153Y670D02*
X1161Y670D01*
X1186Y670D02*
X1193Y670D01*
X1213Y670D02*
X1219Y670D01*
X1258Y670D02*
X1264Y670D01*
X1331Y670D02*
X1355Y670D01*
X1381Y670D02*
X1414Y670D01*
X1430Y670D02*
X1464Y670D01*
X1532Y670D02*
X1556Y670D01*
X1582Y670D02*
X1614Y670D01*
X1631Y670D02*
X1665Y670D01*
X1779Y670D02*
X1785Y670D01*
X1833Y670D02*
X1839Y670D01*
X535Y669D02*
X559Y669D01*
X588Y669D02*
X618Y669D01*
X636Y669D02*
X669Y669D01*
X744Y669D02*
X767Y669D01*
X796Y669D02*
X826Y669D01*
X844Y669D02*
X878Y669D01*
X928Y669D02*
X951Y669D01*
X981Y669D02*
X1010Y669D01*
X1029Y669D02*
X1061Y669D01*
X1137Y669D02*
X1161Y669D01*
X1186Y669D02*
X1219Y669D01*
X1258Y669D02*
X1264Y669D01*
X1331Y669D02*
X1355Y669D01*
X1381Y669D02*
X1413Y669D01*
X1431Y669D02*
X1464Y669D01*
X1531Y669D02*
X1555Y669D01*
X1582Y669D02*
X1614Y669D01*
X1631Y669D02*
X1665Y669D01*
X1779Y669D02*
X1785Y669D01*
X1833Y669D02*
X1839Y669D01*
X535Y668D02*
X558Y668D01*
X588Y668D02*
X617Y668D01*
X636Y668D02*
X669Y668D01*
X744Y668D02*
X766Y668D01*
X797Y668D02*
X826Y668D01*
X844Y668D02*
X878Y668D01*
X929Y668D02*
X949Y668D01*
X982Y668D02*
X1009Y668D01*
X1029Y668D02*
X1060Y668D01*
X1136Y668D02*
X1160Y668D01*
X1187Y668D02*
X1219Y668D01*
X1258Y668D02*
X1264Y668D01*
X1330Y668D02*
X1354Y668D01*
X1382Y668D02*
X1413Y668D01*
X1431Y668D02*
X1463Y668D01*
X1531Y668D02*
X1555Y668D01*
X1583Y668D02*
X1614Y668D01*
X1631Y668D02*
X1665Y668D01*
X1779Y668D02*
X1785Y668D01*
X1833Y668D02*
X1839Y668D01*
X536Y667D02*
X556Y667D01*
X590Y667D02*
X616Y667D01*
X636Y667D02*
X669Y667D01*
X745Y667D02*
X765Y667D01*
X798Y667D02*
X825Y667D01*
X844Y667D02*
X877Y667D01*
X930Y667D02*
X947Y667D01*
X984Y667D02*
X1007Y667D01*
X1030Y667D02*
X1058Y667D01*
X1136Y667D02*
X1159Y667D01*
X1187Y667D02*
X1218Y667D01*
X1258Y667D02*
X1264Y667D01*
X1330Y667D02*
X1353Y667D01*
X1382Y667D02*
X1412Y667D01*
X1432Y667D02*
X1463Y667D01*
X1531Y667D02*
X1554Y667D01*
X1583Y667D02*
X1613Y667D01*
X1631Y667D02*
X1665Y667D01*
X1779Y667D02*
X1785Y667D01*
X1833Y667D02*
X1839Y667D01*
X537Y666D02*
X554Y666D01*
X592Y666D02*
X614Y666D01*
X637Y666D02*
X668Y666D01*
X745Y666D02*
X763Y666D01*
X800Y666D02*
X823Y666D01*
X844Y666D02*
X876Y666D01*
X1136Y666D02*
X1159Y666D01*
X1188Y666D02*
X1218Y666D01*
X1258Y666D02*
X1264Y666D01*
X1330Y666D02*
X1352Y666D01*
X1383Y666D02*
X1411Y666D01*
X1434Y666D02*
X1462Y666D01*
X1531Y666D02*
X1553Y666D01*
X1584Y666D02*
X1612Y666D01*
X1632Y666D02*
X1665Y666D01*
X1779Y666D02*
X1785Y666D01*
X1833Y666D02*
X1839Y666D01*
X1136Y665D02*
X1157Y665D01*
X1189Y665D02*
X1217Y665D01*
X1259Y665D02*
X1264Y665D01*
X1331Y665D02*
X1350Y665D01*
X1385Y665D02*
X1410Y665D01*
X1437Y665D02*
X1461Y665D01*
X1532Y665D02*
X1551Y665D01*
X1586Y665D02*
X1611Y665D01*
X1632Y665D02*
X1664Y665D01*
X1779Y665D02*
X1785Y665D01*
X1833Y665D02*
X1839Y665D01*
X1136Y664D02*
X1156Y664D01*
X1191Y664D02*
X1216Y664D01*
X1259Y664D02*
X1263Y664D01*
X1332Y664D02*
X1348Y664D01*
X1387Y664D02*
X1408Y664D01*
X1440Y664D02*
X1459Y664D01*
X1533Y664D02*
X1549Y664D01*
X1588Y664D02*
X1609Y664D01*
X1633Y664D02*
X1663Y664D01*
X1779Y664D02*
X1785Y664D01*
X1833Y664D02*
X1839Y664D01*
X1138Y663D02*
X1153Y663D01*
X1193Y663D02*
X1213Y663D01*
X1261Y663D02*
X1262Y663D01*
X1779Y663D02*
X1785Y663D01*
X1833Y663D02*
X1839Y663D01*
X1779Y662D02*
X1785Y662D01*
X1809Y662D02*
X1839Y662D01*
X1779Y661D02*
X1785Y661D01*
X1808Y661D02*
X1839Y661D01*
X1779Y660D02*
X1785Y660D01*
X1807Y660D02*
X1838Y660D01*
X1779Y659D02*
X1785Y659D01*
X1806Y659D02*
X1838Y659D01*
X1779Y658D02*
X1785Y658D01*
X1806Y658D02*
X1837Y658D01*
X1779Y657D02*
X1785Y657D01*
X1805Y657D02*
X1836Y657D01*
X1760Y656D02*
X1763Y656D01*
X1779Y656D02*
X1785Y656D01*
X1805Y656D02*
X1833Y656D01*
X1759Y655D02*
X1764Y655D01*
X1779Y655D02*
X1785Y655D01*
X1805Y655D02*
X1811Y655D01*
X1759Y654D02*
X1764Y654D01*
X1779Y654D02*
X1785Y654D01*
X1805Y654D02*
X1811Y654D01*
X1758Y653D02*
X1764Y653D01*
X1779Y653D02*
X1785Y653D01*
X1805Y653D02*
X1811Y653D01*
X1758Y652D02*
X1764Y652D01*
X1779Y652D02*
X1785Y652D01*
X1805Y652D02*
X1811Y652D01*
X1758Y651D02*
X1764Y651D01*
X1779Y651D02*
X1785Y651D01*
X1805Y651D02*
X1811Y651D01*
X1758Y650D02*
X1764Y650D01*
X1779Y650D02*
X1785Y650D01*
X1805Y650D02*
X1811Y650D01*
X1758Y649D02*
X1764Y649D01*
X1779Y649D02*
X1785Y649D01*
X1805Y649D02*
X1811Y649D01*
X1758Y648D02*
X1764Y648D01*
X1779Y648D02*
X1785Y648D01*
X1805Y648D02*
X1811Y648D01*
X1758Y647D02*
X1764Y647D01*
X1779Y647D02*
X1785Y647D01*
X1805Y647D02*
X1811Y647D01*
X1758Y646D02*
X1764Y646D01*
X1779Y646D02*
X1785Y646D01*
X1805Y646D02*
X1811Y646D01*
X1758Y645D02*
X1764Y645D01*
X1779Y645D02*
X1785Y645D01*
X1805Y645D02*
X1811Y645D01*
X1758Y644D02*
X1764Y644D01*
X1779Y644D02*
X1785Y644D01*
X1805Y644D02*
X1811Y644D01*
X1758Y643D02*
X1764Y643D01*
X1779Y643D02*
X1785Y643D01*
X1805Y643D02*
X1811Y643D01*
X1758Y642D02*
X1765Y642D01*
X1779Y642D02*
X1785Y642D01*
X1805Y642D02*
X1811Y642D01*
X1759Y641D02*
X1765Y641D01*
X1779Y641D02*
X1785Y641D01*
X1805Y641D02*
X1811Y641D01*
X1759Y640D02*
X1766Y640D01*
X1778Y640D02*
X1785Y640D01*
X1805Y640D02*
X1811Y640D01*
X1759Y639D02*
X1784Y639D01*
X1805Y639D02*
X1836Y639D01*
X1760Y638D02*
X1784Y638D01*
X1805Y638D02*
X1838Y638D01*
X1760Y637D02*
X1783Y637D01*
X1805Y637D02*
X1839Y637D01*
X1761Y636D02*
X1783Y636D01*
X1805Y636D02*
X1839Y636D01*
X1762Y635D02*
X1782Y635D01*
X1805Y635D02*
X1839Y635D01*
X1763Y634D02*
X1780Y634D01*
X1805Y634D02*
X1838Y634D01*
X1765Y633D02*
X1779Y633D01*
X1805Y633D02*
X1837Y633D01*
X34Y611D02*
X75Y611D01*
X32Y610D02*
X77Y610D01*
X31Y609D02*
X78Y609D01*
X31Y608D02*
X79Y608D01*
X30Y607D02*
X79Y607D01*
X30Y606D02*
X79Y606D01*
X30Y605D02*
X79Y605D01*
X30Y604D02*
X79Y604D01*
X30Y603D02*
X79Y603D01*
X30Y602D02*
X79Y602D01*
X30Y601D02*
X79Y601D01*
X31Y600D02*
X79Y600D01*
X31Y599D02*
X78Y599D01*
X32Y598D02*
X77Y598D01*
X34Y597D02*
X75Y597D01*
X518Y589D02*
X527Y589D01*
X718Y589D02*
X727Y589D01*
X918Y589D02*
X927Y589D01*
X1118Y589D02*
X1127Y589D01*
X1318Y589D02*
X1327Y589D01*
X1518Y589D02*
X1527Y589D01*
X513Y588D02*
X532Y588D01*
X713Y588D02*
X732Y588D01*
X913Y588D02*
X932Y588D01*
X1113Y588D02*
X1132Y588D01*
X1313Y588D02*
X1332Y588D01*
X1513Y588D02*
X1532Y588D01*
X511Y587D02*
X534Y587D01*
X711Y587D02*
X734Y587D01*
X911Y587D02*
X934Y587D01*
X1111Y587D02*
X1134Y587D01*
X1311Y587D02*
X1334Y587D01*
X1511Y587D02*
X1534Y587D01*
X509Y586D02*
X536Y586D01*
X709Y586D02*
X736Y586D01*
X909Y586D02*
X936Y586D01*
X1109Y586D02*
X1136Y586D01*
X1309Y586D02*
X1335Y586D01*
X1509Y586D02*
X1535Y586D01*
X508Y585D02*
X537Y585D01*
X708Y585D02*
X737Y585D01*
X908Y585D02*
X937Y585D01*
X1108Y585D02*
X1137Y585D01*
X1308Y585D02*
X1337Y585D01*
X1508Y585D02*
X1537Y585D01*
X507Y584D02*
X513Y584D01*
X532Y584D02*
X537Y584D01*
X707Y584D02*
X713Y584D01*
X732Y584D02*
X737Y584D01*
X907Y584D02*
X913Y584D01*
X932Y584D02*
X937Y584D01*
X1107Y584D02*
X1113Y584D01*
X1132Y584D02*
X1137Y584D01*
X1307Y584D02*
X1313Y584D01*
X1332Y584D02*
X1337Y584D01*
X1507Y584D02*
X1513Y584D01*
X1532Y584D02*
X1537Y584D01*
X507Y583D02*
X511Y583D01*
X534Y583D02*
X538Y583D01*
X707Y583D02*
X711Y583D01*
X734Y583D02*
X738Y583D01*
X907Y583D02*
X911Y583D01*
X934Y583D02*
X938Y583D01*
X1107Y583D02*
X1111Y583D01*
X1134Y583D02*
X1138Y583D01*
X1307Y583D02*
X1311Y583D01*
X1334Y583D02*
X1338Y583D01*
X1507Y583D02*
X1511Y583D01*
X1534Y583D02*
X1538Y583D01*
X507Y582D02*
X510Y582D01*
X535Y582D02*
X538Y582D01*
X707Y582D02*
X710Y582D01*
X735Y582D02*
X738Y582D01*
X907Y582D02*
X910Y582D01*
X935Y582D02*
X938Y582D01*
X1107Y582D02*
X1110Y582D01*
X1135Y582D02*
X1138Y582D01*
X1307Y582D02*
X1310Y582D01*
X1335Y582D02*
X1338Y582D01*
X1506Y582D02*
X1510Y582D01*
X1535Y582D02*
X1538Y582D01*
X506Y581D02*
X509Y581D01*
X536Y581D02*
X539Y581D01*
X594Y581D02*
X604Y581D01*
X706Y581D02*
X709Y581D01*
X736Y581D02*
X739Y581D01*
X794Y581D02*
X804Y581D01*
X906Y581D02*
X909Y581D01*
X936Y581D02*
X938Y581D01*
X994Y581D02*
X1004Y581D01*
X1106Y581D02*
X1109Y581D01*
X1136Y581D02*
X1138Y581D01*
X1194Y581D02*
X1204Y581D01*
X1306Y581D02*
X1309Y581D01*
X1336Y581D02*
X1338Y581D01*
X1394Y581D02*
X1404Y581D01*
X1506Y581D02*
X1509Y581D01*
X1536Y581D02*
X1538Y581D01*
X1594Y581D02*
X1604Y581D01*
X506Y580D02*
X509Y580D01*
X536Y580D02*
X539Y580D01*
X586Y580D02*
X612Y580D01*
X706Y580D02*
X709Y580D01*
X736Y580D02*
X739Y580D01*
X786Y580D02*
X812Y580D01*
X906Y580D02*
X909Y580D01*
X936Y580D02*
X939Y580D01*
X986Y580D02*
X1012Y580D01*
X1106Y580D02*
X1109Y580D01*
X1136Y580D02*
X1139Y580D01*
X1186Y580D02*
X1212Y580D01*
X1306Y580D02*
X1309Y580D01*
X1336Y580D02*
X1339Y580D01*
X1386Y580D02*
X1412Y580D01*
X1506Y580D02*
X1509Y580D01*
X1536Y580D02*
X1539Y580D01*
X1586Y580D02*
X1612Y580D01*
X506Y579D02*
X509Y579D01*
X536Y579D02*
X539Y579D01*
X581Y579D02*
X617Y579D01*
X706Y579D02*
X709Y579D01*
X736Y579D02*
X739Y579D01*
X781Y579D02*
X817Y579D01*
X906Y579D02*
X909Y579D01*
X936Y579D02*
X939Y579D01*
X981Y579D02*
X1017Y579D01*
X1106Y579D02*
X1109Y579D01*
X1136Y579D02*
X1139Y579D01*
X1181Y579D02*
X1217Y579D01*
X1306Y579D02*
X1309Y579D01*
X1336Y579D02*
X1339Y579D01*
X1381Y579D02*
X1417Y579D01*
X1506Y579D02*
X1509Y579D01*
X1536Y579D02*
X1539Y579D01*
X1581Y579D02*
X1617Y579D01*
X506Y578D02*
X509Y578D01*
X536Y578D02*
X539Y578D01*
X577Y578D02*
X621Y578D01*
X706Y578D02*
X709Y578D01*
X736Y578D02*
X739Y578D01*
X777Y578D02*
X820Y578D01*
X906Y578D02*
X909Y578D01*
X936Y578D02*
X939Y578D01*
X977Y578D02*
X1020Y578D01*
X1106Y578D02*
X1109Y578D01*
X1136Y578D02*
X1139Y578D01*
X1177Y578D02*
X1220Y578D01*
X1306Y578D02*
X1309Y578D01*
X1336Y578D02*
X1339Y578D01*
X1377Y578D02*
X1420Y578D01*
X1506Y578D02*
X1509Y578D01*
X1536Y578D02*
X1539Y578D01*
X1577Y578D02*
X1620Y578D01*
X506Y577D02*
X509Y577D01*
X536Y577D02*
X539Y577D01*
X574Y577D02*
X624Y577D01*
X706Y577D02*
X709Y577D01*
X736Y577D02*
X739Y577D01*
X774Y577D02*
X824Y577D01*
X906Y577D02*
X909Y577D01*
X936Y577D02*
X938Y577D01*
X974Y577D02*
X1024Y577D01*
X1106Y577D02*
X1109Y577D01*
X1136Y577D02*
X1138Y577D01*
X1174Y577D02*
X1224Y577D01*
X1306Y577D02*
X1309Y577D01*
X1336Y577D02*
X1338Y577D01*
X1374Y577D02*
X1424Y577D01*
X1506Y577D02*
X1509Y577D01*
X1536Y577D02*
X1538Y577D01*
X1574Y577D02*
X1624Y577D01*
X507Y576D02*
X510Y576D01*
X535Y576D02*
X538Y576D01*
X571Y576D02*
X627Y576D01*
X707Y576D02*
X710Y576D01*
X735Y576D02*
X738Y576D01*
X771Y576D02*
X827Y576D01*
X906Y576D02*
X910Y576D01*
X935Y576D02*
X938Y576D01*
X971Y576D02*
X1027Y576D01*
X1106Y576D02*
X1110Y576D01*
X1135Y576D02*
X1138Y576D01*
X1171Y576D02*
X1227Y576D01*
X1306Y576D02*
X1310Y576D01*
X1335Y576D02*
X1338Y576D01*
X1371Y576D02*
X1427Y576D01*
X1506Y576D02*
X1509Y576D01*
X1535Y576D02*
X1538Y576D01*
X1571Y576D02*
X1626Y576D01*
X507Y575D02*
X511Y575D01*
X534Y575D02*
X538Y575D01*
X569Y575D02*
X592Y575D01*
X606Y575D02*
X629Y575D01*
X707Y575D02*
X711Y575D01*
X734Y575D02*
X738Y575D01*
X769Y575D02*
X792Y575D01*
X806Y575D02*
X829Y575D01*
X907Y575D02*
X911Y575D01*
X934Y575D02*
X938Y575D01*
X969Y575D02*
X992Y575D01*
X1006Y575D02*
X1029Y575D01*
X1107Y575D02*
X1111Y575D01*
X1134Y575D02*
X1138Y575D01*
X1169Y575D02*
X1192Y575D01*
X1206Y575D02*
X1229Y575D01*
X1307Y575D02*
X1311Y575D01*
X1334Y575D02*
X1338Y575D01*
X1369Y575D02*
X1392Y575D01*
X1406Y575D02*
X1429Y575D01*
X1507Y575D02*
X1510Y575D01*
X1534Y575D02*
X1538Y575D01*
X1569Y575D02*
X1592Y575D01*
X1606Y575D02*
X1629Y575D01*
X507Y574D02*
X513Y574D01*
X532Y574D02*
X537Y574D01*
X566Y574D02*
X585Y574D01*
X613Y574D02*
X631Y574D01*
X707Y574D02*
X713Y574D01*
X732Y574D02*
X737Y574D01*
X766Y574D02*
X785Y574D01*
X813Y574D02*
X831Y574D01*
X907Y574D02*
X913Y574D01*
X932Y574D02*
X937Y574D01*
X966Y574D02*
X985Y574D01*
X1013Y574D02*
X1031Y574D01*
X1107Y574D02*
X1113Y574D01*
X1132Y574D02*
X1137Y574D01*
X1166Y574D02*
X1185Y574D01*
X1213Y574D02*
X1231Y574D01*
X1307Y574D02*
X1313Y574D01*
X1332Y574D02*
X1337Y574D01*
X1366Y574D02*
X1385Y574D01*
X1413Y574D02*
X1431Y574D01*
X1507Y574D02*
X1512Y574D01*
X1532Y574D02*
X1537Y574D01*
X1566Y574D02*
X1585Y574D01*
X1613Y574D02*
X1631Y574D01*
X508Y573D02*
X537Y573D01*
X564Y573D02*
X580Y573D01*
X618Y573D02*
X633Y573D01*
X708Y573D02*
X737Y573D01*
X764Y573D02*
X780Y573D01*
X818Y573D02*
X833Y573D01*
X908Y573D02*
X937Y573D01*
X964Y573D02*
X980Y573D01*
X1018Y573D02*
X1033Y573D01*
X1108Y573D02*
X1137Y573D01*
X1164Y573D02*
X1180Y573D01*
X1218Y573D02*
X1233Y573D01*
X1308Y573D02*
X1337Y573D01*
X1364Y573D02*
X1380Y573D01*
X1418Y573D02*
X1433Y573D01*
X1508Y573D02*
X1537Y573D01*
X1564Y573D02*
X1580Y573D01*
X1618Y573D02*
X1633Y573D01*
X509Y572D02*
X536Y572D01*
X563Y572D02*
X577Y572D01*
X621Y572D02*
X635Y572D01*
X709Y572D02*
X736Y572D01*
X763Y572D02*
X777Y572D01*
X821Y572D02*
X835Y572D01*
X909Y572D02*
X936Y572D01*
X962Y572D02*
X977Y572D01*
X1021Y572D02*
X1035Y572D01*
X1109Y572D02*
X1136Y572D01*
X1162Y572D02*
X1177Y572D01*
X1221Y572D02*
X1235Y572D01*
X1309Y572D02*
X1336Y572D01*
X1362Y572D02*
X1377Y572D01*
X1421Y572D02*
X1435Y572D01*
X1509Y572D02*
X1536Y572D01*
X1562Y572D02*
X1577Y572D01*
X1621Y572D02*
X1635Y572D01*
X510Y571D02*
X534Y571D01*
X561Y571D02*
X574Y571D01*
X624Y571D02*
X637Y571D01*
X710Y571D02*
X734Y571D01*
X761Y571D02*
X774Y571D01*
X824Y571D02*
X837Y571D01*
X910Y571D02*
X934Y571D01*
X961Y571D02*
X974Y571D01*
X1024Y571D02*
X1037Y571D01*
X1110Y571D02*
X1134Y571D01*
X1161Y571D02*
X1174Y571D01*
X1224Y571D02*
X1237Y571D01*
X1310Y571D02*
X1334Y571D01*
X1361Y571D02*
X1374Y571D01*
X1424Y571D02*
X1437Y571D01*
X1510Y571D02*
X1534Y571D01*
X1560Y571D02*
X1574Y571D01*
X1624Y571D02*
X1637Y571D01*
X513Y570D02*
X532Y570D01*
X559Y570D02*
X572Y570D01*
X627Y570D02*
X639Y570D01*
X713Y570D02*
X732Y570D01*
X759Y570D02*
X772Y570D01*
X826Y570D02*
X839Y570D01*
X913Y570D02*
X932Y570D01*
X959Y570D02*
X972Y570D01*
X1026Y570D02*
X1039Y570D01*
X1113Y570D02*
X1132Y570D01*
X1159Y570D02*
X1172Y570D01*
X1226Y570D02*
X1239Y570D01*
X1313Y570D02*
X1332Y570D01*
X1359Y570D02*
X1372Y570D01*
X1426Y570D02*
X1439Y570D01*
X1513Y570D02*
X1532Y570D01*
X1559Y570D02*
X1571Y570D01*
X1626Y570D02*
X1639Y570D01*
X517Y569D02*
X528Y569D01*
X557Y569D02*
X569Y569D01*
X629Y569D02*
X641Y569D01*
X717Y569D02*
X728Y569D01*
X757Y569D02*
X769Y569D01*
X829Y569D02*
X841Y569D01*
X917Y569D02*
X928Y569D01*
X957Y569D02*
X969Y569D01*
X1029Y569D02*
X1041Y569D01*
X1117Y569D02*
X1128Y569D01*
X1157Y569D02*
X1169Y569D01*
X1229Y569D02*
X1240Y569D01*
X1317Y569D02*
X1328Y569D01*
X1357Y569D02*
X1369Y569D01*
X1429Y569D02*
X1440Y569D01*
X1517Y569D02*
X1528Y569D01*
X1557Y569D02*
X1569Y569D01*
X1629Y569D02*
X1640Y569D01*
X556Y568D02*
X567Y568D01*
X631Y568D02*
X642Y568D01*
X756Y568D02*
X767Y568D01*
X831Y568D02*
X842Y568D01*
X956Y568D02*
X967Y568D01*
X1031Y568D02*
X1042Y568D01*
X1156Y568D02*
X1167Y568D01*
X1231Y568D02*
X1242Y568D01*
X1356Y568D02*
X1367Y568D01*
X1431Y568D02*
X1442Y568D01*
X1556Y568D02*
X1567Y568D01*
X1631Y568D02*
X1642Y568D01*
X554Y567D02*
X565Y567D01*
X633Y567D02*
X644Y567D01*
X754Y567D02*
X765Y567D01*
X833Y567D02*
X844Y567D01*
X954Y567D02*
X965Y567D01*
X1033Y567D02*
X1044Y567D01*
X1154Y567D02*
X1165Y567D01*
X1233Y567D02*
X1244Y567D01*
X1354Y567D02*
X1365Y567D01*
X1433Y567D02*
X1443Y567D01*
X1554Y567D02*
X1565Y567D01*
X1633Y567D02*
X1643Y567D01*
X553Y566D02*
X563Y566D01*
X635Y566D02*
X645Y566D01*
X753Y566D02*
X763Y566D01*
X835Y566D02*
X845Y566D01*
X953Y566D02*
X963Y566D01*
X1035Y566D02*
X1045Y566D01*
X1153Y566D02*
X1163Y566D01*
X1235Y566D02*
X1245Y566D01*
X1353Y566D02*
X1363Y566D01*
X1435Y566D02*
X1445Y566D01*
X1553Y566D02*
X1563Y566D01*
X1635Y566D02*
X1645Y566D01*
X552Y565D02*
X562Y565D01*
X637Y565D02*
X646Y565D01*
X752Y565D02*
X762Y565D01*
X837Y565D02*
X846Y565D01*
X952Y565D02*
X962Y565D01*
X1037Y565D02*
X1046Y565D01*
X1152Y565D02*
X1162Y565D01*
X1236Y565D02*
X1246Y565D01*
X1352Y565D02*
X1362Y565D01*
X1436Y565D02*
X1446Y565D01*
X1552Y565D02*
X1561Y565D01*
X1636Y565D02*
X1646Y565D01*
X535Y564D02*
X538Y564D01*
X550Y564D02*
X560Y564D01*
X638Y564D02*
X648Y564D01*
X735Y564D02*
X738Y564D01*
X750Y564D02*
X760Y564D01*
X838Y564D02*
X848Y564D01*
X935Y564D02*
X938Y564D01*
X950Y564D02*
X960Y564D01*
X1038Y564D02*
X1047Y564D01*
X1135Y564D02*
X1138Y564D01*
X1150Y564D02*
X1160Y564D01*
X1238Y564D02*
X1247Y564D01*
X1335Y564D02*
X1338Y564D01*
X1350Y564D02*
X1360Y564D01*
X1438Y564D02*
X1447Y564D01*
X1535Y564D02*
X1538Y564D01*
X1550Y564D02*
X1560Y564D01*
X1638Y564D02*
X1647Y564D01*
X512Y563D02*
X518Y563D01*
X535Y563D02*
X538Y563D01*
X549Y563D02*
X559Y563D01*
X640Y563D02*
X649Y563D01*
X712Y563D02*
X718Y563D01*
X735Y563D02*
X738Y563D01*
X749Y563D02*
X759Y563D01*
X840Y563D02*
X849Y563D01*
X912Y563D02*
X918Y563D01*
X935Y563D02*
X938Y563D01*
X949Y563D02*
X958Y563D01*
X1039Y563D02*
X1049Y563D01*
X1112Y563D02*
X1118Y563D01*
X1135Y563D02*
X1138Y563D01*
X1149Y563D02*
X1158Y563D01*
X1239Y563D02*
X1249Y563D01*
X1312Y563D02*
X1318Y563D01*
X1335Y563D02*
X1338Y563D01*
X1349Y563D02*
X1358Y563D01*
X1439Y563D02*
X1449Y563D01*
X1512Y563D02*
X1518Y563D01*
X1535Y563D02*
X1538Y563D01*
X1549Y563D02*
X1558Y563D01*
X1639Y563D02*
X1649Y563D01*
X510Y562D02*
X520Y562D01*
X535Y562D02*
X538Y562D01*
X548Y562D02*
X557Y562D01*
X641Y562D02*
X650Y562D01*
X710Y562D02*
X720Y562D01*
X735Y562D02*
X738Y562D01*
X748Y562D02*
X757Y562D01*
X841Y562D02*
X850Y562D01*
X910Y562D02*
X920Y562D01*
X935Y562D02*
X938Y562D01*
X948Y562D02*
X957Y562D01*
X1041Y562D02*
X1050Y562D01*
X1110Y562D02*
X1120Y562D01*
X1135Y562D02*
X1138Y562D01*
X1148Y562D02*
X1157Y562D01*
X1241Y562D02*
X1250Y562D01*
X1310Y562D02*
X1320Y562D01*
X1335Y562D02*
X1338Y562D01*
X1348Y562D02*
X1357Y562D01*
X1441Y562D02*
X1450Y562D01*
X1510Y562D02*
X1520Y562D01*
X1535Y562D02*
X1538Y562D01*
X1548Y562D02*
X1557Y562D01*
X1641Y562D02*
X1650Y562D01*
X509Y561D02*
X522Y561D01*
X535Y561D02*
X538Y561D01*
X547Y561D02*
X556Y561D01*
X642Y561D02*
X651Y561D01*
X709Y561D02*
X722Y561D01*
X735Y561D02*
X738Y561D01*
X747Y561D02*
X756Y561D01*
X842Y561D02*
X851Y561D01*
X909Y561D02*
X922Y561D01*
X935Y561D02*
X938Y561D01*
X947Y561D02*
X956Y561D01*
X1042Y561D02*
X1051Y561D01*
X1109Y561D02*
X1122Y561D01*
X1135Y561D02*
X1138Y561D01*
X1147Y561D02*
X1156Y561D01*
X1242Y561D02*
X1251Y561D01*
X1308Y561D02*
X1322Y561D01*
X1335Y561D02*
X1338Y561D01*
X1347Y561D02*
X1356Y561D01*
X1442Y561D02*
X1451Y561D01*
X1508Y561D02*
X1522Y561D01*
X1535Y561D02*
X1538Y561D01*
X1547Y561D02*
X1556Y561D01*
X1642Y561D02*
X1651Y561D01*
X508Y560D02*
X523Y560D01*
X535Y560D02*
X538Y560D01*
X547Y560D02*
X554Y560D01*
X644Y560D02*
X652Y560D01*
X708Y560D02*
X723Y560D01*
X735Y560D02*
X738Y560D01*
X746Y560D02*
X754Y560D01*
X844Y560D02*
X852Y560D01*
X908Y560D02*
X923Y560D01*
X935Y560D02*
X938Y560D01*
X946Y560D02*
X954Y560D01*
X1044Y560D02*
X1052Y560D01*
X1108Y560D02*
X1123Y560D01*
X1135Y560D02*
X1138Y560D01*
X1146Y560D02*
X1154Y560D01*
X1244Y560D02*
X1252Y560D01*
X1308Y560D02*
X1323Y560D01*
X1335Y560D02*
X1338Y560D01*
X1346Y560D02*
X1354Y560D01*
X1444Y560D02*
X1452Y560D01*
X1508Y560D02*
X1523Y560D01*
X1535Y560D02*
X1538Y560D01*
X1546Y560D02*
X1554Y560D01*
X1644Y560D02*
X1652Y560D01*
X507Y559D02*
X513Y559D01*
X516Y559D02*
X524Y559D01*
X535Y559D02*
X538Y559D01*
X546Y559D02*
X553Y559D01*
X645Y559D02*
X653Y559D01*
X707Y559D02*
X713Y559D01*
X716Y559D02*
X724Y559D01*
X735Y559D02*
X738Y559D01*
X746Y559D02*
X753Y559D01*
X845Y559D02*
X853Y559D01*
X907Y559D02*
X913Y559D01*
X916Y559D02*
X924Y559D01*
X935Y559D02*
X938Y559D01*
X946Y559D02*
X953Y559D01*
X1045Y559D02*
X1053Y559D01*
X1107Y559D02*
X1113Y559D01*
X1116Y559D02*
X1124Y559D01*
X1135Y559D02*
X1138Y559D01*
X1146Y559D02*
X1153Y559D01*
X1245Y559D02*
X1253Y559D01*
X1307Y559D02*
X1313Y559D01*
X1316Y559D02*
X1324Y559D01*
X1335Y559D02*
X1338Y559D01*
X1346Y559D02*
X1353Y559D01*
X1445Y559D02*
X1453Y559D01*
X1507Y559D02*
X1513Y559D01*
X1516Y559D02*
X1524Y559D01*
X1535Y559D02*
X1538Y559D01*
X1546Y559D02*
X1553Y559D01*
X1645Y559D02*
X1653Y559D01*
X507Y558D02*
X511Y558D01*
X520Y558D02*
X525Y558D01*
X535Y558D02*
X538Y558D01*
X546Y558D02*
X552Y558D01*
X646Y558D02*
X654Y558D01*
X707Y558D02*
X711Y558D01*
X720Y558D02*
X725Y558D01*
X735Y558D02*
X738Y558D01*
X746Y558D02*
X752Y558D01*
X846Y558D02*
X854Y558D01*
X907Y558D02*
X911Y558D01*
X920Y558D02*
X925Y558D01*
X935Y558D02*
X938Y558D01*
X946Y558D02*
X952Y558D01*
X1046Y558D02*
X1054Y558D01*
X1107Y558D02*
X1111Y558D01*
X1120Y558D02*
X1125Y558D01*
X1135Y558D02*
X1138Y558D01*
X1146Y558D02*
X1152Y558D01*
X1246Y558D02*
X1254Y558D01*
X1307Y558D02*
X1311Y558D01*
X1320Y558D02*
X1325Y558D01*
X1335Y558D02*
X1338Y558D01*
X1346Y558D02*
X1352Y558D01*
X1446Y558D02*
X1454Y558D01*
X1507Y558D02*
X1511Y558D01*
X1520Y558D02*
X1525Y558D01*
X1535Y558D02*
X1538Y558D01*
X1546Y558D02*
X1552Y558D01*
X1646Y558D02*
X1654Y558D01*
X506Y557D02*
X510Y557D01*
X521Y557D02*
X527Y557D01*
X535Y557D02*
X538Y557D01*
X546Y557D02*
X552Y557D01*
X647Y557D02*
X655Y557D01*
X706Y557D02*
X710Y557D01*
X721Y557D02*
X726Y557D01*
X735Y557D02*
X738Y557D01*
X746Y557D02*
X752Y557D01*
X847Y557D02*
X855Y557D01*
X906Y557D02*
X910Y557D01*
X921Y557D02*
X926Y557D01*
X935Y557D02*
X938Y557D01*
X946Y557D02*
X952Y557D01*
X1047Y557D02*
X1055Y557D01*
X1106Y557D02*
X1110Y557D01*
X1121Y557D02*
X1126Y557D01*
X1135Y557D02*
X1138Y557D01*
X1146Y557D02*
X1152Y557D01*
X1247Y557D02*
X1255Y557D01*
X1306Y557D02*
X1310Y557D01*
X1321Y557D02*
X1326Y557D01*
X1335Y557D02*
X1338Y557D01*
X1346Y557D02*
X1352Y557D01*
X1447Y557D02*
X1455Y557D01*
X1506Y557D02*
X1510Y557D01*
X1521Y557D02*
X1526Y557D01*
X1535Y557D02*
X1538Y557D01*
X1546Y557D02*
X1552Y557D01*
X1647Y557D02*
X1655Y557D01*
X506Y556D02*
X509Y556D01*
X523Y556D02*
X528Y556D01*
X535Y556D02*
X538Y556D01*
X546Y556D02*
X552Y556D01*
X648Y556D02*
X656Y556D01*
X706Y556D02*
X709Y556D01*
X723Y556D02*
X728Y556D01*
X735Y556D02*
X738Y556D01*
X746Y556D02*
X752Y556D01*
X848Y556D02*
X856Y556D01*
X906Y556D02*
X909Y556D01*
X923Y556D02*
X927Y556D01*
X935Y556D02*
X938Y556D01*
X946Y556D02*
X952Y556D01*
X1048Y556D02*
X1056Y556D01*
X1106Y556D02*
X1109Y556D01*
X1123Y556D02*
X1127Y556D01*
X1135Y556D02*
X1138Y556D01*
X1146Y556D02*
X1152Y556D01*
X1248Y556D02*
X1256Y556D01*
X1306Y556D02*
X1309Y556D01*
X1323Y556D02*
X1327Y556D01*
X1335Y556D02*
X1338Y556D01*
X1346Y556D02*
X1352Y556D01*
X1448Y556D02*
X1456Y556D01*
X1506Y556D02*
X1509Y556D01*
X1523Y556D02*
X1527Y556D01*
X1535Y556D02*
X1538Y556D01*
X1546Y556D02*
X1552Y556D01*
X1648Y556D02*
X1656Y556D01*
X506Y555D02*
X509Y555D01*
X524Y555D02*
X529Y555D01*
X535Y555D02*
X538Y555D01*
X546Y555D02*
X552Y555D01*
X649Y555D02*
X657Y555D01*
X706Y555D02*
X709Y555D01*
X724Y555D02*
X729Y555D01*
X735Y555D02*
X738Y555D01*
X746Y555D02*
X752Y555D01*
X849Y555D02*
X857Y555D01*
X906Y555D02*
X909Y555D01*
X924Y555D02*
X929Y555D01*
X935Y555D02*
X938Y555D01*
X946Y555D02*
X952Y555D01*
X1049Y555D02*
X1057Y555D01*
X1106Y555D02*
X1109Y555D01*
X1124Y555D02*
X1128Y555D01*
X1135Y555D02*
X1138Y555D01*
X1146Y555D02*
X1152Y555D01*
X1249Y555D02*
X1257Y555D01*
X1306Y555D02*
X1309Y555D01*
X1324Y555D02*
X1328Y555D01*
X1335Y555D02*
X1338Y555D01*
X1346Y555D02*
X1352Y555D01*
X1449Y555D02*
X1457Y555D01*
X1506Y555D02*
X1509Y555D01*
X1524Y555D02*
X1528Y555D01*
X1535Y555D02*
X1538Y555D01*
X1546Y555D02*
X1552Y555D01*
X1649Y555D02*
X1657Y555D01*
X506Y554D02*
X509Y554D01*
X525Y554D02*
X530Y554D01*
X535Y554D02*
X538Y554D01*
X546Y554D02*
X552Y554D01*
X650Y554D02*
X658Y554D01*
X706Y554D02*
X709Y554D01*
X725Y554D02*
X730Y554D01*
X735Y554D02*
X738Y554D01*
X746Y554D02*
X752Y554D01*
X850Y554D02*
X858Y554D01*
X906Y554D02*
X909Y554D01*
X925Y554D02*
X930Y554D01*
X935Y554D02*
X938Y554D01*
X946Y554D02*
X952Y554D01*
X1050Y554D02*
X1058Y554D01*
X1106Y554D02*
X1109Y554D01*
X1125Y554D02*
X1130Y554D01*
X1135Y554D02*
X1138Y554D01*
X1146Y554D02*
X1152Y554D01*
X1250Y554D02*
X1258Y554D01*
X1306Y554D02*
X1309Y554D01*
X1325Y554D02*
X1329Y554D01*
X1335Y554D02*
X1338Y554D01*
X1346Y554D02*
X1352Y554D01*
X1450Y554D02*
X1458Y554D01*
X1506Y554D02*
X1509Y554D01*
X1525Y554D02*
X1529Y554D01*
X1535Y554D02*
X1538Y554D01*
X1546Y554D02*
X1552Y554D01*
X1650Y554D02*
X1658Y554D01*
X506Y553D02*
X509Y553D01*
X526Y553D02*
X531Y553D01*
X535Y553D02*
X538Y553D01*
X546Y553D02*
X552Y553D01*
X651Y553D02*
X659Y553D01*
X706Y553D02*
X709Y553D01*
X726Y553D02*
X731Y553D01*
X735Y553D02*
X738Y553D01*
X746Y553D02*
X752Y553D01*
X851Y553D02*
X859Y553D01*
X906Y553D02*
X909Y553D01*
X926Y553D02*
X931Y553D01*
X935Y553D02*
X938Y553D01*
X946Y553D02*
X952Y553D01*
X1051Y553D02*
X1059Y553D01*
X1106Y553D02*
X1109Y553D01*
X1126Y553D02*
X1131Y553D01*
X1135Y553D02*
X1138Y553D01*
X1146Y553D02*
X1152Y553D01*
X1251Y553D02*
X1259Y553D01*
X1306Y553D02*
X1309Y553D01*
X1326Y553D02*
X1330Y553D01*
X1335Y553D02*
X1338Y553D01*
X1346Y553D02*
X1352Y553D01*
X1451Y553D02*
X1459Y553D01*
X1506Y553D02*
X1509Y553D01*
X1526Y553D02*
X1530Y553D01*
X1535Y553D02*
X1538Y553D01*
X1546Y553D02*
X1552Y553D01*
X1651Y553D02*
X1659Y553D01*
X506Y552D02*
X509Y552D01*
X527Y552D02*
X532Y552D01*
X535Y552D02*
X538Y552D01*
X546Y552D02*
X552Y552D01*
X652Y552D02*
X659Y552D01*
X706Y552D02*
X709Y552D01*
X727Y552D02*
X731Y552D01*
X735Y552D02*
X738Y552D01*
X746Y552D02*
X752Y552D01*
X852Y552D02*
X859Y552D01*
X906Y552D02*
X909Y552D01*
X927Y552D02*
X931Y552D01*
X935Y552D02*
X938Y552D01*
X946Y552D02*
X952Y552D01*
X1052Y552D02*
X1059Y552D01*
X1106Y552D02*
X1109Y552D01*
X1127Y552D02*
X1131Y552D01*
X1135Y552D02*
X1138Y552D01*
X1146Y552D02*
X1152Y552D01*
X1252Y552D02*
X1259Y552D01*
X1306Y552D02*
X1309Y552D01*
X1327Y552D02*
X1331Y552D01*
X1335Y552D02*
X1338Y552D01*
X1346Y552D02*
X1352Y552D01*
X1452Y552D02*
X1459Y552D01*
X1506Y552D02*
X1509Y552D01*
X1527Y552D02*
X1531Y552D01*
X1535Y552D02*
X1538Y552D01*
X1546Y552D02*
X1552Y552D01*
X1652Y552D02*
X1659Y552D01*
X506Y551D02*
X509Y551D01*
X529Y551D02*
X532Y551D01*
X535Y551D02*
X538Y551D01*
X546Y551D02*
X552Y551D01*
X653Y551D02*
X660Y551D01*
X706Y551D02*
X709Y551D01*
X728Y551D02*
X732Y551D01*
X735Y551D02*
X738Y551D01*
X746Y551D02*
X752Y551D01*
X853Y551D02*
X860Y551D01*
X906Y551D02*
X909Y551D01*
X928Y551D02*
X932Y551D01*
X935Y551D02*
X938Y551D01*
X946Y551D02*
X952Y551D01*
X1053Y551D02*
X1060Y551D01*
X1106Y551D02*
X1109Y551D01*
X1128Y551D02*
X1132Y551D01*
X1135Y551D02*
X1138Y551D01*
X1146Y551D02*
X1152Y551D01*
X1253Y551D02*
X1260Y551D01*
X1306Y551D02*
X1309Y551D01*
X1328Y551D02*
X1332Y551D01*
X1335Y551D02*
X1338Y551D01*
X1346Y551D02*
X1352Y551D01*
X1453Y551D02*
X1460Y551D01*
X1506Y551D02*
X1509Y551D01*
X1528Y551D02*
X1532Y551D01*
X1535Y551D02*
X1538Y551D01*
X1546Y551D02*
X1552Y551D01*
X1653Y551D02*
X1660Y551D01*
X507Y550D02*
X510Y550D01*
X530Y550D02*
X533Y550D01*
X535Y550D02*
X538Y550D01*
X546Y550D02*
X552Y550D01*
X654Y550D02*
X661Y550D01*
X707Y550D02*
X710Y550D01*
X730Y550D02*
X733Y550D01*
X735Y550D02*
X738Y550D01*
X746Y550D02*
X752Y550D01*
X854Y550D02*
X861Y550D01*
X907Y550D02*
X909Y550D01*
X930Y550D02*
X933Y550D01*
X935Y550D02*
X938Y550D01*
X946Y550D02*
X952Y550D01*
X1054Y550D02*
X1061Y550D01*
X1107Y550D02*
X1109Y550D01*
X1130Y550D02*
X1133Y550D01*
X1135Y550D02*
X1138Y550D01*
X1146Y550D02*
X1152Y550D01*
X1254Y550D02*
X1261Y550D01*
X1307Y550D02*
X1309Y550D01*
X1329Y550D02*
X1333Y550D01*
X1335Y550D02*
X1338Y550D01*
X1346Y550D02*
X1352Y550D01*
X1454Y550D02*
X1461Y550D01*
X1506Y550D02*
X1509Y550D01*
X1529Y550D02*
X1533Y550D01*
X1535Y550D02*
X1538Y550D01*
X1546Y550D02*
X1552Y550D01*
X1654Y550D02*
X1661Y550D01*
X507Y549D02*
X510Y549D01*
X531Y549D02*
X538Y549D01*
X546Y549D02*
X552Y549D01*
X655Y549D02*
X662Y549D01*
X707Y549D02*
X710Y549D01*
X731Y549D02*
X738Y549D01*
X746Y549D02*
X752Y549D01*
X855Y549D02*
X862Y549D01*
X907Y549D02*
X910Y549D01*
X931Y549D02*
X938Y549D01*
X946Y549D02*
X952Y549D01*
X1055Y549D02*
X1062Y549D01*
X1107Y549D02*
X1110Y549D01*
X1131Y549D02*
X1138Y549D01*
X1146Y549D02*
X1152Y549D01*
X1255Y549D02*
X1262Y549D01*
X1307Y549D02*
X1310Y549D01*
X1331Y549D02*
X1338Y549D01*
X1346Y549D02*
X1352Y549D01*
X1455Y549D02*
X1462Y549D01*
X1507Y549D02*
X1510Y549D01*
X1531Y549D02*
X1538Y549D01*
X1546Y549D02*
X1552Y549D01*
X1655Y549D02*
X1662Y549D01*
X507Y548D02*
X510Y548D01*
X532Y548D02*
X538Y548D01*
X546Y548D02*
X552Y548D01*
X656Y548D02*
X662Y548D01*
X707Y548D02*
X710Y548D01*
X732Y548D02*
X738Y548D01*
X746Y548D02*
X752Y548D01*
X856Y548D02*
X862Y548D01*
X907Y548D02*
X910Y548D01*
X932Y548D02*
X938Y548D01*
X946Y548D02*
X952Y548D01*
X1056Y548D02*
X1062Y548D01*
X1107Y548D02*
X1110Y548D01*
X1132Y548D02*
X1138Y548D01*
X1146Y548D02*
X1152Y548D01*
X1256Y548D02*
X1262Y548D01*
X1307Y548D02*
X1310Y548D01*
X1331Y548D02*
X1338Y548D01*
X1346Y548D02*
X1352Y548D01*
X1456Y548D02*
X1462Y548D01*
X1507Y548D02*
X1510Y548D01*
X1531Y548D02*
X1538Y548D01*
X1546Y548D02*
X1552Y548D01*
X1656Y548D02*
X1662Y548D01*
X508Y547D02*
X511Y547D01*
X533Y547D02*
X538Y547D01*
X546Y547D02*
X552Y547D01*
X656Y547D02*
X663Y547D01*
X708Y547D02*
X711Y547D01*
X733Y547D02*
X738Y547D01*
X746Y547D02*
X752Y547D01*
X856Y547D02*
X863Y547D01*
X908Y547D02*
X911Y547D01*
X932Y547D02*
X938Y547D01*
X946Y547D02*
X952Y547D01*
X1056Y547D02*
X1063Y547D01*
X1107Y547D02*
X1111Y547D01*
X1132Y547D02*
X1138Y547D01*
X1146Y547D02*
X1152Y547D01*
X1256Y547D02*
X1263Y547D01*
X1307Y547D02*
X1311Y547D01*
X1332Y547D02*
X1338Y547D01*
X1346Y547D02*
X1352Y547D01*
X1456Y547D02*
X1463Y547D01*
X1507Y547D02*
X1511Y547D01*
X1532Y547D02*
X1538Y547D01*
X1546Y547D02*
X1552Y547D01*
X1656Y547D02*
X1663Y547D01*
X508Y546D02*
X511Y546D01*
X533Y546D02*
X538Y546D01*
X546Y546D02*
X552Y546D01*
X657Y546D02*
X664Y546D01*
X708Y546D02*
X711Y546D01*
X733Y546D02*
X738Y546D01*
X746Y546D02*
X752Y546D01*
X857Y546D02*
X864Y546D01*
X908Y546D02*
X911Y546D01*
X933Y546D02*
X938Y546D01*
X946Y546D02*
X952Y546D01*
X1057Y546D02*
X1064Y546D01*
X1108Y546D02*
X1111Y546D01*
X1133Y546D02*
X1138Y546D01*
X1146Y546D02*
X1152Y546D01*
X1257Y546D02*
X1264Y546D01*
X1308Y546D02*
X1311Y546D01*
X1333Y546D02*
X1338Y546D01*
X1346Y546D02*
X1352Y546D01*
X1457Y546D02*
X1464Y546D01*
X1508Y546D02*
X1511Y546D01*
X1533Y546D02*
X1538Y546D01*
X1546Y546D02*
X1552Y546D01*
X1657Y546D02*
X1664Y546D01*
X535Y545D02*
X538Y545D01*
X546Y545D02*
X552Y545D01*
X658Y545D02*
X664Y545D01*
X735Y545D02*
X738Y545D01*
X746Y545D02*
X752Y545D01*
X858Y545D02*
X864Y545D01*
X935Y545D02*
X938Y545D01*
X946Y545D02*
X952Y545D01*
X1058Y545D02*
X1064Y545D01*
X1135Y545D02*
X1138Y545D01*
X1146Y545D02*
X1152Y545D01*
X1258Y545D02*
X1264Y545D01*
X1335Y545D02*
X1338Y545D01*
X1346Y545D02*
X1352Y545D01*
X1458Y545D02*
X1464Y545D01*
X1535Y545D02*
X1538Y545D01*
X1546Y545D02*
X1552Y545D01*
X1658Y545D02*
X1664Y545D01*
X546Y544D02*
X552Y544D01*
X659Y544D02*
X665Y544D01*
X746Y544D02*
X752Y544D01*
X859Y544D02*
X865Y544D01*
X946Y544D02*
X952Y544D01*
X1059Y544D02*
X1065Y544D01*
X1146Y544D02*
X1152Y544D01*
X1259Y544D02*
X1265Y544D01*
X1346Y544D02*
X1352Y544D01*
X1459Y544D02*
X1465Y544D01*
X1546Y544D02*
X1552Y544D01*
X1659Y544D02*
X1665Y544D01*
X546Y543D02*
X552Y543D01*
X659Y543D02*
X666Y543D01*
X746Y543D02*
X752Y543D01*
X859Y543D02*
X866Y543D01*
X946Y543D02*
X952Y543D01*
X1059Y543D02*
X1066Y543D01*
X1146Y543D02*
X1152Y543D01*
X1259Y543D02*
X1266Y543D01*
X1346Y543D02*
X1352Y543D01*
X1459Y543D02*
X1466Y543D01*
X1546Y543D02*
X1552Y543D01*
X1659Y543D02*
X1666Y543D01*
X546Y542D02*
X552Y542D01*
X660Y542D02*
X666Y542D01*
X746Y542D02*
X752Y542D01*
X860Y542D02*
X866Y542D01*
X946Y542D02*
X952Y542D01*
X1060Y542D02*
X1066Y542D01*
X1146Y542D02*
X1152Y542D01*
X1260Y542D02*
X1266Y542D01*
X1346Y542D02*
X1352Y542D01*
X1460Y542D02*
X1466Y542D01*
X1546Y542D02*
X1552Y542D01*
X1660Y542D02*
X1666Y542D01*
X1894Y542D02*
X1898Y542D01*
X1911Y542D02*
X1920Y542D01*
X526Y541D02*
X531Y541D01*
X546Y541D02*
X552Y541D01*
X661Y541D02*
X667Y541D01*
X726Y541D02*
X731Y541D01*
X746Y541D02*
X752Y541D01*
X861Y541D02*
X867Y541D01*
X926Y541D02*
X931Y541D01*
X946Y541D02*
X952Y541D01*
X1061Y541D02*
X1067Y541D01*
X1126Y541D02*
X1131Y541D01*
X1146Y541D02*
X1152Y541D01*
X1261Y541D02*
X1267Y541D01*
X1326Y541D02*
X1331Y541D01*
X1346Y541D02*
X1352Y541D01*
X1461Y541D02*
X1467Y541D01*
X1526Y541D02*
X1531Y541D01*
X1546Y541D02*
X1552Y541D01*
X1661Y541D02*
X1667Y541D01*
X1893Y541D02*
X1899Y541D01*
X1908Y541D02*
X1923Y541D01*
X524Y540D02*
X533Y540D01*
X546Y540D02*
X552Y540D01*
X661Y540D02*
X667Y540D01*
X724Y540D02*
X733Y540D01*
X746Y540D02*
X752Y540D01*
X861Y540D02*
X867Y540D01*
X924Y540D02*
X933Y540D01*
X946Y540D02*
X952Y540D01*
X1061Y540D02*
X1067Y540D01*
X1113Y540D02*
X1113Y540D01*
X1124Y540D02*
X1133Y540D01*
X1146Y540D02*
X1152Y540D01*
X1261Y540D02*
X1267Y540D01*
X1313Y540D02*
X1313Y540D01*
X1324Y540D02*
X1333Y540D01*
X1346Y540D02*
X1352Y540D01*
X1461Y540D02*
X1467Y540D01*
X1513Y540D02*
X1513Y540D01*
X1524Y540D02*
X1533Y540D01*
X1546Y540D02*
X1552Y540D01*
X1661Y540D02*
X1667Y540D01*
X1892Y540D02*
X1900Y540D01*
X1907Y540D02*
X1925Y540D01*
X510Y539D02*
X517Y539D01*
X523Y539D02*
X535Y539D01*
X546Y539D02*
X552Y539D01*
X662Y539D02*
X668Y539D01*
X710Y539D02*
X717Y539D01*
X723Y539D02*
X735Y539D01*
X746Y539D02*
X752Y539D01*
X862Y539D02*
X868Y539D01*
X910Y539D02*
X917Y539D01*
X923Y539D02*
X935Y539D01*
X946Y539D02*
X952Y539D01*
X1062Y539D02*
X1068Y539D01*
X1110Y539D02*
X1117Y539D01*
X1123Y539D02*
X1135Y539D01*
X1146Y539D02*
X1152Y539D01*
X1262Y539D02*
X1268Y539D01*
X1310Y539D02*
X1317Y539D01*
X1323Y539D02*
X1335Y539D01*
X1346Y539D02*
X1352Y539D01*
X1462Y539D02*
X1468Y539D01*
X1510Y539D02*
X1517Y539D01*
X1523Y539D02*
X1535Y539D01*
X1546Y539D02*
X1552Y539D01*
X1662Y539D02*
X1668Y539D01*
X1891Y539D02*
X1900Y539D01*
X1905Y539D02*
X1926Y539D01*
X509Y538D02*
X518Y538D01*
X522Y538D02*
X536Y538D01*
X546Y538D02*
X552Y538D01*
X662Y538D02*
X668Y538D01*
X709Y538D02*
X718Y538D01*
X722Y538D02*
X736Y538D01*
X746Y538D02*
X752Y538D01*
X862Y538D02*
X868Y538D01*
X909Y538D02*
X918Y538D01*
X922Y538D02*
X936Y538D01*
X946Y538D02*
X952Y538D01*
X1062Y538D02*
X1068Y538D01*
X1109Y538D02*
X1118Y538D01*
X1122Y538D02*
X1136Y538D01*
X1146Y538D02*
X1152Y538D01*
X1262Y538D02*
X1268Y538D01*
X1309Y538D02*
X1318Y538D01*
X1322Y538D02*
X1335Y538D01*
X1346Y538D02*
X1352Y538D01*
X1462Y538D02*
X1468Y538D01*
X1509Y538D02*
X1518Y538D01*
X1522Y538D02*
X1535Y538D01*
X1546Y538D02*
X1552Y538D01*
X1662Y538D02*
X1668Y538D01*
X1891Y538D02*
X1900Y538D01*
X1904Y538D02*
X1928Y538D01*
X508Y537D02*
X519Y537D01*
X522Y537D02*
X527Y537D01*
X530Y537D02*
X536Y537D01*
X546Y537D02*
X552Y537D01*
X663Y537D02*
X669Y537D01*
X708Y537D02*
X719Y537D01*
X722Y537D02*
X727Y537D01*
X730Y537D02*
X736Y537D01*
X746Y537D02*
X752Y537D01*
X863Y537D02*
X869Y537D01*
X908Y537D02*
X919Y537D01*
X922Y537D02*
X927Y537D01*
X930Y537D02*
X936Y537D01*
X946Y537D02*
X952Y537D01*
X1063Y537D02*
X1069Y537D01*
X1108Y537D02*
X1119Y537D01*
X1122Y537D02*
X1127Y537D01*
X1130Y537D02*
X1136Y537D01*
X1146Y537D02*
X1152Y537D01*
X1263Y537D02*
X1269Y537D01*
X1308Y537D02*
X1319Y537D01*
X1322Y537D02*
X1327Y537D01*
X1330Y537D02*
X1336Y537D01*
X1346Y537D02*
X1352Y537D01*
X1463Y537D02*
X1469Y537D01*
X1508Y537D02*
X1519Y537D01*
X1522Y537D02*
X1527Y537D01*
X1530Y537D02*
X1536Y537D01*
X1546Y537D02*
X1552Y537D01*
X1663Y537D02*
X1669Y537D01*
X1891Y537D02*
X1900Y537D01*
X1903Y537D02*
X1929Y537D01*
X508Y536D02*
X525Y536D01*
X533Y536D02*
X537Y536D01*
X546Y536D02*
X552Y536D01*
X664Y536D02*
X669Y536D01*
X708Y536D02*
X725Y536D01*
X733Y536D02*
X737Y536D01*
X746Y536D02*
X752Y536D01*
X863Y536D02*
X869Y536D01*
X908Y536D02*
X924Y536D01*
X933Y536D02*
X937Y536D01*
X946Y536D02*
X952Y536D01*
X1063Y536D02*
X1069Y536D01*
X1108Y536D02*
X1124Y536D01*
X1133Y536D02*
X1137Y536D01*
X1146Y536D02*
X1152Y536D01*
X1263Y536D02*
X1269Y536D01*
X1308Y536D02*
X1324Y536D01*
X1333Y536D02*
X1337Y536D01*
X1346Y536D02*
X1352Y536D01*
X1463Y536D02*
X1469Y536D01*
X1508Y536D02*
X1524Y536D01*
X1533Y536D02*
X1537Y536D01*
X1546Y536D02*
X1552Y536D01*
X1663Y536D02*
X1669Y536D01*
X1891Y536D02*
X1900Y536D01*
X1902Y536D02*
X1930Y536D01*
X507Y535D02*
X511Y535D01*
X517Y535D02*
X524Y535D01*
X534Y535D02*
X537Y535D01*
X546Y535D02*
X552Y535D01*
X664Y535D02*
X670Y535D01*
X707Y535D02*
X711Y535D01*
X717Y535D02*
X724Y535D01*
X734Y535D02*
X737Y535D01*
X746Y535D02*
X752Y535D01*
X864Y535D02*
X870Y535D01*
X907Y535D02*
X911Y535D01*
X917Y535D02*
X924Y535D01*
X934Y535D02*
X937Y535D01*
X946Y535D02*
X952Y535D01*
X1064Y535D02*
X1070Y535D01*
X1107Y535D02*
X1111Y535D01*
X1117Y535D02*
X1124Y535D01*
X1134Y535D02*
X1137Y535D01*
X1146Y535D02*
X1152Y535D01*
X1264Y535D02*
X1270Y535D01*
X1307Y535D02*
X1311Y535D01*
X1317Y535D02*
X1324Y535D01*
X1334Y535D02*
X1337Y535D01*
X1346Y535D02*
X1352Y535D01*
X1464Y535D02*
X1470Y535D01*
X1507Y535D02*
X1511Y535D01*
X1517Y535D02*
X1524Y535D01*
X1534Y535D02*
X1537Y535D01*
X1546Y535D02*
X1552Y535D01*
X1664Y535D02*
X1670Y535D01*
X1891Y535D02*
X1931Y535D01*
X507Y534D02*
X510Y534D01*
X519Y534D02*
X523Y534D01*
X534Y534D02*
X538Y534D01*
X546Y534D02*
X552Y534D01*
X665Y534D02*
X670Y534D01*
X707Y534D02*
X710Y534D01*
X719Y534D02*
X723Y534D01*
X734Y534D02*
X738Y534D01*
X746Y534D02*
X752Y534D01*
X865Y534D02*
X870Y534D01*
X907Y534D02*
X910Y534D01*
X919Y534D02*
X923Y534D01*
X934Y534D02*
X937Y534D01*
X946Y534D02*
X952Y534D01*
X1065Y534D02*
X1070Y534D01*
X1107Y534D02*
X1110Y534D01*
X1119Y534D02*
X1123Y534D01*
X1134Y534D02*
X1137Y534D01*
X1146Y534D02*
X1152Y534D01*
X1264Y534D02*
X1270Y534D01*
X1307Y534D02*
X1310Y534D01*
X1319Y534D02*
X1323Y534D01*
X1334Y534D02*
X1337Y534D01*
X1346Y534D02*
X1352Y534D01*
X1464Y534D02*
X1470Y534D01*
X1507Y534D02*
X1510Y534D01*
X1519Y534D02*
X1523Y534D01*
X1534Y534D02*
X1537Y534D01*
X1546Y534D02*
X1552Y534D01*
X1664Y534D02*
X1670Y534D01*
X1891Y534D02*
X1932Y534D01*
X507Y533D02*
X510Y533D01*
X519Y533D02*
X523Y533D01*
X535Y533D02*
X538Y533D01*
X546Y533D02*
X552Y533D01*
X665Y533D02*
X671Y533D01*
X707Y533D02*
X710Y533D01*
X719Y533D02*
X723Y533D01*
X735Y533D02*
X738Y533D01*
X746Y533D02*
X752Y533D01*
X865Y533D02*
X871Y533D01*
X907Y533D02*
X910Y533D01*
X919Y533D02*
X923Y533D01*
X935Y533D02*
X938Y533D01*
X946Y533D02*
X952Y533D01*
X1065Y533D02*
X1071Y533D01*
X1107Y533D02*
X1110Y533D01*
X1119Y533D02*
X1123Y533D01*
X1135Y533D02*
X1138Y533D01*
X1146Y533D02*
X1152Y533D01*
X1265Y533D02*
X1271Y533D01*
X1307Y533D02*
X1310Y533D01*
X1319Y533D02*
X1323Y533D01*
X1335Y533D02*
X1338Y533D01*
X1346Y533D02*
X1352Y533D01*
X1465Y533D02*
X1471Y533D01*
X1507Y533D02*
X1510Y533D01*
X1519Y533D02*
X1523Y533D01*
X1535Y533D02*
X1538Y533D01*
X1546Y533D02*
X1552Y533D01*
X1665Y533D02*
X1670Y533D01*
X1891Y533D02*
X1933Y533D01*
X507Y532D02*
X510Y532D01*
X520Y532D02*
X523Y532D01*
X535Y532D02*
X538Y532D01*
X546Y532D02*
X552Y532D01*
X665Y532D02*
X671Y532D01*
X707Y532D02*
X710Y532D01*
X720Y532D02*
X723Y532D01*
X735Y532D02*
X738Y532D01*
X746Y532D02*
X752Y532D01*
X865Y532D02*
X871Y532D01*
X907Y532D02*
X910Y532D01*
X920Y532D02*
X923Y532D01*
X935Y532D02*
X938Y532D01*
X946Y532D02*
X952Y532D01*
X1065Y532D02*
X1071Y532D01*
X1107Y532D02*
X1110Y532D01*
X1120Y532D02*
X1123Y532D01*
X1135Y532D02*
X1138Y532D01*
X1146Y532D02*
X1152Y532D01*
X1265Y532D02*
X1271Y532D01*
X1307Y532D02*
X1310Y532D01*
X1320Y532D02*
X1323Y532D01*
X1335Y532D02*
X1338Y532D01*
X1346Y532D02*
X1352Y532D01*
X1465Y532D02*
X1471Y532D01*
X1507Y532D02*
X1510Y532D01*
X1519Y532D02*
X1523Y532D01*
X1535Y532D02*
X1538Y532D01*
X1546Y532D02*
X1552Y532D01*
X1665Y532D02*
X1671Y532D01*
X1891Y532D02*
X1912Y532D01*
X1920Y532D02*
X1934Y532D01*
X507Y531D02*
X510Y531D01*
X520Y531D02*
X523Y531D01*
X535Y531D02*
X538Y531D01*
X546Y531D02*
X552Y531D01*
X666Y531D02*
X671Y531D01*
X707Y531D02*
X710Y531D01*
X720Y531D02*
X723Y531D01*
X735Y531D02*
X738Y531D01*
X746Y531D02*
X752Y531D01*
X866Y531D02*
X871Y531D01*
X907Y531D02*
X909Y531D01*
X920Y531D02*
X923Y531D01*
X935Y531D02*
X938Y531D01*
X946Y531D02*
X952Y531D01*
X1066Y531D02*
X1071Y531D01*
X1107Y531D02*
X1109Y531D01*
X1120Y531D02*
X1123Y531D01*
X1135Y531D02*
X1138Y531D01*
X1146Y531D02*
X1152Y531D01*
X1266Y531D02*
X1271Y531D01*
X1307Y531D02*
X1309Y531D01*
X1320Y531D02*
X1322Y531D01*
X1335Y531D02*
X1338Y531D01*
X1346Y531D02*
X1352Y531D01*
X1466Y531D02*
X1471Y531D01*
X1507Y531D02*
X1509Y531D01*
X1520Y531D02*
X1522Y531D01*
X1535Y531D02*
X1538Y531D01*
X1546Y531D02*
X1552Y531D01*
X1666Y531D02*
X1671Y531D01*
X1891Y531D02*
X1911Y531D01*
X1921Y531D02*
X1935Y531D01*
X507Y530D02*
X509Y530D01*
X520Y530D02*
X523Y530D01*
X535Y530D02*
X538Y530D01*
X546Y530D02*
X552Y530D01*
X666Y530D02*
X672Y530D01*
X707Y530D02*
X709Y530D01*
X720Y530D02*
X723Y530D01*
X735Y530D02*
X738Y530D01*
X746Y530D02*
X752Y530D01*
X866Y530D02*
X872Y530D01*
X907Y530D02*
X909Y530D01*
X920Y530D02*
X922Y530D01*
X935Y530D02*
X938Y530D01*
X946Y530D02*
X952Y530D01*
X1066Y530D02*
X1072Y530D01*
X1107Y530D02*
X1109Y530D01*
X1120Y530D02*
X1122Y530D01*
X1135Y530D02*
X1138Y530D01*
X1146Y530D02*
X1152Y530D01*
X1266Y530D02*
X1272Y530D01*
X1307Y530D02*
X1309Y530D01*
X1320Y530D02*
X1322Y530D01*
X1335Y530D02*
X1338Y530D01*
X1346Y530D02*
X1352Y530D01*
X1466Y530D02*
X1472Y530D01*
X1507Y530D02*
X1509Y530D01*
X1520Y530D02*
X1522Y530D01*
X1535Y530D02*
X1538Y530D01*
X1546Y530D02*
X1552Y530D01*
X1666Y530D02*
X1672Y530D01*
X1891Y530D02*
X1910Y530D01*
X1922Y530D02*
X1936Y530D01*
X507Y529D02*
X509Y529D01*
X520Y529D02*
X522Y529D01*
X535Y529D02*
X538Y529D01*
X546Y529D02*
X552Y529D01*
X667Y529D02*
X672Y529D01*
X707Y529D02*
X709Y529D01*
X720Y529D02*
X722Y529D01*
X735Y529D02*
X738Y529D01*
X746Y529D02*
X752Y529D01*
X867Y529D02*
X872Y529D01*
X907Y529D02*
X909Y529D01*
X920Y529D02*
X922Y529D01*
X935Y529D02*
X938Y529D01*
X946Y529D02*
X952Y529D01*
X1067Y529D02*
X1072Y529D01*
X1107Y529D02*
X1109Y529D01*
X1120Y529D02*
X1122Y529D01*
X1135Y529D02*
X1138Y529D01*
X1146Y529D02*
X1152Y529D01*
X1267Y529D02*
X1272Y529D01*
X1307Y529D02*
X1309Y529D01*
X1320Y529D02*
X1322Y529D01*
X1335Y529D02*
X1338Y529D01*
X1346Y529D02*
X1352Y529D01*
X1467Y529D02*
X1472Y529D01*
X1507Y529D02*
X1509Y529D01*
X1520Y529D02*
X1522Y529D01*
X1535Y529D02*
X1538Y529D01*
X1546Y529D02*
X1552Y529D01*
X1667Y529D02*
X1672Y529D01*
X1891Y529D02*
X1909Y529D01*
X1923Y529D02*
X1937Y529D01*
X507Y528D02*
X509Y528D01*
X520Y528D02*
X522Y528D01*
X535Y528D02*
X538Y528D01*
X546Y528D02*
X552Y528D01*
X667Y528D02*
X672Y528D01*
X707Y528D02*
X709Y528D01*
X720Y528D02*
X722Y528D01*
X735Y528D02*
X738Y528D01*
X746Y528D02*
X752Y528D01*
X867Y528D02*
X872Y528D01*
X907Y528D02*
X909Y528D01*
X920Y528D02*
X922Y528D01*
X935Y528D02*
X938Y528D01*
X946Y528D02*
X952Y528D01*
X1067Y528D02*
X1072Y528D01*
X1107Y528D02*
X1109Y528D01*
X1120Y528D02*
X1122Y528D01*
X1135Y528D02*
X1138Y528D01*
X1146Y528D02*
X1152Y528D01*
X1267Y528D02*
X1272Y528D01*
X1307Y528D02*
X1309Y528D01*
X1320Y528D02*
X1322Y528D01*
X1335Y528D02*
X1338Y528D01*
X1346Y528D02*
X1352Y528D01*
X1467Y528D02*
X1472Y528D01*
X1507Y528D02*
X1509Y528D01*
X1520Y528D02*
X1522Y528D01*
X1535Y528D02*
X1538Y528D01*
X1546Y528D02*
X1552Y528D01*
X1667Y528D02*
X1672Y528D01*
X1891Y528D02*
X1908Y528D01*
X1924Y528D02*
X1938Y528D01*
X507Y527D02*
X509Y527D01*
X520Y527D02*
X522Y527D01*
X535Y527D02*
X538Y527D01*
X546Y527D02*
X552Y527D01*
X667Y527D02*
X673Y527D01*
X707Y527D02*
X709Y527D01*
X720Y527D02*
X722Y527D01*
X735Y527D02*
X738Y527D01*
X746Y527D02*
X752Y527D01*
X867Y527D02*
X873Y527D01*
X907Y527D02*
X909Y527D01*
X920Y527D02*
X922Y527D01*
X935Y527D02*
X938Y527D01*
X946Y527D02*
X952Y527D01*
X1067Y527D02*
X1073Y527D01*
X1107Y527D02*
X1109Y527D01*
X1120Y527D02*
X1122Y527D01*
X1135Y527D02*
X1138Y527D01*
X1146Y527D02*
X1152Y527D01*
X1267Y527D02*
X1273Y527D01*
X1307Y527D02*
X1309Y527D01*
X1320Y527D02*
X1322Y527D01*
X1335Y527D02*
X1338Y527D01*
X1346Y527D02*
X1352Y527D01*
X1467Y527D02*
X1473Y527D01*
X1507Y527D02*
X1509Y527D01*
X1520Y527D02*
X1522Y527D01*
X1535Y527D02*
X1538Y527D01*
X1546Y527D02*
X1552Y527D01*
X1667Y527D02*
X1673Y527D01*
X1891Y527D02*
X1907Y527D01*
X1926Y527D02*
X1938Y527D01*
X507Y526D02*
X509Y526D01*
X520Y526D02*
X522Y526D01*
X535Y526D02*
X538Y526D01*
X546Y526D02*
X552Y526D01*
X668Y526D02*
X673Y526D01*
X707Y526D02*
X709Y526D01*
X720Y526D02*
X722Y526D01*
X735Y526D02*
X738Y526D01*
X746Y526D02*
X752Y526D01*
X868Y526D02*
X873Y526D01*
X907Y526D02*
X909Y526D01*
X920Y526D02*
X922Y526D01*
X935Y526D02*
X938Y526D01*
X946Y526D02*
X952Y526D01*
X1068Y526D02*
X1073Y526D01*
X1107Y526D02*
X1109Y526D01*
X1120Y526D02*
X1122Y526D01*
X1135Y526D02*
X1138Y526D01*
X1146Y526D02*
X1152Y526D01*
X1268Y526D02*
X1273Y526D01*
X1307Y526D02*
X1309Y526D01*
X1320Y526D02*
X1322Y526D01*
X1335Y526D02*
X1338Y526D01*
X1346Y526D02*
X1352Y526D01*
X1468Y526D02*
X1473Y526D01*
X1507Y526D02*
X1509Y526D01*
X1520Y526D02*
X1522Y526D01*
X1535Y526D02*
X1538Y526D01*
X1546Y526D02*
X1552Y526D01*
X1668Y526D02*
X1673Y526D01*
X1891Y526D02*
X1906Y526D01*
X1927Y526D02*
X1939Y526D01*
X507Y525D02*
X509Y525D01*
X520Y525D02*
X522Y525D01*
X535Y525D02*
X538Y525D01*
X546Y525D02*
X552Y525D01*
X668Y525D02*
X673Y525D01*
X707Y525D02*
X709Y525D01*
X720Y525D02*
X722Y525D01*
X735Y525D02*
X738Y525D01*
X746Y525D02*
X752Y525D01*
X868Y525D02*
X873Y525D01*
X907Y525D02*
X909Y525D01*
X920Y525D02*
X922Y525D01*
X935Y525D02*
X938Y525D01*
X946Y525D02*
X952Y525D01*
X1068Y525D02*
X1073Y525D01*
X1107Y525D02*
X1109Y525D01*
X1120Y525D02*
X1122Y525D01*
X1135Y525D02*
X1138Y525D01*
X1146Y525D02*
X1152Y525D01*
X1268Y525D02*
X1273Y525D01*
X1307Y525D02*
X1309Y525D01*
X1320Y525D02*
X1322Y525D01*
X1335Y525D02*
X1338Y525D01*
X1346Y525D02*
X1352Y525D01*
X1468Y525D02*
X1473Y525D01*
X1507Y525D02*
X1509Y525D01*
X1520Y525D02*
X1522Y525D01*
X1535Y525D02*
X1538Y525D01*
X1546Y525D02*
X1552Y525D01*
X1668Y525D02*
X1673Y525D01*
X1891Y525D02*
X1905Y525D01*
X1928Y525D02*
X1939Y525D01*
X507Y524D02*
X510Y524D01*
X519Y524D02*
X523Y524D01*
X535Y524D02*
X538Y524D01*
X546Y524D02*
X552Y524D01*
X668Y524D02*
X674Y524D01*
X707Y524D02*
X710Y524D01*
X719Y524D02*
X723Y524D01*
X735Y524D02*
X738Y524D01*
X746Y524D02*
X752Y524D01*
X868Y524D02*
X874Y524D01*
X907Y524D02*
X910Y524D01*
X919Y524D02*
X923Y524D01*
X935Y524D02*
X938Y524D01*
X946Y524D02*
X952Y524D01*
X1068Y524D02*
X1074Y524D01*
X1107Y524D02*
X1110Y524D01*
X1119Y524D02*
X1123Y524D01*
X1135Y524D02*
X1138Y524D01*
X1146Y524D02*
X1152Y524D01*
X1268Y524D02*
X1274Y524D01*
X1307Y524D02*
X1310Y524D01*
X1319Y524D02*
X1323Y524D01*
X1335Y524D02*
X1338Y524D01*
X1346Y524D02*
X1352Y524D01*
X1468Y524D02*
X1474Y524D01*
X1507Y524D02*
X1510Y524D01*
X1519Y524D02*
X1523Y524D01*
X1535Y524D02*
X1538Y524D01*
X1546Y524D02*
X1552Y524D01*
X1668Y524D02*
X1674Y524D01*
X1891Y524D02*
X1904Y524D01*
X1929Y524D02*
X1940Y524D01*
X507Y523D02*
X538Y523D01*
X546Y523D02*
X552Y523D01*
X669Y523D02*
X674Y523D01*
X707Y523D02*
X738Y523D01*
X746Y523D02*
X752Y523D01*
X869Y523D02*
X874Y523D01*
X907Y523D02*
X938Y523D01*
X946Y523D02*
X952Y523D01*
X1069Y523D02*
X1074Y523D01*
X1107Y523D02*
X1138Y523D01*
X1146Y523D02*
X1152Y523D01*
X1269Y523D02*
X1274Y523D01*
X1307Y523D02*
X1338Y523D01*
X1346Y523D02*
X1352Y523D01*
X1469Y523D02*
X1474Y523D01*
X1507Y523D02*
X1538Y523D01*
X1546Y523D02*
X1552Y523D01*
X1669Y523D02*
X1674Y523D01*
X1891Y523D02*
X1903Y523D01*
X1930Y523D02*
X1940Y523D01*
X507Y522D02*
X538Y522D01*
X546Y522D02*
X552Y522D01*
X669Y522D02*
X674Y522D01*
X707Y522D02*
X738Y522D01*
X746Y522D02*
X752Y522D01*
X869Y522D02*
X874Y522D01*
X907Y522D02*
X938Y522D01*
X946Y522D02*
X952Y522D01*
X1069Y522D02*
X1074Y522D01*
X1107Y522D02*
X1138Y522D01*
X1146Y522D02*
X1152Y522D01*
X1269Y522D02*
X1274Y522D01*
X1307Y522D02*
X1338Y522D01*
X1346Y522D02*
X1352Y522D01*
X1469Y522D02*
X1474Y522D01*
X1507Y522D02*
X1538Y522D01*
X1546Y522D02*
X1552Y522D01*
X1669Y522D02*
X1674Y522D01*
X1891Y522D02*
X1902Y522D01*
X1931Y522D02*
X1940Y522D01*
X507Y521D02*
X538Y521D01*
X546Y521D02*
X552Y521D01*
X669Y521D02*
X674Y521D01*
X707Y521D02*
X738Y521D01*
X746Y521D02*
X752Y521D01*
X869Y521D02*
X874Y521D01*
X907Y521D02*
X938Y521D01*
X946Y521D02*
X952Y521D01*
X1069Y521D02*
X1074Y521D01*
X1107Y521D02*
X1138Y521D01*
X1146Y521D02*
X1152Y521D01*
X1269Y521D02*
X1274Y521D01*
X1307Y521D02*
X1338Y521D01*
X1346Y521D02*
X1352Y521D01*
X1469Y521D02*
X1474Y521D01*
X1507Y521D02*
X1538Y521D01*
X1546Y521D02*
X1552Y521D01*
X1669Y521D02*
X1674Y521D01*
X1891Y521D02*
X1901Y521D01*
X1931Y521D02*
X1940Y521D01*
X507Y520D02*
X538Y520D01*
X546Y520D02*
X552Y520D01*
X670Y520D02*
X675Y520D01*
X707Y520D02*
X738Y520D01*
X746Y520D02*
X752Y520D01*
X870Y520D02*
X875Y520D01*
X907Y520D02*
X938Y520D01*
X946Y520D02*
X952Y520D01*
X1070Y520D02*
X1075Y520D01*
X1107Y520D02*
X1138Y520D01*
X1146Y520D02*
X1152Y520D01*
X1270Y520D02*
X1275Y520D01*
X1307Y520D02*
X1338Y520D01*
X1346Y520D02*
X1352Y520D01*
X1469Y520D02*
X1475Y520D01*
X1507Y520D02*
X1538Y520D01*
X1546Y520D02*
X1552Y520D01*
X1669Y520D02*
X1674Y520D01*
X1891Y520D02*
X1901Y520D01*
X1931Y520D02*
X1940Y520D01*
X546Y519D02*
X552Y519D01*
X670Y519D02*
X675Y519D01*
X746Y519D02*
X752Y519D01*
X870Y519D02*
X875Y519D01*
X946Y519D02*
X952Y519D01*
X1070Y519D02*
X1075Y519D01*
X1146Y519D02*
X1152Y519D01*
X1270Y519D02*
X1275Y519D01*
X1346Y519D02*
X1352Y519D01*
X1470Y519D02*
X1475Y519D01*
X1546Y519D02*
X1552Y519D01*
X1670Y519D02*
X1675Y519D01*
X1891Y519D02*
X1900Y519D01*
X1931Y519D02*
X1940Y519D01*
X546Y518D02*
X552Y518D01*
X670Y518D02*
X675Y518D01*
X746Y518D02*
X752Y518D01*
X870Y518D02*
X875Y518D01*
X946Y518D02*
X952Y518D01*
X1070Y518D02*
X1075Y518D01*
X1146Y518D02*
X1152Y518D01*
X1270Y518D02*
X1275Y518D01*
X1346Y518D02*
X1352Y518D01*
X1470Y518D02*
X1475Y518D01*
X1546Y518D02*
X1552Y518D01*
X1670Y518D02*
X1675Y518D01*
X1891Y518D02*
X1900Y518D01*
X1931Y518D02*
X1940Y518D01*
X546Y517D02*
X552Y517D01*
X670Y517D02*
X675Y517D01*
X746Y517D02*
X752Y517D01*
X870Y517D02*
X875Y517D01*
X946Y517D02*
X952Y517D01*
X1070Y517D02*
X1075Y517D01*
X1146Y517D02*
X1152Y517D01*
X1270Y517D02*
X1275Y517D01*
X1346Y517D02*
X1352Y517D01*
X1470Y517D02*
X1475Y517D01*
X1546Y517D02*
X1552Y517D01*
X1670Y517D02*
X1675Y517D01*
X1891Y517D02*
X1900Y517D01*
X1931Y517D02*
X1940Y517D01*
X546Y516D02*
X552Y516D01*
X670Y516D02*
X675Y516D01*
X746Y516D02*
X752Y516D01*
X870Y516D02*
X875Y516D01*
X946Y516D02*
X952Y516D01*
X1070Y516D02*
X1075Y516D01*
X1146Y516D02*
X1152Y516D01*
X1270Y516D02*
X1275Y516D01*
X1346Y516D02*
X1352Y516D01*
X1470Y516D02*
X1475Y516D01*
X1546Y516D02*
X1552Y516D01*
X1670Y516D02*
X1675Y516D01*
X1891Y516D02*
X1900Y516D01*
X1931Y516D02*
X1940Y516D01*
X546Y515D02*
X552Y515D01*
X671Y515D02*
X676Y515D01*
X746Y515D02*
X752Y515D01*
X871Y515D02*
X875Y515D01*
X946Y515D02*
X952Y515D01*
X1071Y515D02*
X1075Y515D01*
X1146Y515D02*
X1152Y515D01*
X1270Y515D02*
X1275Y515D01*
X1346Y515D02*
X1352Y515D01*
X1470Y515D02*
X1475Y515D01*
X1546Y515D02*
X1552Y515D01*
X1670Y515D02*
X1675Y515D01*
X1891Y515D02*
X1900Y515D01*
X1931Y515D02*
X1940Y515D01*
X527Y514D02*
X533Y514D01*
X546Y514D02*
X552Y514D01*
X671Y514D02*
X676Y514D01*
X727Y514D02*
X733Y514D01*
X746Y514D02*
X752Y514D01*
X871Y514D02*
X876Y514D01*
X926Y514D02*
X933Y514D01*
X946Y514D02*
X952Y514D01*
X1071Y514D02*
X1076Y514D01*
X1126Y514D02*
X1133Y514D01*
X1146Y514D02*
X1152Y514D01*
X1271Y514D02*
X1276Y514D01*
X1326Y514D02*
X1333Y514D01*
X1346Y514D02*
X1352Y514D01*
X1471Y514D02*
X1476Y514D01*
X1526Y514D02*
X1533Y514D01*
X1546Y514D02*
X1552Y514D01*
X1671Y514D02*
X1676Y514D01*
X1891Y514D02*
X1900Y514D01*
X1931Y514D02*
X1940Y514D01*
X510Y513D02*
X517Y513D01*
X525Y513D02*
X535Y513D01*
X546Y513D02*
X552Y513D01*
X671Y513D02*
X676Y513D01*
X710Y513D02*
X717Y513D01*
X725Y513D02*
X735Y513D01*
X746Y513D02*
X752Y513D01*
X871Y513D02*
X876Y513D01*
X910Y513D02*
X917Y513D01*
X925Y513D02*
X935Y513D01*
X946Y513D02*
X952Y513D01*
X1071Y513D02*
X1076Y513D01*
X1110Y513D02*
X1117Y513D01*
X1125Y513D02*
X1135Y513D01*
X1146Y513D02*
X1152Y513D01*
X1271Y513D02*
X1276Y513D01*
X1310Y513D02*
X1317Y513D01*
X1325Y513D02*
X1335Y513D01*
X1346Y513D02*
X1352Y513D01*
X1471Y513D02*
X1476Y513D01*
X1510Y513D02*
X1517Y513D01*
X1525Y513D02*
X1535Y513D01*
X1546Y513D02*
X1552Y513D01*
X1671Y513D02*
X1676Y513D01*
X1891Y513D02*
X1900Y513D01*
X1931Y513D02*
X1940Y513D01*
X509Y512D02*
X518Y512D01*
X524Y512D02*
X536Y512D01*
X546Y512D02*
X552Y512D01*
X671Y512D02*
X676Y512D01*
X709Y512D02*
X718Y512D01*
X724Y512D02*
X736Y512D01*
X746Y512D02*
X752Y512D01*
X871Y512D02*
X876Y512D01*
X909Y512D02*
X918Y512D01*
X924Y512D02*
X936Y512D01*
X946Y512D02*
X952Y512D01*
X1071Y512D02*
X1076Y512D01*
X1109Y512D02*
X1118Y512D01*
X1124Y512D02*
X1136Y512D01*
X1146Y512D02*
X1152Y512D01*
X1271Y512D02*
X1276Y512D01*
X1309Y512D02*
X1318Y512D01*
X1324Y512D02*
X1336Y512D01*
X1346Y512D02*
X1352Y512D01*
X1471Y512D02*
X1476Y512D01*
X1509Y512D02*
X1518Y512D01*
X1524Y512D02*
X1536Y512D01*
X1546Y512D02*
X1552Y512D01*
X1671Y512D02*
X1676Y512D01*
X1891Y512D02*
X1900Y512D01*
X1931Y512D02*
X1940Y512D01*
X508Y511D02*
X520Y511D01*
X523Y511D02*
X537Y511D01*
X546Y511D02*
X552Y511D01*
X671Y511D02*
X676Y511D01*
X708Y511D02*
X719Y511D01*
X723Y511D02*
X737Y511D01*
X746Y511D02*
X752Y511D01*
X871Y511D02*
X876Y511D01*
X908Y511D02*
X919Y511D01*
X923Y511D02*
X937Y511D01*
X946Y511D02*
X952Y511D01*
X1071Y511D02*
X1076Y511D01*
X1108Y511D02*
X1119Y511D01*
X1123Y511D02*
X1137Y511D01*
X1146Y511D02*
X1152Y511D01*
X1271Y511D02*
X1276Y511D01*
X1308Y511D02*
X1319Y511D01*
X1323Y511D02*
X1337Y511D01*
X1346Y511D02*
X1352Y511D01*
X1471Y511D02*
X1476Y511D01*
X1508Y511D02*
X1519Y511D01*
X1523Y511D02*
X1537Y511D01*
X1546Y511D02*
X1552Y511D01*
X1671Y511D02*
X1676Y511D01*
X1891Y511D02*
X1900Y511D01*
X1931Y511D02*
X1940Y511D01*
X507Y510D02*
X520Y510D01*
X523Y510D02*
X527Y510D01*
X533Y510D02*
X537Y510D01*
X546Y510D02*
X552Y510D01*
X671Y510D02*
X676Y510D01*
X707Y510D02*
X720Y510D01*
X723Y510D02*
X727Y510D01*
X733Y510D02*
X737Y510D01*
X746Y510D02*
X752Y510D01*
X871Y510D02*
X876Y510D01*
X907Y510D02*
X920Y510D01*
X923Y510D02*
X927Y510D01*
X933Y510D02*
X937Y510D01*
X946Y510D02*
X952Y510D01*
X1071Y510D02*
X1076Y510D01*
X1107Y510D02*
X1120Y510D01*
X1122Y510D02*
X1127Y510D01*
X1133Y510D02*
X1137Y510D01*
X1146Y510D02*
X1152Y510D01*
X1271Y510D02*
X1276Y510D01*
X1307Y510D02*
X1320Y510D01*
X1322Y510D02*
X1327Y510D01*
X1333Y510D02*
X1337Y510D01*
X1346Y510D02*
X1352Y510D01*
X1471Y510D02*
X1476Y510D01*
X1507Y510D02*
X1520Y510D01*
X1522Y510D02*
X1527Y510D01*
X1533Y510D02*
X1537Y510D01*
X1546Y510D02*
X1552Y510D01*
X1671Y510D02*
X1676Y510D01*
X1891Y510D02*
X1900Y510D01*
X1931Y510D02*
X1940Y510D01*
X507Y509D02*
X511Y509D01*
X518Y509D02*
X526Y509D01*
X534Y509D02*
X538Y509D01*
X546Y509D02*
X552Y509D01*
X671Y509D02*
X676Y509D01*
X707Y509D02*
X711Y509D01*
X718Y509D02*
X726Y509D01*
X734Y509D02*
X738Y509D01*
X746Y509D02*
X752Y509D01*
X871Y509D02*
X876Y509D01*
X907Y509D02*
X911Y509D01*
X918Y509D02*
X926Y509D01*
X934Y509D02*
X938Y509D01*
X946Y509D02*
X952Y509D01*
X1071Y509D02*
X1076Y509D01*
X1107Y509D02*
X1111Y509D01*
X1118Y509D02*
X1126Y509D01*
X1134Y509D02*
X1138Y509D01*
X1146Y509D02*
X1152Y509D01*
X1271Y509D02*
X1276Y509D01*
X1307Y509D02*
X1311Y509D01*
X1318Y509D02*
X1326Y509D01*
X1334Y509D02*
X1338Y509D01*
X1346Y509D02*
X1352Y509D01*
X1471Y509D02*
X1476Y509D01*
X1507Y509D02*
X1511Y509D01*
X1518Y509D02*
X1526Y509D01*
X1534Y509D02*
X1538Y509D01*
X1546Y509D02*
X1552Y509D01*
X1671Y509D02*
X1676Y509D01*
X1891Y509D02*
X1900Y509D01*
X1931Y509D02*
X1940Y509D01*
X507Y508D02*
X510Y508D01*
X519Y508D02*
X525Y508D01*
X535Y508D02*
X538Y508D01*
X546Y508D02*
X552Y508D01*
X671Y508D02*
X676Y508D01*
X707Y508D02*
X709Y508D01*
X719Y508D02*
X725Y508D01*
X735Y508D02*
X738Y508D01*
X746Y508D02*
X752Y508D01*
X871Y508D02*
X876Y508D01*
X907Y508D02*
X909Y508D01*
X919Y508D02*
X925Y508D01*
X935Y508D02*
X938Y508D01*
X946Y508D02*
X952Y508D01*
X1071Y508D02*
X1076Y508D01*
X1106Y508D02*
X1109Y508D01*
X1119Y508D02*
X1125Y508D01*
X1135Y508D02*
X1138Y508D01*
X1146Y508D02*
X1152Y508D01*
X1271Y508D02*
X1276Y508D01*
X1306Y508D02*
X1309Y508D01*
X1319Y508D02*
X1325Y508D01*
X1335Y508D02*
X1338Y508D01*
X1346Y508D02*
X1352Y508D01*
X1471Y508D02*
X1476Y508D01*
X1506Y508D02*
X1509Y508D01*
X1519Y508D02*
X1525Y508D01*
X1535Y508D02*
X1538Y508D01*
X1546Y508D02*
X1552Y508D01*
X1671Y508D02*
X1676Y508D01*
X1891Y508D02*
X1900Y508D01*
X1931Y508D02*
X1940Y508D01*
X506Y507D02*
X509Y507D01*
X520Y507D02*
X524Y507D01*
X536Y507D02*
X538Y507D01*
X546Y507D02*
X552Y507D01*
X671Y507D02*
X676Y507D01*
X706Y507D02*
X709Y507D01*
X720Y507D02*
X724Y507D01*
X736Y507D02*
X738Y507D01*
X746Y507D02*
X752Y507D01*
X871Y507D02*
X876Y507D01*
X906Y507D02*
X909Y507D01*
X920Y507D02*
X924Y507D01*
X936Y507D02*
X938Y507D01*
X946Y507D02*
X952Y507D01*
X1071Y507D02*
X1076Y507D01*
X1106Y507D02*
X1109Y507D01*
X1120Y507D02*
X1124Y507D01*
X1136Y507D02*
X1138Y507D01*
X1146Y507D02*
X1152Y507D01*
X1271Y507D02*
X1276Y507D01*
X1306Y507D02*
X1309Y507D01*
X1320Y507D02*
X1324Y507D01*
X1336Y507D02*
X1338Y507D01*
X1346Y507D02*
X1352Y507D01*
X1471Y507D02*
X1476Y507D01*
X1506Y507D02*
X1509Y507D01*
X1520Y507D02*
X1524Y507D01*
X1536Y507D02*
X1538Y507D01*
X1546Y507D02*
X1552Y507D01*
X1671Y507D02*
X1676Y507D01*
X1891Y507D02*
X1900Y507D01*
X1931Y507D02*
X1940Y507D01*
X506Y506D02*
X508Y506D01*
X521Y506D02*
X524Y506D01*
X536Y506D02*
X539Y506D01*
X546Y506D02*
X552Y506D01*
X672Y506D02*
X676Y506D01*
X706Y506D02*
X708Y506D01*
X721Y506D02*
X724Y506D01*
X736Y506D02*
X739Y506D01*
X746Y506D02*
X752Y506D01*
X872Y506D02*
X876Y506D01*
X906Y506D02*
X908Y506D01*
X921Y506D02*
X924Y506D01*
X936Y506D02*
X939Y506D01*
X946Y506D02*
X952Y506D01*
X1071Y506D02*
X1076Y506D01*
X1106Y506D02*
X1108Y506D01*
X1121Y506D02*
X1124Y506D01*
X1136Y506D02*
X1139Y506D01*
X1146Y506D02*
X1152Y506D01*
X1271Y506D02*
X1276Y506D01*
X1306Y506D02*
X1308Y506D01*
X1320Y506D02*
X1324Y506D01*
X1336Y506D02*
X1339Y506D01*
X1346Y506D02*
X1352Y506D01*
X1471Y506D02*
X1476Y506D01*
X1506Y506D02*
X1508Y506D01*
X1520Y506D02*
X1524Y506D01*
X1536Y506D02*
X1539Y506D01*
X1546Y506D02*
X1552Y506D01*
X1671Y506D02*
X1676Y506D01*
X1891Y506D02*
X1900Y506D01*
X1931Y506D02*
X1940Y506D01*
X506Y505D02*
X508Y505D01*
X520Y505D02*
X523Y505D01*
X537Y505D02*
X539Y505D01*
X546Y505D02*
X552Y505D01*
X672Y505D02*
X676Y505D01*
X706Y505D02*
X708Y505D01*
X720Y505D02*
X723Y505D01*
X736Y505D02*
X739Y505D01*
X746Y505D02*
X752Y505D01*
X872Y505D02*
X876Y505D01*
X906Y505D02*
X908Y505D01*
X920Y505D02*
X923Y505D01*
X936Y505D02*
X939Y505D01*
X946Y505D02*
X952Y505D01*
X1071Y505D02*
X1076Y505D01*
X1106Y505D02*
X1108Y505D01*
X1120Y505D02*
X1123Y505D01*
X1136Y505D02*
X1139Y505D01*
X1146Y505D02*
X1152Y505D01*
X1271Y505D02*
X1276Y505D01*
X1306Y505D02*
X1308Y505D01*
X1320Y505D02*
X1323Y505D01*
X1336Y505D02*
X1339Y505D01*
X1346Y505D02*
X1352Y505D01*
X1471Y505D02*
X1476Y505D01*
X1506Y505D02*
X1508Y505D01*
X1520Y505D02*
X1523Y505D01*
X1536Y505D02*
X1539Y505D01*
X1546Y505D02*
X1552Y505D01*
X1671Y505D02*
X1676Y505D01*
X1891Y505D02*
X1900Y505D01*
X1931Y505D02*
X1940Y505D01*
X506Y504D02*
X508Y504D01*
X520Y504D02*
X523Y504D01*
X537Y504D02*
X539Y504D01*
X546Y504D02*
X552Y504D01*
X672Y504D02*
X676Y504D01*
X706Y504D02*
X708Y504D01*
X720Y504D02*
X723Y504D01*
X737Y504D02*
X739Y504D01*
X746Y504D02*
X752Y504D01*
X871Y504D02*
X876Y504D01*
X906Y504D02*
X908Y504D01*
X920Y504D02*
X923Y504D01*
X936Y504D02*
X939Y504D01*
X946Y504D02*
X952Y504D01*
X1071Y504D02*
X1076Y504D01*
X1106Y504D02*
X1108Y504D01*
X1120Y504D02*
X1123Y504D01*
X1136Y504D02*
X1139Y504D01*
X1146Y504D02*
X1152Y504D01*
X1271Y504D02*
X1276Y504D01*
X1306Y504D02*
X1308Y504D01*
X1320Y504D02*
X1323Y504D01*
X1336Y504D02*
X1339Y504D01*
X1346Y504D02*
X1352Y504D01*
X1471Y504D02*
X1476Y504D01*
X1506Y504D02*
X1508Y504D01*
X1520Y504D02*
X1523Y504D01*
X1536Y504D02*
X1539Y504D01*
X1546Y504D02*
X1552Y504D01*
X1671Y504D02*
X1676Y504D01*
X1891Y504D02*
X1901Y504D01*
X1931Y504D02*
X1940Y504D01*
X506Y503D02*
X508Y503D01*
X519Y503D02*
X522Y503D01*
X536Y503D02*
X539Y503D01*
X546Y503D02*
X552Y503D01*
X672Y503D02*
X676Y503D01*
X706Y503D02*
X708Y503D01*
X719Y503D02*
X722Y503D01*
X736Y503D02*
X739Y503D01*
X746Y503D02*
X752Y503D01*
X871Y503D02*
X876Y503D01*
X906Y503D02*
X908Y503D01*
X919Y503D02*
X922Y503D01*
X936Y503D02*
X939Y503D01*
X946Y503D02*
X952Y503D01*
X1071Y503D02*
X1076Y503D01*
X1106Y503D02*
X1108Y503D01*
X1119Y503D02*
X1122Y503D01*
X1136Y503D02*
X1139Y503D01*
X1146Y503D02*
X1152Y503D01*
X1271Y503D02*
X1276Y503D01*
X1306Y503D02*
X1308Y503D01*
X1319Y503D02*
X1322Y503D01*
X1336Y503D02*
X1339Y503D01*
X1346Y503D02*
X1352Y503D01*
X1471Y503D02*
X1476Y503D01*
X1506Y503D02*
X1508Y503D01*
X1519Y503D02*
X1522Y503D01*
X1536Y503D02*
X1539Y503D01*
X1546Y503D02*
X1552Y503D01*
X1671Y503D02*
X1676Y503D01*
X1891Y503D02*
X1901Y503D01*
X1931Y503D02*
X1940Y503D01*
X506Y502D02*
X509Y502D01*
X519Y502D02*
X522Y502D01*
X536Y502D02*
X539Y502D01*
X546Y502D02*
X552Y502D01*
X671Y502D02*
X676Y502D01*
X706Y502D02*
X709Y502D01*
X719Y502D02*
X722Y502D01*
X736Y502D02*
X739Y502D01*
X746Y502D02*
X752Y502D01*
X871Y502D02*
X876Y502D01*
X906Y502D02*
X909Y502D01*
X919Y502D02*
X922Y502D01*
X936Y502D02*
X939Y502D01*
X946Y502D02*
X952Y502D01*
X1071Y502D02*
X1076Y502D01*
X1106Y502D02*
X1109Y502D01*
X1119Y502D02*
X1122Y502D01*
X1136Y502D02*
X1139Y502D01*
X1146Y502D02*
X1152Y502D01*
X1271Y502D02*
X1276Y502D01*
X1306Y502D02*
X1309Y502D01*
X1319Y502D02*
X1322Y502D01*
X1336Y502D02*
X1339Y502D01*
X1346Y502D02*
X1352Y502D01*
X1471Y502D02*
X1476Y502D01*
X1506Y502D02*
X1509Y502D01*
X1519Y502D02*
X1522Y502D01*
X1536Y502D02*
X1539Y502D01*
X1546Y502D02*
X1552Y502D01*
X1671Y502D02*
X1676Y502D01*
X1891Y502D02*
X1902Y502D01*
X1930Y502D02*
X1940Y502D01*
X506Y501D02*
X509Y501D01*
X518Y501D02*
X523Y501D01*
X535Y501D02*
X538Y501D01*
X546Y501D02*
X552Y501D01*
X671Y501D02*
X676Y501D01*
X706Y501D02*
X709Y501D01*
X718Y501D02*
X723Y501D01*
X735Y501D02*
X738Y501D01*
X746Y501D02*
X752Y501D01*
X871Y501D02*
X876Y501D01*
X906Y501D02*
X909Y501D01*
X918Y501D02*
X923Y501D01*
X935Y501D02*
X938Y501D01*
X946Y501D02*
X952Y501D01*
X1071Y501D02*
X1076Y501D01*
X1106Y501D02*
X1109Y501D01*
X1118Y501D02*
X1123Y501D01*
X1135Y501D02*
X1138Y501D01*
X1146Y501D02*
X1152Y501D01*
X1271Y501D02*
X1276Y501D01*
X1306Y501D02*
X1309Y501D01*
X1318Y501D02*
X1323Y501D01*
X1335Y501D02*
X1338Y501D01*
X1346Y501D02*
X1352Y501D01*
X1471Y501D02*
X1476Y501D01*
X1506Y501D02*
X1509Y501D01*
X1518Y501D02*
X1522Y501D01*
X1535Y501D02*
X1538Y501D01*
X1546Y501D02*
X1552Y501D01*
X1671Y501D02*
X1676Y501D01*
X1891Y501D02*
X1903Y501D01*
X1930Y501D02*
X1940Y501D01*
X507Y500D02*
X510Y500D01*
X517Y500D02*
X524Y500D01*
X535Y500D02*
X538Y500D01*
X546Y500D02*
X552Y500D01*
X671Y500D02*
X676Y500D01*
X707Y500D02*
X710Y500D01*
X717Y500D02*
X724Y500D01*
X735Y500D02*
X738Y500D01*
X746Y500D02*
X752Y500D01*
X871Y500D02*
X876Y500D01*
X907Y500D02*
X910Y500D01*
X917Y500D02*
X924Y500D01*
X935Y500D02*
X938Y500D01*
X946Y500D02*
X952Y500D01*
X1071Y500D02*
X1076Y500D01*
X1107Y500D02*
X1110Y500D01*
X1117Y500D02*
X1123Y500D01*
X1135Y500D02*
X1138Y500D01*
X1146Y500D02*
X1152Y500D01*
X1271Y500D02*
X1276Y500D01*
X1307Y500D02*
X1310Y500D01*
X1317Y500D02*
X1323Y500D01*
X1335Y500D02*
X1338Y500D01*
X1346Y500D02*
X1352Y500D01*
X1471Y500D02*
X1476Y500D01*
X1507Y500D02*
X1510Y500D01*
X1517Y500D02*
X1523Y500D01*
X1535Y500D02*
X1538Y500D01*
X1546Y500D02*
X1552Y500D01*
X1671Y500D02*
X1676Y500D01*
X1891Y500D02*
X1904Y500D01*
X1929Y500D02*
X1939Y500D01*
X507Y499D02*
X512Y499D01*
X515Y499D02*
X525Y499D01*
X533Y499D02*
X538Y499D01*
X546Y499D02*
X552Y499D01*
X671Y499D02*
X676Y499D01*
X707Y499D02*
X712Y499D01*
X715Y499D02*
X725Y499D01*
X733Y499D02*
X738Y499D01*
X746Y499D02*
X752Y499D01*
X871Y499D02*
X876Y499D01*
X907Y499D02*
X912Y499D01*
X915Y499D02*
X925Y499D01*
X933Y499D02*
X938Y499D01*
X946Y499D02*
X952Y499D01*
X1071Y499D02*
X1076Y499D01*
X1107Y499D02*
X1112Y499D01*
X1115Y499D02*
X1125Y499D01*
X1133Y499D02*
X1138Y499D01*
X1146Y499D02*
X1152Y499D01*
X1271Y499D02*
X1276Y499D01*
X1307Y499D02*
X1312Y499D01*
X1315Y499D02*
X1325Y499D01*
X1333Y499D02*
X1338Y499D01*
X1346Y499D02*
X1352Y499D01*
X1471Y499D02*
X1476Y499D01*
X1507Y499D02*
X1512Y499D01*
X1515Y499D02*
X1525Y499D01*
X1533Y499D02*
X1538Y499D01*
X1546Y499D02*
X1552Y499D01*
X1671Y499D02*
X1676Y499D01*
X1891Y499D02*
X1905Y499D01*
X1928Y499D02*
X1939Y499D01*
X508Y498D02*
X520Y498D01*
X523Y498D02*
X537Y498D01*
X546Y498D02*
X552Y498D01*
X671Y498D02*
X676Y498D01*
X708Y498D02*
X720Y498D01*
X723Y498D02*
X737Y498D01*
X746Y498D02*
X752Y498D01*
X871Y498D02*
X876Y498D01*
X908Y498D02*
X920Y498D01*
X923Y498D02*
X937Y498D01*
X946Y498D02*
X952Y498D01*
X1071Y498D02*
X1076Y498D01*
X1108Y498D02*
X1120Y498D01*
X1123Y498D02*
X1137Y498D01*
X1146Y498D02*
X1152Y498D01*
X1271Y498D02*
X1276Y498D01*
X1308Y498D02*
X1320Y498D01*
X1323Y498D02*
X1337Y498D01*
X1346Y498D02*
X1352Y498D01*
X1471Y498D02*
X1476Y498D01*
X1508Y498D02*
X1520Y498D01*
X1523Y498D02*
X1537Y498D01*
X1546Y498D02*
X1552Y498D01*
X1671Y498D02*
X1676Y498D01*
X1891Y498D02*
X1906Y498D01*
X1926Y498D02*
X1939Y498D01*
X509Y497D02*
X519Y497D01*
X523Y497D02*
X536Y497D01*
X546Y497D02*
X552Y497D01*
X671Y497D02*
X676Y497D01*
X709Y497D02*
X719Y497D01*
X723Y497D02*
X736Y497D01*
X746Y497D02*
X752Y497D01*
X871Y497D02*
X876Y497D01*
X909Y497D02*
X919Y497D01*
X923Y497D02*
X936Y497D01*
X946Y497D02*
X952Y497D01*
X1071Y497D02*
X1076Y497D01*
X1109Y497D02*
X1119Y497D01*
X1123Y497D02*
X1136Y497D01*
X1146Y497D02*
X1152Y497D01*
X1271Y497D02*
X1276Y497D01*
X1309Y497D02*
X1319Y497D01*
X1323Y497D02*
X1336Y497D01*
X1346Y497D02*
X1352Y497D01*
X1471Y497D02*
X1476Y497D01*
X1509Y497D02*
X1519Y497D01*
X1523Y497D02*
X1536Y497D01*
X1546Y497D02*
X1552Y497D01*
X1671Y497D02*
X1676Y497D01*
X1891Y497D02*
X1907Y497D01*
X1925Y497D02*
X1938Y497D01*
X510Y496D02*
X518Y496D01*
X524Y496D02*
X535Y496D01*
X546Y496D02*
X552Y496D01*
X671Y496D02*
X676Y496D01*
X710Y496D02*
X718Y496D01*
X724Y496D02*
X735Y496D01*
X746Y496D02*
X752Y496D01*
X871Y496D02*
X876Y496D01*
X910Y496D02*
X918Y496D01*
X924Y496D02*
X935Y496D01*
X946Y496D02*
X952Y496D01*
X1071Y496D02*
X1076Y496D01*
X1110Y496D02*
X1118Y496D01*
X1124Y496D02*
X1135Y496D01*
X1146Y496D02*
X1152Y496D01*
X1271Y496D02*
X1276Y496D01*
X1310Y496D02*
X1318Y496D01*
X1324Y496D02*
X1335Y496D01*
X1346Y496D02*
X1352Y496D01*
X1471Y496D02*
X1476Y496D01*
X1510Y496D02*
X1518Y496D01*
X1524Y496D02*
X1535Y496D01*
X1546Y496D02*
X1552Y496D01*
X1671Y496D02*
X1676Y496D01*
X1891Y496D02*
X1908Y496D01*
X1924Y496D02*
X1938Y496D01*
X512Y495D02*
X516Y495D01*
X526Y495D02*
X534Y495D01*
X546Y495D02*
X552Y495D01*
X671Y495D02*
X676Y495D01*
X712Y495D02*
X716Y495D01*
X726Y495D02*
X734Y495D01*
X746Y495D02*
X752Y495D01*
X871Y495D02*
X876Y495D01*
X912Y495D02*
X916Y495D01*
X926Y495D02*
X934Y495D01*
X946Y495D02*
X952Y495D01*
X1071Y495D02*
X1076Y495D01*
X1112Y495D02*
X1116Y495D01*
X1126Y495D02*
X1134Y495D01*
X1146Y495D02*
X1152Y495D01*
X1271Y495D02*
X1276Y495D01*
X1312Y495D02*
X1316Y495D01*
X1326Y495D02*
X1334Y495D01*
X1346Y495D02*
X1352Y495D01*
X1471Y495D02*
X1476Y495D01*
X1512Y495D02*
X1516Y495D01*
X1526Y495D02*
X1534Y495D01*
X1546Y495D02*
X1552Y495D01*
X1671Y495D02*
X1676Y495D01*
X1891Y495D02*
X1909Y495D01*
X1923Y495D02*
X1937Y495D01*
X528Y494D02*
X531Y494D01*
X546Y494D02*
X552Y494D01*
X671Y494D02*
X676Y494D01*
X728Y494D02*
X731Y494D01*
X746Y494D02*
X752Y494D01*
X871Y494D02*
X876Y494D01*
X928Y494D02*
X931Y494D01*
X946Y494D02*
X952Y494D01*
X1071Y494D02*
X1076Y494D01*
X1128Y494D02*
X1131Y494D01*
X1146Y494D02*
X1152Y494D01*
X1271Y494D02*
X1276Y494D01*
X1328Y494D02*
X1331Y494D01*
X1346Y494D02*
X1352Y494D01*
X1471Y494D02*
X1476Y494D01*
X1528Y494D02*
X1531Y494D01*
X1546Y494D02*
X1552Y494D01*
X1671Y494D02*
X1676Y494D01*
X1891Y494D02*
X1910Y494D01*
X1922Y494D02*
X1936Y494D01*
X546Y493D02*
X552Y493D01*
X671Y493D02*
X676Y493D01*
X746Y493D02*
X752Y493D01*
X871Y493D02*
X876Y493D01*
X946Y493D02*
X952Y493D01*
X1071Y493D02*
X1076Y493D01*
X1146Y493D02*
X1152Y493D01*
X1271Y493D02*
X1276Y493D01*
X1346Y493D02*
X1352Y493D01*
X1471Y493D02*
X1476Y493D01*
X1546Y493D02*
X1552Y493D01*
X1671Y493D02*
X1676Y493D01*
X1891Y493D02*
X1911Y493D01*
X1920Y493D02*
X1935Y493D01*
X546Y492D02*
X552Y492D01*
X671Y492D02*
X676Y492D01*
X746Y492D02*
X752Y492D01*
X871Y492D02*
X876Y492D01*
X946Y492D02*
X952Y492D01*
X1071Y492D02*
X1076Y492D01*
X1146Y492D02*
X1152Y492D01*
X1271Y492D02*
X1275Y492D01*
X1346Y492D02*
X1352Y492D01*
X1471Y492D02*
X1475Y492D01*
X1546Y492D02*
X1552Y492D01*
X1671Y492D02*
X1675Y492D01*
X1891Y492D02*
X1913Y492D01*
X1918Y492D02*
X1934Y492D01*
X546Y491D02*
X552Y491D01*
X670Y491D02*
X675Y491D01*
X746Y491D02*
X752Y491D01*
X870Y491D02*
X875Y491D01*
X946Y491D02*
X952Y491D01*
X1070Y491D02*
X1075Y491D01*
X1146Y491D02*
X1152Y491D01*
X1270Y491D02*
X1275Y491D01*
X1346Y491D02*
X1352Y491D01*
X1470Y491D02*
X1475Y491D01*
X1546Y491D02*
X1552Y491D01*
X1670Y491D02*
X1675Y491D01*
X1891Y491D02*
X1933Y491D01*
X546Y490D02*
X552Y490D01*
X670Y490D02*
X675Y490D01*
X746Y490D02*
X752Y490D01*
X870Y490D02*
X875Y490D01*
X946Y490D02*
X952Y490D01*
X1070Y490D02*
X1075Y490D01*
X1146Y490D02*
X1152Y490D01*
X1270Y490D02*
X1275Y490D01*
X1346Y490D02*
X1352Y490D01*
X1470Y490D02*
X1475Y490D01*
X1546Y490D02*
X1552Y490D01*
X1670Y490D02*
X1675Y490D01*
X1891Y490D02*
X1932Y490D01*
X546Y489D02*
X552Y489D01*
X670Y489D02*
X675Y489D01*
X746Y489D02*
X752Y489D01*
X870Y489D02*
X875Y489D01*
X946Y489D02*
X952Y489D01*
X1070Y489D02*
X1075Y489D01*
X1146Y489D02*
X1152Y489D01*
X1270Y489D02*
X1275Y489D01*
X1346Y489D02*
X1352Y489D01*
X1470Y489D02*
X1475Y489D01*
X1546Y489D02*
X1552Y489D01*
X1670Y489D02*
X1675Y489D01*
X1891Y489D02*
X1930Y489D01*
X536Y488D02*
X538Y488D01*
X546Y488D02*
X552Y488D01*
X670Y488D02*
X675Y488D01*
X736Y488D02*
X738Y488D01*
X746Y488D02*
X752Y488D01*
X870Y488D02*
X875Y488D01*
X936Y488D02*
X938Y488D01*
X946Y488D02*
X952Y488D01*
X1070Y488D02*
X1075Y488D01*
X1136Y488D02*
X1138Y488D01*
X1146Y488D02*
X1152Y488D01*
X1270Y488D02*
X1275Y488D01*
X1336Y488D02*
X1338Y488D01*
X1346Y488D02*
X1352Y488D01*
X1470Y488D02*
X1475Y488D01*
X1536Y488D02*
X1538Y488D01*
X1546Y488D02*
X1552Y488D01*
X1670Y488D02*
X1675Y488D01*
X1891Y488D02*
X1900Y488D01*
X1903Y488D02*
X1929Y488D01*
X536Y487D02*
X538Y487D01*
X546Y487D02*
X552Y487D01*
X670Y487D02*
X675Y487D01*
X736Y487D02*
X738Y487D01*
X746Y487D02*
X752Y487D01*
X870Y487D02*
X875Y487D01*
X936Y487D02*
X938Y487D01*
X946Y487D02*
X952Y487D01*
X1070Y487D02*
X1075Y487D01*
X1136Y487D02*
X1138Y487D01*
X1146Y487D02*
X1152Y487D01*
X1270Y487D02*
X1275Y487D01*
X1336Y487D02*
X1338Y487D01*
X1346Y487D02*
X1352Y487D01*
X1470Y487D02*
X1475Y487D01*
X1536Y487D02*
X1538Y487D01*
X1546Y487D02*
X1552Y487D01*
X1670Y487D02*
X1675Y487D01*
X1891Y487D02*
X1900Y487D01*
X1904Y487D02*
X1928Y487D01*
X536Y486D02*
X538Y486D01*
X546Y486D02*
X552Y486D01*
X669Y486D02*
X674Y486D01*
X736Y486D02*
X738Y486D01*
X746Y486D02*
X752Y486D01*
X869Y486D02*
X874Y486D01*
X936Y486D02*
X938Y486D01*
X946Y486D02*
X952Y486D01*
X1069Y486D02*
X1074Y486D01*
X1136Y486D02*
X1138Y486D01*
X1146Y486D02*
X1152Y486D01*
X1269Y486D02*
X1274Y486D01*
X1336Y486D02*
X1338Y486D01*
X1346Y486D02*
X1352Y486D01*
X1469Y486D02*
X1474Y486D01*
X1536Y486D02*
X1538Y486D01*
X1546Y486D02*
X1552Y486D01*
X1669Y486D02*
X1674Y486D01*
X1891Y486D02*
X1900Y486D01*
X1905Y486D02*
X1927Y486D01*
X536Y485D02*
X538Y485D01*
X546Y485D02*
X552Y485D01*
X669Y485D02*
X674Y485D01*
X736Y485D02*
X738Y485D01*
X746Y485D02*
X752Y485D01*
X869Y485D02*
X874Y485D01*
X936Y485D02*
X938Y485D01*
X946Y485D02*
X952Y485D01*
X1069Y485D02*
X1074Y485D01*
X1136Y485D02*
X1138Y485D01*
X1146Y485D02*
X1152Y485D01*
X1269Y485D02*
X1274Y485D01*
X1336Y485D02*
X1338Y485D01*
X1346Y485D02*
X1352Y485D01*
X1469Y485D02*
X1474Y485D01*
X1536Y485D02*
X1538Y485D01*
X1546Y485D02*
X1552Y485D01*
X1669Y485D02*
X1674Y485D01*
X1891Y485D02*
X1900Y485D01*
X1906Y485D02*
X1926Y485D01*
X536Y484D02*
X538Y484D01*
X546Y484D02*
X552Y484D01*
X669Y484D02*
X674Y484D01*
X736Y484D02*
X738Y484D01*
X746Y484D02*
X752Y484D01*
X869Y484D02*
X874Y484D01*
X936Y484D02*
X938Y484D01*
X946Y484D02*
X952Y484D01*
X1069Y484D02*
X1074Y484D01*
X1136Y484D02*
X1138Y484D01*
X1146Y484D02*
X1152Y484D01*
X1269Y484D02*
X1274Y484D01*
X1336Y484D02*
X1338Y484D01*
X1346Y484D02*
X1352Y484D01*
X1469Y484D02*
X1474Y484D01*
X1536Y484D02*
X1538Y484D01*
X1546Y484D02*
X1552Y484D01*
X1669Y484D02*
X1674Y484D01*
X1891Y484D02*
X1900Y484D01*
X1907Y484D02*
X1924Y484D01*
X536Y483D02*
X538Y483D01*
X546Y483D02*
X552Y483D01*
X669Y483D02*
X674Y483D01*
X736Y483D02*
X738Y483D01*
X746Y483D02*
X752Y483D01*
X869Y483D02*
X874Y483D01*
X936Y483D02*
X938Y483D01*
X946Y483D02*
X952Y483D01*
X1068Y483D02*
X1074Y483D01*
X1135Y483D02*
X1138Y483D01*
X1146Y483D02*
X1152Y483D01*
X1268Y483D02*
X1274Y483D01*
X1335Y483D02*
X1338Y483D01*
X1346Y483D02*
X1352Y483D01*
X1468Y483D02*
X1474Y483D01*
X1535Y483D02*
X1538Y483D01*
X1546Y483D02*
X1552Y483D01*
X1668Y483D02*
X1674Y483D01*
X1891Y483D02*
X1900Y483D01*
X1909Y483D02*
X1922Y483D01*
X507Y482D02*
X538Y482D01*
X546Y482D02*
X552Y482D01*
X668Y482D02*
X673Y482D01*
X707Y482D02*
X738Y482D01*
X746Y482D02*
X752Y482D01*
X868Y482D02*
X873Y482D01*
X907Y482D02*
X938Y482D01*
X946Y482D02*
X952Y482D01*
X1068Y482D02*
X1073Y482D01*
X1107Y482D02*
X1138Y482D01*
X1146Y482D02*
X1152Y482D01*
X1268Y482D02*
X1273Y482D01*
X1307Y482D02*
X1338Y482D01*
X1346Y482D02*
X1352Y482D01*
X1468Y482D02*
X1473Y482D01*
X1507Y482D02*
X1538Y482D01*
X1546Y482D02*
X1552Y482D01*
X1668Y482D02*
X1673Y482D01*
X1891Y482D02*
X1900Y482D01*
X1913Y482D02*
X1919Y482D01*
X507Y481D02*
X538Y481D01*
X547Y481D02*
X552Y481D01*
X668Y481D02*
X673Y481D01*
X707Y481D02*
X738Y481D01*
X746Y481D02*
X752Y481D01*
X868Y481D02*
X873Y481D01*
X907Y481D02*
X938Y481D01*
X946Y481D02*
X952Y481D01*
X1068Y481D02*
X1073Y481D01*
X1107Y481D02*
X1138Y481D01*
X1146Y481D02*
X1152Y481D01*
X1268Y481D02*
X1273Y481D01*
X1307Y481D02*
X1338Y481D01*
X1346Y481D02*
X1352Y481D01*
X1468Y481D02*
X1473Y481D01*
X1507Y481D02*
X1538Y481D01*
X1546Y481D02*
X1552Y481D01*
X1668Y481D02*
X1673Y481D01*
X1891Y481D02*
X1900Y481D01*
X507Y480D02*
X538Y480D01*
X547Y480D02*
X552Y480D01*
X668Y480D02*
X673Y480D01*
X707Y480D02*
X738Y480D01*
X746Y480D02*
X752Y480D01*
X868Y480D02*
X873Y480D01*
X907Y480D02*
X938Y480D01*
X946Y480D02*
X952Y480D01*
X1068Y480D02*
X1073Y480D01*
X1107Y480D02*
X1138Y480D01*
X1146Y480D02*
X1152Y480D01*
X1268Y480D02*
X1273Y480D01*
X1307Y480D02*
X1338Y480D01*
X1346Y480D02*
X1352Y480D01*
X1468Y480D02*
X1473Y480D01*
X1507Y480D02*
X1538Y480D01*
X1546Y480D02*
X1552Y480D01*
X1668Y480D02*
X1673Y480D01*
X1891Y480D02*
X1900Y480D01*
X509Y479D02*
X538Y479D01*
X547Y479D02*
X552Y479D01*
X667Y479D02*
X672Y479D01*
X708Y479D02*
X738Y479D01*
X746Y479D02*
X752Y479D01*
X867Y479D02*
X872Y479D01*
X908Y479D02*
X938Y479D01*
X946Y479D02*
X952Y479D01*
X1067Y479D02*
X1072Y479D01*
X1108Y479D02*
X1138Y479D01*
X1146Y479D02*
X1152Y479D01*
X1267Y479D02*
X1272Y479D01*
X1308Y479D02*
X1338Y479D01*
X1346Y479D02*
X1352Y479D01*
X1467Y479D02*
X1472Y479D01*
X1508Y479D02*
X1538Y479D01*
X1546Y479D02*
X1552Y479D01*
X1667Y479D02*
X1672Y479D01*
X1891Y479D02*
X1900Y479D01*
X510Y478D02*
X513Y478D01*
X536Y478D02*
X538Y478D01*
X547Y478D02*
X552Y478D01*
X667Y478D02*
X672Y478D01*
X710Y478D02*
X713Y478D01*
X736Y478D02*
X738Y478D01*
X746Y478D02*
X752Y478D01*
X867Y478D02*
X872Y478D01*
X910Y478D02*
X913Y478D01*
X936Y478D02*
X938Y478D01*
X946Y478D02*
X952Y478D01*
X1067Y478D02*
X1072Y478D01*
X1110Y478D02*
X1113Y478D01*
X1136Y478D02*
X1138Y478D01*
X1146Y478D02*
X1152Y478D01*
X1267Y478D02*
X1272Y478D01*
X1310Y478D02*
X1313Y478D01*
X1336Y478D02*
X1338Y478D01*
X1346Y478D02*
X1352Y478D01*
X1467Y478D02*
X1472Y478D01*
X1510Y478D02*
X1513Y478D01*
X1536Y478D02*
X1538Y478D01*
X1546Y478D02*
X1552Y478D01*
X1667Y478D02*
X1672Y478D01*
X1891Y478D02*
X1900Y478D01*
X510Y477D02*
X513Y477D01*
X536Y477D02*
X538Y477D01*
X547Y477D02*
X552Y477D01*
X666Y477D02*
X672Y477D01*
X710Y477D02*
X713Y477D01*
X736Y477D02*
X738Y477D01*
X746Y477D02*
X752Y477D01*
X866Y477D02*
X872Y477D01*
X910Y477D02*
X913Y477D01*
X936Y477D02*
X938Y477D01*
X946Y477D02*
X952Y477D01*
X1066Y477D02*
X1072Y477D01*
X1110Y477D02*
X1113Y477D01*
X1136Y477D02*
X1138Y477D01*
X1146Y477D02*
X1152Y477D01*
X1266Y477D02*
X1272Y477D01*
X1310Y477D02*
X1313Y477D01*
X1336Y477D02*
X1338Y477D01*
X1346Y477D02*
X1352Y477D01*
X1466Y477D02*
X1472Y477D01*
X1510Y477D02*
X1513Y477D01*
X1536Y477D02*
X1538Y477D01*
X1546Y477D02*
X1552Y477D01*
X1666Y477D02*
X1672Y477D01*
X1891Y477D02*
X1900Y477D01*
X511Y476D02*
X513Y476D01*
X536Y476D02*
X538Y476D01*
X547Y476D02*
X552Y476D01*
X666Y476D02*
X671Y476D01*
X711Y476D02*
X713Y476D01*
X736Y476D02*
X738Y476D01*
X746Y476D02*
X752Y476D01*
X866Y476D02*
X871Y476D01*
X911Y476D02*
X913Y476D01*
X936Y476D02*
X938Y476D01*
X946Y476D02*
X952Y476D01*
X1066Y476D02*
X1071Y476D01*
X1111Y476D02*
X1113Y476D01*
X1136Y476D02*
X1138Y476D01*
X1146Y476D02*
X1152Y476D01*
X1266Y476D02*
X1271Y476D01*
X1311Y476D02*
X1313Y476D01*
X1336Y476D02*
X1338Y476D01*
X1346Y476D02*
X1352Y476D01*
X1466Y476D02*
X1471Y476D01*
X1511Y476D02*
X1513Y476D01*
X1536Y476D02*
X1538Y476D01*
X1546Y476D02*
X1552Y476D01*
X1666Y476D02*
X1671Y476D01*
X1891Y476D02*
X1900Y476D01*
X511Y475D02*
X513Y475D01*
X536Y475D02*
X538Y475D01*
X547Y475D02*
X552Y475D01*
X666Y475D02*
X671Y475D01*
X711Y475D02*
X713Y475D01*
X736Y475D02*
X738Y475D01*
X746Y475D02*
X752Y475D01*
X866Y475D02*
X871Y475D01*
X911Y475D02*
X913Y475D01*
X936Y475D02*
X938Y475D01*
X946Y475D02*
X952Y475D01*
X1066Y475D02*
X1071Y475D01*
X1111Y475D02*
X1113Y475D01*
X1136Y475D02*
X1138Y475D01*
X1146Y475D02*
X1152Y475D01*
X1266Y475D02*
X1271Y475D01*
X1311Y475D02*
X1313Y475D01*
X1336Y475D02*
X1338Y475D01*
X1346Y475D02*
X1352Y475D01*
X1466Y475D02*
X1471Y475D01*
X1511Y475D02*
X1513Y475D01*
X1536Y475D02*
X1538Y475D01*
X1546Y475D02*
X1552Y475D01*
X1666Y475D02*
X1671Y475D01*
X1891Y475D02*
X1900Y475D01*
X511Y474D02*
X513Y474D01*
X536Y474D02*
X538Y474D01*
X547Y474D02*
X552Y474D01*
X665Y474D02*
X671Y474D01*
X711Y474D02*
X713Y474D01*
X736Y474D02*
X738Y474D01*
X746Y474D02*
X752Y474D01*
X865Y474D02*
X871Y474D01*
X911Y474D02*
X913Y474D01*
X936Y474D02*
X938Y474D01*
X946Y474D02*
X952Y474D01*
X1065Y474D02*
X1071Y474D01*
X1111Y474D02*
X1113Y474D01*
X1136Y474D02*
X1138Y474D01*
X1146Y474D02*
X1152Y474D01*
X1265Y474D02*
X1271Y474D01*
X1311Y474D02*
X1313Y474D01*
X1336Y474D02*
X1338Y474D01*
X1346Y474D02*
X1352Y474D01*
X1465Y474D02*
X1471Y474D01*
X1511Y474D02*
X1513Y474D01*
X1536Y474D02*
X1538Y474D01*
X1546Y474D02*
X1552Y474D01*
X1665Y474D02*
X1671Y474D01*
X1891Y474D02*
X1900Y474D01*
X511Y473D02*
X513Y473D01*
X536Y473D02*
X538Y473D01*
X547Y473D02*
X552Y473D01*
X665Y473D02*
X670Y473D01*
X711Y473D02*
X713Y473D01*
X736Y473D02*
X738Y473D01*
X746Y473D02*
X752Y473D01*
X865Y473D02*
X870Y473D01*
X911Y473D02*
X913Y473D01*
X936Y473D02*
X938Y473D01*
X946Y473D02*
X952Y473D01*
X1065Y473D02*
X1070Y473D01*
X1111Y473D02*
X1113Y473D01*
X1136Y473D02*
X1138Y473D01*
X1146Y473D02*
X1152Y473D01*
X1265Y473D02*
X1270Y473D01*
X1311Y473D02*
X1313Y473D01*
X1336Y473D02*
X1338Y473D01*
X1346Y473D02*
X1352Y473D01*
X1465Y473D02*
X1470Y473D01*
X1511Y473D02*
X1513Y473D01*
X1536Y473D02*
X1538Y473D01*
X1546Y473D02*
X1552Y473D01*
X1665Y473D02*
X1670Y473D01*
X1891Y473D02*
X1900Y473D01*
X547Y472D02*
X552Y472D01*
X664Y472D02*
X670Y472D01*
X746Y472D02*
X752Y472D01*
X864Y472D02*
X870Y472D01*
X946Y472D02*
X952Y472D01*
X1064Y472D02*
X1070Y472D01*
X1146Y472D02*
X1152Y472D01*
X1264Y472D02*
X1270Y472D01*
X1346Y472D02*
X1352Y472D01*
X1464Y472D02*
X1470Y472D01*
X1546Y472D02*
X1552Y472D01*
X1664Y472D02*
X1670Y472D01*
X1891Y472D02*
X1900Y472D01*
X547Y471D02*
X552Y471D01*
X664Y471D02*
X669Y471D01*
X746Y471D02*
X752Y471D01*
X864Y471D02*
X869Y471D01*
X946Y471D02*
X952Y471D01*
X1064Y471D02*
X1069Y471D01*
X1146Y471D02*
X1152Y471D01*
X1264Y471D02*
X1269Y471D01*
X1346Y471D02*
X1352Y471D01*
X1464Y471D02*
X1469Y471D01*
X1546Y471D02*
X1552Y471D01*
X1664Y471D02*
X1669Y471D01*
X1891Y471D02*
X1900Y471D01*
X547Y470D02*
X552Y470D01*
X663Y470D02*
X669Y470D01*
X746Y470D02*
X752Y470D01*
X863Y470D02*
X869Y470D01*
X946Y470D02*
X952Y470D01*
X1063Y470D02*
X1069Y470D01*
X1146Y470D02*
X1152Y470D01*
X1263Y470D02*
X1269Y470D01*
X1346Y470D02*
X1352Y470D01*
X1463Y470D02*
X1469Y470D01*
X1546Y470D02*
X1552Y470D01*
X1663Y470D02*
X1669Y470D01*
X1891Y470D02*
X1900Y470D01*
X547Y469D02*
X552Y469D01*
X663Y469D02*
X668Y469D01*
X746Y469D02*
X752Y469D01*
X863Y469D02*
X868Y469D01*
X946Y469D02*
X952Y469D01*
X1063Y469D02*
X1068Y469D01*
X1146Y469D02*
X1152Y469D01*
X1263Y469D02*
X1268Y469D01*
X1346Y469D02*
X1352Y469D01*
X1463Y469D02*
X1468Y469D01*
X1546Y469D02*
X1552Y469D01*
X1663Y469D02*
X1668Y469D01*
X1891Y469D02*
X1900Y469D01*
X547Y468D02*
X552Y468D01*
X662Y468D02*
X668Y468D01*
X747Y468D02*
X752Y468D01*
X862Y468D02*
X868Y468D01*
X946Y468D02*
X952Y468D01*
X1062Y468D02*
X1068Y468D01*
X1146Y468D02*
X1152Y468D01*
X1262Y468D02*
X1268Y468D01*
X1346Y468D02*
X1352Y468D01*
X1462Y468D02*
X1468Y468D01*
X1546Y468D02*
X1552Y468D01*
X1662Y468D02*
X1668Y468D01*
X1891Y468D02*
X1900Y468D01*
X547Y467D02*
X552Y467D01*
X662Y467D02*
X667Y467D01*
X747Y467D02*
X752Y467D01*
X862Y467D02*
X867Y467D01*
X946Y467D02*
X952Y467D01*
X1062Y467D02*
X1067Y467D01*
X1146Y467D02*
X1152Y467D01*
X1262Y467D02*
X1267Y467D01*
X1346Y467D02*
X1352Y467D01*
X1462Y467D02*
X1467Y467D01*
X1546Y467D02*
X1552Y467D01*
X1661Y467D02*
X1667Y467D01*
X1891Y467D02*
X1900Y467D01*
X526Y466D02*
X533Y466D01*
X547Y466D02*
X552Y466D01*
X661Y466D02*
X667Y466D01*
X726Y466D02*
X733Y466D01*
X747Y466D02*
X752Y466D01*
X861Y466D02*
X867Y466D01*
X926Y466D02*
X933Y466D01*
X946Y466D02*
X952Y466D01*
X1061Y466D02*
X1067Y466D01*
X1126Y466D02*
X1133Y466D01*
X1146Y466D02*
X1152Y466D01*
X1261Y466D02*
X1267Y466D01*
X1326Y466D02*
X1333Y466D01*
X1346Y466D02*
X1352Y466D01*
X1461Y466D02*
X1467Y466D01*
X1526Y466D02*
X1532Y466D01*
X1546Y466D02*
X1552Y466D01*
X1661Y466D02*
X1667Y466D01*
X1892Y466D02*
X1900Y466D01*
X508Y465D02*
X512Y465D01*
X525Y465D02*
X534Y465D01*
X547Y465D02*
X552Y465D01*
X660Y465D02*
X666Y465D01*
X708Y465D02*
X712Y465D01*
X725Y465D02*
X734Y465D01*
X747Y465D02*
X752Y465D01*
X860Y465D02*
X866Y465D01*
X908Y465D02*
X912Y465D01*
X925Y465D02*
X934Y465D01*
X946Y465D02*
X952Y465D01*
X1060Y465D02*
X1066Y465D01*
X1108Y465D02*
X1112Y465D01*
X1125Y465D02*
X1134Y465D01*
X1146Y465D02*
X1152Y465D01*
X1260Y465D02*
X1266Y465D01*
X1308Y465D02*
X1312Y465D01*
X1325Y465D02*
X1334Y465D01*
X1346Y465D02*
X1352Y465D01*
X1460Y465D02*
X1466Y465D01*
X1508Y465D02*
X1512Y465D01*
X1524Y465D02*
X1534Y465D01*
X1546Y465D02*
X1552Y465D01*
X1660Y465D02*
X1666Y465D01*
X1892Y465D02*
X1899Y465D01*
X508Y464D02*
X511Y464D01*
X524Y464D02*
X536Y464D01*
X547Y464D02*
X552Y464D01*
X660Y464D02*
X666Y464D01*
X708Y464D02*
X711Y464D01*
X724Y464D02*
X736Y464D01*
X747Y464D02*
X752Y464D01*
X860Y464D02*
X866Y464D01*
X908Y464D02*
X911Y464D01*
X924Y464D02*
X936Y464D01*
X946Y464D02*
X952Y464D01*
X1060Y464D02*
X1066Y464D01*
X1108Y464D02*
X1111Y464D01*
X1124Y464D02*
X1135Y464D01*
X1146Y464D02*
X1152Y464D01*
X1260Y464D02*
X1266Y464D01*
X1308Y464D02*
X1311Y464D01*
X1324Y464D02*
X1335Y464D01*
X1346Y464D02*
X1352Y464D01*
X1460Y464D02*
X1466Y464D01*
X1508Y464D02*
X1511Y464D01*
X1524Y464D02*
X1535Y464D01*
X1546Y464D02*
X1552Y464D01*
X1660Y464D02*
X1666Y464D01*
X1893Y464D02*
X1899Y464D01*
X507Y463D02*
X511Y463D01*
X523Y463D02*
X536Y463D01*
X547Y463D02*
X552Y463D01*
X659Y463D02*
X665Y463D01*
X707Y463D02*
X711Y463D01*
X723Y463D02*
X736Y463D01*
X747Y463D02*
X752Y463D01*
X859Y463D02*
X865Y463D01*
X907Y463D02*
X911Y463D01*
X923Y463D02*
X936Y463D01*
X946Y463D02*
X952Y463D01*
X1059Y463D02*
X1065Y463D01*
X1107Y463D02*
X1111Y463D01*
X1123Y463D02*
X1136Y463D01*
X1146Y463D02*
X1152Y463D01*
X1259Y463D02*
X1265Y463D01*
X1307Y463D02*
X1311Y463D01*
X1323Y463D02*
X1336Y463D01*
X1346Y463D02*
X1352Y463D01*
X1459Y463D02*
X1465Y463D01*
X1507Y463D02*
X1511Y463D01*
X1523Y463D02*
X1536Y463D01*
X1546Y463D02*
X1552Y463D01*
X1659Y463D02*
X1665Y463D01*
X1894Y463D02*
X1897Y463D01*
X507Y462D02*
X510Y462D01*
X522Y462D02*
X528Y462D01*
X532Y462D02*
X537Y462D01*
X547Y462D02*
X552Y462D01*
X658Y462D02*
X665Y462D01*
X707Y462D02*
X710Y462D01*
X722Y462D02*
X728Y462D01*
X732Y462D02*
X737Y462D01*
X747Y462D02*
X752Y462D01*
X858Y462D02*
X865Y462D01*
X907Y462D02*
X910Y462D01*
X922Y462D02*
X928Y462D01*
X932Y462D02*
X937Y462D01*
X946Y462D02*
X952Y462D01*
X1058Y462D02*
X1065Y462D01*
X1107Y462D02*
X1110Y462D01*
X1122Y462D02*
X1128Y462D01*
X1132Y462D02*
X1137Y462D01*
X1146Y462D02*
X1152Y462D01*
X1258Y462D02*
X1265Y462D01*
X1307Y462D02*
X1310Y462D01*
X1322Y462D02*
X1328Y462D01*
X1332Y462D02*
X1337Y462D01*
X1346Y462D02*
X1352Y462D01*
X1458Y462D02*
X1465Y462D01*
X1507Y462D02*
X1510Y462D01*
X1522Y462D02*
X1528Y462D01*
X1532Y462D02*
X1537Y462D01*
X1546Y462D02*
X1552Y462D01*
X1658Y462D02*
X1665Y462D01*
X507Y461D02*
X510Y461D01*
X522Y461D02*
X526Y461D01*
X534Y461D02*
X538Y461D01*
X547Y461D02*
X552Y461D01*
X658Y461D02*
X664Y461D01*
X707Y461D02*
X710Y461D01*
X722Y461D02*
X726Y461D01*
X734Y461D02*
X738Y461D01*
X747Y461D02*
X752Y461D01*
X858Y461D02*
X864Y461D01*
X907Y461D02*
X910Y461D01*
X922Y461D02*
X926Y461D01*
X934Y461D02*
X938Y461D01*
X946Y461D02*
X952Y461D01*
X1058Y461D02*
X1064Y461D01*
X1107Y461D02*
X1110Y461D01*
X1122Y461D02*
X1126Y461D01*
X1134Y461D02*
X1138Y461D01*
X1146Y461D02*
X1152Y461D01*
X1258Y461D02*
X1264Y461D01*
X1307Y461D02*
X1310Y461D01*
X1322Y461D02*
X1326Y461D01*
X1334Y461D02*
X1337Y461D01*
X1346Y461D02*
X1352Y461D01*
X1458Y461D02*
X1464Y461D01*
X1507Y461D02*
X1510Y461D01*
X1522Y461D02*
X1526Y461D01*
X1534Y461D02*
X1537Y461D01*
X1546Y461D02*
X1552Y461D01*
X1657Y461D02*
X1664Y461D01*
X507Y460D02*
X510Y460D01*
X522Y460D02*
X525Y460D01*
X535Y460D02*
X538Y460D01*
X547Y460D02*
X552Y460D01*
X657Y460D02*
X663Y460D01*
X707Y460D02*
X710Y460D01*
X722Y460D02*
X725Y460D01*
X735Y460D02*
X738Y460D01*
X747Y460D02*
X752Y460D01*
X857Y460D02*
X863Y460D01*
X906Y460D02*
X909Y460D01*
X922Y460D02*
X925Y460D01*
X935Y460D02*
X938Y460D01*
X946Y460D02*
X952Y460D01*
X1057Y460D02*
X1063Y460D01*
X1106Y460D02*
X1109Y460D01*
X1122Y460D02*
X1125Y460D01*
X1135Y460D02*
X1138Y460D01*
X1146Y460D02*
X1152Y460D01*
X1257Y460D02*
X1263Y460D01*
X1306Y460D02*
X1309Y460D01*
X1322Y460D02*
X1325Y460D01*
X1335Y460D02*
X1338Y460D01*
X1346Y460D02*
X1352Y460D01*
X1457Y460D02*
X1463Y460D01*
X1506Y460D02*
X1509Y460D01*
X1522Y460D02*
X1525Y460D01*
X1535Y460D02*
X1538Y460D01*
X1546Y460D02*
X1552Y460D01*
X1657Y460D02*
X1663Y460D01*
X506Y459D02*
X509Y459D01*
X521Y459D02*
X525Y459D01*
X535Y459D02*
X538Y459D01*
X547Y459D02*
X552Y459D01*
X656Y459D02*
X663Y459D01*
X706Y459D02*
X709Y459D01*
X721Y459D02*
X725Y459D01*
X735Y459D02*
X738Y459D01*
X747Y459D02*
X752Y459D01*
X856Y459D02*
X863Y459D01*
X906Y459D02*
X909Y459D01*
X921Y459D02*
X925Y459D01*
X935Y459D02*
X938Y459D01*
X946Y459D02*
X952Y459D01*
X1056Y459D02*
X1063Y459D01*
X1106Y459D02*
X1109Y459D01*
X1121Y459D02*
X1125Y459D01*
X1135Y459D02*
X1138Y459D01*
X1146Y459D02*
X1152Y459D01*
X1256Y459D02*
X1263Y459D01*
X1306Y459D02*
X1309Y459D01*
X1321Y459D02*
X1325Y459D01*
X1335Y459D02*
X1338Y459D01*
X1346Y459D02*
X1352Y459D01*
X1456Y459D02*
X1463Y459D01*
X1506Y459D02*
X1509Y459D01*
X1521Y459D02*
X1525Y459D01*
X1535Y459D02*
X1538Y459D01*
X1546Y459D02*
X1552Y459D01*
X1656Y459D02*
X1663Y459D01*
X506Y458D02*
X509Y458D01*
X521Y458D02*
X525Y458D01*
X536Y458D02*
X538Y458D01*
X547Y458D02*
X552Y458D01*
X655Y458D02*
X662Y458D01*
X706Y458D02*
X709Y458D01*
X721Y458D02*
X724Y458D01*
X736Y458D02*
X738Y458D01*
X747Y458D02*
X752Y458D01*
X855Y458D02*
X862Y458D01*
X906Y458D02*
X909Y458D01*
X921Y458D02*
X924Y458D01*
X936Y458D02*
X938Y458D01*
X946Y458D02*
X952Y458D01*
X1055Y458D02*
X1062Y458D01*
X1106Y458D02*
X1109Y458D01*
X1121Y458D02*
X1124Y458D01*
X1136Y458D02*
X1138Y458D01*
X1146Y458D02*
X1152Y458D01*
X1255Y458D02*
X1262Y458D01*
X1306Y458D02*
X1309Y458D01*
X1321Y458D02*
X1324Y458D01*
X1336Y458D02*
X1338Y458D01*
X1346Y458D02*
X1352Y458D01*
X1455Y458D02*
X1462Y458D01*
X1506Y458D02*
X1509Y458D01*
X1521Y458D02*
X1524Y458D01*
X1536Y458D02*
X1538Y458D01*
X1546Y458D02*
X1552Y458D01*
X1655Y458D02*
X1662Y458D01*
X506Y457D02*
X509Y457D01*
X521Y457D02*
X524Y457D01*
X536Y457D02*
X539Y457D01*
X547Y457D02*
X552Y457D01*
X654Y457D02*
X661Y457D01*
X706Y457D02*
X709Y457D01*
X721Y457D02*
X724Y457D01*
X736Y457D02*
X739Y457D01*
X747Y457D02*
X752Y457D01*
X854Y457D02*
X861Y457D01*
X906Y457D02*
X909Y457D01*
X921Y457D02*
X924Y457D01*
X936Y457D02*
X939Y457D01*
X946Y457D02*
X952Y457D01*
X1054Y457D02*
X1061Y457D01*
X1106Y457D02*
X1109Y457D01*
X1121Y457D02*
X1124Y457D01*
X1136Y457D02*
X1138Y457D01*
X1146Y457D02*
X1152Y457D01*
X1254Y457D02*
X1261Y457D01*
X1306Y457D02*
X1309Y457D01*
X1321Y457D02*
X1324Y457D01*
X1336Y457D02*
X1338Y457D01*
X1346Y457D02*
X1352Y457D01*
X1454Y457D02*
X1461Y457D01*
X1506Y457D02*
X1509Y457D01*
X1521Y457D02*
X1524Y457D01*
X1536Y457D02*
X1538Y457D01*
X1546Y457D02*
X1552Y457D01*
X1654Y457D02*
X1661Y457D01*
X506Y456D02*
X509Y456D01*
X521Y456D02*
X524Y456D01*
X536Y456D02*
X539Y456D01*
X547Y456D02*
X552Y456D01*
X654Y456D02*
X661Y456D01*
X706Y456D02*
X709Y456D01*
X721Y456D02*
X724Y456D01*
X736Y456D02*
X739Y456D01*
X747Y456D02*
X752Y456D01*
X853Y456D02*
X861Y456D01*
X906Y456D02*
X909Y456D01*
X921Y456D02*
X924Y456D01*
X936Y456D02*
X939Y456D01*
X947Y456D02*
X952Y456D01*
X1053Y456D02*
X1060Y456D01*
X1106Y456D02*
X1109Y456D01*
X1121Y456D02*
X1124Y456D01*
X1136Y456D02*
X1139Y456D01*
X1146Y456D02*
X1152Y456D01*
X1253Y456D02*
X1260Y456D01*
X1306Y456D02*
X1309Y456D01*
X1321Y456D02*
X1324Y456D01*
X1336Y456D02*
X1339Y456D01*
X1346Y456D02*
X1352Y456D01*
X1453Y456D02*
X1460Y456D01*
X1506Y456D02*
X1509Y456D01*
X1520Y456D02*
X1524Y456D01*
X1536Y456D02*
X1539Y456D01*
X1546Y456D02*
X1552Y456D01*
X1653Y456D02*
X1660Y456D01*
X506Y455D02*
X509Y455D01*
X520Y455D02*
X524Y455D01*
X536Y455D02*
X539Y455D01*
X547Y455D02*
X552Y455D01*
X653Y455D02*
X660Y455D01*
X706Y455D02*
X709Y455D01*
X720Y455D02*
X724Y455D01*
X736Y455D02*
X739Y455D01*
X747Y455D02*
X752Y455D01*
X853Y455D02*
X860Y455D01*
X906Y455D02*
X909Y455D01*
X920Y455D02*
X924Y455D01*
X936Y455D02*
X939Y455D01*
X947Y455D02*
X952Y455D01*
X1053Y455D02*
X1060Y455D01*
X1106Y455D02*
X1109Y455D01*
X1120Y455D02*
X1124Y455D01*
X1136Y455D02*
X1139Y455D01*
X1146Y455D02*
X1152Y455D01*
X1253Y455D02*
X1260Y455D01*
X1306Y455D02*
X1309Y455D01*
X1320Y455D02*
X1324Y455D01*
X1336Y455D02*
X1339Y455D01*
X1346Y455D02*
X1352Y455D01*
X1453Y455D02*
X1460Y455D01*
X1506Y455D02*
X1509Y455D01*
X1520Y455D02*
X1524Y455D01*
X1536Y455D02*
X1539Y455D01*
X1546Y455D02*
X1552Y455D01*
X1653Y455D02*
X1660Y455D01*
X506Y454D02*
X509Y454D01*
X520Y454D02*
X523Y454D01*
X536Y454D02*
X539Y454D01*
X547Y454D02*
X552Y454D01*
X652Y454D02*
X659Y454D01*
X706Y454D02*
X709Y454D01*
X720Y454D02*
X723Y454D01*
X736Y454D02*
X739Y454D01*
X747Y454D02*
X752Y454D01*
X852Y454D02*
X859Y454D01*
X906Y454D02*
X909Y454D01*
X920Y454D02*
X923Y454D01*
X936Y454D02*
X939Y454D01*
X947Y454D02*
X952Y454D01*
X1052Y454D02*
X1059Y454D01*
X1106Y454D02*
X1109Y454D01*
X1120Y454D02*
X1123Y454D01*
X1136Y454D02*
X1139Y454D01*
X1146Y454D02*
X1152Y454D01*
X1252Y454D02*
X1259Y454D01*
X1306Y454D02*
X1309Y454D01*
X1320Y454D02*
X1323Y454D01*
X1336Y454D02*
X1338Y454D01*
X1346Y454D02*
X1352Y454D01*
X1452Y454D02*
X1459Y454D01*
X1506Y454D02*
X1509Y454D01*
X1520Y454D02*
X1523Y454D01*
X1536Y454D02*
X1538Y454D01*
X1546Y454D02*
X1552Y454D01*
X1652Y454D02*
X1659Y454D01*
X506Y453D02*
X509Y453D01*
X520Y453D02*
X523Y453D01*
X536Y453D02*
X539Y453D01*
X547Y453D02*
X552Y453D01*
X651Y453D02*
X658Y453D01*
X706Y453D02*
X709Y453D01*
X720Y453D02*
X723Y453D01*
X736Y453D02*
X739Y453D01*
X747Y453D02*
X752Y453D01*
X851Y453D02*
X858Y453D01*
X906Y453D02*
X909Y453D01*
X920Y453D02*
X923Y453D01*
X936Y453D02*
X938Y453D01*
X947Y453D02*
X952Y453D01*
X1051Y453D02*
X1058Y453D01*
X1106Y453D02*
X1109Y453D01*
X1120Y453D02*
X1123Y453D01*
X1136Y453D02*
X1138Y453D01*
X1146Y453D02*
X1152Y453D01*
X1251Y453D02*
X1258Y453D01*
X1306Y453D02*
X1309Y453D01*
X1320Y453D02*
X1323Y453D01*
X1336Y453D02*
X1338Y453D01*
X1346Y453D02*
X1352Y453D01*
X1451Y453D02*
X1458Y453D01*
X1506Y453D02*
X1509Y453D01*
X1520Y453D02*
X1523Y453D01*
X1536Y453D02*
X1538Y453D01*
X1546Y453D02*
X1552Y453D01*
X1651Y453D02*
X1658Y453D01*
X507Y452D02*
X510Y452D01*
X519Y452D02*
X523Y452D01*
X535Y452D02*
X538Y452D01*
X547Y452D02*
X552Y452D01*
X650Y452D02*
X657Y452D01*
X707Y452D02*
X710Y452D01*
X719Y452D02*
X723Y452D01*
X735Y452D02*
X738Y452D01*
X747Y452D02*
X752Y452D01*
X850Y452D02*
X857Y452D01*
X907Y452D02*
X910Y452D01*
X919Y452D02*
X923Y452D01*
X935Y452D02*
X938Y452D01*
X947Y452D02*
X952Y452D01*
X1050Y452D02*
X1057Y452D01*
X1107Y452D02*
X1110Y452D01*
X1119Y452D02*
X1123Y452D01*
X1135Y452D02*
X1138Y452D01*
X1146Y452D02*
X1152Y452D01*
X1250Y452D02*
X1257Y452D01*
X1307Y452D02*
X1310Y452D01*
X1319Y452D02*
X1323Y452D01*
X1335Y452D02*
X1338Y452D01*
X1346Y452D02*
X1352Y452D01*
X1450Y452D02*
X1457Y452D01*
X1507Y452D02*
X1510Y452D01*
X1519Y452D02*
X1523Y452D01*
X1535Y452D02*
X1538Y452D01*
X1546Y452D02*
X1552Y452D01*
X1650Y452D02*
X1657Y452D01*
X507Y451D02*
X511Y451D01*
X519Y451D02*
X523Y451D01*
X535Y451D02*
X538Y451D01*
X547Y451D02*
X552Y451D01*
X649Y451D02*
X656Y451D01*
X707Y451D02*
X711Y451D01*
X719Y451D02*
X723Y451D01*
X735Y451D02*
X738Y451D01*
X747Y451D02*
X752Y451D01*
X849Y451D02*
X856Y451D01*
X907Y451D02*
X911Y451D01*
X918Y451D02*
X923Y451D01*
X935Y451D02*
X938Y451D01*
X947Y451D02*
X952Y451D01*
X1049Y451D02*
X1056Y451D01*
X1107Y451D02*
X1111Y451D01*
X1118Y451D02*
X1123Y451D01*
X1135Y451D02*
X1138Y451D01*
X1146Y451D02*
X1152Y451D01*
X1249Y451D02*
X1256Y451D01*
X1307Y451D02*
X1311Y451D01*
X1318Y451D02*
X1322Y451D01*
X1335Y451D02*
X1338Y451D01*
X1346Y451D02*
X1352Y451D01*
X1449Y451D02*
X1456Y451D01*
X1507Y451D02*
X1511Y451D01*
X1518Y451D02*
X1522Y451D01*
X1535Y451D02*
X1538Y451D01*
X1546Y451D02*
X1552Y451D01*
X1649Y451D02*
X1656Y451D01*
X508Y450D02*
X512Y450D01*
X517Y450D02*
X522Y450D01*
X535Y450D02*
X538Y450D01*
X547Y450D02*
X552Y450D01*
X648Y450D02*
X655Y450D01*
X708Y450D02*
X712Y450D01*
X717Y450D02*
X722Y450D01*
X735Y450D02*
X738Y450D01*
X747Y450D02*
X752Y450D01*
X848Y450D02*
X855Y450D01*
X908Y450D02*
X912Y450D01*
X917Y450D02*
X922Y450D01*
X935Y450D02*
X938Y450D01*
X947Y450D02*
X952Y450D01*
X1048Y450D02*
X1055Y450D01*
X1108Y450D02*
X1112Y450D01*
X1117Y450D02*
X1122Y450D01*
X1135Y450D02*
X1138Y450D01*
X1146Y450D02*
X1152Y450D01*
X1248Y450D02*
X1255Y450D01*
X1307Y450D02*
X1312Y450D01*
X1317Y450D02*
X1322Y450D01*
X1335Y450D02*
X1338Y450D01*
X1346Y450D02*
X1352Y450D01*
X1448Y450D02*
X1455Y450D01*
X1507Y450D02*
X1512Y450D01*
X1517Y450D02*
X1522Y450D01*
X1535Y450D02*
X1538Y450D01*
X1546Y450D02*
X1552Y450D01*
X1647Y450D02*
X1655Y450D01*
X508Y449D02*
X522Y449D01*
X534Y449D02*
X538Y449D01*
X547Y449D02*
X552Y449D01*
X646Y449D02*
X654Y449D01*
X708Y449D02*
X722Y449D01*
X734Y449D02*
X738Y449D01*
X747Y449D02*
X752Y449D01*
X846Y449D02*
X854Y449D01*
X908Y449D02*
X922Y449D01*
X934Y449D02*
X938Y449D01*
X947Y449D02*
X952Y449D01*
X1046Y449D02*
X1054Y449D01*
X1108Y449D02*
X1122Y449D01*
X1134Y449D02*
X1138Y449D01*
X1146Y449D02*
X1152Y449D01*
X1246Y449D02*
X1254Y449D01*
X1308Y449D02*
X1322Y449D01*
X1334Y449D02*
X1338Y449D01*
X1346Y449D02*
X1352Y449D01*
X1446Y449D02*
X1454Y449D01*
X1508Y449D02*
X1522Y449D01*
X1534Y449D02*
X1538Y449D01*
X1546Y449D02*
X1552Y449D01*
X1646Y449D02*
X1654Y449D01*
X509Y448D02*
X521Y448D01*
X534Y448D02*
X537Y448D01*
X546Y448D02*
X553Y448D01*
X645Y448D02*
X653Y448D01*
X709Y448D02*
X721Y448D01*
X734Y448D02*
X737Y448D01*
X746Y448D02*
X753Y448D01*
X845Y448D02*
X853Y448D01*
X909Y448D02*
X921Y448D01*
X934Y448D02*
X937Y448D01*
X946Y448D02*
X953Y448D01*
X1045Y448D02*
X1053Y448D01*
X1109Y448D02*
X1121Y448D01*
X1134Y448D02*
X1137Y448D01*
X1146Y448D02*
X1153Y448D01*
X1245Y448D02*
X1253Y448D01*
X1309Y448D02*
X1321Y448D01*
X1334Y448D02*
X1337Y448D01*
X1346Y448D02*
X1353Y448D01*
X1445Y448D02*
X1453Y448D01*
X1509Y448D02*
X1521Y448D01*
X1534Y448D02*
X1537Y448D01*
X1546Y448D02*
X1553Y448D01*
X1645Y448D02*
X1653Y448D01*
X510Y447D02*
X520Y447D01*
X533Y447D02*
X537Y447D01*
X546Y447D02*
X554Y447D01*
X644Y447D02*
X652Y447D01*
X710Y447D02*
X720Y447D01*
X733Y447D02*
X737Y447D01*
X746Y447D02*
X754Y447D01*
X844Y447D02*
X852Y447D01*
X910Y447D02*
X920Y447D01*
X933Y447D02*
X937Y447D01*
X946Y447D02*
X954Y447D01*
X1044Y447D02*
X1052Y447D01*
X1110Y447D02*
X1120Y447D01*
X1133Y447D02*
X1137Y447D01*
X1146Y447D02*
X1154Y447D01*
X1244Y447D02*
X1252Y447D01*
X1310Y447D02*
X1320Y447D01*
X1333Y447D02*
X1337Y447D01*
X1346Y447D02*
X1354Y447D01*
X1444Y447D02*
X1452Y447D01*
X1510Y447D02*
X1520Y447D01*
X1533Y447D02*
X1537Y447D01*
X1546Y447D02*
X1554Y447D01*
X1644Y447D02*
X1652Y447D01*
X512Y446D02*
X519Y446D01*
X532Y446D02*
X537Y446D01*
X547Y446D02*
X555Y446D01*
X643Y446D02*
X651Y446D01*
X712Y446D02*
X719Y446D01*
X732Y446D02*
X737Y446D01*
X747Y446D02*
X755Y446D01*
X843Y446D02*
X851Y446D01*
X911Y446D02*
X918Y446D01*
X932Y446D02*
X937Y446D01*
X947Y446D02*
X955Y446D01*
X1043Y446D02*
X1051Y446D01*
X1111Y446D02*
X1118Y446D01*
X1132Y446D02*
X1137Y446D01*
X1147Y446D02*
X1155Y446D01*
X1243Y446D02*
X1251Y446D01*
X1311Y446D02*
X1318Y446D01*
X1332Y446D02*
X1337Y446D01*
X1347Y446D02*
X1355Y446D01*
X1443Y446D02*
X1451Y446D01*
X1511Y446D02*
X1518Y446D01*
X1532Y446D02*
X1536Y446D01*
X1547Y446D02*
X1555Y446D01*
X1643Y446D02*
X1651Y446D01*
X532Y445D02*
X536Y445D01*
X548Y445D02*
X557Y445D01*
X641Y445D02*
X650Y445D01*
X732Y445D02*
X736Y445D01*
X748Y445D02*
X757Y445D01*
X841Y445D02*
X850Y445D01*
X932Y445D02*
X936Y445D01*
X948Y445D02*
X957Y445D01*
X1041Y445D02*
X1050Y445D01*
X1132Y445D02*
X1136Y445D01*
X1148Y445D02*
X1157Y445D01*
X1241Y445D02*
X1250Y445D01*
X1332Y445D02*
X1336Y445D01*
X1348Y445D02*
X1357Y445D01*
X1441Y445D02*
X1450Y445D01*
X1532Y445D02*
X1536Y445D01*
X1548Y445D02*
X1557Y445D01*
X1641Y445D02*
X1650Y445D01*
X549Y444D02*
X558Y444D01*
X640Y444D02*
X649Y444D01*
X749Y444D02*
X758Y444D01*
X840Y444D02*
X849Y444D01*
X949Y444D02*
X958Y444D01*
X1040Y444D02*
X1049Y444D01*
X1149Y444D02*
X1158Y444D01*
X1240Y444D02*
X1249Y444D01*
X1349Y444D02*
X1358Y444D01*
X1440Y444D02*
X1449Y444D01*
X1549Y444D02*
X1558Y444D01*
X1640Y444D02*
X1649Y444D01*
X550Y443D02*
X560Y443D01*
X638Y443D02*
X648Y443D01*
X750Y443D02*
X760Y443D01*
X838Y443D02*
X848Y443D01*
X950Y443D02*
X960Y443D01*
X1038Y443D02*
X1048Y443D01*
X1150Y443D02*
X1160Y443D01*
X1238Y443D02*
X1248Y443D01*
X1350Y443D02*
X1360Y443D01*
X1438Y443D02*
X1448Y443D01*
X1550Y443D02*
X1559Y443D01*
X1638Y443D02*
X1648Y443D01*
X551Y442D02*
X561Y442D01*
X637Y442D02*
X647Y442D01*
X751Y442D02*
X761Y442D01*
X837Y442D02*
X847Y442D01*
X951Y442D02*
X961Y442D01*
X1037Y442D02*
X1047Y442D01*
X1151Y442D02*
X1161Y442D01*
X1237Y442D02*
X1247Y442D01*
X1351Y442D02*
X1361Y442D01*
X1437Y442D02*
X1447Y442D01*
X1551Y442D02*
X1561Y442D01*
X1637Y442D02*
X1647Y442D01*
X517Y441D02*
X527Y441D01*
X553Y441D02*
X563Y441D01*
X635Y441D02*
X645Y441D01*
X717Y441D02*
X727Y441D01*
X753Y441D02*
X763Y441D01*
X835Y441D02*
X845Y441D01*
X917Y441D02*
X927Y441D01*
X952Y441D02*
X963Y441D01*
X1035Y441D02*
X1045Y441D01*
X1117Y441D02*
X1127Y441D01*
X1152Y441D02*
X1163Y441D01*
X1235Y441D02*
X1245Y441D01*
X1317Y441D02*
X1327Y441D01*
X1352Y441D02*
X1363Y441D01*
X1435Y441D02*
X1445Y441D01*
X1517Y441D02*
X1527Y441D01*
X1552Y441D02*
X1563Y441D01*
X1635Y441D02*
X1645Y441D01*
X515Y440D02*
X530Y440D01*
X554Y440D02*
X565Y440D01*
X633Y440D02*
X644Y440D01*
X715Y440D02*
X730Y440D01*
X754Y440D02*
X765Y440D01*
X833Y440D02*
X844Y440D01*
X915Y440D02*
X930Y440D01*
X954Y440D02*
X965Y440D01*
X1033Y440D02*
X1044Y440D01*
X1115Y440D02*
X1130Y440D01*
X1154Y440D02*
X1165Y440D01*
X1233Y440D02*
X1244Y440D01*
X1315Y440D02*
X1330Y440D01*
X1354Y440D02*
X1365Y440D01*
X1433Y440D02*
X1444Y440D01*
X1515Y440D02*
X1530Y440D01*
X1554Y440D02*
X1565Y440D01*
X1633Y440D02*
X1644Y440D01*
X513Y439D02*
X531Y439D01*
X555Y439D02*
X566Y439D01*
X632Y439D02*
X643Y439D01*
X713Y439D02*
X731Y439D01*
X755Y439D02*
X766Y439D01*
X832Y439D02*
X843Y439D01*
X913Y439D02*
X931Y439D01*
X955Y439D02*
X966Y439D01*
X1031Y439D02*
X1043Y439D01*
X1113Y439D02*
X1131Y439D01*
X1155Y439D02*
X1166Y439D01*
X1231Y439D02*
X1243Y439D01*
X1313Y439D02*
X1331Y439D01*
X1355Y439D02*
X1366Y439D01*
X1431Y439D02*
X1443Y439D01*
X1513Y439D02*
X1531Y439D01*
X1555Y439D02*
X1566Y439D01*
X1631Y439D02*
X1642Y439D01*
X512Y438D02*
X533Y438D01*
X557Y438D02*
X569Y438D01*
X629Y438D02*
X641Y438D01*
X712Y438D02*
X733Y438D01*
X757Y438D02*
X769Y438D01*
X829Y438D02*
X841Y438D01*
X912Y438D02*
X933Y438D01*
X957Y438D02*
X969Y438D01*
X1029Y438D02*
X1041Y438D01*
X1112Y438D02*
X1133Y438D01*
X1157Y438D02*
X1169Y438D01*
X1229Y438D02*
X1241Y438D01*
X1312Y438D02*
X1333Y438D01*
X1357Y438D02*
X1368Y438D01*
X1429Y438D02*
X1441Y438D01*
X1512Y438D02*
X1533Y438D01*
X1557Y438D02*
X1568Y438D01*
X1629Y438D02*
X1641Y438D01*
X511Y437D02*
X519Y437D01*
X526Y437D02*
X534Y437D01*
X558Y437D02*
X571Y437D01*
X627Y437D02*
X640Y437D01*
X711Y437D02*
X719Y437D01*
X726Y437D02*
X734Y437D01*
X758Y437D02*
X771Y437D01*
X827Y437D02*
X840Y437D01*
X911Y437D02*
X919Y437D01*
X926Y437D02*
X934Y437D01*
X958Y437D02*
X971Y437D01*
X1027Y437D02*
X1040Y437D01*
X1111Y437D02*
X1119Y437D01*
X1126Y437D02*
X1134Y437D01*
X1158Y437D02*
X1171Y437D01*
X1227Y437D02*
X1240Y437D01*
X1311Y437D02*
X1319Y437D01*
X1326Y437D02*
X1334Y437D01*
X1358Y437D02*
X1371Y437D01*
X1427Y437D02*
X1440Y437D01*
X1511Y437D02*
X1519Y437D01*
X1526Y437D02*
X1534Y437D01*
X1558Y437D02*
X1571Y437D01*
X1627Y437D02*
X1639Y437D01*
X510Y436D02*
X515Y436D01*
X529Y436D02*
X535Y436D01*
X560Y436D02*
X573Y436D01*
X625Y436D02*
X638Y436D01*
X710Y436D02*
X715Y436D01*
X729Y436D02*
X735Y436D01*
X760Y436D02*
X773Y436D01*
X825Y436D02*
X838Y436D01*
X910Y436D02*
X915Y436D01*
X929Y436D02*
X935Y436D01*
X960Y436D02*
X973Y436D01*
X1025Y436D02*
X1038Y436D01*
X1110Y436D02*
X1115Y436D01*
X1129Y436D02*
X1135Y436D01*
X1160Y436D02*
X1173Y436D01*
X1225Y436D02*
X1238Y436D01*
X1310Y436D02*
X1315Y436D01*
X1329Y436D02*
X1335Y436D01*
X1360Y436D02*
X1373Y436D01*
X1425Y436D02*
X1438Y436D01*
X1510Y436D02*
X1515Y436D01*
X1529Y436D02*
X1535Y436D01*
X1560Y436D02*
X1573Y436D01*
X1625Y436D02*
X1638Y436D01*
X509Y435D02*
X514Y435D01*
X531Y435D02*
X536Y435D01*
X562Y435D02*
X576Y435D01*
X622Y435D02*
X636Y435D01*
X709Y435D02*
X714Y435D01*
X731Y435D02*
X736Y435D01*
X762Y435D02*
X776Y435D01*
X822Y435D02*
X836Y435D01*
X909Y435D02*
X914Y435D01*
X931Y435D02*
X936Y435D01*
X962Y435D02*
X976Y435D01*
X1022Y435D02*
X1036Y435D01*
X1109Y435D02*
X1114Y435D01*
X1131Y435D02*
X1136Y435D01*
X1162Y435D02*
X1176Y435D01*
X1222Y435D02*
X1236Y435D01*
X1309Y435D02*
X1314Y435D01*
X1331Y435D02*
X1335Y435D01*
X1362Y435D02*
X1376Y435D01*
X1422Y435D02*
X1436Y435D01*
X1509Y435D02*
X1514Y435D01*
X1531Y435D02*
X1535Y435D01*
X1562Y435D02*
X1576Y435D01*
X1622Y435D02*
X1636Y435D01*
X509Y434D02*
X513Y434D01*
X532Y434D02*
X536Y434D01*
X564Y434D02*
X579Y434D01*
X619Y434D02*
X634Y434D01*
X709Y434D02*
X713Y434D01*
X732Y434D02*
X736Y434D01*
X764Y434D02*
X779Y434D01*
X819Y434D02*
X834Y434D01*
X909Y434D02*
X913Y434D01*
X932Y434D02*
X936Y434D01*
X964Y434D02*
X979Y434D01*
X1019Y434D02*
X1034Y434D01*
X1109Y434D02*
X1113Y434D01*
X1132Y434D02*
X1136Y434D01*
X1164Y434D02*
X1179Y434D01*
X1219Y434D02*
X1234Y434D01*
X1309Y434D02*
X1313Y434D01*
X1332Y434D02*
X1336Y434D01*
X1364Y434D02*
X1379Y434D01*
X1419Y434D02*
X1434Y434D01*
X1509Y434D02*
X1513Y434D01*
X1532Y434D02*
X1536Y434D01*
X1564Y434D02*
X1579Y434D01*
X1619Y434D02*
X1634Y434D01*
X508Y433D02*
X512Y433D01*
X533Y433D02*
X537Y433D01*
X566Y433D02*
X583Y433D01*
X614Y433D02*
X632Y433D01*
X708Y433D02*
X712Y433D01*
X733Y433D02*
X737Y433D01*
X766Y433D02*
X783Y433D01*
X814Y433D02*
X832Y433D01*
X908Y433D02*
X912Y433D01*
X933Y433D02*
X937Y433D01*
X966Y433D02*
X983Y433D01*
X1014Y433D02*
X1032Y433D01*
X1108Y433D02*
X1112Y433D01*
X1133Y433D02*
X1137Y433D01*
X1166Y433D02*
X1183Y433D01*
X1214Y433D02*
X1232Y433D01*
X1308Y433D02*
X1312Y433D01*
X1333Y433D02*
X1337Y433D01*
X1366Y433D02*
X1383Y433D01*
X1414Y433D02*
X1432Y433D01*
X1508Y433D02*
X1512Y433D01*
X1533Y433D02*
X1537Y433D01*
X1566Y433D02*
X1583Y433D01*
X1614Y433D02*
X1632Y433D01*
X508Y432D02*
X511Y432D01*
X534Y432D02*
X537Y432D01*
X568Y432D02*
X589Y432D01*
X609Y432D02*
X630Y432D01*
X708Y432D02*
X711Y432D01*
X734Y432D02*
X737Y432D01*
X768Y432D02*
X789Y432D01*
X809Y432D02*
X830Y432D01*
X908Y432D02*
X911Y432D01*
X934Y432D02*
X937Y432D01*
X968Y432D02*
X989Y432D01*
X1009Y432D02*
X1030Y432D01*
X1108Y432D02*
X1111Y432D01*
X1134Y432D02*
X1137Y432D01*
X1168Y432D02*
X1189Y432D01*
X1209Y432D02*
X1230Y432D01*
X1308Y432D02*
X1311Y432D01*
X1334Y432D02*
X1337Y432D01*
X1368Y432D02*
X1389Y432D01*
X1409Y432D02*
X1430Y432D01*
X1508Y432D02*
X1511Y432D01*
X1534Y432D02*
X1537Y432D01*
X1568Y432D02*
X1589Y432D01*
X1609Y432D02*
X1630Y432D01*
X508Y431D02*
X511Y431D01*
X534Y431D02*
X537Y431D01*
X570Y431D02*
X627Y431D01*
X707Y431D02*
X711Y431D01*
X734Y431D02*
X737Y431D01*
X770Y431D02*
X827Y431D01*
X907Y431D02*
X911Y431D01*
X934Y431D02*
X937Y431D01*
X970Y431D02*
X1027Y431D01*
X1107Y431D02*
X1111Y431D01*
X1134Y431D02*
X1137Y431D01*
X1170Y431D02*
X1227Y431D01*
X1307Y431D02*
X1311Y431D01*
X1334Y431D02*
X1337Y431D01*
X1370Y431D02*
X1427Y431D01*
X1507Y431D02*
X1511Y431D01*
X1534Y431D02*
X1537Y431D01*
X1570Y431D02*
X1627Y431D01*
X507Y430D02*
X510Y430D01*
X535Y430D02*
X538Y430D01*
X573Y430D02*
X625Y430D01*
X707Y430D02*
X710Y430D01*
X735Y430D02*
X738Y430D01*
X773Y430D02*
X825Y430D01*
X907Y430D02*
X910Y430D01*
X935Y430D02*
X938Y430D01*
X973Y430D02*
X1025Y430D01*
X1107Y430D02*
X1110Y430D01*
X1135Y430D02*
X1138Y430D01*
X1173Y430D02*
X1225Y430D01*
X1307Y430D02*
X1310Y430D01*
X1334Y430D02*
X1337Y430D01*
X1373Y430D02*
X1425Y430D01*
X1507Y430D02*
X1510Y430D01*
X1534Y430D02*
X1537Y430D01*
X1573Y430D02*
X1625Y430D01*
X507Y429D02*
X510Y429D01*
X535Y429D02*
X538Y429D01*
X576Y429D02*
X622Y429D01*
X707Y429D02*
X710Y429D01*
X735Y429D02*
X738Y429D01*
X776Y429D02*
X822Y429D01*
X907Y429D02*
X910Y429D01*
X935Y429D02*
X938Y429D01*
X976Y429D02*
X1022Y429D01*
X1107Y429D02*
X1110Y429D01*
X1135Y429D02*
X1138Y429D01*
X1176Y429D02*
X1222Y429D01*
X1307Y429D02*
X1310Y429D01*
X1335Y429D02*
X1338Y429D01*
X1376Y429D02*
X1422Y429D01*
X1507Y429D02*
X1510Y429D01*
X1535Y429D02*
X1538Y429D01*
X1576Y429D02*
X1622Y429D01*
X507Y428D02*
X510Y428D01*
X535Y428D02*
X538Y428D01*
X580Y428D02*
X618Y428D01*
X707Y428D02*
X710Y428D01*
X735Y428D02*
X738Y428D01*
X780Y428D02*
X818Y428D01*
X907Y428D02*
X910Y428D01*
X935Y428D02*
X938Y428D01*
X980Y428D02*
X1018Y428D01*
X1107Y428D02*
X1110Y428D01*
X1135Y428D02*
X1138Y428D01*
X1180Y428D02*
X1218Y428D01*
X1307Y428D02*
X1310Y428D01*
X1335Y428D02*
X1338Y428D01*
X1380Y428D02*
X1418Y428D01*
X1507Y428D02*
X1510Y428D01*
X1535Y428D02*
X1538Y428D01*
X1580Y428D02*
X1618Y428D01*
X507Y427D02*
X510Y427D01*
X535Y427D02*
X538Y427D01*
X584Y427D02*
X614Y427D01*
X707Y427D02*
X710Y427D01*
X735Y427D02*
X738Y427D01*
X784Y427D02*
X814Y427D01*
X907Y427D02*
X910Y427D01*
X935Y427D02*
X938Y427D01*
X984Y427D02*
X1014Y427D01*
X1107Y427D02*
X1110Y427D01*
X1135Y427D02*
X1138Y427D01*
X1184Y427D02*
X1214Y427D01*
X1307Y427D02*
X1310Y427D01*
X1335Y427D02*
X1338Y427D01*
X1384Y427D02*
X1414Y427D01*
X1507Y427D02*
X1510Y427D01*
X1535Y427D02*
X1538Y427D01*
X1584Y427D02*
X1614Y427D01*
X507Y426D02*
X510Y426D01*
X535Y426D02*
X538Y426D01*
X591Y426D02*
X607Y426D01*
X707Y426D02*
X710Y426D01*
X735Y426D02*
X738Y426D01*
X791Y426D02*
X807Y426D01*
X907Y426D02*
X909Y426D01*
X935Y426D02*
X938Y426D01*
X991Y426D02*
X1007Y426D01*
X1107Y426D02*
X1109Y426D01*
X1135Y426D02*
X1138Y426D01*
X1191Y426D02*
X1207Y426D01*
X1307Y426D02*
X1309Y426D01*
X1335Y426D02*
X1338Y426D01*
X1391Y426D02*
X1407Y426D01*
X1507Y426D02*
X1509Y426D01*
X1535Y426D02*
X1538Y426D01*
X1591Y426D02*
X1607Y426D01*
X59Y425D02*
X62Y425D01*
X507Y425D02*
X509Y425D01*
X535Y425D02*
X538Y425D01*
X707Y425D02*
X709Y425D01*
X735Y425D02*
X738Y425D01*
X907Y425D02*
X909Y425D01*
X935Y425D02*
X938Y425D01*
X1107Y425D02*
X1109Y425D01*
X1135Y425D02*
X1138Y425D01*
X1307Y425D02*
X1309Y425D01*
X1335Y425D02*
X1338Y425D01*
X1507Y425D02*
X1509Y425D01*
X1535Y425D02*
X1538Y425D01*
X57Y424D02*
X63Y424D01*
X507Y424D02*
X509Y424D01*
X535Y424D02*
X538Y424D01*
X707Y424D02*
X709Y424D01*
X735Y424D02*
X738Y424D01*
X907Y424D02*
X909Y424D01*
X935Y424D02*
X938Y424D01*
X1107Y424D02*
X1109Y424D01*
X1135Y424D02*
X1138Y424D01*
X1307Y424D02*
X1309Y424D01*
X1335Y424D02*
X1338Y424D01*
X1507Y424D02*
X1509Y424D01*
X1535Y424D02*
X1538Y424D01*
X56Y423D02*
X64Y423D01*
X507Y423D02*
X509Y423D01*
X535Y423D02*
X538Y423D01*
X707Y423D02*
X709Y423D01*
X735Y423D02*
X738Y423D01*
X907Y423D02*
X909Y423D01*
X935Y423D02*
X938Y423D01*
X1107Y423D02*
X1109Y423D01*
X1135Y423D02*
X1138Y423D01*
X1307Y423D02*
X1309Y423D01*
X1335Y423D02*
X1338Y423D01*
X1507Y423D02*
X1509Y423D01*
X1535Y423D02*
X1538Y423D01*
X56Y422D02*
X64Y422D01*
X507Y422D02*
X509Y422D01*
X535Y422D02*
X538Y422D01*
X707Y422D02*
X709Y422D01*
X735Y422D02*
X738Y422D01*
X907Y422D02*
X909Y422D01*
X935Y422D02*
X938Y422D01*
X1107Y422D02*
X1109Y422D01*
X1135Y422D02*
X1138Y422D01*
X1307Y422D02*
X1309Y422D01*
X1335Y422D02*
X1338Y422D01*
X1507Y422D02*
X1509Y422D01*
X1535Y422D02*
X1538Y422D01*
X56Y421D02*
X65Y421D01*
X507Y421D02*
X509Y421D01*
X535Y421D02*
X538Y421D01*
X707Y421D02*
X709Y421D01*
X735Y421D02*
X738Y421D01*
X907Y421D02*
X909Y421D01*
X935Y421D02*
X938Y421D01*
X1107Y421D02*
X1109Y421D01*
X1135Y421D02*
X1138Y421D01*
X1307Y421D02*
X1309Y421D01*
X1335Y421D02*
X1338Y421D01*
X1507Y421D02*
X1509Y421D01*
X1535Y421D02*
X1538Y421D01*
X56Y420D02*
X65Y420D01*
X507Y420D02*
X538Y420D01*
X707Y420D02*
X738Y420D01*
X907Y420D02*
X938Y420D01*
X1107Y420D02*
X1138Y420D01*
X1307Y420D02*
X1338Y420D01*
X1507Y420D02*
X1538Y420D01*
X56Y419D02*
X65Y419D01*
X507Y419D02*
X538Y419D01*
X707Y419D02*
X738Y419D01*
X907Y419D02*
X938Y419D01*
X1107Y419D02*
X1138Y419D01*
X1307Y419D02*
X1338Y419D01*
X1507Y419D02*
X1538Y419D01*
X56Y418D02*
X65Y418D01*
X507Y418D02*
X538Y418D01*
X707Y418D02*
X738Y418D01*
X907Y418D02*
X938Y418D01*
X1107Y418D02*
X1138Y418D01*
X1307Y418D02*
X1338Y418D01*
X1507Y418D02*
X1538Y418D01*
X56Y417D02*
X65Y417D01*
X507Y417D02*
X538Y417D01*
X707Y417D02*
X738Y417D01*
X907Y417D02*
X938Y417D01*
X1107Y417D02*
X1138Y417D01*
X1307Y417D02*
X1338Y417D01*
X1507Y417D02*
X1538Y417D01*
X56Y416D02*
X65Y416D01*
X56Y415D02*
X65Y415D01*
X56Y414D02*
X65Y414D01*
X56Y413D02*
X65Y413D01*
X56Y412D02*
X65Y412D01*
X56Y411D02*
X65Y411D01*
X56Y410D02*
X65Y410D01*
X56Y409D02*
X65Y409D01*
X56Y408D02*
X65Y408D01*
X56Y407D02*
X65Y407D01*
X55Y406D02*
X65Y406D01*
X38Y405D02*
X82Y405D01*
X37Y404D02*
X83Y404D01*
X36Y403D02*
X84Y403D01*
X36Y402D02*
X84Y402D01*
X36Y401D02*
X85Y401D01*
X36Y400D02*
X84Y400D01*
X36Y399D02*
X84Y399D01*
X37Y398D02*
X84Y398D01*
X37Y397D02*
X83Y397D01*
X39Y396D02*
X81Y396D01*
X56Y395D02*
X65Y395D01*
X56Y394D02*
X65Y394D01*
X56Y393D02*
X65Y393D01*
X56Y392D02*
X65Y392D01*
X56Y391D02*
X65Y391D01*
X56Y390D02*
X65Y390D01*
X56Y389D02*
X65Y389D01*
X56Y388D02*
X65Y388D01*
X56Y387D02*
X65Y387D01*
X56Y386D02*
X65Y386D01*
X56Y385D02*
X65Y385D01*
X56Y384D02*
X65Y384D01*
X56Y383D02*
X65Y383D01*
X56Y382D02*
X65Y382D01*
X56Y381D02*
X65Y381D01*
X56Y380D02*
X65Y380D01*
X56Y379D02*
X64Y379D01*
X57Y378D02*
X64Y378D01*
X58Y377D02*
X63Y377D01*
X60Y376D02*
X61Y376D01*
X457Y347D02*
X480Y347D01*
X510Y347D02*
X526Y347D01*
X457Y346D02*
X484Y346D01*
X508Y346D02*
X527Y346D01*
X457Y345D02*
X486Y345D01*
X507Y345D02*
X527Y345D01*
X457Y344D02*
X487Y344D01*
X507Y344D02*
X527Y344D01*
X457Y343D02*
X488Y343D01*
X507Y343D02*
X527Y343D01*
X457Y342D02*
X489Y342D01*
X507Y342D02*
X527Y342D01*
X457Y341D02*
X489Y341D01*
X508Y341D02*
X527Y341D01*
X457Y340D02*
X463Y340D01*
X481Y340D02*
X490Y340D01*
X520Y340D02*
X527Y340D01*
X457Y339D02*
X463Y339D01*
X483Y339D02*
X490Y339D01*
X521Y339D02*
X527Y339D01*
X457Y338D02*
X463Y338D01*
X484Y338D02*
X490Y338D01*
X521Y338D02*
X527Y338D01*
X457Y337D02*
X463Y337D01*
X484Y337D02*
X490Y337D01*
X521Y337D02*
X527Y337D01*
X457Y336D02*
X463Y336D01*
X484Y336D02*
X490Y336D01*
X521Y336D02*
X527Y336D01*
X457Y335D02*
X463Y335D01*
X484Y335D02*
X490Y335D01*
X521Y335D02*
X527Y335D01*
X1895Y335D02*
X1896Y335D01*
X1917Y335D02*
X1926Y335D01*
X457Y334D02*
X463Y334D01*
X484Y334D02*
X490Y334D01*
X521Y334D02*
X527Y334D01*
X1893Y334D02*
X1898Y334D01*
X1913Y334D02*
X1930Y334D01*
X457Y333D02*
X463Y333D01*
X484Y333D02*
X490Y333D01*
X521Y333D02*
X527Y333D01*
X1892Y333D02*
X1899Y333D01*
X1911Y333D02*
X1931Y333D01*
X457Y332D02*
X463Y332D01*
X484Y332D02*
X490Y332D01*
X521Y332D02*
X527Y332D01*
X1892Y332D02*
X1900Y332D01*
X1910Y332D02*
X1933Y332D01*
X457Y331D02*
X463Y331D01*
X484Y331D02*
X490Y331D01*
X521Y331D02*
X527Y331D01*
X1891Y331D02*
X1900Y331D01*
X1908Y331D02*
X1934Y331D01*
X457Y330D02*
X463Y330D01*
X483Y330D02*
X490Y330D01*
X521Y330D02*
X527Y330D01*
X1891Y330D02*
X1900Y330D01*
X1907Y330D02*
X1935Y330D01*
X457Y329D02*
X489Y329D01*
X521Y329D02*
X527Y329D01*
X1891Y329D02*
X1900Y329D01*
X1905Y329D02*
X1936Y329D01*
X457Y328D02*
X489Y328D01*
X521Y328D02*
X527Y328D01*
X1891Y328D02*
X1900Y328D01*
X1903Y328D02*
X1936Y328D01*
X457Y327D02*
X488Y327D01*
X521Y327D02*
X527Y327D01*
X1891Y327D02*
X1937Y327D01*
X457Y326D02*
X488Y326D01*
X521Y326D02*
X527Y326D01*
X1891Y326D02*
X1938Y326D01*
X457Y325D02*
X486Y325D01*
X521Y325D02*
X527Y325D01*
X1891Y325D02*
X1917Y325D01*
X1925Y325D02*
X1938Y325D01*
X457Y324D02*
X485Y324D01*
X521Y324D02*
X527Y324D01*
X1891Y324D02*
X1915Y324D01*
X1928Y324D02*
X1938Y324D01*
X457Y323D02*
X483Y323D01*
X521Y323D02*
X527Y323D01*
X1891Y323D02*
X1913Y323D01*
X1929Y323D02*
X1938Y323D01*
X457Y322D02*
X463Y322D01*
X469Y322D02*
X476Y322D01*
X521Y322D02*
X527Y322D01*
X1891Y322D02*
X1912Y322D01*
X1929Y322D02*
X1939Y322D01*
X457Y321D02*
X463Y321D01*
X469Y321D02*
X476Y321D01*
X521Y321D02*
X527Y321D01*
X1891Y321D02*
X1910Y321D01*
X1929Y321D02*
X1939Y321D01*
X457Y320D02*
X463Y320D01*
X470Y320D02*
X477Y320D01*
X521Y320D02*
X527Y320D01*
X1891Y320D02*
X1909Y320D01*
X1930Y320D02*
X1939Y320D01*
X457Y319D02*
X463Y319D01*
X470Y319D02*
X478Y319D01*
X521Y319D02*
X527Y319D01*
X1891Y319D02*
X1907Y319D01*
X1930Y319D02*
X1939Y319D01*
X457Y318D02*
X463Y318D01*
X471Y318D02*
X478Y318D01*
X521Y318D02*
X527Y318D01*
X1891Y318D02*
X1906Y318D01*
X1930Y318D02*
X1939Y318D01*
X457Y317D02*
X463Y317D01*
X472Y317D02*
X479Y317D01*
X521Y317D02*
X527Y317D01*
X536Y317D02*
X539Y317D01*
X1891Y317D02*
X1904Y317D01*
X1930Y317D02*
X1939Y317D01*
X457Y316D02*
X463Y316D01*
X472Y316D02*
X479Y316D01*
X521Y316D02*
X527Y316D01*
X535Y316D02*
X540Y316D01*
X1891Y316D02*
X1903Y316D01*
X1930Y316D02*
X1939Y316D01*
X457Y315D02*
X463Y315D01*
X473Y315D02*
X480Y315D01*
X521Y315D02*
X527Y315D01*
X535Y315D02*
X540Y315D01*
X1891Y315D02*
X1901Y315D01*
X1930Y315D02*
X1939Y315D01*
X457Y314D02*
X463Y314D01*
X473Y314D02*
X480Y314D01*
X521Y314D02*
X527Y314D01*
X534Y314D02*
X540Y314D01*
X1891Y314D02*
X1900Y314D01*
X1930Y314D02*
X1939Y314D01*
X457Y313D02*
X463Y313D01*
X474Y313D02*
X481Y313D01*
X521Y313D02*
X527Y313D01*
X534Y313D02*
X540Y313D01*
X1891Y313D02*
X1900Y313D01*
X1930Y313D02*
X1939Y313D01*
X457Y312D02*
X463Y312D01*
X474Y312D02*
X482Y312D01*
X521Y312D02*
X527Y312D01*
X534Y312D02*
X540Y312D01*
X1891Y312D02*
X1900Y312D01*
X1930Y312D02*
X1939Y312D01*
X457Y311D02*
X463Y311D01*
X475Y311D02*
X482Y311D01*
X521Y311D02*
X527Y311D01*
X534Y311D02*
X540Y311D01*
X1891Y311D02*
X1900Y311D01*
X1930Y311D02*
X1939Y311D01*
X457Y310D02*
X463Y310D01*
X476Y310D02*
X483Y310D01*
X521Y310D02*
X527Y310D01*
X534Y310D02*
X540Y310D01*
X1891Y310D02*
X1900Y310D01*
X1930Y310D02*
X1939Y310D01*
X457Y309D02*
X463Y309D01*
X476Y309D02*
X483Y309D01*
X521Y309D02*
X527Y309D01*
X534Y309D02*
X540Y309D01*
X1891Y309D02*
X1900Y309D01*
X1930Y309D02*
X1939Y309D01*
X457Y308D02*
X463Y308D01*
X477Y308D02*
X484Y308D01*
X521Y308D02*
X527Y308D01*
X534Y308D02*
X540Y308D01*
X1891Y308D02*
X1900Y308D01*
X1930Y308D02*
X1939Y308D01*
X457Y307D02*
X463Y307D01*
X477Y307D02*
X485Y307D01*
X521Y307D02*
X527Y307D01*
X534Y307D02*
X540Y307D01*
X1891Y307D02*
X1900Y307D01*
X1930Y307D02*
X1939Y307D01*
X457Y306D02*
X463Y306D01*
X478Y306D02*
X485Y306D01*
X521Y306D02*
X527Y306D01*
X534Y306D02*
X540Y306D01*
X1891Y306D02*
X1900Y306D01*
X1930Y306D02*
X1939Y306D01*
X457Y305D02*
X463Y305D01*
X479Y305D02*
X486Y305D01*
X521Y305D02*
X527Y305D01*
X534Y305D02*
X540Y305D01*
X1891Y305D02*
X1900Y305D01*
X1930Y305D02*
X1939Y305D01*
X457Y304D02*
X463Y304D01*
X479Y304D02*
X486Y304D01*
X521Y304D02*
X527Y304D01*
X534Y304D02*
X540Y304D01*
X1891Y304D02*
X1900Y304D01*
X1930Y304D02*
X1939Y304D01*
X457Y303D02*
X463Y303D01*
X480Y303D02*
X487Y303D01*
X521Y303D02*
X527Y303D01*
X534Y303D02*
X540Y303D01*
X1891Y303D02*
X1900Y303D01*
X1930Y303D02*
X1939Y303D01*
X457Y302D02*
X463Y302D01*
X480Y302D02*
X487Y302D01*
X521Y302D02*
X527Y302D01*
X534Y302D02*
X540Y302D01*
X1891Y302D02*
X1900Y302D01*
X1930Y302D02*
X1939Y302D01*
X457Y301D02*
X463Y301D01*
X481Y301D02*
X488Y301D01*
X521Y301D02*
X527Y301D01*
X534Y301D02*
X540Y301D01*
X1891Y301D02*
X1900Y301D01*
X1930Y301D02*
X1939Y301D01*
X457Y300D02*
X463Y300D01*
X481Y300D02*
X489Y300D01*
X520Y300D02*
X527Y300D01*
X534Y300D02*
X540Y300D01*
X1891Y300D02*
X1900Y300D01*
X1930Y300D02*
X1939Y300D01*
X457Y299D02*
X463Y299D01*
X482Y299D02*
X489Y299D01*
X508Y299D02*
X540Y299D01*
X1891Y299D02*
X1900Y299D01*
X1930Y299D02*
X1939Y299D01*
X457Y298D02*
X463Y298D01*
X483Y298D02*
X490Y298D01*
X507Y298D02*
X540Y298D01*
X1891Y298D02*
X1900Y298D01*
X1930Y298D02*
X1939Y298D01*
X457Y297D02*
X463Y297D01*
X483Y297D02*
X490Y297D01*
X507Y297D02*
X540Y297D01*
X1891Y297D02*
X1900Y297D01*
X1930Y297D02*
X1939Y297D01*
X457Y296D02*
X463Y296D01*
X484Y296D02*
X490Y296D01*
X507Y296D02*
X540Y296D01*
X1891Y296D02*
X1900Y296D01*
X1930Y296D02*
X1940Y296D01*
X457Y295D02*
X462Y295D01*
X484Y295D02*
X490Y295D01*
X507Y295D02*
X540Y295D01*
X1891Y295D02*
X1900Y295D01*
X1930Y295D02*
X1940Y295D01*
X458Y294D02*
X462Y294D01*
X485Y294D02*
X489Y294D01*
X508Y294D02*
X539Y294D01*
X1891Y294D02*
X1900Y294D01*
X1931Y294D02*
X1940Y294D01*
X460Y293D02*
X460Y293D01*
X487Y293D02*
X487Y293D01*
X510Y293D02*
X537Y293D01*
X1891Y293D02*
X1900Y293D01*
X1931Y293D02*
X1940Y293D01*
X1891Y292D02*
X1900Y292D01*
X1931Y292D02*
X1940Y292D01*
X1891Y291D02*
X1900Y291D01*
X1931Y291D02*
X1940Y291D01*
X1891Y290D02*
X1900Y290D01*
X1931Y290D02*
X1940Y290D01*
X1891Y289D02*
X1900Y289D01*
X1931Y289D02*
X1940Y289D01*
X1891Y288D02*
X1900Y288D01*
X1931Y288D02*
X1940Y288D01*
X1891Y287D02*
X1900Y287D01*
X1931Y287D02*
X1940Y287D01*
X1891Y286D02*
X1900Y286D01*
X1931Y286D02*
X1940Y286D01*
X1891Y285D02*
X1900Y285D01*
X1931Y285D02*
X1940Y285D01*
X1891Y284D02*
X1900Y284D01*
X1931Y284D02*
X1940Y284D01*
X1891Y283D02*
X1900Y283D01*
X1931Y283D02*
X1940Y283D01*
X1891Y282D02*
X1900Y282D01*
X1931Y282D02*
X1940Y282D01*
X1892Y281D02*
X1900Y281D01*
X1932Y281D02*
X1939Y281D01*
X1893Y280D02*
X1899Y280D01*
X1932Y280D02*
X1938Y280D01*
X1894Y279D02*
X1897Y279D01*
X1934Y279D02*
X1937Y279D01*
X954Y139D02*
X958Y139D01*
X1046Y139D02*
X1050Y139D01*
X1296Y139D02*
X1300Y139D01*
X1335Y139D02*
X1340Y139D01*
X1590Y139D02*
X1609Y139D01*
X1662Y139D02*
X1681Y139D01*
X953Y138D02*
X959Y138D01*
X1045Y138D02*
X1052Y138D01*
X1294Y138D02*
X1301Y138D01*
X1334Y138D02*
X1341Y138D01*
X1589Y138D02*
X1610Y138D01*
X1661Y138D02*
X1682Y138D01*
X952Y137D02*
X960Y137D01*
X1044Y137D02*
X1052Y137D01*
X1294Y137D02*
X1302Y137D01*
X1334Y137D02*
X1341Y137D01*
X1588Y137D02*
X1611Y137D01*
X1660Y137D02*
X1683Y137D01*
X952Y136D02*
X961Y136D01*
X1044Y136D02*
X1053Y136D01*
X1293Y136D02*
X1302Y136D01*
X1333Y136D02*
X1342Y136D01*
X1588Y136D02*
X1611Y136D01*
X1660Y136D02*
X1683Y136D01*
X865Y135D02*
X882Y135D01*
X951Y135D02*
X961Y135D01*
X1044Y135D02*
X1053Y135D01*
X1293Y135D02*
X1302Y135D01*
X1333Y135D02*
X1342Y135D01*
X1587Y135D02*
X1611Y135D01*
X1660Y135D02*
X1684Y135D01*
X861Y134D02*
X886Y134D01*
X951Y134D02*
X961Y134D01*
X1044Y134D02*
X1053Y134D01*
X1293Y134D02*
X1302Y134D01*
X1333Y134D02*
X1342Y134D01*
X1587Y134D02*
X1611Y134D01*
X1660Y134D02*
X1684Y134D01*
X858Y133D02*
X889Y133D01*
X951Y133D02*
X961Y133D01*
X1044Y133D02*
X1053Y133D01*
X1293Y133D02*
X1302Y133D01*
X1333Y133D02*
X1342Y133D01*
X1588Y133D02*
X1611Y133D01*
X1660Y133D02*
X1684Y133D01*
X856Y132D02*
X891Y132D01*
X951Y132D02*
X962Y132D01*
X1044Y132D02*
X1053Y132D01*
X1293Y132D02*
X1302Y132D01*
X1333Y132D02*
X1342Y132D01*
X1588Y132D02*
X1611Y132D01*
X1661Y132D02*
X1684Y132D01*
X854Y131D02*
X893Y131D01*
X950Y131D02*
X962Y131D01*
X1044Y131D02*
X1053Y131D01*
X1293Y131D02*
X1302Y131D01*
X1333Y131D02*
X1342Y131D01*
X1589Y131D02*
X1611Y131D01*
X1661Y131D02*
X1684Y131D01*
X852Y130D02*
X866Y130D01*
X881Y130D02*
X895Y130D01*
X950Y130D02*
X962Y130D01*
X1044Y130D02*
X1053Y130D01*
X1293Y130D02*
X1302Y130D01*
X1333Y130D02*
X1342Y130D01*
X1591Y130D02*
X1611Y130D01*
X1663Y130D02*
X1684Y130D01*
X851Y129D02*
X862Y129D01*
X885Y129D02*
X896Y129D01*
X950Y129D02*
X963Y129D01*
X1044Y129D02*
X1053Y129D01*
X1293Y129D02*
X1302Y129D01*
X1333Y129D02*
X1342Y129D01*
X1602Y129D02*
X1611Y129D01*
X1674Y129D02*
X1684Y129D01*
X849Y128D02*
X859Y128D01*
X888Y128D02*
X898Y128D01*
X949Y128D02*
X963Y128D01*
X1044Y128D02*
X1053Y128D01*
X1293Y128D02*
X1302Y128D01*
X1333Y128D02*
X1342Y128D01*
X1602Y128D02*
X1611Y128D01*
X1674Y128D02*
X1684Y128D01*
X848Y127D02*
X857Y127D01*
X890Y127D02*
X899Y127D01*
X949Y127D02*
X963Y127D01*
X1044Y127D02*
X1053Y127D01*
X1293Y127D02*
X1302Y127D01*
X1333Y127D02*
X1342Y127D01*
X1602Y127D02*
X1611Y127D01*
X1674Y127D02*
X1684Y127D01*
X847Y126D02*
X855Y126D01*
X892Y126D02*
X900Y126D01*
X949Y126D02*
X963Y126D01*
X1044Y126D02*
X1053Y126D01*
X1293Y126D02*
X1302Y126D01*
X1333Y126D02*
X1342Y126D01*
X1602Y126D02*
X1611Y126D01*
X1674Y126D02*
X1684Y126D01*
X846Y125D02*
X854Y125D01*
X894Y125D02*
X901Y125D01*
X948Y125D02*
X964Y125D01*
X1044Y125D02*
X1053Y125D01*
X1293Y125D02*
X1302Y125D01*
X1333Y125D02*
X1342Y125D01*
X1602Y125D02*
X1611Y125D01*
X1674Y125D02*
X1684Y125D01*
X845Y124D02*
X852Y124D01*
X895Y124D02*
X903Y124D01*
X948Y124D02*
X964Y124D01*
X1044Y124D02*
X1053Y124D01*
X1293Y124D02*
X1302Y124D01*
X1333Y124D02*
X1342Y124D01*
X1602Y124D02*
X1611Y124D01*
X1674Y124D02*
X1684Y124D01*
X844Y123D02*
X851Y123D01*
X896Y123D02*
X904Y123D01*
X948Y123D02*
X964Y123D01*
X1044Y123D02*
X1053Y123D01*
X1293Y123D02*
X1302Y123D01*
X1333Y123D02*
X1342Y123D01*
X1602Y123D02*
X1611Y123D01*
X1674Y123D02*
X1684Y123D01*
X843Y122D02*
X850Y122D01*
X898Y122D02*
X904Y122D01*
X948Y122D02*
X965Y122D01*
X1044Y122D02*
X1053Y122D01*
X1293Y122D02*
X1302Y122D01*
X1333Y122D02*
X1342Y122D01*
X1602Y122D02*
X1611Y122D01*
X1674Y122D02*
X1684Y122D01*
X842Y121D02*
X849Y121D01*
X899Y121D02*
X905Y121D01*
X947Y121D02*
X965Y121D01*
X1044Y121D02*
X1053Y121D01*
X1293Y121D02*
X1302Y121D01*
X1333Y121D02*
X1342Y121D01*
X1602Y121D02*
X1611Y121D01*
X1674Y121D02*
X1684Y121D01*
X841Y120D02*
X847Y120D01*
X900Y120D02*
X906Y120D01*
X947Y120D02*
X965Y120D01*
X1044Y120D02*
X1053Y120D01*
X1293Y120D02*
X1302Y120D01*
X1333Y120D02*
X1342Y120D01*
X1602Y120D02*
X1611Y120D01*
X1674Y120D02*
X1684Y120D01*
X840Y119D02*
X846Y119D01*
X901Y119D02*
X907Y119D01*
X947Y119D02*
X966Y119D01*
X1044Y119D02*
X1053Y119D01*
X1293Y119D02*
X1302Y119D01*
X1333Y119D02*
X1342Y119D01*
X1602Y119D02*
X1611Y119D01*
X1674Y119D02*
X1684Y119D01*
X839Y118D02*
X846Y118D01*
X902Y118D02*
X908Y118D01*
X946Y118D02*
X966Y118D01*
X1018Y118D02*
X1033Y118D01*
X1044Y118D02*
X1053Y118D01*
X1089Y118D02*
X1113Y118D01*
X1151Y118D02*
X1154Y118D01*
X1163Y118D02*
X1169Y118D01*
X1183Y118D02*
X1187Y118D01*
X1293Y118D02*
X1302Y118D01*
X1333Y118D02*
X1342Y118D01*
X1380Y118D02*
X1400Y118D01*
X1440Y118D02*
X1443Y118D01*
X1481Y118D02*
X1485Y118D01*
X1525Y118D02*
X1545Y118D01*
X1602Y118D02*
X1611Y118D01*
X1674Y118D02*
X1684Y118D01*
X839Y117D02*
X845Y117D01*
X870Y117D02*
X880Y117D01*
X903Y117D02*
X908Y117D01*
X946Y117D02*
X966Y117D01*
X1016Y117D02*
X1036Y117D01*
X1044Y117D02*
X1053Y117D01*
X1088Y117D02*
X1116Y117D01*
X1149Y117D02*
X1155Y117D01*
X1160Y117D02*
X1171Y117D01*
X1180Y117D02*
X1190Y117D01*
X1293Y117D02*
X1302Y117D01*
X1333Y117D02*
X1342Y117D01*
X1377Y117D02*
X1402Y117D01*
X1438Y117D02*
X1444Y117D01*
X1480Y117D02*
X1486Y117D01*
X1522Y117D02*
X1547Y117D01*
X1602Y117D02*
X1611Y117D01*
X1674Y117D02*
X1684Y117D01*
X838Y116D02*
X844Y116D01*
X867Y116D02*
X884Y116D01*
X903Y116D02*
X909Y116D01*
X946Y116D02*
X966Y116D01*
X1014Y116D02*
X1037Y116D01*
X1044Y116D02*
X1053Y116D01*
X1087Y116D02*
X1117Y116D01*
X1149Y116D02*
X1156Y116D01*
X1159Y116D02*
X1173Y116D01*
X1179Y116D02*
X1192Y116D01*
X1293Y116D02*
X1302Y116D01*
X1333Y116D02*
X1342Y116D01*
X1376Y116D02*
X1404Y116D01*
X1437Y116D02*
X1445Y116D01*
X1479Y116D02*
X1487Y116D01*
X1520Y116D02*
X1549Y116D01*
X1602Y116D02*
X1611Y116D01*
X1674Y116D02*
X1684Y116D01*
X837Y115D02*
X843Y115D01*
X865Y115D02*
X887Y115D01*
X904Y115D02*
X910Y115D01*
X946Y115D02*
X955Y115D01*
X957Y115D02*
X967Y115D01*
X1013Y115D02*
X1039Y115D01*
X1044Y115D02*
X1053Y115D01*
X1087Y115D02*
X1119Y115D01*
X1148Y115D02*
X1174Y115D01*
X1177Y115D02*
X1193Y115D01*
X1293Y115D02*
X1302Y115D01*
X1333Y115D02*
X1342Y115D01*
X1374Y115D02*
X1405Y115D01*
X1437Y115D02*
X1446Y115D01*
X1479Y115D02*
X1487Y115D01*
X1519Y115D02*
X1550Y115D01*
X1602Y115D02*
X1611Y115D01*
X1674Y115D02*
X1684Y115D01*
X837Y114D02*
X842Y114D01*
X863Y114D02*
X889Y114D01*
X905Y114D02*
X910Y114D01*
X945Y114D02*
X955Y114D01*
X957Y114D02*
X967Y114D01*
X1012Y114D02*
X1040Y114D01*
X1044Y114D02*
X1053Y114D01*
X1086Y114D02*
X1120Y114D01*
X1148Y114D02*
X1194Y114D01*
X1293Y114D02*
X1302Y114D01*
X1333Y114D02*
X1342Y114D01*
X1373Y114D02*
X1407Y114D01*
X1437Y114D02*
X1446Y114D01*
X1479Y114D02*
X1488Y114D01*
X1518Y114D02*
X1551Y114D01*
X1602Y114D02*
X1611Y114D01*
X1674Y114D02*
X1684Y114D01*
X836Y113D02*
X842Y113D01*
X862Y113D02*
X889Y113D01*
X905Y113D02*
X911Y113D01*
X945Y113D02*
X955Y113D01*
X958Y113D02*
X967Y113D01*
X1011Y113D02*
X1041Y113D01*
X1044Y113D02*
X1053Y113D01*
X1086Y113D02*
X1120Y113D01*
X1148Y113D02*
X1195Y113D01*
X1293Y113D02*
X1302Y113D01*
X1333Y113D02*
X1342Y113D01*
X1372Y113D02*
X1408Y113D01*
X1437Y113D02*
X1446Y113D01*
X1478Y113D02*
X1488Y113D01*
X1517Y113D02*
X1552Y113D01*
X1602Y113D02*
X1611Y113D01*
X1674Y113D02*
X1684Y113D01*
X836Y112D02*
X841Y112D01*
X860Y112D02*
X889Y112D01*
X906Y112D02*
X911Y112D01*
X945Y112D02*
X954Y112D01*
X958Y112D02*
X968Y112D01*
X1010Y112D02*
X1053Y112D01*
X1087Y112D02*
X1121Y112D01*
X1148Y112D02*
X1195Y112D01*
X1293Y112D02*
X1302Y112D01*
X1333Y112D02*
X1342Y112D01*
X1371Y112D02*
X1409Y112D01*
X1437Y112D02*
X1446Y112D01*
X1478Y112D02*
X1488Y112D01*
X1516Y112D02*
X1554Y112D01*
X1602Y112D02*
X1611Y112D01*
X1674Y112D02*
X1684Y112D01*
X835Y111D02*
X841Y111D01*
X859Y111D02*
X889Y111D01*
X907Y111D02*
X912Y111D01*
X944Y111D02*
X954Y111D01*
X958Y111D02*
X968Y111D01*
X1008Y111D02*
X1053Y111D01*
X1087Y111D02*
X1122Y111D01*
X1148Y111D02*
X1196Y111D01*
X1293Y111D02*
X1302Y111D01*
X1333Y111D02*
X1342Y111D01*
X1370Y111D02*
X1410Y111D01*
X1437Y111D02*
X1446Y111D01*
X1478Y111D02*
X1488Y111D01*
X1514Y111D02*
X1554Y111D01*
X1602Y111D02*
X1611Y111D01*
X1674Y111D02*
X1684Y111D01*
X835Y110D02*
X840Y110D01*
X859Y110D02*
X871Y110D01*
X880Y110D02*
X889Y110D01*
X907Y110D02*
X912Y110D01*
X944Y110D02*
X954Y110D01*
X959Y110D02*
X968Y110D01*
X1008Y110D02*
X1053Y110D01*
X1088Y110D02*
X1122Y110D01*
X1148Y110D02*
X1196Y110D01*
X1293Y110D02*
X1302Y110D01*
X1333Y110D02*
X1342Y110D01*
X1369Y110D02*
X1411Y110D01*
X1437Y110D02*
X1446Y110D01*
X1478Y110D02*
X1487Y110D01*
X1514Y110D02*
X1555Y110D01*
X1602Y110D02*
X1611Y110D01*
X1674Y110D02*
X1684Y110D01*
X835Y109D02*
X840Y109D01*
X858Y109D02*
X869Y109D01*
X883Y109D02*
X889Y109D01*
X908Y109D02*
X913Y109D01*
X944Y109D02*
X953Y109D01*
X959Y109D02*
X968Y109D01*
X1007Y109D02*
X1053Y109D01*
X1089Y109D02*
X1123Y109D01*
X1148Y109D02*
X1196Y109D01*
X1293Y109D02*
X1302Y109D01*
X1333Y109D02*
X1342Y109D01*
X1368Y109D02*
X1412Y109D01*
X1437Y109D02*
X1446Y109D01*
X1478Y109D02*
X1487Y109D01*
X1513Y109D02*
X1556Y109D01*
X1602Y109D02*
X1611Y109D01*
X1674Y109D02*
X1684Y109D01*
X834Y108D02*
X839Y108D01*
X857Y108D02*
X867Y108D01*
X885Y108D02*
X889Y108D01*
X908Y108D02*
X913Y108D01*
X944Y108D02*
X953Y108D01*
X959Y108D02*
X969Y108D01*
X1006Y108D02*
X1019Y108D01*
X1032Y108D02*
X1053Y108D01*
X1112Y108D02*
X1123Y108D01*
X1148Y108D02*
X1164Y108D01*
X1168Y108D02*
X1184Y108D01*
X1187Y108D02*
X1197Y108D01*
X1293Y108D02*
X1302Y108D01*
X1333Y108D02*
X1342Y108D01*
X1368Y108D02*
X1381Y108D01*
X1399Y108D02*
X1412Y108D01*
X1437Y108D02*
X1446Y108D01*
X1478Y108D02*
X1487Y108D01*
X1512Y108D02*
X1525Y108D01*
X1543Y108D02*
X1557Y108D01*
X1602Y108D02*
X1611Y108D01*
X1674Y108D02*
X1684Y108D01*
X834Y107D02*
X839Y107D01*
X856Y107D02*
X866Y107D01*
X887Y107D02*
X889Y107D01*
X908Y107D02*
X913Y107D01*
X943Y107D02*
X953Y107D01*
X959Y107D02*
X969Y107D01*
X1005Y107D02*
X1018Y107D01*
X1034Y107D02*
X1053Y107D01*
X1113Y107D02*
X1123Y107D01*
X1148Y107D02*
X1163Y107D01*
X1168Y107D02*
X1183Y107D01*
X1188Y107D02*
X1197Y107D01*
X1293Y107D02*
X1302Y107D01*
X1333Y107D02*
X1342Y107D01*
X1367Y107D02*
X1379Y107D01*
X1401Y107D02*
X1413Y107D01*
X1437Y107D02*
X1446Y107D01*
X1478Y107D02*
X1487Y107D01*
X1512Y107D02*
X1524Y107D01*
X1545Y107D02*
X1557Y107D01*
X1602Y107D02*
X1611Y107D01*
X1674Y107D02*
X1684Y107D01*
X834Y106D02*
X839Y106D01*
X856Y106D02*
X865Y106D01*
X888Y106D02*
X889Y106D01*
X909Y106D02*
X914Y106D01*
X943Y106D02*
X952Y106D01*
X960Y106D02*
X969Y106D01*
X1005Y106D02*
X1017Y106D01*
X1035Y106D02*
X1053Y106D01*
X1114Y106D02*
X1124Y106D01*
X1148Y106D02*
X1162Y106D01*
X1168Y106D02*
X1181Y106D01*
X1188Y106D02*
X1197Y106D01*
X1293Y106D02*
X1303Y106D01*
X1333Y106D02*
X1342Y106D01*
X1367Y106D02*
X1378Y106D01*
X1402Y106D02*
X1413Y106D01*
X1437Y106D02*
X1446Y106D01*
X1478Y106D02*
X1487Y106D01*
X1511Y106D02*
X1523Y106D01*
X1547Y106D02*
X1558Y106D01*
X1602Y106D02*
X1611Y106D01*
X1674Y106D02*
X1684Y106D01*
X833Y105D02*
X838Y105D01*
X856Y105D02*
X864Y105D01*
X909Y105D02*
X914Y105D01*
X943Y105D02*
X952Y105D01*
X960Y105D02*
X970Y105D01*
X1005Y105D02*
X1016Y105D01*
X1036Y105D02*
X1053Y105D01*
X1114Y105D02*
X1124Y105D01*
X1148Y105D02*
X1160Y105D01*
X1168Y105D02*
X1180Y105D01*
X1188Y105D02*
X1197Y105D01*
X1293Y105D02*
X1342Y105D01*
X1366Y105D02*
X1377Y105D01*
X1403Y105D02*
X1414Y105D01*
X1437Y105D02*
X1446Y105D01*
X1478Y105D02*
X1487Y105D01*
X1511Y105D02*
X1522Y105D01*
X1548Y105D02*
X1558Y105D01*
X1602Y105D02*
X1611Y105D01*
X1674Y105D02*
X1684Y105D01*
X833Y104D02*
X838Y104D01*
X855Y104D02*
X864Y104D01*
X909Y104D02*
X914Y104D01*
X942Y104D02*
X952Y104D01*
X960Y104D02*
X970Y104D01*
X1004Y104D02*
X1015Y104D01*
X1037Y104D02*
X1053Y104D01*
X1115Y104D02*
X1124Y104D01*
X1148Y104D02*
X1159Y104D01*
X1168Y104D02*
X1179Y104D01*
X1188Y104D02*
X1197Y104D01*
X1293Y104D02*
X1342Y104D01*
X1366Y104D02*
X1376Y104D01*
X1404Y104D02*
X1414Y104D01*
X1437Y104D02*
X1446Y104D01*
X1478Y104D02*
X1487Y104D01*
X1511Y104D02*
X1521Y104D01*
X1548Y104D02*
X1559Y104D01*
X1602Y104D02*
X1611Y104D01*
X1674Y104D02*
X1684Y104D01*
X833Y103D02*
X838Y103D01*
X855Y103D02*
X863Y103D01*
X910Y103D02*
X914Y103D01*
X942Y103D02*
X952Y103D01*
X961Y103D02*
X970Y103D01*
X1004Y103D02*
X1014Y103D01*
X1038Y103D02*
X1053Y103D01*
X1115Y103D02*
X1124Y103D01*
X1148Y103D02*
X1158Y103D01*
X1168Y103D02*
X1178Y103D01*
X1188Y103D02*
X1197Y103D01*
X1293Y103D02*
X1342Y103D01*
X1366Y103D02*
X1375Y103D01*
X1405Y103D02*
X1414Y103D01*
X1437Y103D02*
X1446Y103D01*
X1478Y103D02*
X1487Y103D01*
X1510Y103D02*
X1520Y103D01*
X1549Y103D02*
X1559Y103D01*
X1602Y103D02*
X1611Y103D01*
X1674Y103D02*
X1684Y103D01*
X833Y102D02*
X837Y102D01*
X855Y102D02*
X863Y102D01*
X910Y102D02*
X915Y102D01*
X942Y102D02*
X951Y102D01*
X961Y102D02*
X970Y102D01*
X1004Y102D02*
X1013Y102D01*
X1040Y102D02*
X1053Y102D01*
X1115Y102D02*
X1124Y102D01*
X1148Y102D02*
X1157Y102D01*
X1168Y102D02*
X1178Y102D01*
X1188Y102D02*
X1197Y102D01*
X1293Y102D02*
X1342Y102D01*
X1366Y102D02*
X1375Y102D01*
X1405Y102D02*
X1414Y102D01*
X1437Y102D02*
X1446Y102D01*
X1478Y102D02*
X1487Y102D01*
X1510Y102D02*
X1519Y102D01*
X1550Y102D02*
X1559Y102D01*
X1602Y102D02*
X1611Y102D01*
X1674Y102D02*
X1684Y102D01*
X832Y101D02*
X837Y101D01*
X854Y101D02*
X862Y101D01*
X910Y101D02*
X915Y101D01*
X941Y101D02*
X951Y101D01*
X961Y101D02*
X971Y101D01*
X1004Y101D02*
X1013Y101D01*
X1041Y101D02*
X1053Y101D01*
X1115Y101D02*
X1124Y101D01*
X1148Y101D02*
X1157Y101D01*
X1168Y101D02*
X1178Y101D01*
X1188Y101D02*
X1197Y101D01*
X1293Y101D02*
X1342Y101D01*
X1366Y101D02*
X1375Y101D01*
X1405Y101D02*
X1414Y101D01*
X1437Y101D02*
X1446Y101D01*
X1460Y101D02*
X1464Y101D01*
X1478Y101D02*
X1487Y101D01*
X1510Y101D02*
X1519Y101D01*
X1550Y101D02*
X1559Y101D01*
X1602Y101D02*
X1611Y101D01*
X1674Y101D02*
X1684Y101D01*
X832Y100D02*
X837Y100D01*
X854Y100D02*
X862Y100D01*
X910Y100D02*
X915Y100D01*
X941Y100D02*
X951Y100D01*
X962Y100D02*
X971Y100D01*
X1004Y100D02*
X1013Y100D01*
X1042Y100D02*
X1053Y100D01*
X1115Y100D02*
X1124Y100D01*
X1148Y100D02*
X1157Y100D01*
X1168Y100D02*
X1178Y100D01*
X1188Y100D02*
X1197Y100D01*
X1293Y100D02*
X1342Y100D01*
X1366Y100D02*
X1375Y100D01*
X1405Y100D02*
X1414Y100D01*
X1437Y100D02*
X1446Y100D01*
X1459Y100D02*
X1465Y100D01*
X1478Y100D02*
X1487Y100D01*
X1510Y100D02*
X1519Y100D01*
X1550Y100D02*
X1559Y100D01*
X1602Y100D02*
X1611Y100D01*
X1674Y100D02*
X1684Y100D01*
X832Y99D02*
X837Y99D01*
X854Y99D02*
X862Y99D01*
X910Y99D02*
X915Y99D01*
X941Y99D02*
X950Y99D01*
X962Y99D02*
X971Y99D01*
X1004Y99D02*
X1013Y99D01*
X1043Y99D02*
X1053Y99D01*
X1115Y99D02*
X1124Y99D01*
X1148Y99D02*
X1157Y99D01*
X1168Y99D02*
X1178Y99D01*
X1188Y99D02*
X1197Y99D01*
X1293Y99D02*
X1342Y99D01*
X1366Y99D02*
X1375Y99D01*
X1405Y99D02*
X1414Y99D01*
X1437Y99D02*
X1446Y99D01*
X1458Y99D02*
X1466Y99D01*
X1478Y99D02*
X1487Y99D01*
X1510Y99D02*
X1519Y99D01*
X1550Y99D02*
X1559Y99D01*
X1602Y99D02*
X1611Y99D01*
X1674Y99D02*
X1684Y99D01*
X832Y98D02*
X837Y98D01*
X854Y98D02*
X862Y98D01*
X910Y98D02*
X915Y98D01*
X941Y98D02*
X950Y98D01*
X962Y98D02*
X972Y98D01*
X1004Y98D02*
X1013Y98D01*
X1043Y98D02*
X1053Y98D01*
X1115Y98D02*
X1124Y98D01*
X1148Y98D02*
X1157Y98D01*
X1168Y98D02*
X1178Y98D01*
X1188Y98D02*
X1197Y98D01*
X1293Y98D02*
X1342Y98D01*
X1366Y98D02*
X1375Y98D01*
X1405Y98D02*
X1414Y98D01*
X1437Y98D02*
X1446Y98D01*
X1458Y98D02*
X1466Y98D01*
X1478Y98D02*
X1487Y98D01*
X1510Y98D02*
X1519Y98D01*
X1550Y98D02*
X1559Y98D01*
X1602Y98D02*
X1611Y98D01*
X1674Y98D02*
X1684Y98D01*
X832Y97D02*
X837Y97D01*
X854Y97D02*
X862Y97D01*
X911Y97D02*
X915Y97D01*
X940Y97D02*
X950Y97D01*
X962Y97D02*
X972Y97D01*
X1004Y97D02*
X1013Y97D01*
X1044Y97D02*
X1053Y97D01*
X1088Y97D02*
X1113Y97D01*
X1115Y97D02*
X1124Y97D01*
X1148Y97D02*
X1157Y97D01*
X1168Y97D02*
X1178Y97D01*
X1188Y97D02*
X1197Y97D01*
X1293Y97D02*
X1342Y97D01*
X1366Y97D02*
X1375Y97D01*
X1405Y97D02*
X1414Y97D01*
X1437Y97D02*
X1446Y97D01*
X1458Y97D02*
X1467Y97D01*
X1478Y97D02*
X1487Y97D01*
X1510Y97D02*
X1519Y97D01*
X1550Y97D02*
X1559Y97D01*
X1602Y97D02*
X1611Y97D01*
X1674Y97D02*
X1684Y97D01*
X832Y96D02*
X837Y96D01*
X854Y96D02*
X862Y96D01*
X911Y96D02*
X915Y96D01*
X940Y96D02*
X950Y96D01*
X963Y96D02*
X972Y96D01*
X1004Y96D02*
X1013Y96D01*
X1044Y96D02*
X1053Y96D01*
X1085Y96D02*
X1124Y96D01*
X1148Y96D02*
X1157Y96D01*
X1168Y96D02*
X1178Y96D01*
X1188Y96D02*
X1197Y96D01*
X1293Y96D02*
X1342Y96D01*
X1366Y96D02*
X1375Y96D01*
X1405Y96D02*
X1414Y96D01*
X1437Y96D02*
X1446Y96D01*
X1458Y96D02*
X1467Y96D01*
X1478Y96D02*
X1487Y96D01*
X1510Y96D02*
X1519Y96D01*
X1550Y96D02*
X1559Y96D01*
X1602Y96D02*
X1611Y96D01*
X1674Y96D02*
X1684Y96D01*
X832Y95D02*
X837Y95D01*
X854Y95D02*
X862Y95D01*
X911Y95D02*
X915Y95D01*
X940Y95D02*
X949Y95D01*
X963Y95D02*
X973Y95D01*
X1004Y95D02*
X1013Y95D01*
X1044Y95D02*
X1053Y95D01*
X1083Y95D02*
X1124Y95D01*
X1148Y95D02*
X1157Y95D01*
X1168Y95D02*
X1178Y95D01*
X1188Y95D02*
X1197Y95D01*
X1293Y95D02*
X1302Y95D01*
X1333Y95D02*
X1342Y95D01*
X1366Y95D02*
X1375Y95D01*
X1405Y95D02*
X1414Y95D01*
X1437Y95D02*
X1446Y95D01*
X1458Y95D02*
X1467Y95D01*
X1478Y95D02*
X1487Y95D01*
X1510Y95D02*
X1519Y95D01*
X1550Y95D02*
X1559Y95D01*
X1602Y95D02*
X1611Y95D01*
X1674Y95D02*
X1684Y95D01*
X832Y94D02*
X837Y94D01*
X854Y94D02*
X862Y94D01*
X911Y94D02*
X915Y94D01*
X939Y94D02*
X949Y94D01*
X963Y94D02*
X973Y94D01*
X1004Y94D02*
X1013Y94D01*
X1044Y94D02*
X1053Y94D01*
X1082Y94D02*
X1124Y94D01*
X1148Y94D02*
X1157Y94D01*
X1168Y94D02*
X1178Y94D01*
X1188Y94D02*
X1197Y94D01*
X1293Y94D02*
X1302Y94D01*
X1333Y94D02*
X1342Y94D01*
X1366Y94D02*
X1375Y94D01*
X1405Y94D02*
X1414Y94D01*
X1437Y94D02*
X1446Y94D01*
X1458Y94D02*
X1467Y94D01*
X1478Y94D02*
X1487Y94D01*
X1510Y94D02*
X1519Y94D01*
X1550Y94D02*
X1559Y94D01*
X1602Y94D02*
X1611Y94D01*
X1674Y94D02*
X1684Y94D01*
X832Y93D02*
X837Y93D01*
X854Y93D02*
X862Y93D01*
X911Y93D02*
X915Y93D01*
X939Y93D02*
X949Y93D01*
X964Y93D02*
X973Y93D01*
X1004Y93D02*
X1013Y93D01*
X1044Y93D02*
X1053Y93D01*
X1081Y93D02*
X1124Y93D01*
X1148Y93D02*
X1157Y93D01*
X1168Y93D02*
X1178Y93D01*
X1188Y93D02*
X1197Y93D01*
X1293Y93D02*
X1302Y93D01*
X1333Y93D02*
X1342Y93D01*
X1366Y93D02*
X1375Y93D01*
X1405Y93D02*
X1414Y93D01*
X1437Y93D02*
X1447Y93D01*
X1458Y93D02*
X1467Y93D01*
X1478Y93D02*
X1487Y93D01*
X1510Y93D02*
X1559Y93D01*
X1602Y93D02*
X1611Y93D01*
X1674Y93D02*
X1684Y93D01*
X832Y92D02*
X837Y92D01*
X854Y92D02*
X862Y92D01*
X911Y92D02*
X915Y92D01*
X939Y92D02*
X948Y92D01*
X964Y92D02*
X973Y92D01*
X1004Y92D02*
X1013Y92D01*
X1044Y92D02*
X1053Y92D01*
X1080Y92D02*
X1124Y92D01*
X1148Y92D02*
X1157Y92D01*
X1168Y92D02*
X1178Y92D01*
X1188Y92D02*
X1197Y92D01*
X1293Y92D02*
X1302Y92D01*
X1333Y92D02*
X1342Y92D01*
X1366Y92D02*
X1375Y92D01*
X1405Y92D02*
X1414Y92D01*
X1437Y92D02*
X1447Y92D01*
X1458Y92D02*
X1467Y92D01*
X1478Y92D02*
X1487Y92D01*
X1510Y92D02*
X1559Y92D01*
X1602Y92D02*
X1611Y92D01*
X1674Y92D02*
X1684Y92D01*
X832Y91D02*
X837Y91D01*
X854Y91D02*
X862Y91D01*
X911Y91D02*
X915Y91D01*
X939Y91D02*
X948Y91D01*
X964Y91D02*
X974Y91D01*
X1004Y91D02*
X1013Y91D01*
X1044Y91D02*
X1053Y91D01*
X1079Y91D02*
X1124Y91D01*
X1148Y91D02*
X1157Y91D01*
X1168Y91D02*
X1178Y91D01*
X1188Y91D02*
X1197Y91D01*
X1293Y91D02*
X1302Y91D01*
X1333Y91D02*
X1342Y91D01*
X1366Y91D02*
X1375Y91D01*
X1405Y91D02*
X1414Y91D01*
X1437Y91D02*
X1447Y91D01*
X1458Y91D02*
X1467Y91D01*
X1478Y91D02*
X1487Y91D01*
X1510Y91D02*
X1559Y91D01*
X1602Y91D02*
X1611Y91D01*
X1674Y91D02*
X1684Y91D01*
X832Y90D02*
X837Y90D01*
X854Y90D02*
X862Y90D01*
X910Y90D02*
X915Y90D01*
X938Y90D02*
X948Y90D01*
X964Y90D02*
X974Y90D01*
X1004Y90D02*
X1013Y90D01*
X1044Y90D02*
X1053Y90D01*
X1078Y90D02*
X1124Y90D01*
X1148Y90D02*
X1157Y90D01*
X1168Y90D02*
X1178Y90D01*
X1188Y90D02*
X1197Y90D01*
X1293Y90D02*
X1302Y90D01*
X1333Y90D02*
X1342Y90D01*
X1366Y90D02*
X1375Y90D01*
X1405Y90D02*
X1414Y90D01*
X1438Y90D02*
X1447Y90D01*
X1458Y90D02*
X1467Y90D01*
X1478Y90D02*
X1487Y90D01*
X1510Y90D02*
X1559Y90D01*
X1602Y90D02*
X1611Y90D01*
X1674Y90D02*
X1684Y90D01*
X832Y89D02*
X837Y89D01*
X854Y89D02*
X862Y89D01*
X910Y89D02*
X915Y89D01*
X938Y89D02*
X948Y89D01*
X964Y89D02*
X974Y89D01*
X1004Y89D02*
X1013Y89D01*
X1044Y89D02*
X1053Y89D01*
X1078Y89D02*
X1124Y89D01*
X1148Y89D02*
X1157Y89D01*
X1168Y89D02*
X1178Y89D01*
X1188Y89D02*
X1197Y89D01*
X1293Y89D02*
X1302Y89D01*
X1333Y89D02*
X1342Y89D01*
X1366Y89D02*
X1375Y89D01*
X1405Y89D02*
X1414Y89D01*
X1438Y89D02*
X1447Y89D01*
X1458Y89D02*
X1467Y89D01*
X1478Y89D02*
X1487Y89D01*
X1510Y89D02*
X1559Y89D01*
X1602Y89D02*
X1611Y89D01*
X1674Y89D02*
X1684Y89D01*
X832Y88D02*
X837Y88D01*
X854Y88D02*
X862Y88D01*
X910Y88D02*
X915Y88D01*
X938Y88D02*
X975Y88D01*
X1004Y88D02*
X1013Y88D01*
X1044Y88D02*
X1053Y88D01*
X1077Y88D02*
X1124Y88D01*
X1148Y88D02*
X1157Y88D01*
X1168Y88D02*
X1178Y88D01*
X1188Y88D02*
X1197Y88D01*
X1293Y88D02*
X1302Y88D01*
X1333Y88D02*
X1342Y88D01*
X1366Y88D02*
X1375Y88D01*
X1405Y88D02*
X1414Y88D01*
X1438Y88D02*
X1447Y88D01*
X1458Y88D02*
X1467Y88D01*
X1478Y88D02*
X1487Y88D01*
X1510Y88D02*
X1559Y88D01*
X1602Y88D02*
X1611Y88D01*
X1674Y88D02*
X1684Y88D01*
X832Y87D02*
X837Y87D01*
X854Y87D02*
X863Y87D01*
X910Y87D02*
X915Y87D01*
X937Y87D02*
X975Y87D01*
X1004Y87D02*
X1013Y87D01*
X1044Y87D02*
X1053Y87D01*
X1077Y87D02*
X1089Y87D01*
X1112Y87D02*
X1124Y87D01*
X1148Y87D02*
X1157Y87D01*
X1168Y87D02*
X1178Y87D01*
X1188Y87D02*
X1197Y87D01*
X1293Y87D02*
X1302Y87D01*
X1333Y87D02*
X1342Y87D01*
X1366Y87D02*
X1375Y87D01*
X1405Y87D02*
X1414Y87D01*
X1438Y87D02*
X1447Y87D01*
X1458Y87D02*
X1467Y87D01*
X1478Y87D02*
X1487Y87D01*
X1510Y87D02*
X1559Y87D01*
X1602Y87D02*
X1611Y87D01*
X1674Y87D02*
X1684Y87D01*
X833Y86D02*
X837Y86D01*
X855Y86D02*
X863Y86D01*
X910Y86D02*
X915Y86D01*
X937Y86D02*
X975Y86D01*
X1004Y86D02*
X1013Y86D01*
X1044Y86D02*
X1053Y86D01*
X1077Y86D02*
X1087Y86D01*
X1114Y86D02*
X1124Y86D01*
X1148Y86D02*
X1157Y86D01*
X1168Y86D02*
X1178Y86D01*
X1188Y86D02*
X1197Y86D01*
X1293Y86D02*
X1302Y86D01*
X1333Y86D02*
X1342Y86D01*
X1366Y86D02*
X1375Y86D01*
X1405Y86D02*
X1414Y86D01*
X1438Y86D02*
X1447Y86D01*
X1458Y86D02*
X1467Y86D01*
X1478Y86D02*
X1487Y86D01*
X1510Y86D02*
X1558Y86D01*
X1602Y86D02*
X1611Y86D01*
X1674Y86D02*
X1684Y86D01*
X833Y85D02*
X838Y85D01*
X855Y85D02*
X863Y85D01*
X910Y85D02*
X914Y85D01*
X937Y85D02*
X975Y85D01*
X1004Y85D02*
X1013Y85D01*
X1044Y85D02*
X1053Y85D01*
X1077Y85D02*
X1086Y85D01*
X1115Y85D02*
X1125Y85D01*
X1148Y85D02*
X1157Y85D01*
X1168Y85D02*
X1178Y85D01*
X1188Y85D02*
X1197Y85D01*
X1293Y85D02*
X1302Y85D01*
X1333Y85D02*
X1342Y85D01*
X1366Y85D02*
X1375Y85D01*
X1405Y85D02*
X1414Y85D01*
X1438Y85D02*
X1447Y85D01*
X1457Y85D02*
X1467Y85D01*
X1478Y85D02*
X1487Y85D01*
X1510Y85D02*
X1558Y85D01*
X1602Y85D02*
X1611Y85D01*
X1674Y85D02*
X1684Y85D01*
X833Y84D02*
X838Y84D01*
X855Y84D02*
X864Y84D01*
X909Y84D02*
X914Y84D01*
X936Y84D02*
X976Y84D01*
X1004Y84D02*
X1013Y84D01*
X1044Y84D02*
X1053Y84D01*
X1077Y84D02*
X1086Y84D01*
X1115Y84D02*
X1125Y84D01*
X1148Y84D02*
X1157Y84D01*
X1168Y84D02*
X1178Y84D01*
X1188Y84D02*
X1198Y84D01*
X1293Y84D02*
X1302Y84D01*
X1333Y84D02*
X1342Y84D01*
X1366Y84D02*
X1375Y84D01*
X1405Y84D02*
X1414Y84D01*
X1438Y84D02*
X1447Y84D01*
X1457Y84D02*
X1467Y84D01*
X1477Y84D02*
X1487Y84D01*
X1510Y84D02*
X1557Y84D01*
X1602Y84D02*
X1611Y84D01*
X1674Y84D02*
X1684Y84D01*
X833Y83D02*
X838Y83D01*
X856Y83D02*
X864Y83D01*
X909Y83D02*
X914Y83D01*
X936Y83D02*
X976Y83D01*
X1004Y83D02*
X1013Y83D01*
X1044Y83D02*
X1053Y83D01*
X1076Y83D02*
X1086Y83D01*
X1115Y83D02*
X1125Y83D01*
X1148Y83D02*
X1157Y83D01*
X1168Y83D02*
X1178Y83D01*
X1188Y83D02*
X1198Y83D01*
X1293Y83D02*
X1302Y83D01*
X1333Y83D02*
X1342Y83D01*
X1366Y83D02*
X1375Y83D01*
X1405Y83D02*
X1414Y83D01*
X1438Y83D02*
X1447Y83D01*
X1456Y83D02*
X1468Y83D01*
X1477Y83D02*
X1487Y83D01*
X1510Y83D02*
X1520Y83D01*
X1602Y83D02*
X1611Y83D01*
X1674Y83D02*
X1684Y83D01*
X833Y82D02*
X838Y82D01*
X856Y82D02*
X865Y82D01*
X888Y82D02*
X889Y82D01*
X909Y82D02*
X914Y82D01*
X936Y82D02*
X976Y82D01*
X1004Y82D02*
X1013Y82D01*
X1043Y82D02*
X1053Y82D01*
X1076Y82D02*
X1085Y82D01*
X1115Y82D02*
X1125Y82D01*
X1148Y82D02*
X1157Y82D01*
X1168Y82D02*
X1178Y82D01*
X1189Y82D02*
X1198Y82D01*
X1293Y82D02*
X1302Y82D01*
X1333Y82D02*
X1342Y82D01*
X1366Y82D02*
X1375Y82D01*
X1405Y82D02*
X1414Y82D01*
X1438Y82D02*
X1448Y82D01*
X1456Y82D02*
X1469Y82D01*
X1477Y82D02*
X1486Y82D01*
X1510Y82D02*
X1519Y82D01*
X1602Y82D02*
X1611Y82D01*
X1674Y82D02*
X1684Y82D01*
X834Y81D02*
X839Y81D01*
X856Y81D02*
X866Y81D01*
X886Y81D02*
X889Y81D01*
X908Y81D02*
X913Y81D01*
X936Y81D02*
X977Y81D01*
X1004Y81D02*
X1013Y81D01*
X1042Y81D02*
X1053Y81D01*
X1076Y81D02*
X1085Y81D01*
X1115Y81D02*
X1125Y81D01*
X1148Y81D02*
X1157Y81D01*
X1168Y81D02*
X1178Y81D01*
X1189Y81D02*
X1198Y81D01*
X1293Y81D02*
X1302Y81D01*
X1333Y81D02*
X1342Y81D01*
X1366Y81D02*
X1375Y81D01*
X1405Y81D02*
X1414Y81D01*
X1438Y81D02*
X1448Y81D01*
X1455Y81D02*
X1469Y81D01*
X1476Y81D02*
X1486Y81D01*
X1510Y81D02*
X1519Y81D01*
X1602Y81D02*
X1611Y81D01*
X1674Y81D02*
X1684Y81D01*
X834Y80D02*
X839Y80D01*
X857Y80D02*
X867Y80D01*
X884Y80D02*
X889Y80D01*
X908Y80D02*
X913Y80D01*
X935Y80D02*
X977Y80D01*
X1004Y80D02*
X1013Y80D01*
X1041Y80D02*
X1053Y80D01*
X1076Y80D02*
X1085Y80D01*
X1115Y80D02*
X1125Y80D01*
X1148Y80D02*
X1157Y80D01*
X1168Y80D02*
X1178Y80D01*
X1189Y80D02*
X1198Y80D01*
X1293Y80D02*
X1302Y80D01*
X1333Y80D02*
X1342Y80D01*
X1366Y80D02*
X1375Y80D01*
X1405Y80D02*
X1414Y80D01*
X1439Y80D02*
X1448Y80D01*
X1455Y80D02*
X1470Y80D01*
X1476Y80D02*
X1486Y80D01*
X1510Y80D02*
X1519Y80D01*
X1602Y80D02*
X1611Y80D01*
X1674Y80D02*
X1684Y80D01*
X834Y79D02*
X840Y79D01*
X858Y79D02*
X869Y79D01*
X882Y79D02*
X889Y79D01*
X908Y79D02*
X913Y79D01*
X935Y79D02*
X977Y79D01*
X1004Y79D02*
X1013Y79D01*
X1040Y79D02*
X1053Y79D01*
X1076Y79D02*
X1085Y79D01*
X1115Y79D02*
X1125Y79D01*
X1148Y79D02*
X1157Y79D01*
X1168Y79D02*
X1178Y79D01*
X1189Y79D02*
X1198Y79D01*
X1293Y79D02*
X1302Y79D01*
X1333Y79D02*
X1342Y79D01*
X1366Y79D02*
X1375Y79D01*
X1405Y79D02*
X1414Y79D01*
X1439Y79D02*
X1448Y79D01*
X1454Y79D02*
X1470Y79D01*
X1476Y79D02*
X1485Y79D01*
X1510Y79D02*
X1519Y79D01*
X1602Y79D02*
X1611Y79D01*
X1674Y79D02*
X1684Y79D01*
X835Y78D02*
X840Y78D01*
X858Y78D02*
X873Y78D01*
X878Y78D02*
X889Y78D01*
X907Y78D02*
X912Y78D01*
X935Y78D02*
X944Y78D01*
X968Y78D02*
X977Y78D01*
X1004Y78D02*
X1014Y78D01*
X1039Y78D02*
X1053Y78D01*
X1076Y78D02*
X1085Y78D01*
X1115Y78D02*
X1125Y78D01*
X1148Y78D02*
X1157Y78D01*
X1168Y78D02*
X1178Y78D01*
X1189Y78D02*
X1198Y78D01*
X1293Y78D02*
X1302Y78D01*
X1333Y78D02*
X1342Y78D01*
X1366Y78D02*
X1375Y78D01*
X1405Y78D02*
X1414Y78D01*
X1439Y78D02*
X1449Y78D01*
X1453Y78D02*
X1471Y78D01*
X1476Y78D02*
X1485Y78D01*
X1510Y78D02*
X1520Y78D01*
X1602Y78D02*
X1611Y78D01*
X1674Y78D02*
X1684Y78D01*
X835Y77D02*
X840Y77D01*
X859Y77D02*
X889Y77D01*
X907Y77D02*
X912Y77D01*
X934Y77D02*
X944Y77D01*
X968Y77D02*
X978Y77D01*
X1004Y77D02*
X1014Y77D01*
X1038Y77D02*
X1053Y77D01*
X1076Y77D02*
X1085Y77D01*
X1113Y77D02*
X1125Y77D01*
X1148Y77D02*
X1157Y77D01*
X1168Y77D02*
X1178Y77D01*
X1189Y77D02*
X1198Y77D01*
X1293Y77D02*
X1302Y77D01*
X1333Y77D02*
X1342Y77D01*
X1366Y77D02*
X1376Y77D01*
X1404Y77D02*
X1414Y77D01*
X1440Y77D02*
X1449Y77D01*
X1453Y77D02*
X1471Y77D01*
X1475Y77D02*
X1485Y77D01*
X1510Y77D02*
X1520Y77D01*
X1602Y77D02*
X1611Y77D01*
X1674Y77D02*
X1684Y77D01*
X836Y76D02*
X841Y76D01*
X860Y76D02*
X889Y76D01*
X906Y76D02*
X911Y76D01*
X934Y76D02*
X944Y76D01*
X969Y76D02*
X978Y76D01*
X1005Y76D02*
X1015Y76D01*
X1037Y76D02*
X1053Y76D01*
X1076Y76D02*
X1086Y76D01*
X1112Y76D02*
X1125Y76D01*
X1148Y76D02*
X1157Y76D01*
X1168Y76D02*
X1178Y76D01*
X1189Y76D02*
X1198Y76D01*
X1293Y76D02*
X1302Y76D01*
X1333Y76D02*
X1342Y76D01*
X1366Y76D02*
X1376Y76D01*
X1403Y76D02*
X1414Y76D01*
X1440Y76D02*
X1449Y76D01*
X1452Y76D02*
X1472Y76D01*
X1475Y76D02*
X1485Y76D01*
X1511Y76D02*
X1521Y76D01*
X1602Y76D02*
X1611Y76D01*
X1674Y76D02*
X1684Y76D01*
X836Y75D02*
X842Y75D01*
X862Y75D02*
X889Y75D01*
X906Y75D02*
X911Y75D01*
X934Y75D02*
X943Y75D01*
X969Y75D02*
X978Y75D01*
X1005Y75D02*
X1016Y75D01*
X1036Y75D02*
X1053Y75D01*
X1077Y75D02*
X1086Y75D01*
X1110Y75D02*
X1125Y75D01*
X1148Y75D02*
X1157Y75D01*
X1168Y75D02*
X1178Y75D01*
X1189Y75D02*
X1198Y75D01*
X1293Y75D02*
X1302Y75D01*
X1333Y75D02*
X1342Y75D01*
X1366Y75D02*
X1378Y75D01*
X1402Y75D02*
X1414Y75D01*
X1440Y75D02*
X1450Y75D01*
X1452Y75D02*
X1473Y75D01*
X1475Y75D02*
X1484Y75D01*
X1511Y75D02*
X1522Y75D01*
X1602Y75D02*
X1611Y75D01*
X1674Y75D02*
X1684Y75D01*
X837Y74D02*
X842Y74D01*
X863Y74D02*
X888Y74D01*
X905Y74D02*
X910Y74D01*
X934Y74D02*
X943Y74D01*
X969Y74D02*
X979Y74D01*
X1005Y74D02*
X1017Y74D01*
X1034Y74D02*
X1053Y74D01*
X1077Y74D02*
X1086Y74D01*
X1108Y74D02*
X1125Y74D01*
X1148Y74D02*
X1157Y74D01*
X1168Y74D02*
X1178Y74D01*
X1189Y74D02*
X1198Y74D01*
X1293Y74D02*
X1302Y74D01*
X1333Y74D02*
X1342Y74D01*
X1367Y74D02*
X1379Y74D01*
X1401Y74D02*
X1413Y74D01*
X1440Y74D02*
X1484Y74D01*
X1511Y74D02*
X1523Y74D01*
X1602Y74D02*
X1611Y74D01*
X1674Y74D02*
X1684Y74D01*
X837Y73D02*
X843Y73D01*
X865Y73D02*
X886Y73D01*
X904Y73D02*
X910Y73D01*
X933Y73D02*
X943Y73D01*
X969Y73D02*
X979Y73D01*
X1006Y73D02*
X1019Y73D01*
X1033Y73D02*
X1053Y73D01*
X1077Y73D02*
X1087Y73D01*
X1107Y73D02*
X1125Y73D01*
X1148Y73D02*
X1157Y73D01*
X1168Y73D02*
X1178Y73D01*
X1189Y73D02*
X1198Y73D01*
X1293Y73D02*
X1302Y73D01*
X1333Y73D02*
X1342Y73D01*
X1367Y73D02*
X1380Y73D01*
X1400Y73D02*
X1413Y73D01*
X1441Y73D02*
X1461Y73D01*
X1463Y73D02*
X1484Y73D01*
X1512Y73D02*
X1525Y73D01*
X1602Y73D02*
X1611Y73D01*
X1674Y73D02*
X1684Y73D01*
X838Y72D02*
X844Y72D01*
X867Y72D02*
X883Y72D01*
X904Y72D02*
X909Y72D01*
X933Y72D02*
X942Y72D01*
X970Y72D02*
X979Y72D01*
X1006Y72D02*
X1021Y72D01*
X1030Y72D02*
X1053Y72D01*
X1077Y72D02*
X1090Y72D01*
X1105Y72D02*
X1125Y72D01*
X1148Y72D02*
X1157Y72D01*
X1168Y72D02*
X1178Y72D01*
X1189Y72D02*
X1198Y72D01*
X1293Y72D02*
X1302Y72D01*
X1333Y72D02*
X1342Y72D01*
X1368Y72D02*
X1383Y72D01*
X1397Y72D02*
X1412Y72D01*
X1441Y72D02*
X1461Y72D01*
X1464Y72D02*
X1483Y72D01*
X1512Y72D02*
X1528Y72D01*
X1602Y72D02*
X1612Y72D01*
X1674Y72D02*
X1684Y72D01*
X838Y71D02*
X844Y71D01*
X871Y71D02*
X879Y71D01*
X903Y71D02*
X909Y71D01*
X933Y71D02*
X942Y71D01*
X970Y71D02*
X980Y71D01*
X1007Y71D02*
X1053Y71D01*
X1078Y71D02*
X1125Y71D01*
X1148Y71D02*
X1157Y71D01*
X1168Y71D02*
X1178Y71D01*
X1189Y71D02*
X1198Y71D01*
X1293Y71D02*
X1302Y71D01*
X1333Y71D02*
X1342Y71D01*
X1368Y71D02*
X1411Y71D01*
X1441Y71D02*
X1460Y71D01*
X1464Y71D02*
X1483Y71D01*
X1513Y71D02*
X1557Y71D01*
X1590Y71D02*
X1624Y71D01*
X1662Y71D02*
X1696Y71D01*
X839Y70D02*
X845Y70D01*
X902Y70D02*
X908Y70D01*
X932Y70D02*
X942Y70D01*
X970Y70D02*
X980Y70D01*
X1008Y70D02*
X1053Y70D01*
X1078Y70D02*
X1125Y70D01*
X1148Y70D02*
X1157Y70D01*
X1168Y70D02*
X1178Y70D01*
X1189Y70D02*
X1198Y70D01*
X1293Y70D02*
X1302Y70D01*
X1333Y70D02*
X1342Y70D01*
X1369Y70D02*
X1410Y70D01*
X1442Y70D02*
X1459Y70D01*
X1465Y70D02*
X1483Y70D01*
X1514Y70D02*
X1558Y70D01*
X1588Y70D02*
X1625Y70D01*
X1661Y70D02*
X1697Y70D01*
X840Y69D02*
X846Y69D01*
X901Y69D02*
X907Y69D01*
X932Y69D02*
X942Y69D01*
X971Y69D02*
X980Y69D01*
X1009Y69D02*
X1053Y69D01*
X1079Y69D02*
X1125Y69D01*
X1148Y69D02*
X1157Y69D01*
X1168Y69D02*
X1178Y69D01*
X1189Y69D02*
X1198Y69D01*
X1293Y69D02*
X1302Y69D01*
X1333Y69D02*
X1342Y69D01*
X1370Y69D02*
X1409Y69D01*
X1442Y69D02*
X1459Y69D01*
X1466Y69D02*
X1482Y69D01*
X1515Y69D02*
X1558Y69D01*
X1588Y69D02*
X1626Y69D01*
X1660Y69D02*
X1698Y69D01*
X841Y68D02*
X847Y68D01*
X900Y68D02*
X906Y68D01*
X932Y68D02*
X941Y68D01*
X971Y68D02*
X980Y68D01*
X1010Y68D02*
X1042Y68D01*
X1044Y68D02*
X1053Y68D01*
X1079Y68D02*
X1125Y68D01*
X1148Y68D02*
X1157Y68D01*
X1168Y68D02*
X1178Y68D01*
X1189Y68D02*
X1198Y68D01*
X1293Y68D02*
X1302Y68D01*
X1333Y68D02*
X1342Y68D01*
X1371Y68D02*
X1408Y68D01*
X1442Y68D02*
X1458Y68D01*
X1466Y68D02*
X1482Y68D01*
X1516Y68D02*
X1559Y68D01*
X1588Y68D02*
X1626Y68D01*
X1660Y68D02*
X1698Y68D01*
X841Y67D02*
X848Y67D01*
X899Y67D02*
X906Y67D01*
X932Y67D02*
X941Y67D01*
X971Y67D02*
X981Y67D01*
X1011Y67D02*
X1041Y67D01*
X1044Y67D02*
X1053Y67D01*
X1080Y67D02*
X1125Y67D01*
X1148Y67D02*
X1157Y67D01*
X1168Y67D02*
X1178Y67D01*
X1189Y67D02*
X1198Y67D01*
X1293Y67D02*
X1302Y67D01*
X1333Y67D02*
X1342Y67D01*
X1373Y67D02*
X1407Y67D01*
X1442Y67D02*
X1458Y67D01*
X1467Y67D02*
X1482Y67D01*
X1517Y67D02*
X1559Y67D01*
X1587Y67D02*
X1626Y67D01*
X1660Y67D02*
X1698Y67D01*
X842Y66D02*
X849Y66D01*
X898Y66D02*
X905Y66D01*
X932Y66D02*
X941Y66D01*
X972Y66D02*
X980Y66D01*
X1012Y66D02*
X1040Y66D01*
X1044Y66D02*
X1053Y66D01*
X1081Y66D02*
X1114Y66D01*
X1116Y66D02*
X1125Y66D01*
X1148Y66D02*
X1157Y66D01*
X1169Y66D02*
X1177Y66D01*
X1189Y66D02*
X1198Y66D01*
X1293Y66D02*
X1302Y66D01*
X1333Y66D02*
X1342Y66D01*
X1374Y66D02*
X1406Y66D01*
X1443Y66D02*
X1457Y66D01*
X1467Y66D02*
X1482Y66D01*
X1518Y66D02*
X1559Y66D01*
X1587Y66D02*
X1626Y66D01*
X1660Y66D02*
X1698Y66D01*
X843Y65D02*
X850Y65D01*
X897Y65D02*
X904Y65D01*
X932Y65D02*
X940Y65D01*
X972Y65D02*
X980Y65D01*
X1013Y65D02*
X1039Y65D01*
X1044Y65D02*
X1052Y65D01*
X1082Y65D02*
X1112Y65D01*
X1116Y65D02*
X1125Y65D01*
X1148Y65D02*
X1157Y65D01*
X1169Y65D02*
X1177Y65D01*
X1190Y65D02*
X1198Y65D01*
X1294Y65D02*
X1302Y65D01*
X1333Y65D02*
X1342Y65D01*
X1375Y65D02*
X1405Y65D01*
X1443Y65D02*
X1457Y65D01*
X1468Y65D02*
X1481Y65D01*
X1519Y65D02*
X1558Y65D01*
X1588Y65D02*
X1626Y65D01*
X1660Y65D02*
X1698Y65D01*
X844Y64D02*
X852Y64D01*
X896Y64D02*
X903Y64D01*
X933Y64D02*
X940Y64D01*
X972Y64D02*
X980Y64D01*
X1015Y64D02*
X1037Y64D01*
X1045Y64D02*
X1052Y64D01*
X1084Y64D02*
X1110Y64D01*
X1117Y64D02*
X1124Y64D01*
X1149Y64D02*
X1156Y64D01*
X1170Y64D02*
X1177Y64D01*
X1190Y64D02*
X1197Y64D01*
X1294Y64D02*
X1301Y64D01*
X1334Y64D02*
X1341Y64D01*
X1377Y64D02*
X1403Y64D01*
X1444Y64D02*
X1456Y64D01*
X1468Y64D02*
X1481Y64D01*
X1521Y64D02*
X1558Y64D01*
X1588Y64D02*
X1625Y64D01*
X1661Y64D02*
X1697Y64D01*
X845Y63D02*
X853Y63D01*
X894Y63D02*
X902Y63D01*
X934Y63D02*
X939Y63D01*
X973Y63D02*
X979Y63D01*
X1017Y63D02*
X1035Y63D01*
X1046Y63D02*
X1051Y63D01*
X1086Y63D02*
X1108Y63D01*
X1118Y63D02*
X1123Y63D01*
X1150Y63D02*
X1155Y63D01*
X1170Y63D02*
X1176Y63D01*
X1191Y63D02*
X1196Y63D01*
X1295Y63D02*
X1300Y63D01*
X1335Y63D02*
X1340Y63D01*
X1378Y63D02*
X1401Y63D01*
X1445Y63D02*
X1455Y63D01*
X1469Y63D02*
X1480Y63D01*
X1523Y63D02*
X1557Y63D01*
X1589Y63D02*
X1624Y63D01*
X1662Y63D02*
X1696Y63D01*
X846Y62D02*
X855Y62D01*
X893Y62D02*
X901Y62D01*
X936Y62D02*
X937Y62D01*
X976Y62D02*
X976Y62D01*
X1020Y62D02*
X1031Y62D01*
X1048Y62D02*
X1049Y62D01*
X1090Y62D02*
X1106Y62D01*
X1120Y62D02*
X1121Y62D01*
X1152Y62D02*
X1153Y62D01*
X1173Y62D02*
X1173Y62D01*
X1193Y62D02*
X1194Y62D01*
X1298Y62D02*
X1298Y62D01*
X1337Y62D02*
X1338Y62D01*
X1383Y62D02*
X1397Y62D01*
X1447Y62D02*
X1453Y62D01*
X1471Y62D02*
X1477Y62D01*
X1526Y62D02*
X1555Y62D01*
X1592Y62D02*
X1622Y62D01*
X1664Y62D02*
X1694Y62D01*
X848Y61D02*
X856Y61D01*
X891Y61D02*
X900Y61D01*
X849Y60D02*
X858Y60D01*
X889Y60D02*
X898Y60D01*
X850Y59D02*
X861Y59D01*
X886Y59D02*
X897Y59D01*
X852Y58D02*
X864Y58D01*
X883Y58D02*
X895Y58D01*
X853Y57D02*
X873Y57D01*
X875Y57D02*
X894Y57D01*
X855Y56D02*
X892Y56D01*
X857Y55D02*
X890Y55D01*
X860Y54D02*
X887Y54D01*
X863Y53D02*
X884Y53D01*
X868Y52D02*
X879Y52D01*
D02*
G04 End of Silk1*
M02*